#N canvas 0 50 1483 630 16;
#X obj 175 216 pointer;
#X obj 175 83 inlet;
#X obj 174 244 outlet;
#X text 124 59 for append only \, set ptr to struct once;
#X msg 175 188 traverse \$1 \, bang;
#X obj 206 135 symbol;
#X text 216 9 cpx::= "Chris's Pd eXtensions";
#X connect 0 0 2 0;
#X connect 1 0 5 0;
#X connect 4 0 0 0;
#X connect 5 0 4 0;
