#N canvas 0 50 1483 630 16;
#X obj 175 216 pointer;
#X obj 175 83 inlet;
#X obj 174 244 outlet;
#X text 175 50 for append only \, set ptr to struct once;
#X msg 175 173 traverse \$1 \, bang;
#X text 216 9 cpx::= "Chris's Pd eXtensions";
#X obj 175 133 symbol \$1;
#X text 285 130 init symbol to arg1;
#X connect 0 0 2 0;
#X connect 1 0 6 0;
#X connect 4 0 0 0;
#X connect 6 0 4 0;
