#N canvas -9 -9 1845 1028 16;
#X obj 220 133 cos;
#X obj 264 201 *;
#X obj 225 16 inlet;
#X obj 265 134 sin;
#X obj 201 297 -;
#X obj 219 201 *;
#X obj 199 342 outlet;
#X obj 271 343 outlet;
#X obj 431 196 *;
#X obj 373 201 *;
#X obj 273 297 +;
#X obj 367 132 cos;
#X obj 409 132 sin;
#X obj 224 91 t f f b f f b, f 24;
#X obj 225 52 * 3.14159;
#X obj 309 133 f \$1;
#X obj 454 133 f \$2;
#X connect 0 0 5 0;
#X connect 1 0 10 0;
#X connect 2 0 14 0;
#X connect 3 0 1 0;
#X connect 4 0 6 0;
#X connect 5 0 4 0;
#X connect 8 0 4 1;
#X connect 9 0 10 1;
#X connect 10 0 7 0;
#X connect 11 0 9 0;
#X connect 12 0 8 0;
#X connect 13 0 0 0;
#X connect 13 1 3 0;
#X connect 13 2 15 0;
#X connect 13 3 11 0;
#X connect 13 4 12 0;
#X connect 13 5 16 0;
#X connect 14 0 13 0;
#X connect 15 0 5 1;
#X connect 15 0 1 1;
#X connect 16 0 9 1;
#X connect 16 0 8 1;
