#N canvas 0 50 1365 895 16;
#X obj 40 157 list append;
#X obj 74 126 list store;
#X obj 40 96 t b b l;
#N canvas -9 -9 1845 1028 sequence_output 0;
#X obj 60 92 inlet;
#X obj 61 313 outlet;
#X obj 62 286 list store;
#X obj 62 127 t b b l;
#X msg 82 160 0;
#X obj 62 187 until;
#X obj 62 223 f;
#X obj 89 223 + 1;
#X msg 62 260 get \$1 1;
#X connect 0 0 3 0;
#X connect 2 0 1 0;
#X connect 2 1 5 1;
#X connect 3 0 5 0;
#X connect 3 1 4 0;
#X connect 3 2 2 1;
#X connect 4 0 6 1;
#X connect 5 0 6 0;
#X connect 6 0 8 0;
#X connect 6 0 7 0;
#X connect 7 0 6 1;
#X connect 8 0 2 0;
#X restore 40 188 pd sequence_output;
#X msg 40 218 add \$1;
#X obj 40 283 textfile;
#X text 109 217 text-mode;
#X obj 40 52 inlet;
#X obj 289 55 inlet;
#X obj 289 121 symbol;
#X obj 289 199 select clear;
#X msg 289 249 clear;
#X connect 0 0 3 0;
#X connect 1 0 0 1;
#X connect 2 0 0 0;
#X connect 2 1 1 0;
#X connect 2 2 1 1;
#X connect 3 0 4 0;
#X connect 4 0 5 0;
#X connect 7 0 2 0;
#X connect 8 0 9 0;
#X connect 9 0 10 0;
#X connect 10 0 11 0;
#X connect 11 0 5 0;
