#N canvas 0 50 1600 800 16;
#X msg 336 260 next;
#X obj 270 321 pointer;
#X obj 61 14 inlet;
#X obj 270 370 outlet;
#X obj 337 290 pointer;
#X obj 288 230 t b b;
#X text 246 38 this algo is for the get and or set;
#X obj 288 201 until;
#X obj 218 84 unpack s f;
#X msg 115 292 traverse \$1;
#X obj 288 162 int;
#X obj 115 160 symbol;
#X text 393 87 (pointer arithmetics/increment/indexing);
#X obj 61 52 t bang bang list;
#X connect 0 0 4 0;
#X connect 1 0 3 0;
#X connect 2 0 13 0;
#X connect 4 0 1 1;
#X connect 5 0 1 0;
#X connect 5 1 0 0;
#X connect 7 0 5 0;
#X connect 8 0 11 1;
#X connect 8 1 10 1;
#X connect 9 0 4 0;
#X connect 10 0 7 0;
#X connect 11 0 9 0;
#X connect 13 0 10 0;
#X connect 13 1 11 0;
#X connect 13 2 8 0;
