#N canvas -9 -9 1845 1028 16;
#X obj 40 157 list append;
#X obj 74 126 list store;
#X obj 40 96 t b b l;
#N canvas -9 -9 1845 1028 sequence_output 0;
#X obj 60 92 inlet;
#X obj 61 313 outlet;
#X obj 62 286 list store;
#X obj 62 127 t b b l;
#X msg 82 160 0;
#X obj 62 187 until;
#X obj 62 223 f;
#X obj 89 223 + 1;
#X msg 62 260 get \$1 1;
#X connect 0 0 3 0;
#X connect 2 0 1 0;
#X connect 2 1 5 1;
#X connect 3 0 5 0;
#X connect 3 1 4 0;
#X connect 3 2 2 1;
#X connect 4 0 6 1;
#X connect 5 0 6 0;
#X connect 6 0 8 0;
#X connect 6 0 7 0;
#X connect 7 0 6 1;
#X connect 8 0 2 0;
#X restore 40 188 pd sequence_output;
#X obj 39 393 textfile;
#X text 109 217 text-mode;
#X obj 40 52 inlet;
#X obj 239 44 inlet;
#X obj 239 110 symbol;
#X msg 72 321 clear;
#X msg 141 321 click;
#X obj 239 188 select clear preview flush;
#X msg 588 291 write -cr ../data/output_sysex.txt;
#X obj 409 230 t b b;
#X msg 454 320 rewind;
#X obj 409 388 until;
#X text 469 389 read all lines;
#X obj 36 535 outlet;
#X msg 38 292 add \$1;
#X connect 0 0 3 0;
#X connect 1 0 0 1;
#X connect 2 0 0 0;
#X connect 2 1 1 0;
#X connect 2 2 1 1;
#X connect 3 0 18 0;
#X connect 4 0 17 0;
#X connect 4 1 15 1;
#X connect 6 0 2 0;
#X connect 7 0 8 0;
#X connect 8 0 11 0;
#X connect 9 0 4 0;
#X connect 10 0 4 0;
#X connect 11 0 9 0;
#X connect 11 1 10 0;
#X connect 11 2 13 0;
#X connect 13 0 15 0;
#X connect 13 1 14 0;
#X connect 14 0 4 0;
#X connect 15 0 4 0;
#X connect 18 0 4 0;
