#N canvas 115 86 1600 800 16;
#X msg 91 228 next;
#X obj 25 289 pointer;
#X obj 42 14 inlet;
#X obj 25 338 outlet;
#X obj 92 258 pointer;
#X obj 43 198 t b b;
#X text 394 68 this algo is for the get and or set;
#X obj 43 169 until;
#X msg 166 181 traverse \$1;
#X text 393 87 (pointer arithmetics/increment/indexing);
#X obj 166 130 symbol \$1;
#X obj 43 130 int \$2;
#X obj 107 13 inlet;
#X obj 42 52 t bang bang;
#X text 271 128 arg1 = template name \, arg2 = index;
#X connect 0 0 4 0;
#X connect 1 0 3 0;
#X connect 2 0 13 0;
#X connect 4 0 1 1;
#X connect 5 0 1 0;
#X connect 5 1 0 0;
#X connect 7 0 5 0;
#X connect 8 0 4 0;
#X connect 10 0 8 0;
#X connect 11 0 7 0;
#X connect 12 0 11 1;
#X connect 13 0 11 0;
#X connect 13 1 10 0;
