#N canvas -9 -9 1845 1028 16;
#X obj 145 167 / 2;
#X obj 214 167 mod 2;
#X obj 112 240 int;
#X obj 112 8 inlet;
#X obj 112 321 outlet;
#X obj 182 321 outlet;
#X obj 181 239 int;
#X msg 249 203 0;
#X obj 112 289 * \$1;
#X obj 182 289 * \$1;
#X obj 112 103 t b f b f b, f 14;
#X text 468 22 BINARY PROGRESSION COUNTER;
#X text 233 289 argument sets multiplication factor;
#X text 286 201 always reset;
#X text 116 350 2-bit output;
#X obj 112 65 mpdsysex_ci 1 4;
#X obj 260 8 inlet;
#X connect 0 0 2 1;
#X connect 1 0 6 1;
#X connect 2 0 8 0;
#X connect 3 0 15 0;
#X connect 6 0 9 0;
#X connect 7 0 6 1;
#X connect 7 0 2 1;
#X connect 8 0 4 0;
#X connect 9 0 5 0;
#X connect 10 0 2 0;
#X connect 10 1 0 0;
#X connect 10 2 6 0;
#X connect 10 3 1 0;
#X connect 10 4 7 0;
#X connect 15 0 10 0;
#X connect 16 0 15 1;
