#N struct template_pads float type float ch float noteprogcc float
triggermsb float atlsb float padpos float x float y;
#N struct template_padno float x float y float iov_ptype float iov_pchan
float iov_pnpc float iov_ptrig float iov_paftc float iov_pno float
bg float fg;
#N struct template_ccs float x float y float ctlno float vmin float
vmax;
#N struct template_ccs2 float x float y float ctlno float vmin float
vmax;
#N canvas -9 -9 1845 1028 12;
#X obj 42 378 textfile;
#X msg 97 325 rewind;
#X symbolatom 42 419 32 0 0 0 - - -;
#X obj 42 398 unpack s f;
#X floatatom 212 367 5 0 0 0 - - -;
#X obj 42 439 pack s f;
#X msg 42 460 add \$1 \$2;
#X msg 31 325 clear;
#X obj 17 488 textfile;
#X obj 172 299 ctlin;
#X msg 16 257 symbol ./data/livescdir/-MPD-Generic1/UserConfiguration.txt
;
#X msg 98 299 read \$1 cr;
#X msg 16 299 write \$1 cr;
#X msg 98 278 symbol ./data/UserConfigurationSource.txt;
#X obj 185 340 t b f;
#N canvas -1929 104 1920 1028 sequence_list 1;
#X obj 22 348 list append;
#X symbolatom 23 52 12 0 0 2 NAME #0-mpd24_bangall #0-mpd24_pstname
;
#X floatatom 406 53 7 29 30 0 PRESETNO #0-mpd24_bangall #0-mpd24_pstaddr
;
#X floatatom 113 52 5 0 3 2 BANK #0-mpd24_bangall #0-mpd24_pstbank
;
#X floatatom 195 52 5 0 1 2 MMC/CTRL #0-mpd24_bangall #0-mpd24_psttrsp
;
#X obj 41 314 list store;
#X obj 22 289 t b b l;
#N canvas -9 -9 1845 1028 sequence_output 0;
#X obj 60 92 inlet;
#X obj 61 313 outlet;
#X obj 62 286 list store;
#X obj 62 127 t b b l;
#X msg 82 160 0;
#X obj 62 187 until;
#X obj 62 223 f;
#X obj 89 223 + 1;
#X msg 62 260 get \$1 1;
#X connect 0 0 3 0;
#X connect 2 0 1 0;
#X connect 2 1 5 1;
#X connect 3 0 5 0;
#X connect 3 1 4 0;
#X connect 3 2 2 1;
#X connect 4 0 6 1;
#X connect 5 0 6 0;
#X connect 6 0 8 0;
#X connect 6 0 7 0;
#X connect 7 0 6 1;
#X connect 8 0 2 0;
#X restore 22 372 pd sequence_output;
#X obj 296 288 r \$0-mpd24sysex_presetparams;
#X obj 288 265 r \$0-mpd24sysex_boiler;
#X obj 288 415 s \$0-sysexbuffer;
#X obj 22 265 r \$0-sysexbuffer;
#X obj 304 311 r \$0-mpd24sysex_filler;
#X floatatom 154 52 5 0 32 2 CH #0-mpd24_bangall #0-mpd24_ccs_channel
;
#N canvas -9 -9 1845 1028 list_presetparams 0;
#X obj 230 164 list fromsymbol;
#X obj 153 299 list store;
#X obj 210 122 r \$0-mpd24_pstaddr;
#X obj 230 142 r \$0-mpd24_pstname;
#X obj 391 142 r \$0-mpd24_pstbank;
#X obj 411 164 r \$0-mpd24_psttrsp;
#X obj 210 274 pack 1 32 32 32 32 32 32 32 32 0 1;
#X obj 230 222 list prepend 32 32 32 32 32 32 32 32;
#X obj 230 188 t b l;
#X obj 230 244 unpack f f f f f f f f;
#X obj 153 335 s \$0-mpd24sysex_presetparams;
#X obj 153 59 inlet;
#X connect 0 0 8 0;
#X connect 1 0 10 0;
#X connect 2 0 6 0;
#X connect 3 0 0 0;
#X connect 4 0 6 9;
#X connect 5 0 6 10;
#X connect 6 0 1 1;
#X connect 7 0 9 0;
#X connect 8 0 7 0;
#X connect 8 1 7 1;
#X connect 9 0 6 1;
#X connect 9 1 6 2;
#X connect 9 2 6 3;
#X connect 9 3 6 4;
#X connect 9 4 6 5;
#X connect 9 5 6 6;
#X connect 9 6 6 7;
#X connect 9 7 6 8;
#X connect 11 0 1 0;
#X restore 655 183 pd list_presetparams;
#N canvas -1929 104 1920 1028 list_ccs 0;
#X obj 70 9 r \$0-mpd24_ccs_channel;
#X msg 71 35 list \$1 \$1 \$1 \$1 \$1 \$1 \$1 \$1 \$1 \$1 \$1 \$1 \$1
\$1;
#X obj 9 9 inlet;
#X obj 8 495 s \$0-mpd24sysex_ccs;
#X obj 495 34 r \$0-mpd24_ccs_min1;
#X obj 510 55 r \$0-mpd24_ccs_min2;
#X obj 524 76 r \$0-mpd24_ccs_min3;
#X obj 539 97 r \$0-mpd24_ccs_min4;
#X obj 553 118 r \$0-mpd24_ccs_min5;
#X obj 568 139 r \$0-mpd24_ccs_min6;
#X obj 582 160 r \$0-mpd24_ccs_min7;
#X obj 596 181 r \$0-mpd24_ccs_min8;
#X obj 611 202 r \$0-mpd24_ccs_min9;
#X obj 626 223 r \$0-mpd24_ccs_min10;
#X obj 640 244 r \$0-mpd24_ccs_min11;
#X obj 655 265 r \$0-mpd24_ccs_min12;
#X obj 669 286 r \$0-mpd24_ccs_min13;
#X obj 684 307 r \$0-mpd24_ccs_min14;
#X obj 495 333 pack 0 0 0 0 0 0 0 0 0 0 0 0 0 0;
#X obj 817 307 pack 0 0 0 0 0 0 0 0 0 0 0 0 0 0;
#X obj 817 8 r \$0-mpd24_ccs_max1;
#X obj 832 29 r \$0-mpd24_ccs_max2;
#X obj 846 50 r \$0-mpd24_ccs_max3;
#X obj 861 71 r \$0-mpd24_ccs_max4;
#X obj 875 92 r \$0-mpd24_ccs_max5;
#X obj 890 113 r \$0-mpd24_ccs_max6;
#X obj 904 134 r \$0-mpd24_ccs_max7;
#X obj 918 155 r \$0-mpd24_ccs_max8;
#X obj 933 176 r \$0-mpd24_ccs_max9;
#X obj 948 197 r \$0-mpd24_ccs_max10;
#X obj 962 218 r \$0-mpd24_ccs_max11;
#X obj 977 239 r \$0-mpd24_ccs_max12;
#X obj 991 260 r \$0-mpd24_ccs_max13;
#X obj 1006 281 r \$0-mpd24_ccs_max14;
#X obj 177 359 pack 0 0 0 0 0 0 0 0 0 0 0 0 0 0;
#X obj 177 61 r \$0-mpd24_ccs_cc1;
#X obj 191 82 r \$0-mpd24_ccs_cc2;
#X obj 206 102 r \$0-mpd24_ccs_cc3;
#X obj 221 124 r \$0-mpd24_ccs_cc4;
#X obj 235 145 r \$0-mpd24_ccs_cc5;
#X obj 250 166 r \$0-mpd24_ccs_cc6;
#X obj 264 187 r \$0-mpd24_ccs_cc7;
#X obj 278 208 r \$0-mpd24_ccs_cc8;
#X obj 293 229 r \$0-mpd24_ccs_cc9;
#X obj 308 250 r \$0-mpd24_ccs_cc10;
#X obj 322 271 r \$0-mpd24_ccs_cc11;
#X obj 337 292 r \$0-mpd24_ccs_cc12;
#X obj 351 313 r \$0-mpd24_ccs_cc13;
#X obj 367 334 r \$0-mpd24_ccs_cc14;
#X obj 8 392 list append;
#X obj 8 415 list append;
#X obj 8 438 list append;
#X obj 8 369 list append;
#X msg 1140 282 list 80 80 80 80 80 80 80 80 80 80 80 80 80 80;
#X obj 8 461 list append;
#X obj 9 50 t b b;
#X obj 1140 259 r \$0-mpd24_ccs_initpos;
#X obj 36 84 s \$0-mpd24_ccs_initpos;
#X connect 0 0 1 0;
#X connect 1 0 52 1;
#X connect 2 0 55 0;
#X connect 4 0 18 0;
#X connect 5 0 18 1;
#X connect 6 0 18 2;
#X connect 7 0 18 3;
#X connect 8 0 18 4;
#X connect 9 0 18 5;
#X connect 10 0 18 6;
#X connect 11 0 18 7;
#X connect 12 0 18 8;
#X connect 13 0 18 9;
#X connect 14 0 18 10;
#X connect 15 0 18 11;
#X connect 16 0 18 12;
#X connect 17 0 18 13;
#X connect 18 0 50 1;
#X connect 19 0 51 1;
#X connect 20 0 19 0;
#X connect 21 0 19 1;
#X connect 22 0 19 2;
#X connect 23 0 19 3;
#X connect 24 0 19 4;
#X connect 25 0 19 5;
#X connect 26 0 19 6;
#X connect 27 0 19 7;
#X connect 28 0 19 8;
#X connect 29 0 19 9;
#X connect 30 0 19 10;
#X connect 31 0 19 11;
#X connect 32 0 19 12;
#X connect 33 0 19 13;
#X connect 34 0 49 1;
#X connect 35 0 34 0;
#X connect 36 0 34 1;
#X connect 37 0 34 2;
#X connect 38 0 34 3;
#X connect 39 0 34 4;
#X connect 40 0 34 5;
#X connect 41 0 34 6;
#X connect 42 0 34 7;
#X connect 43 0 34 8;
#X connect 44 0 34 9;
#X connect 45 0 34 10;
#X connect 46 0 34 11;
#X connect 47 0 34 12;
#X connect 48 0 34 13;
#X connect 49 0 50 0;
#X connect 50 0 51 0;
#X connect 51 0 54 0;
#X connect 52 0 49 0;
#X connect 53 0 54 1;
#X connect 54 0 3 0;
#X connect 55 0 52 0;
#X connect 55 1 57 0;
#X connect 56 0 53 0;
#X restore 623 227 pd list_ccs;
#X text 690 142 LIST BUILDERS;
#N canvas 0 50 1800 789 list_filler1 0;
#X msg 35 81 0 0 0 0 0 0 0 0 0 0 0 0 0 0 0 0 0 0 0 0;
#X obj 35 106 s \$0-mpd24sysex_filler;
#X obj 35 55 inlet;
#X connect 0 0 1 0;
#X connect 2 0 0 0;
#X restore 639 205 pd list_filler1;
#X msg 22 397 add \$1;
#X text 69 396 needs to have textfile output;
#N canvas 431 322 1420 450 list_mpd24boiler 0;
#X obj 18 69 pack 240 71 0 104 16 3 113;
#X obj 18 92 s \$0-mpd24sysex_boiler;
#X obj 18 28 inlet;
#X connect 0 0 1 0;
#X connect 2 0 0 0;
#X restore 671 161 pd list_mpd24boiler;
#X obj 311 333 r \$0-mpd24sysex_ccs;
#X msg 687 99 clear;
#X obj 40 422 r \$0-clearbuffer;
#X obj 687 122 s \$0-clearbuffer;
#X obj 466 45 bng 32 250 50 0 \$0-mpd24sysex_dump remove_receive DUMP
4 16 0 10 -162280 -196685 -257985;
#X obj 559 20 r \$0-mpd24sysex_dump;
#X obj 22 457 textfile;
#X obj 559 52 t b b b b b b b b b b;
#X obj 703 76 s \$0-mpd24_bangall;
#X floatatom 721 52 5 0 0 1 DEBUG - -;
#N canvas -1929 104 1920 1028 data_pads 0;
#X scalar template_pads 0 0 0 0 0 0 0 0 \;;
#X scalar template_pads 0 0 0 0 0 1 8 0 \;;
#X scalar template_pads 0 0 0 0 0 2 16 0 \;;
#X scalar template_pads 0 0 0 0 0 3 24 0 \;;
#X scalar template_pads 0 0 0 0 0 4 0 8 \;;
#X scalar template_pads 0 0 0 0 0 5 8 8 \;;
#X scalar template_pads 0 0 0 0 0 6 16 8 \;;
#X scalar template_pads 0 0 0 0 0 7 24 8 \;;
#X scalar template_pads 0 0 0 0 0 8 0 16 \;;
#X scalar template_pads 0 0 0 0 0 9 8 16 \;;
#X scalar template_pads 0 0 0 0 0 10 16 16 \;;
#X scalar template_pads 0 0 0 0 0 11 24 16 \;;
#X scalar template_pads 0 0 0 0 0 12 0 24 \;;
#X scalar template_pads 0 0 0 0 0 13 8 24 \;;
#X scalar template_pads 0 0 0 0 0 14 16 24 \;;
#X scalar template_pads 0 0 0 0 0 15 24 24 \;;
#X scalar template_pads 0 0 0 0 0 16 32 0 \;;
#X scalar template_pads 0 0 0 0 0 17 40 0 \;;
#X scalar template_pads 0 0 0 0 0 18 48 0 \;;
#X scalar template_pads 0 0 0 0 0 19 56 0 \;;
#X scalar template_pads 0 0 0 0 0 20 32 8 \;;
#X scalar template_pads 0 0 0 0 0 21 40 8 \;;
#X scalar template_pads 0 0 0 0 0 22 48 8 \;;
#X scalar template_pads 0 0 0 0 0 23 56 8 \;;
#X scalar template_pads 0 0 0 0 0 24 32 16 \;;
#X scalar template_pads 0 0 0 0 0 25 40 16 \;;
#X scalar template_pads 0 0 0 0 0 26 48 16 \;;
#X scalar template_pads 0 0 0 0 0 27 56 16 \;;
#X scalar template_pads 0 0 0 0 0 28 32 24 \;;
#X scalar template_pads 0 0 0 0 0 29 40 24 \;;
#X scalar template_pads 0 0 0 0 0 30 48 24 \;;
#X scalar template_pads 0 0 0 0 0 31 56 24 \;;
#X scalar template_pads 0 0 0 0 0 32 0 32 \;;
#X scalar template_pads 0 0 0 0 0 33 8 32 \;;
#X scalar template_pads 0 0 0 0 0 34 16 32 \;;
#X scalar template_pads 0 0 0 0 0 35 24 32 \;;
#X scalar template_pads 0 0 0 0 0 36 0 40 \;;
#X scalar template_pads 0 0 0 0 0 37 8 40 \;;
#X scalar template_pads 0 0 0 0 0 38 16 40 \;;
#X scalar template_pads 0 0 0 0 0 39 24 40 \;;
#X scalar template_pads 0 0 0 0 0 40 0 48 \;;
#X scalar template_pads 0 0 0 0 0 41 8 48 \;;
#X scalar template_pads 0 0 0 0 0 42 16 48 \;;
#X scalar template_pads 0 0 0 0 0 43 24 48 \;;
#X scalar template_pads 0 0 0 0 0 44 0 56 \;;
#X scalar template_pads 0 0 0 0 0 45 8 56 \;;
#X scalar template_pads 0 0 0 0 0 46 16 56 \;;
#X scalar template_pads 0 0 0 0 0 47 24 56 \;;
#X scalar template_pads 0 0 0 0 0 48 32 32 \;;
#X scalar template_pads 0 0 0 0 0 49 40 32 \;;
#X scalar template_pads 0 0 0 0 0 50 48 32 \;;
#X scalar template_pads 0 0 0 0 0 51 56 32 \;;
#X scalar template_pads 0 0 0 0 0 52 32 40 \;;
#X scalar template_pads 0 0 0 0 0 53 40 40 \;;
#X scalar template_pads 0 0 0 0 0 54 48 40 \;;
#X scalar template_pads 0 0 0 0 0 55 56 40 \;;
#X scalar template_pads 0 0 0 0 0 56 32 48 \;;
#X scalar template_pads 0 0 0 0 0 57 40 48 \;;
#X scalar template_pads 0 0 0 0 0 58 48 48 \;;
#X scalar template_pads 0 0 0 0 0 59 56 48 \;;
#X scalar template_pads 0 0 0 0 0 60 32 56 \;;
#X scalar template_pads 0 0 0 0 0 61 40 56 \;;
#X scalar template_pads 0 0 0 0 0 62 48 56 \;;
#X scalar template_pads 0 0 0 0 0 63 56 56 \;;
#X scalar template_pads 2 0 23 0 2 0 0 0 \;;
#X scalar template_pads 2 0 23 0 2 1 8 0 \;;
#X scalar template_pads 2 0 23 0 2 2 16 0 \;;
#X scalar template_pads 2 0 23 0 2 3 24 0 \;;
#X scalar template_pads 2 0 23 0 2 4 0 8 \;;
#X scalar template_pads 2 0 23 0 2 5 8 8 \;;
#X scalar template_pads 2 0 23 0 2 6 16 8 \;;
#X scalar template_pads 2 0 23 0 2 7 24 8 \;;
#X scalar template_pads 2 0 23 0 2 8 0 16 \;;
#X scalar template_pads 2 0 23 0 2 9 8 16 \;;
#X scalar template_pads 2 0 23 0 2 10 16 16 \;;
#X scalar template_pads 2 0 23 0 2 11 24 16 \;;
#X scalar template_pads 2 0 23 0 2 12 0 24 \;;
#X scalar template_pads 2 0 23 0 2 13 8 24 \;;
#X scalar template_pads 2 0 23 0 2 14 16 24 \;;
#X scalar template_pads 2 0 23 0 2 15 24 24 \;;
#X scalar template_pads 0 0 0 0 0 16 32 0 \;;
#X scalar template_pads 0 0 0 0 0 17 40 0 \;;
#X scalar template_pads 0 0 0 0 0 18 48 0 \;;
#X scalar template_pads 0 0 0 0 0 19 56 0 \;;
#X scalar template_pads 2 0 23 0 2 20 32 8 \;;
#X scalar template_pads 2 0 23 0 2 21 40 8 \;;
#X scalar template_pads 2 0 23 0 2 22 48 8 \;;
#X scalar template_pads 2 0 23 0 2 23 56 8 \;;
#X scalar template_pads 2 0 23 0 2 24 32 16 \;;
#X scalar template_pads 2 0 23 0 2 26 40 16 \;;
#X scalar template_pads 2 0 23 0 2 28 48 16 \;;
#X scalar template_pads 2 0 23 0 2 28 56 16 \;;
#X scalar template_pads 2 0 23 0 2 28 32 24 \;;
#X scalar template_pads 2 0 23 0 2 29 40 24 \;;
#X scalar template_pads 2 0 23 0 2 30 48 24 \;;
#X scalar template_pads 2 0 23 0 2 31 56 24 \;;
#X scalar template_pads 2 0 23 0 2 32 0 32 \;;
#X scalar template_pads 2 0 23 0 2 33 8 32 \;;
#X scalar template_pads 2 0 23 0 2 34 16 32 \;;
#X scalar template_pads 2 0 23 0 2 35 24 32 \;;
#X scalar template_pads 2 0 23 0 2 36 0 40 \;;
#X scalar template_pads 2 0 23 0 2 37 8 40 \;;
#X scalar template_pads 2 0 23 0 2 39 16 40 \;;
#X scalar template_pads 2 0 23 0 2 40 24 40 \;;
#X scalar template_pads 0 0 0 0 0 40 0 48 \;;
#X scalar template_pads 0 0 0 0 0 41 8 48 \;;
#X scalar template_pads 0 0 0 0 0 42 16 48 \;;
#X scalar template_pads 0 0 0 0 0 43 24 48 \;;
#X scalar template_pads 0 0 0 0 0 44 0 56 \;;
#X scalar template_pads 0 0 0 0 0 45 8 56 \;;
#X scalar template_pads 0 0 0 0 0 46 16 56 \;;
#X scalar template_pads 0 0 0 0 0 47 24 56 \;;
#X scalar template_pads 2 0 23 0 2 49 32 32 \;;
#X scalar template_pads 2 0 23 0 2 52 40 32 \;;
#X scalar template_pads 2 0 23 0 2 51 48 32 \;;
#X scalar template_pads 2 0 23 0 2 52 56 32 \;;
#X scalar template_pads 2 0 23 0 2 52 32 40 \;;
#X scalar template_pads 2 0 23 0 2 53 40 40 \;;
#X scalar template_pads 2 0 23 0 2 54 48 40 \;;
#X scalar template_pads 2 0 23 0 2 56 56 40 \;;
#X scalar template_pads 0 0 0 0 0 56 32 48 \;;
#X scalar template_pads 0 0 0 0 0 57 40 48 \;;
#X scalar template_pads 0 0 0 0 0 58 48 48 \;;
#X scalar template_pads 0 0 0 0 0 59 56 48 \;;
#X scalar template_pads 0 0 0 0 0 60 32 56 \;;
#X scalar template_pads 0 0 0 0 0 61 40 56 \;;
#X scalar template_pads 0 0 0 0 0 62 48 56 \;;
#X scalar template_pads 0 0 0 0 0 63 56 56 \;;
#X coords 8 8 74 74 180 180 2 0 0;
#X restore 21 78 pd data_pads;
#N canvas -9 -9 1845 1028 template_pads 0;
#X obj 24 11 struct template_pads float type float ch float noteprogcc
float triggermsb float atlsb float padpos float x float y;
#X obj 24 69 route click;
#N canvas -1929 104 1920 1028 pads_record_values 0;
#X obj 368 275 r \$0-mpd24_pad_npc;
#X obj 594 279 pointer;
#X obj 608 90 inlet;
#X obj 211 420 set template_pads type ch noteprogcc triggermsb atlsb
;
#X floatatom 126 301 5 0 0 0 - - -;
#X floatatom 254 301 5 0 0 0 - - -;
#X floatatom 367 307 5 0 0 0 - - -;
#X floatatom 450 304 5 0 0 0 - - -;
#X floatatom 515 297 5 0 0 0 - - -;
#X obj 608 115 t p b;
#X obj 126 77 inlet;
#X msg 126 105 bang;
#X obj 314 80 r \$0-pads_disp_params;
#X obj 314 116 unpack f f f f;
#X connect 0 0 6 0;
#X connect 1 0 3 5;
#X connect 2 0 9 0;
#X connect 4 0 3 0;
#X connect 5 0 3 1;
#X connect 6 0 3 2;
#X connect 7 0 3 3;
#X connect 8 0 3 4;
#X connect 9 0 1 0;
#X connect 10 0 11 0;
#X connect 11 0 4 0;
#X connect 12 0 13 0;
#X connect 13 0 4 0;
#X connect 13 1 5 0;
#X connect 13 2 7 0;
#X connect 13 3 8 0;
#X restore 199 203 pd pads_record_values;
#X msg 99 48 click;
#N canvas -9 -9 1845 1028 struct_pads_init 0;
#X obj 368 85 until;
#X obj 258 13 inlet;
#X msg 17 374 0;
#X obj 14 449 append template_pads type ch noteprogcc triggermsb atlsb
padpos x y, f 107;
#X floatatom 407 147 5 0 0 0 - - #0-dbg-padno;
#X obj 258 40 trigger bang bang bang bang bang, f 63;
#X msg 688 318 0;
#X obj 441 276 dtob 32, f 11;
#X obj 466 213 r \$0-cireset;
#X obj 343 183 r \$0-cireset;
#X obj 551 146 r \$0-cireset;
#X obj 688 296 r \$0-cireset;
#X obj 483 69 s \$0-cireset;
#X floatatom 457 391 5 0 0 0 - - -;
#X floatatom 538 391 5 0 0 0 - - -;
#X obj 494 364 r \$0-pix;
#X obj 578 367 r \$0-piy;
#X obj 589 343 r \$0-piyo;
#X obj 510 342 r \$0-pixo;
#X obj 688 343 s \$0-pixo;
#X obj 752 342 s \$0-piyo;
#X obj 319 285 s \$0-piy;
#X obj 226 285 s \$0-pix;
#X msg 752 317 0;
#X obj 442 187 t f f, f 9;
#X text 559 232 padgroup++;
#X obj 17 398 t f f f f f, f 53;
#X obj 226 231 int;
#X obj 319 232 int;
#X text 281 202 row++;
#X text 171 164 column++;
#X text 522 275 set xy origin in bseq 0 \, 0 0 \, 32 32 \, 0 32 \,
32;
#X obj 17 106 trigger bang bang bang bang, f 105;
#X text 232 122 CALCULATE XY:;
#X text 448 122 SET XY ORIGIN FOR BANKS:;
#X msg 257 63 debug-draw-pad;
#X obj 441 299 s \$0-piyo;
#X obj 515 299 s \$0-pixo;
#X obj 250 144 r \$0-cireset;
#X obj 494 391 + 0;
#X obj 575 391 + 0;
#X msg 813 318 0;
#X msg 877 317 0;
#X obj 813 343 s \$0-pix;
#X obj 877 342 s \$0-piy;
#X obj 577 69 s \$0-struct_pads;
#X obj 757 372 r \$0-struct_pads;
#X obj 226 163 mpdsysex_ci 8 32;
#X obj 319 202 mpdsysex_ci 8 32;
#X obj 443 146 mpdsysex_ci 1 64;
#X obj 442 233 mpdsysex_ci 1 16;
#X obj 441 257 r \$0-cireset;
#X msg 368 63 64;
#X msg 752 144 logdbg;
#X obj 754 172 outlet;
#X text 802 172 debug msgs;
#X obj 758 424 cpx_structptr0;
#X msg 757 401 pd-data_pads;
#X connect 0 0 32 0;
#X connect 1 0 5 0;
#X connect 2 0 26 0;
#X connect 5 1 52 0;
#X connect 5 2 12 0;
#X connect 5 3 45 0;
#X connect 5 4 54 0;
#X connect 6 0 19 0;
#X connect 6 0 23 0;
#X connect 7 0 36 0;
#X connect 7 1 37 0;
#X connect 8 0 50 1;
#X connect 9 0 48 1;
#X connect 10 0 49 1;
#X connect 11 0 6 0;
#X connect 15 0 39 0;
#X connect 16 0 40 0;
#X connect 17 0 40 1;
#X connect 18 0 39 1;
#X connect 23 0 20 0;
#X connect 23 0 41 0;
#X connect 24 0 50 0;
#X connect 24 1 3 5;
#X connect 26 0 3 0;
#X connect 26 1 3 1;
#X connect 26 2 3 2;
#X connect 26 3 3 3;
#X connect 26 4 3 4;
#X connect 27 0 22 0;
#X connect 28 0 21 0;
#X connect 32 0 2 0;
#X connect 32 1 47 0;
#X connect 32 2 49 0;
#X connect 32 3 53 0;
#X connect 35 0 32 0;
#X connect 38 0 47 1;
#X connect 39 0 3 6;
#X connect 39 0 13 0;
#X connect 40 0 3 7;
#X connect 40 0 14 0;
#X connect 41 0 43 0;
#X connect 41 0 42 0;
#X connect 42 0 44 0;
#X connect 46 0 57 0;
#X connect 47 0 27 0;
#X connect 47 1 48 0;
#X connect 48 0 28 0;
#X connect 49 0 4 0;
#X connect 49 0 24 0;
#X connect 50 1 7 0;
#X connect 51 0 7 1;
#X connect 52 0 0 0;
#X connect 53 0 54 0;
#X connect 56 0 3 8;
#X connect 57 0 56 0;
#X restore 442 202 pd struct_pads_init;
#X obj 442 92 loadbang;
#N canvas -9 -9 1845 1028 debug 0;
#X obj 470 25 inlet;
#X obj 555 263 r \$0-pixo;
#X obj 573 283 r \$0-piyo;
#X obj 536 241 r \$0-piy;
#X obj 517 221 r \$0-pix;
#X obj 499 192 select 1;
#X obj 592 314 r \$0-dbg-padno;
#X obj 499 341 pack b f f f f f;
#X obj 499 370 print DEBUG;
#X obj 26 6 inlet;
#X obj 455 154 int;
#X obj 313 190 t b b b;
#X obj 314 269 s \$0-cireset;
#X obj 334 248 s \$0-struct_pads;
#X msg 352 214 \; pd-data_pads clear \;;
#X obj 26 77 symbol;
#X obj 26 116 select drawpads drawpad clearpads logdbg, f 96;
#X connect 0 0 10 1;
#X connect 1 0 7 3;
#X connect 2 0 7 4;
#X connect 3 0 7 2;
#X connect 4 0 7 1;
#X connect 5 0 7 0;
#X connect 6 0 7 5;
#X connect 7 0 8 0;
#X connect 9 0 15 0;
#X connect 10 0 5 0;
#X connect 11 0 12 0;
#X connect 11 1 13 0;
#X connect 11 2 14 0;
#X connect 15 0 16 0;
#X connect 16 2 11 0;
#X connect 16 3 10 0;
#X restore 442 335 pd debug;
#X obj 495 313 tgl 15 0 empty empty empty 17 7 0 10 -262144 -1 -1 0
1;
#X msg 469 287 clearpads;
#X msg 467 179 debug-draw-pads;
#X text 515 312 console logging;
#X obj 214 121 r \$0-mpd24_ppux_sticky;
#X obj 278 279 r \$0-mpd24_ppux_nninc;
#X obj 199 145 int;
#X obj 199 172 select 1;
#X obj 260 304 int;
#X obj 261 326 select 1;
#X obj 262 346 mpdsysex_ci 1 64;
#X obj 262 367 s \$0-mpd24_pad_npc;
#X obj 24 94 t p b b p, f 51;
#X obj 430 32 drawpolygon -xv 111 5 9 9 17 9 17 17 9 17 9 9;
#X obj 430 53 filledpolygon -xv 555 555 1 10 10 16 10 16 16 10 16;
#X obj 431 11 drawtext padpos 11 11 123;
#X text 140 48 set event listener;
#X text 110 70 on event listener;
#N canvas -9 -9 1845 1028 pads_retrieve_values 0;
#X floatatom 131 97 5 0 0 0 - - -;
#X obj 48 70 get template_pads type ch noteprogcc triggermsb atlsb
padpos;
#X floatatom 465 97 5 0 0 0 - - -;
#X floatatom 215 97 5 0 0 0 - - -;
#X floatatom 298 97 5 0 0 0 - - -;
#X floatatom 382 96 5 0 0 0 - - -;
#X floatatom 48 97 5 0 0 0 - - -;
#X obj 48 30 inlet;
#X obj 211 301 pack f f f f f f;
#X obj 211 324 s \$0-pads_params_sel;
#X connect 0 0 8 1;
#X connect 1 0 6 0;
#X connect 1 1 0 0;
#X connect 1 2 3 0;
#X connect 1 3 4 0;
#X connect 1 4 5 0;
#X connect 1 5 2 0;
#X connect 2 0 8 5;
#X connect 3 0 8 2;
#X connect 4 0 8 3;
#X connect 5 0 8 4;
#X connect 6 0 8 0;
#X connect 7 0 1 0;
#X connect 8 0 9 0;
#X restore 24 203 pd pads_retrieve_values;
#X text 108 222 read struct;
#X text 262 222 write struct;
#X text 498 221 init struct;
#X text 324 44 declare struct;
#X connect 0 0 1 0;
#X connect 1 0 19 0;
#X connect 3 0 1 1;
#X connect 4 0 6 0;
#X connect 5 0 4 0;
#X connect 7 0 6 1;
#X connect 8 0 6 0;
#X connect 9 0 4 0;
#X connect 11 0 13 1;
#X connect 12 0 15 1;
#X connect 13 0 14 0;
#X connect 14 0 2 0;
#X connect 15 0 16 0;
#X connect 16 0 17 0;
#X connect 17 0 18 0;
#X connect 19 0 25 0;
#X connect 19 1 13 0;
#X connect 19 2 15 0;
#X connect 19 3 2 1;
#X coords 0 514 1 513 96 96 0;
#X restore 551 460 pd template_pads;
#X obj 303 20 cnv 15 196 24 empty empty MPD24║lll║PRESET-EDITOR
6 12 1 14 -162280 -196685 0;
#X obj 134 265 r \$0-mpd24_pad_banksel;
#X floatatom 235 309 5 0 0 0 - - -;
#X obj 235 290 int;
#X obj 201 77 cnv 12 81 17 empty empty MODE 48 8 1 10 -33289 -162280
0;
#X obj 205 80 tgl 12 0 \$0-mpd24_ppux_sticky remove_recv W 3 6 0 10
-128992 -258113 -86277 0 1;
#X obj 219 80 tgl 12 0 \$0-mpd24_ppux_nninc remove_recv I 3 6 0 10
-128992 -159808 -16662 0 1;
#N canvas -9 -9 1845 1028 template_padno 0;
#N canvas 0 50 1513 580 struct_aptr 0;
#X msg 175 135 traverse pd-data_pads \, bang;
#X obj 175 157 pointer;
#X obj 177 106 inlet;
#X obj 174 185 outlet;
#X text 124 59 for append only \, set ptr to struct once;
#X connect 0 0 1 0;
#X connect 1 0 3 0;
#X connect 2 0 0 0;
#X restore 1037 701 pd struct_aptr;
#N canvas 421 106 1214 567 paddisp_init 0;
#X msg 24 79 0;
#X obj 24 55 t b b, f 6;
#X obj 24 22 inlet;
#X obj 24 129 append template_padno x y iov_ptype iov_pchan iov_pnpc
iov_ptrig iov_paftc iov_pno bg fg, f 47;
#X obj 350 103 cpx_structptr0;
#X msg 350 81 pd-data_padno;
#X connect 0 0 3 1;
#X connect 0 0 3 0;
#X connect 1 0 0 0;
#X connect 1 1 5 0;
#X connect 2 0 1 0;
#X connect 4 0 3 10;
#X connect 5 0 4 0;
#X restore 620 280 pd paddisp_init;
#N canvas 253 105 1401 474 paddisp_assign 0;
#X obj 136 3 inlet;
#X obj 136 188 set template_padno iov_ptype iov_pchan iov_ptrig iov_paftc
iov_pno;
#X obj 136 68 unpack f f f f f f;
#X obj 532 164 cpx_structptri;
#X obj 136 30 t l b, f 57;
#X msg 532 142 pd-data_padno 1;
#X connect 0 0 4 0;
#X connect 2 0 1 0;
#X connect 2 1 1 1;
#X connect 2 3 1 2;
#X connect 2 4 1 3;
#X connect 2 5 1 4;
#X connect 3 0 1 5;
#X connect 4 0 2 0;
#X connect 4 1 5 0;
#X connect 5 0 3 0;
#X restore 148 403 pd paddisp_assign;
#X msg 620 99 debug-init;
#X obj 706 235 loadbang;
#X msg 676 161 \; pd-data_padno clear;
#X obj 28 217 route click;
#N canvas 444 125 1293 702 paddisp_retr 0;
#X obj 66 87 get template_padno iov_ptype iov_pchan iov_ptrig iov_paftc
;
#X obj 173 129 pack f f f f;
#X obj 66 25 inlet;
#X obj 173 189 s \$0-pads_disp_params;
#X connect 0 0 1 0;
#X connect 0 1 1 1;
#X connect 0 2 1 2;
#X connect 0 3 1 3;
#X connect 1 0 3 0;
#X connect 2 0 0 0;
#X restore 28 254 pd paddisp_retr;
#X obj 148 211 r \$0-pads_params_sel;
#X obj 148 254 t l b;
#X obj 28 16 struct template_padno float x float y float iov_ptype
float iov_pchan float iov_pnpc float iov_ptrig float iov_paftc float
iov_pno float bg float fg, f 17;
#X obj 318 263 r \$0-mpd24_ppux_sticky;
#X obj 303 287 int;
#X obj 303 314 select 1;
#X floatatom 60 346 5 0 0 0 - - -;
#X obj 37 312 mpdsysex_ci 1 2;
#X obj 154 137 filledpolygon 47 47 0 0 0 80 0 80 163 0 163 0 0;
#X obj 156 100 drawtext iov_pno 8 8 679 PAD..;
#X obj 156 79 drawtext iov_ptype 8 24 679 N/P..;
#X obj 156 58 drawtext iov_pchan 8 40 679 CH...;
#X obj 155 37 drawtext iov_ptrig 8 56 679 TG...;
#X obj 155 16 drawtext iov_paftc 8 72 679 AT...;
#X connect 3 0 1 0;
#X connect 4 0 1 0;
#X connect 5 0 1 0;
#X connect 6 0 7 0;
#X connect 6 0 15 0;
#X connect 8 0 9 0;
#X connect 9 0 2 0;
#X connect 10 0 6 0;
#X connect 11 0 12 1;
#X connect 12 0 13 0;
#X connect 15 0 14 0;
#X restore 551 437 pd template_padno;
#N canvas 0 50 450 300 data_padno 0;
#X scalar template_padno 0 0 0 0 0 0 0 0 0 0 \;;
#X scalar template_padno 0 0 2 0 0 0 2 17 0 0 \;;
#X coords 0 0 80 163 80 163 2 100 100;
#X restore 202 95 pd data_padno;
#X text 445 399 Struct definitions \, declarations and functions;
#X text 620 417 =====================;
#N canvas 20 138 1675 483 template_ccs 0;
#N canvas -9 -9 1845 1028 struct_ccs_init 0;
#X msg 24 208 0;
#X obj 24 22 inlet;
#X obj 24 258 append template_ccs x y ctlno vmin vmax, f 47;
#X obj 350 233 cpx_structptr0;
#X msg 350 208 pd-data_ccs;
#X obj 24 55 t f b, f 6;
#X obj 24 83 until;
#X obj 36 163 mpdsysex_ci 22 256;
#X msg 274 225 127;
#X connect 0 0 2 0;
#X connect 0 0 2 3;
#X connect 0 0 2 2;
#X connect 1 0 5 0;
#X connect 3 0 2 5;
#X connect 4 0 3 0;
#X connect 5 0 6 0;
#X connect 5 1 4 0;
#X connect 5 1 7 1;
#X connect 6 0 0 0;
#X connect 6 0 8 0;
#X connect 6 0 7 0;
#X connect 7 0 2 1;
#X connect 8 0 2 4;
#X restore 454 156 pd struct_ccs_init;
#X obj 32 21 struct template_ccs float x float y float ctlno float
vmin float vmax, f 71;
#X msg 539 81 \; pd-data_ccs clear;
#X msg 454 82 8;
#X obj 19 81 filledpolygon 123 123 0 vmin 2 vmax 2 vmax 8 vmin 8 vmin
2;
#X obj 19 58 drawpolygon 111 1 1 1 128 1 128 9 1 9 1 1;
#X obj 18 123 drawtext vmin 2 9 111;
#X obj 18 102 drawtext vmax 106 9 111;
#X obj 17 146 drawtext ctlno 48 9 111;
#X obj 17 168 drawpolygon 111 1 47 11 72 11 72 20 47 20 47 11;
#X obj 454 51 loadbang;
#X connect 3 0 0 0;
#X connect 10 0 3 0;
#X restore 552 482 pd template_ccs;
#N canvas -9 -9 1845 1028 data_ccs 0;
#X scalar template_ccs 0 154 0 0 127 \;;
#X scalar template_ccs 0 0 0 0 127 \;;
#X scalar template_ccs 0 22 0 0 127 \;;
#X scalar template_ccs 0 44 0 0 127 \;;
#X scalar template_ccs 0 66 0 0 127 \;;
#X scalar template_ccs 0 88 0 0 127 \;;
#X scalar template_ccs 0 110 0 0 127 \;;
#X scalar template_ccs 0 132 0 0 127 \;;
#X coords 0 0 128 180 88 180 2 0 0;
#X restore 411 78 pd data_ccs;
#X obj 807 296 sysexin;
#X obj 807 426 textfile;
#X msg 818 402 clear;
#X msg 807 378 add \$1;
#X obj 820 353 t f f;
#X msg 820 322 1 2;
#X text 666 257 read sysex from device (device needs to send);
#X text 443 416 (Data is Graph-on-parent);
#X text 566 323 ╔═╗╬╦╩╚╝;
#X text 421 416 ╚══;
#X text 421 403 ║;
#X text 421 390 ║;
#X text 421 377 ║;
#X text 421 364 ║;
#X text 421 351 ╔═══════════╝;
#X text 505 338 ║;
#X text 505 325 ║;
#X text 505 312 ║;
#X text 505 299 ║;
#X text 505 286 ║;
#X text 505 273 ║;
#X text 505 260 ║;
#X text 505 247 ║;
#X text 505 235 ╗;
#N canvas 20 138 1675 483 template_ccs2 1;
#X obj 454 51 loadbang;
#X msg 539 81 \; pd-data_ccs2 clear;
#X obj 32 21 struct template_ccs2 float x float y float ctlno float
vmin float vmax, f 71;
#N canvas -9 -9 1845 1028 struct_ccs2_init 0;
#X msg 24 208 0;
#X obj 24 22 inlet;
#X obj 350 233 cpx_structptr0;
#X obj 24 55 t f b, f 6;
#X obj 24 83 until;
#X msg 350 208 pd-data_ccs2;
#X obj 24 258 append template_ccs2 x y ctlno vmin vmax, f 47;
#X msg 274 225 135;
#X obj 36 163 mpdsysex_ci 15 256;
#X msg 206 226 16;
#X connect 0 0 6 2;
#X connect 0 0 6 1;
#X connect 1 0 3 0;
#X connect 2 0 6 5;
#X connect 3 0 4 0;
#X connect 3 1 5 0;
#X connect 3 1 8 1;
#X connect 4 0 0 0;
#X connect 4 0 7 0;
#X connect 4 0 9 0;
#X connect 4 0 8 0;
#X connect 5 0 2 0;
#X connect 7 0 6 4;
#X connect 8 0 6 0;
#X connect 9 0 6 3;
#X restore 454 156 pd struct_ccs2_init;
#X msg 454 82 6;
#X obj 19 81 filledpolygon 123 123 0 2 vmax 2 vmax 2 vmin 13 vmin 13
vmax;
#X obj 17 146 drawtext ctlno 2 64 888;
#X obj 17 168 drawpolygon 888 1 1 64 14 64 14 78 1 78 1 64;
#X obj 18 102 drawtext vmin 2 1 111;
#X obj 17 123 drawtext vmax 2 137 111;
#X obj 19 58 drawpolygon 992 1 1 16 14 16 14 136 1 136 1 16;
#X connect 0 0 4 0;
#X connect 4 0 3 0;
#X restore 691 471 pd template_ccs2;
#N canvas 0 50 450 300 data_ccs2 0;
#X scalar template_ccs2 0 0 0 15.1667 135.233 \;;
#X scalar template_ccs2 15 0 0 16 135 \;;
#X scalar template_ccs2 30 0 0 16 135 \;;
#X scalar template_ccs2 45 0 0 16 135 \;;
#X scalar template_ccs2 60 0 5 16 135 \;;
#X scalar template_ccs2 75 0 0 16 136.133 \;;
#X coords 0 -24 92 180 128 180 2 0 0;
#X restore 282 78 pd data_ccs2;
#X connect 0 0 7 0;
#X connect 5 0 0 1;
#X connect 6 0 0 0;
#X connect 6 1 5 0;
#X connect 6 2 5 1;
#X connect 7 0 18 0;
#X connect 8 0 10 0;
#X connect 9 0 10 0;
#X connect 11 0 6 0;
#X connect 12 0 10 0;
#X connect 18 0 27 0;
#X connect 21 0 10 0;
#X connect 22 0 24 0;
#X connect 23 0 27 0;
#X connect 26 0 28 0;
#X connect 28 4 15 0;
#X connect 28 5 17 0;
#X connect 28 6 14 0;
#X connect 28 7 20 0;
#X connect 28 8 22 0;
#X connect 28 9 29 0;
#X connect 30 0 29 0;
#X connect 34 0 36 0;
#X connect 36 0 35 0;
#X connect 46 0 49 0;
#X connect 48 0 47 0;
#X connect 49 0 47 0;
#X connect 50 1 49 0;
#X connect 51 0 50 0;
#X coords 0 -1 1 1 480 240 2 20 20;
#X restore 16 15 pd sequence_list;
#X text 413 410 TODO======================;
#X text 442 423 interactive display struct for entering and displaying
values (for pads);
#X connect 0 0 3 0;
#X connect 1 0 0 0;
#X connect 2 0 5 0;
#X connect 3 0 2 0;
#X connect 4 0 5 1;
#X connect 5 0 6 0;
#X connect 6 0 8 0;
#X connect 7 0 8 0;
#X connect 9 1 14 0;
#X connect 10 0 12 0;
#X connect 11 0 0 0;
#X connect 12 0 8 0;
#X connect 13 0 11 0;
#X connect 14 0 0 0;
#X connect 14 1 4 0;
