#N struct template_padno float x float y float iov_ptype float iov_pchan
float iov_pnpc float iov_ptrig float iov_paftc float iov_pno float
bg float fg;
#N struct template_ccs2 float x float y float ctlno float vmin float
vmax;
#N struct template_circletest float x float y float x1 float y1 float
x2 float y2 float ccn float vmin float vmax;
#N struct template_pads float type float ch float noteprogcc float
triggermsb float atlsb float padpos float x float y;
#N canvas -9 -9 1845 1028 12;
#N canvas -1929 104 1920 1028 sequence_list 0;
#N canvas -9 -9 1845 1028 list_presetparams 0;
#X obj 230 164 list fromsymbol;
#X obj 153 299 list store;
#X obj 210 122 r \$0-mpd24_pstaddr;
#X obj 230 143 r \$0-mpd24_pstname;
#X obj 391 142 r \$0-mpd24_pstbank;
#X obj 411 164 r \$0-mpd24_psttrsp;
#X obj 210 274 pack 1 32 32 32 32 32 32 32 32 0 1;
#X obj 230 222 list prepend 32 32 32 32 32 32 32 32;
#X obj 230 188 t b l;
#X obj 230 244 unpack f f f f f f f f;
#X obj 153 59 inlet;
#X obj 153 335 s \$0-sysexbuffer;
#X text 493 221 prepend = pad with spaces =);
#X text 293 21 Note: these have to come from vanilla objects \, not
structs;
#X text 293 35 mainly because there is no way to change text data through
struct data window;
#X connect 0 0 8 0;
#X connect 1 0 11 0;
#X connect 2 0 6 0;
#X connect 3 0 0 0;
#X connect 4 0 6 9;
#X connect 5 0 6 10;
#X connect 6 0 1 1;
#X connect 7 0 9 0;
#X connect 8 0 7 0;
#X connect 8 1 7 1;
#X connect 9 0 6 1;
#X connect 9 1 6 2;
#X connect 9 2 6 3;
#X connect 9 3 6 4;
#X connect 9 4 6 5;
#X connect 9 5 6 6;
#X connect 9 6 6 7;
#X connect 9 7 6 8;
#X connect 10 0 1 0;
#X restore 497 423 pd list_presetparams;
#N canvas -1929 104 1920 1028 list_ccs 0;
#X obj 9 9 inlet;
#X obj 8 392 list append;
#X obj 8 415 list append;
#X obj 8 438 list append;
#X obj 8 369 list append;
#X msg 203 445 list 80 80 80 80 80 80 80 80 80 80 80 80 80 80;
#X obj 8 461 list append;
#X obj 203 422 r \$0-mpd24_ccs_initpos;
#X obj 31 84 s \$0-mpd24_ccs_initpos;
#X obj 8 489 s \$0-sysexbuffer;
#X msg 205 146 bang;
#N canvas 580 318 1076 567 getcc_ccn_knobs 0;
#X obj 21 10 inlet;
#X obj 21 34 t b b;
#X obj 21 60 cpx_structptri pd-data_circletest 8;
#X obj 21 83 get template_circletest ccn;
#X obj 21 105 outlet;
#X connect 0 0 1 0;
#X connect 1 0 2 0;
#X connect 2 0 3 0;
#X connect 3 0 4 0;
#X restore 349 248 pd getcc_ccn_knobs;
#N canvas 580 318 1076 567 getcc_ccn_faders 0;
#X obj 21 10 inlet;
#X obj 21 34 t b b;
#X obj 21 60 cpx_structptri pd-data_ccs2 6;
#X obj 21 83 get template_ccs2 ctlno;
#X obj 21 105 outlet;
#X connect 0 0 1 0;
#X connect 1 0 2 0;
#X connect 2 0 3 0;
#X connect 3 0 4 0;
#X restore 320 269 pd getcc_ccn_faders;
#X obj 205 179 t b b b b b b, f 21;
#N canvas 580 318 1076 567 getcc_vmin_knobs 0;
#X obj 21 10 inlet;
#X obj 21 34 t b b;
#X obj 21 60 cpx_structptri pd-data_circletest 8;
#X obj 21 83 get template_circletest vmin;
#X obj 21 105 outlet;
#X connect 0 0 1 0;
#X connect 1 0 2 0;
#X connect 2 0 3 0;
#X connect 3 0 4 0;
#X restore 291 303 pd getcc_vmin_knobs;
#N canvas 580 318 1076 567 getcc_vmin_faders 0;
#X obj 21 10 inlet;
#X obj 21 34 t b b;
#X obj 21 60 cpx_structptri pd-data_ccs2 6;
#X obj 21 83 get template_ccs2 vmin;
#X obj 21 105 outlet;
#X connect 0 0 1 0;
#X connect 1 0 2 0;
#X connect 2 0 3 0;
#X connect 3 0 4 0;
#X restore 262 324 pd getcc_vmin_faders;
#N canvas 580 318 1076 567 getcc_vmax_knobs 0;
#X obj 21 10 inlet;
#X obj 21 34 t b b;
#X obj 21 60 cpx_structptri pd-data_circletest 8;
#X obj 21 83 get template_circletest vmax;
#X obj 21 105 outlet;
#X connect 0 0 1 0;
#X connect 1 0 2 0;
#X connect 2 0 3 0;
#X connect 3 0 4 0;
#X restore 233 361 pd getcc_vmax_knobs;
#N canvas 580 318 1076 567 getcc_vmax_faders 0;
#X obj 21 10 inlet;
#X obj 21 34 t b b;
#X obj 21 60 cpx_structptri pd-data_ccs2 6;
#X obj 21 83 get template_ccs2 vmax;
#X obj 21 105 outlet;
#X connect 0 0 1 0;
#X connect 1 0 2 0;
#X connect 2 0 3 0;
#X connect 3 0 4 0;
#X restore 204 382 pd getcc_vmax_faders;
#X msg 82 118 list 0 0 0 0 0 0 0 0 0 0 0 0 0 0;
#X obj 11 51 t b b b b;
#X connect 0 0 19 0;
#X connect 1 0 2 0;
#X connect 2 0 3 0;
#X connect 3 0 6 0;
#X connect 4 0 1 0;
#X connect 5 0 6 1;
#X connect 6 0 9 0;
#X connect 7 0 5 0;
#X connect 10 0 13 0;
#X connect 11 0 1 1;
#X connect 12 0 1 1;
#X connect 13 0 17 0;
#X connect 13 1 16 0;
#X connect 13 2 15 0;
#X connect 13 3 14 0;
#X connect 13 4 12 0;
#X connect 13 5 11 0;
#X connect 14 0 2 1;
#X connect 15 0 2 1;
#X connect 16 0 3 1;
#X connect 17 0 3 1;
#X connect 18 0 4 1;
#X connect 19 0 4 0;
#X connect 19 1 8 0;
#X connect 19 2 18 0;
#X connect 19 3 10 0;
#X restore 465 467 pd list_ccs;
#X text 532 382 LIST BUILDERS;
#N canvas 0 50 1800 789 list_filler1 0;
#X msg 35 81 0 0 0 0 0 0 0 0 0 0 0 0 0 0 0 0 0 0 0 0;
#X obj 35 55 inlet;
#X obj 34 112 s \$0-sysexbuffer;
#X connect 0 0 2 0;
#X connect 1 0 0 0;
#X restore 481 445 pd list_filler1;
#N canvas 219 296 1420 450 list_mpd24boiler 0;
#X obj 18 69 pack 240 71 0 104 16 3 113;
#X obj 18 28 inlet;
#X obj 17 105 s \$0-sysexbuffer;
#X connect 0 0 2 0;
#X connect 1 0 0 0;
#X restore 513 401 pd list_mpd24boiler;
#X msg 529 339 clear;
#X obj 529 362 s \$0-clearbuffer;
#X obj 401 269 r \$0-mpd24sysex_dump;
#X obj 401 292 t b b b b b b b b b b;
#X obj 545 316 s \$0-mpd24_bangall;
#X floatatom 563 292 5 0 0 1 DEBUG - -;
#N canvas -1929 104 1920 1028 template_pads 0;
#X obj 24 11 struct template_pads float type float ch float noteprogcc
float triggermsb float atlsb float padpos float x float y;
#X obj 24 69 route click;
#N canvas -1929 104 1920 1028 pads_record_values 0;
#X obj 368 275 r \$0-mpd24_pad_npc;
#X obj 594 279 pointer;
#X obj 608 90 inlet;
#X obj 211 420 set template_pads type ch noteprogcc triggermsb atlsb
;
#X floatatom 126 301 5 0 0 0 - - -;
#X floatatom 254 301 5 0 0 0 - - -;
#X floatatom 367 307 5 0 0 0 - - -;
#X floatatom 450 304 5 0 0 0 - - -;
#X floatatom 515 297 5 0 0 0 - - -;
#X obj 608 115 t p b;
#X obj 126 77 inlet;
#X msg 126 105 bang;
#X obj 314 80 r \$0-pads_disp_params;
#X obj 314 116 unpack f f f f;
#X connect 0 0 6 0;
#X connect 1 0 3 5;
#X connect 2 0 9 0;
#X connect 4 0 3 0;
#X connect 5 0 3 1;
#X connect 6 0 3 2;
#X connect 7 0 3 3;
#X connect 8 0 3 4;
#X connect 9 0 1 0;
#X connect 10 0 11 0;
#X connect 11 0 4 0;
#X connect 12 0 13 0;
#X connect 13 0 4 0;
#X connect 13 1 5 0;
#X connect 13 2 7 0;
#X connect 13 3 8 0;
#X restore 199 203 pd pads_record_values;
#X msg 99 48 click;
#N canvas -1929 104 1920 1028 struct_pads_init 0;
#X obj 368 85 until;
#X obj 258 13 inlet;
#X msg 17 374 0;
#X obj 14 449 append template_pads type ch noteprogcc triggermsb atlsb
padpos x y, f 107;
#X floatatom 407 147 5 0 0 0 - - #0-dbg-padno;
#X obj 258 40 trigger bang bang bang bang bang, f 63;
#X msg 688 318 0;
#X obj 466 213 r \$0-cireset;
#X obj 347 179 r \$0-cireset;
#X obj 551 146 r \$0-cireset;
#X obj 688 296 r \$0-cireset;
#X obj 483 69 s \$0-cireset;
#X floatatom 457 391 5 0 0 0 - - -;
#X floatatom 538 391 5 0 0 0 - - -;
#X obj 494 364 r \$0-pix;
#X obj 578 367 r \$0-piy;
#X obj 589 343 r \$0-piyo;
#X obj 510 342 r \$0-pixo;
#X obj 688 343 s \$0-pixo;
#X obj 752 342 s \$0-piyo;
#X obj 319 285 s \$0-piy;
#X obj 226 285 s \$0-pix;
#X msg 752 317 0;
#X obj 442 187 t f f, f 9;
#X text 559 232 padgroup++;
#X obj 17 398 t f f f f f, f 53;
#X obj 226 231 int;
#X obj 319 232 int;
#X text 281 202 row++;
#X text 171 164 column++;
#X text 522 275 set xy origin in bseq 0 \, 0 0 \, 32 32 \, 0 32 \,
32;
#X obj 17 106 trigger bang bang bang bang, f 105;
#X text 232 122 CALCULATE XY:;
#X text 448 122 SET XY ORIGIN FOR BANKS:;
#X msg 257 63 debug-draw-pad;
#X obj 441 299 s \$0-piyo;
#X obj 515 299 s \$0-pixo;
#X obj 250 144 r \$0-cireset;
#X obj 494 391 + 0;
#X obj 575 391 + 0;
#X msg 813 318 0;
#X msg 877 317 0;
#X obj 813 343 s \$0-pix;
#X obj 877 342 s \$0-piy;
#X obj 577 69 s \$0-struct_pads;
#X obj 758 378 r \$0-struct_pads;
#X obj 443 146 mpdsysex_ci 1 64;
#X obj 442 233 mpdsysex_ci 1 16;
#X obj 441 257 r \$0-cireset;
#X msg 368 63 64;
#X msg 752 144 logdbg;
#X obj 754 172 outlet;
#X text 802 172 debug msgs;
#X obj 758 424 cpx_structptr0;
#X msg 758 401 pd-data_pads;
#X obj 226 163 mpdsysex_ci 12 48;
#X obj 319 202 mpdsysex_ci 12 48;
#X obj 441 276 dtob 48, f 11;
#X connect 0 0 31 0;
#X connect 1 0 5 0;
#X connect 2 0 25 0;
#X connect 5 1 49 0;
#X connect 5 2 11 0;
#X connect 5 3 44 0;
#X connect 5 4 51 0;
#X connect 6 0 18 0;
#X connect 6 0 22 0;
#X connect 7 0 47 1;
#X connect 8 0 56 1;
#X connect 9 0 46 1;
#X connect 10 0 6 0;
#X connect 14 0 38 0;
#X connect 15 0 39 0;
#X connect 16 0 39 1;
#X connect 17 0 38 1;
#X connect 22 0 19 0;
#X connect 22 0 40 0;
#X connect 23 0 47 0;
#X connect 23 1 3 5;
#X connect 25 0 3 0;
#X connect 25 1 3 1;
#X connect 25 2 3 2;
#X connect 25 3 3 3;
#X connect 25 4 3 4;
#X connect 26 0 21 0;
#X connect 27 0 20 0;
#X connect 31 0 2 0;
#X connect 31 1 55 0;
#X connect 31 2 46 0;
#X connect 31 3 50 0;
#X connect 34 0 31 0;
#X connect 37 0 55 1;
#X connect 38 0 3 6;
#X connect 38 0 12 0;
#X connect 39 0 3 7;
#X connect 39 0 13 0;
#X connect 40 0 42 0;
#X connect 40 0 41 0;
#X connect 41 0 43 0;
#X connect 45 0 54 0;
#X connect 46 0 4 0;
#X connect 46 0 23 0;
#X connect 47 1 57 0;
#X connect 48 0 57 1;
#X connect 49 0 0 0;
#X connect 50 0 51 0;
#X connect 53 0 3 8;
#X connect 54 0 53 0;
#X connect 55 0 26 0;
#X connect 55 1 56 0;
#X connect 56 0 27 0;
#X connect 57 0 35 0;
#X connect 57 1 36 0;
#X restore 439 202 pd struct_pads_init;
#X msg 476 277 clearpads;
#X msg 464 179 debug-draw-pads;
#X obj 214 121 r \$0-mpd24_ppux_sticky;
#X obj 278 279 r \$0-mpd24_ppux_nninc;
#X obj 199 145 int;
#X obj 199 172 select 1;
#X obj 260 304 int;
#X obj 261 326 select 1;
#X obj 262 346 mpdsysex_ci 1 64;
#X obj 262 367 s \$0-mpd24_pad_npc;
#X obj 24 94 t p b b p, f 51;
#X text 140 48 set event listener;
#X text 110 70 on event listener;
#N canvas -9 -9 1845 1028 pads_retrieve_values 0;
#X floatatom 131 97 5 0 0 0 - - -;
#X obj 48 70 get template_pads type ch noteprogcc triggermsb atlsb
padpos;
#X floatatom 465 97 5 0 0 0 - - -;
#X floatatom 215 97 5 0 0 0 - - -;
#X floatatom 298 97 5 0 0 0 - - -;
#X floatatom 382 96 5 0 0 0 - - -;
#X floatatom 48 97 5 0 0 0 - - -;
#X obj 48 30 inlet;
#X obj 211 301 pack f f f f f f;
#X obj 211 324 s \$0-pads_params_sel;
#X connect 0 0 8 1;
#X connect 1 0 6 0;
#X connect 1 1 0 0;
#X connect 1 2 3 0;
#X connect 1 3 4 0;
#X connect 1 4 5 0;
#X connect 1 5 2 0;
#X connect 2 0 8 5;
#X connect 3 0 8 2;
#X connect 4 0 8 3;
#X connect 5 0 8 4;
#X connect 6 0 8 0;
#X connect 7 0 1 0;
#X connect 8 0 9 0;
#X restore 24 203 pd pads_retrieve_values;
#X text 108 222 read struct;
#X text 262 222 write struct;
#X text 495 221 init struct;
#X text 324 44 declare struct;
#X obj 439 368 s \$0-mpd24sysex_debug;
#X obj 439 154 r struct_pads_init;
#X obj 430 53 filledpolygon -xv 555 555 0 1 1 11 1 11 11 1 11 1 1;
#X obj 444 11 drawnumber noteprogcc 1 2 222;
#X connect 0 0 1 0;
#X connect 1 0 15 0;
#X connect 3 0 1 1;
#X connect 4 0 23 0;
#X connect 5 0 23 0;
#X connect 6 0 4 0;
#X connect 7 0 9 1;
#X connect 8 0 11 1;
#X connect 9 0 10 0;
#X connect 10 0 2 0;
#X connect 11 0 12 0;
#X connect 12 0 13 0;
#X connect 13 0 14 0;
#X connect 15 0 18 0;
#X connect 15 1 9 0;
#X connect 15 2 11 0;
#X connect 15 3 2 1;
#X connect 24 0 4 0;
#X coords 0 514 1 513 96 96 0;
#X restore 715 303 pd template_pads;
#X obj 236 269 r \$0-mpd24_pad_banksel;
#X floatatom 236 319 5 0 0 0 - - -;
#X obj 236 294 int;
#X text 505 246 Struct definitions \, declarations and functions;
#X obj 167 269 sysexin;
#X obj 167 399 textfile;
#X msg 178 375 clear;
#X msg 167 351 add \$1;
#X obj 180 326 t f f;
#X msg 180 295 1 2;
#X text 652 261 (Data is Graph-on-parent);
#X text 832 300 ╚══;
#X text 832 287 ║;
#X text 832 274 ║;
#X text 832 261 ║;
#X text 832 248 ║;
#X obj 651 20 loadbang;
#X obj 20 20 cnv 15 480 240 empty empty empty 20 12 0 14 -195568 -66577
0;
#X obj 318 24 cnv 11 176 12 empty empty ▐▀▄▀▌▐▀▀█▐▀▀▄░▀▀▀▄█░░█
12 4 0 12 -195568 -196685 0;
#X obj 210 76 cnv 12 80 17 empty empty MODE 5 9 1 8 -33289 -162280
0;
#X obj 277 78 tgl 12 0 \$0-mpd24_ppux_sticky remove_recv W 3 6 0 10
-128992 -258113 -86277 0 1;
#X obj 264 78 tgl 12 0 \$0-mpd24_ppux_nninc remove_recv I 3 6 0 10
-128992 -159808 -16662 0 1;
#N canvas -9 -9 1845 1028 data_padno 0;
#X scalar template_padno 0 0 0 0 0 0 0 0 0 0 \;;
#X coords 0 0 80 163 80 163 2 100 100;
#X restore 210 94 pd data_padno;
#N canvas 0 50 450 300 data_ccs2 0;
#X scalar template_ccs2 0 0 0 0 127 \;;
#X scalar template_ccs2 32 0 0 0 127 \;;
#X scalar template_ccs2 64 0 0 0 127 \;;
#X scalar template_ccs2 96 0 0 0 127 \;;
#X scalar template_ccs2 128 0 0 0 127 \;;
#X scalar template_ccs2 160 0 0 0 127 \;;
#X coords 0 127 188 0 180 48 2 0 0;
#X restore 26 23 pd data_ccs2;
#X obj 318 48 cnv 8 176 8 empty empty S░Y░S░E░X░░P░A░T░C░H░░E░D░I░T░O░R
12 4 0 8 -195568 -33289 0;
#X obj 318 36 cnv 11 176 12 empty empty ▐░▀░▌▐▀▀▀▐▄▄█░███▄▀▀▀█
12 4 0 12 -195568 -196685 0;
#N canvas -1929 104 1920 1028 data_circletest 0;
#X scalar template_circletest 0 0 -61 0 0 0 22 0 0 \;;
#X scalar template_circletest 450 0 -61 79 61 79 22 0 0 \;;
#X scalar template_circletest 0 256 -61 79 61 79 22 0 0 \;;
#X scalar template_circletest 450 256 -61 79 61 79 22 0 0 \;;
#X scalar template_circletest 0 512 -61 79 61 79 22 0 0 \;;
#X scalar template_circletest 450 512 -61 79 61 79 22 0 0 \;;
#X scalar template_circletest 0 768 -61 79 61 79 22 0 0 \;;
#X scalar template_circletest 450 768 -61 79 61 79 22 0 0 \;;
#X coords -150 -150 900 900 180 180 2 0 0;
#X restore 316 77 pd data_circletest;
#X text 164 417 read sysex from device;
#X text 164 431 (device needs to send);
#X obj 22 488 midiout;
#X text 657 39 Initialize everything;
#X text 503 235 ═══════════════════════════════════════════════╗
;
#N canvas -9 -9 1845 1028 template_paddisp 0;
#N canvas 0 50 1513 580 struct_aptr 0;
#X msg 175 135 traverse pd-data_pads \, bang;
#X obj 175 157 pointer;
#X obj 177 106 inlet;
#X obj 174 185 outlet;
#X text 124 59 for append only \, set ptr to struct once;
#X connect 0 0 1 0;
#X connect 1 0 3 0;
#X connect 2 0 0 0;
#X restore 1037 701 pd struct_aptr;
#N canvas 421 106 1214 567 paddisp_init 0;
#X msg 24 79 0;
#X obj 24 55 t b b, f 6;
#X obj 24 22 inlet;
#X obj 24 129 append template_padno x y iov_ptype iov_pchan iov_pnpc
iov_ptrig iov_paftc iov_pno bg fg, f 47;
#X obj 350 88 cpx_structptr0 pd-data_padno, f 14;
#X connect 0 0 3 1;
#X connect 0 0 3 0;
#X connect 1 0 0 0;
#X connect 1 1 4 0;
#X connect 2 0 1 0;
#X connect 4 0 3 10;
#X restore 620 280 pd paddisp_init;
#N canvas 253 105 1401 474 paddisp_assign 0;
#X obj 136 3 inlet;
#X obj 136 188 set template_padno iov_ptype iov_pchan iov_ptrig iov_paftc
iov_pno;
#X obj 136 68 unpack f f f f f f;
#X obj 136 30 t l b, f 57;
#X obj 532 164 cpx_structptri pd-data_padno 1;
#X connect 0 0 3 0;
#X connect 2 0 1 0;
#X connect 2 1 1 1;
#X connect 2 3 1 2;
#X connect 2 4 1 3;
#X connect 2 5 1 4;
#X connect 3 0 2 0;
#X connect 3 1 4 0;
#X connect 4 0 1 5;
#X restore 148 286 pd paddisp_assign;
#X msg 620 99 debug-init;
#X obj 28 217 route click;
#N canvas 444 125 1293 702 paddisp_retr 0;
#X obj 66 87 get template_padno iov_ptype iov_pchan iov_ptrig iov_paftc
;
#X obj 173 129 pack f f f f;
#X obj 66 25 inlet;
#X obj 173 189 s \$0-pads_disp_params;
#X connect 0 0 1 0;
#X connect 0 1 1 1;
#X connect 0 2 1 2;
#X connect 0 3 1 3;
#X connect 1 0 3 0;
#X connect 2 0 0 0;
#X restore 28 254 pd paddisp_retr;
#X obj 148 211 r \$0-pads_params_sel;
#X obj 28 16 struct template_padno float x float y float iov_ptype
float iov_pchan float iov_pnpc float iov_ptrig float iov_paftc float
iov_pno float bg float fg, f 17;
#X obj 318 263 r \$0-mpd24_ppux_sticky;
#X obj 303 287 int;
#X obj 303 314 select 1;
#X floatatom 60 346 5 0 0 0 - - -;
#X obj 37 312 mpdsysex_ci 1 2;
#X obj 154 137 filledpolygon 47 47 0 0 0 80 0 80 163 0 163 0 0;
#X obj 639 226 r struct_paddisp_init;
#X obj 155 16 drawtext iov_paftc 8 72 679 AT░░░;
#X obj 155 37 drawtext iov_ptrig 8 56 679 TG░░░;
#X obj 156 58 drawtext iov_pchan 8 40 679 CH░░░;
#X obj 156 79 drawtext iov_ptype 8 24 679 N/P░░;
#X obj 156 100 drawtext iov_pno 8 8 679 PAD░░;
#X connect 3 0 1 0;
#X connect 4 0 5 0;
#X connect 4 0 12 0;
#X connect 6 0 2 0;
#X connect 7 0 4 0;
#X connect 8 0 9 1;
#X connect 9 0 10 0;
#X connect 12 0 11 0;
#X connect 14 0 1 0;
#X restore 694 282 pd template_paddisp;
#N canvas -9 -9 1845 1028 template_knobs 0;
#X obj 20 65 route click;
#N canvas -9 -9 1845 1028 getvminvmax 0;
#X obj 33 34 inlet;
#X obj 27 146 get template_circletest vmin vmax;
#X obj 36 315 pack f f;
#X obj 32 349 s \$0-set_limit_sprites;
#X obj 26 212 clip 0 128;
#X obj 255 206 clip 0 128;
#X connect 0 0 1 0;
#X connect 1 0 4 0;
#X connect 1 1 5 0;
#X connect 2 0 3 0;
#X connect 4 0 2 0;
#X connect 5 0 2 1;
#X restore 44 212 pd getvminvmax;
#N canvas 201 112 1323 755 struct_circletest_init 0;
#X msg 118 213 61;
#X msg 174 221 79;
#X msg 18 199 -61;
#X msg 66 215 79;
#X msg 238 219 22;
#X obj 18 -17 inlet;
#X obj 308 215 cpx_structptr0 pd-data_circletest;
#X msg 18 6 8;
#X obj 18 51 until;
#X obj 18 28 t f b;
#X obj 18 257 append template_circletest x1 y1 x2 y2 ccn x y;
#X obj 18 77 t b b b;
#X obj 193 161 + 0;
#X obj 307 178 + 0;
#X obj 177 116 mpdsysex_ci 450 900;
#X obj 307 143 mpdsysex_ci 256 900;
#X msg 259 58 0;
#X connect 0 0 10 2;
#X connect 1 0 10 3;
#X connect 2 0 10 0;
#X connect 3 0 10 1;
#X connect 4 0 10 4;
#X connect 5 0 7 0;
#X connect 6 0 10 7;
#X connect 7 0 9 0;
#X connect 8 0 11 0;
#X connect 9 0 8 0;
#X connect 9 1 6 0;
#X connect 9 1 16 0;
#X connect 11 0 2 0;
#X connect 11 0 3 0;
#X connect 11 0 0 0;
#X connect 11 0 1 0;
#X connect 11 1 4 0;
#X connect 11 1 14 0;
#X connect 12 0 10 5;
#X connect 13 0 10 6;
#X connect 14 0 12 0;
#X connect 14 1 15 0;
#X connect 15 0 13 0;
#X connect 16 0 14 1;
#X connect 16 0 15 1;
#X restore 616 281 pd struct_circletest_init;
#X obj 616 255 r struct_circletest_init;
#X obj 171 46 filledcurve -xv 222 444 4 100 0 71 71 0 100 -71 71 -100
0 -71 -71 0 -100 71 -71 100 0, f 76;
#X obj 171 91 drawpolygon -xv 900 1 x1 y1 0 0;
#X obj 171 115 drawpolygon -xv 900 1 x2 y2 0 0;
#X obj 397 139 drawnumber ccn -40 -40 660;
#X obj 20 10 struct template_circletest float x float y float x1 float
y1 float x2 float y2 float ccn float vmin float vmax, f 89;
#X obj 397 91 drawnumber vmax 100 -100 222;
#X obj 397 115 drawnumber vmin 100 32 222;
#X obj 302 271 r \$0-set_limit_sprites;
#X obj 44 145 t p p;
#N canvas -9 -9 1845 1028 setlimitsprites 0;
#X floatatom 163 332 5 0.71 2.29 0 - - -;
#X floatatom 163 430 5 0 0 0 - - -;
#X floatatom 266 430 5 0 0 0 - - -;
#X obj 163 364 cpx_rotxy 100 0;
#X floatatom 298 331 5 0.71 2.29 0 - - -;
#X floatatom 368 430 5 0 0 0 - - -;
#X floatatom 471 430 5 0 0 0 - - -;
#X obj 298 362 t b f, f 6;
#X obj 369 399 cpx_rotxy 100 0;
#X obj 163 455 set template_circletest x1 y1 x2 y2, f 59;
#X obj 218 251 / 128;
#X obj 285 251 / 128;
#X obj 218 275 * 1.58;
#X obj 216 299 + 0.71;
#X obj 282 276 * 1.58;
#X obj 280 300 + 0.71;
#X obj 210 149 inlet;
#X obj 217 187 unpack f f;
#X obj 463 149 inlet;
#X connect 0 0 3 0;
#X connect 1 0 9 0;
#X connect 2 0 9 1;
#X connect 3 0 1 0;
#X connect 3 1 2 0;
#X connect 4 0 7 0;
#X connect 5 0 9 2;
#X connect 6 0 9 3;
#X connect 7 0 9 0;
#X connect 7 1 8 0;
#X connect 8 0 5 0;
#X connect 8 1 6 0;
#X connect 10 0 12 0;
#X connect 11 0 14 0;
#X connect 12 0 13 0;
#X connect 13 0 0 0;
#X connect 14 0 15 0;
#X connect 15 0 4 0;
#X connect 16 0 17 0;
#X connect 17 0 10 0;
#X connect 17 1 11 0;
#X connect 18 0 9 4;
#X restore 302 294 pd setlimitsprites;
#X connect 0 0 12 0;
#X connect 3 0 2 0;
#X connect 8 0 0 0;
#X connect 11 0 13 0;
#X connect 12 0 1 0;
#X connect 12 1 13 1;
#X restore 708 324 pd template_knobs;
#N canvas -9 -9 1845 1028 template_faders 0;
#X obj 32 21 struct template_ccs2 float x float y float ctlno float
vmin float vmax, f 71;
#N canvas -9 -9 1845 1028 struct_ccs2_init 0;
#X msg 24 208 0;
#X obj 24 4 inlet;
#X obj 24 55 t f b, f 6;
#X obj 24 83 until;
#X obj 24 258 append template_ccs2 x y ctlno vmin vmax, f 47;
#X msg 23 32 6;
#X msg 206 226 0;
#X msg 274 225 127;
#X obj 36 163 mpdsysex_ci 32 1024;
#X obj 350 233 cpx_structptr0 pd-data_ccs2;
#X connect 0 0 4 2;
#X connect 0 0 4 1;
#X connect 1 0 5 0;
#X connect 2 0 3 0;
#X connect 2 1 8 1;
#X connect 2 1 9 0;
#X connect 3 0 0 0;
#X connect 3 0 7 0;
#X connect 3 0 6 0;
#X connect 3 0 8 0;
#X connect 5 0 2 0;
#X connect 6 0 4 3;
#X connect 7 0 4 4;
#X connect 8 0 4 0;
#X connect 9 0 4 5;
#X restore 375 196 pd struct_ccs2_init;
#X obj 375 167 r struct_ccs2_init;
#X text 458 73 note the reverse order and the reverse range for GOP
;
#X text 458 85 basically \, its upside down (reversed Y axis);
#X obj 89 328 filledpolygon -xv 666 666 0 0 127 32 127 32 0 0 0 0 127
, f 62;
#X obj 89 302 filledpolygon 777 777 0 1 48 24 48 24 80 1 80 1 48;
#X obj 89 262 filledpolygon -xv 990 990 0 12 vmin 13 vmin 13 vmax 12
vmax 12 vmin, f 62;
#X obj 21 119 drawtext vmin 2 32 111;
#X obj 21 141 drawtext vmax 2 128 111;
#X obj 20 163 drawtext ctlno 2 80 111;
#X connect 2 0 1 0;
#X restore 701 345 pd template_faders;
#X text 697 365 Note: you can call these;
#X text 697 380 anything you want \, they;
#X text 697 395 are not struct relevant;
#X obj 25 76 cnv 15 180 180 empty empty empty 20 12 0 14 -24967 -66577
0;
#X text 640 463 ║ BOX DRAWING ║╔══╗═╝╚═╬═╦═╩
║;
#X text 640 476 ╚═══════════════╝
;
#X text 640 450 ╔═══════════════╗░▀▄█▌▐░▒▓■▌
;
#X text 504 207 TODO: now were cooking with gas \; cockpit sim!!!;
#X obj 27 279 r \$0-sysexbuffer;
#X obj 27 387 cpx_list2file;
#X msg 114 360 clear;
#X obj 374 293 bng 15 250 50 0 empty empty empty 17 7 0 10 -262144
-1 -1;
#X msg 651 58 \; pd-data_padno clear \; pd-data_ccs2 clear \; pd-data_pads
clear \; pd-data_circletest clear \; struct_ccs2_init bang \; struct_paddisp_init
bang \; struct_pads_init bang \; struct_circletest_init bang \;;
#N canvas -1929 104 1920 1028 data_pads 0;
#X scalar template_pads 0 0 0 0 0 0 0 0 \;;
#X scalar template_pads 0 0 0 0 0 1 12 0 \;;
#X scalar template_pads 0 0 0 0 0 2 24 0 \;;
#X scalar template_pads 0 0 0 0 0 3 36 0 \;;
#X scalar template_pads 0 0 0 0 0 4 0 12 \;;
#X scalar template_pads 0 0 0 0 0 5 12 12 \;;
#X scalar template_pads 0 0 0 0 0 6 24 12 \;;
#X scalar template_pads 0 0 0 0 0 7 36 12 \;;
#X scalar template_pads 0 0 0 0 0 8 0 24 \;;
#X scalar template_pads 0 0 0 0 0 9 12 24 \;;
#X scalar template_pads 0 0 0 0 0 10 24 24 \;;
#X scalar template_pads 0 0 0 0 0 11 36 24 \;;
#X scalar template_pads 0 0 0 0 0 12 0 36 \;;
#X scalar template_pads 0 0 0 0 0 13 12 36 \;;
#X scalar template_pads 0 0 0 0 0 14 24 36 \;;
#X scalar template_pads 0 0 0 0 0 15 36 36 \;;
#X scalar template_pads 0 0 0 0 0 16 48 0 \;;
#X scalar template_pads 0 0 0 0 0 17 60 0 \;;
#X scalar template_pads 0 0 0 0 0 18 72 0 \;;
#X scalar template_pads 0 0 0 0 0 19 84 0 \;;
#X scalar template_pads 0 0 0 0 0 20 48 12 \;;
#X scalar template_pads 0 0 0 0 0 21 60 12 \;;
#X scalar template_pads 0 0 0 0 0 22 72 12 \;;
#X scalar template_pads 0 0 0 0 0 23 84 12 \;;
#X scalar template_pads 0 0 0 0 0 24 48 24 \;;
#X scalar template_pads 0 0 0 0 0 25 60 24 \;;
#X scalar template_pads 0 0 0 0 0 26 72 24 \;;
#X scalar template_pads 0 0 0 0 0 27 84 24 \;;
#X scalar template_pads 0 0 0 0 0 28 48 36 \;;
#X scalar template_pads 0 0 0 0 0 29 60 36 \;;
#X scalar template_pads 0 0 0 0 0 30 72 36 \;;
#X scalar template_pads 0 0 0 0 0 31 84 36 \;;
#X scalar template_pads 0 0 0 0 0 32 0 48 \;;
#X scalar template_pads 0 0 0 0 0 33 12 48 \;;
#X scalar template_pads 0 0 0 0 0 34 24 48 \;;
#X scalar template_pads 0 0 0 0 0 35 36 48 \;;
#X scalar template_pads 0 0 0 0 0 36 0 60 \;;
#X scalar template_pads 0 0 0 0 0 37 12 60 \;;
#X scalar template_pads 0 0 0 0 0 38 24 60 \;;
#X scalar template_pads 0 0 0 0 0 39 36 60 \;;
#X scalar template_pads 0 0 0 0 0 40 0 72 \;;
#X scalar template_pads 0 0 0 0 0 41 12 72 \;;
#X scalar template_pads 0 0 0 0 0 42 24 72 \;;
#X scalar template_pads 0 0 0 0 0 43 36 72 \;;
#X scalar template_pads 0 0 0 0 0 44 0 84 \;;
#X scalar template_pads 0 0 0 0 0 45 12 84 \;;
#X scalar template_pads 0 0 0 0 0 46 24 84 \;;
#X scalar template_pads 0 0 0 0 0 47 36 84 \;;
#X scalar template_pads 0 0 0 0 0 48 48 48 \;;
#X scalar template_pads 0 0 0 0 0 49 60 48 \;;
#X scalar template_pads 0 0 0 0 0 50 72 48 \;;
#X scalar template_pads 0 0 0 0 0 51 84 48 \;;
#X scalar template_pads 0 0 0 0 0 52 48 60 \;;
#X scalar template_pads 0 0 0 0 0 53 60 60 \;;
#X scalar template_pads 0 0 0 0 0 54 72 60 \;;
#X scalar template_pads 0 0 0 0 0 55 84 60 \;;
#X scalar template_pads 0 0 0 0 0 56 48 72 \;;
#X scalar template_pads 0 0 0 0 0 57 60 72 \;;
#X scalar template_pads 0 0 0 0 0 58 72 72 \;;
#X scalar template_pads 0 0 0 0 0 59 84 72 \;;
#X scalar template_pads 0 0 0 0 0 60 48 84 \;;
#X scalar template_pads 0 0 0 0 0 61 60 84 \;;
#X scalar template_pads 0 0 0 0 0 62 72 84 \;;
#X scalar template_pads 0 0 0 0 0 63 84 84 \;;
#X coords 0 0 96 96 180 180 2 0 0;
#X restore 26 77 pd data_pads;
#N canvas -9 -9 1845 1028 presetparams 0;
#X floatatom 338 100 3 29 30 1 - #0-mpd24_bangall #0-pstaddr;
#X floatatom 208 100 3 0 3 1 - #0-mpd24_bangall #0-pstbank;
#X floatatom 244 100 5 0 1 1 - #0-mpd24_bangall #0-psttrsp;
#X floatatom 651 98 5 0 32 1 CH #0-mpd24_bangall #0-mpd24_ccs_channel
;
#X msg 160 262 label \$1;
#X obj 159 236 r \$0-pstname;
#X obj 160 290 s \$0-pstname_disp;
#X symbolatom 135 100 8 0 0 1 - #0-mpd24_bangall #0-pstname;
#X obj 373 219 r \$0-pstbank;
#X obj 373 369 s \$0-pstbank_disp;
#X msg 373 341 label \$1;
#X obj 373 242 select 0 1 2 3;
#X msg 373 291 s A;
#X msg 405 291 s B;
#X msg 438 291 s C;
#X msg 474 291 s D;
#X msg 552 341 label \$1;
#X obj 552 242 select 0 1;
#X msg 552 291 s MMC;
#X msg 602 291 s CTL;
#X obj 552 369 s \$0-psttrsp_disp;
#X obj 552 217 r \$0-psttrsp;
#X obj 684 216 r \$0-pstaddr;
#X obj 684 368 s \$0-pstaddr_disp;
#X msg 684 251 s \$1;
#X msg 684 340 label \$1░;
#X obj 100 100 cnv 15 285 18 empty empty empty 20 12 0 14 -66577 -66577
0;
#X obj 122 103 cnv 11 80 12 empty \$0-pstname_disp THEPRESET 2 7 0
11 -86277 -261234 0;
#X obj 206 103 cnv 11 24 12 empty \$0-pstbank_disp A 12 7 0 11 -86277
-261234 0;
#X obj 243 103 cnv 11 36 12 empty \$0-psttrsp_disp CTL 12 7 0 11 -86277
-261234 0;
#X obj 337 103 cnv 11 24 12 empty \$0-pstaddr_disp 30░ 2 7 0 11 -86277
-261234 0;
#X connect 4 0 6 0;
#X connect 5 0 4 0;
#X connect 8 0 11 0;
#X connect 10 0 9 0;
#X connect 11 0 12 0;
#X connect 11 1 13 0;
#X connect 11 2 14 0;
#X connect 11 3 15 0;
#X connect 12 0 10 0;
#X connect 13 0 10 0;
#X connect 14 0 10 0;
#X connect 15 0 10 0;
#X connect 16 0 20 0;
#X connect 17 0 18 0;
#X connect 17 1 19 0;
#X connect 18 0 16 0;
#X connect 19 0 16 0;
#X connect 21 0 17 0;
#X connect 22 0 24 0;
#X connect 24 0 25 0;
#X connect 25 0 23 0;
#X coords 0 -1 1 1 285 18 2 100 100;
#X restore 211 58 pd presetparams;
#N canvas 0 50 450 300 canvbtn_dump 0;
#X obj 132 100 bng 15 250 50 0 \$0-mpd24sysex_dump empty empty 17 7
0 10 -262144 -1 -1;
#X obj 116 100 bng 15 250 50 0 empty empty empty 17 7 0 10 -262144
-1 -1;
#X obj 100 100 bng 15 250 50 0 empty empty empty 17 7 0 10 -262144
-1 -1;
#X obj 100 100 cnv 15 48 16 empty \$0-dump_disp DUMP 8 8 0 14 -143491
-99865 0;
#X obj 37 14 r \$0-mpd24sysex_dump;
#X obj 37 130 s \$0-dump_disp;
#X msg 37 76 color 23 21 21;
#X obj 118 50 delay 500;
#X msg 2 50 color 13 3 3;
#X connect 1 0 0 0;
#X connect 2 0 1 0;
#X connect 4 0 7 0;
#X connect 4 0 8 0;
#X connect 6 0 5 0;
#X connect 7 0 6 0;
#X connect 8 0 5 0;
#X coords 0 -1 1 1 48 16 2 100 100;
#X restore 212 24 pd canvbtn_dump;
#X obj 27 317 t l b;
#X connect 5 0 6 0;
#X connect 7 0 8 0;
#X connect 8 0 58 0;
#X connect 8 4 1 0;
#X connect 8 5 3 0;
#X connect 8 6 0 0;
#X connect 8 7 4 0;
#X connect 8 8 5 0;
#X connect 8 9 9 0;
#X connect 10 0 9 0;
#X connect 12 0 14 0;
#X connect 14 0 13 0;
#X connect 16 0 19 0;
#X connect 18 0 17 0;
#X connect 19 0 17 0;
#X connect 20 1 19 0;
#X connect 21 0 20 0;
#X connect 28 0 59 0;
#X connect 55 0 63 0;
#X connect 57 0 56 1;
#X connect 63 0 56 0;
#X coords 0 -1 1 1 480 240 2 20 20;
#X restore 20 16 pd sequence_list;
#X text 481 293 TODO======================;
#X text 510 306 interactive display struct for entering and displaying
values (for pads);
#N canvas -9 -9 1845 1028 debug 0;
#X obj 17 1 inlet;
#X obj 645 264 r \$0-pixo;
#X obj 663 284 r \$0-piyo;
#X obj 626 242 r \$0-piy;
#X obj 607 222 r \$0-pix;
#X obj 682 315 r \$0-dbg-padno;
#X obj 589 342 pack b f f f f f;
#X obj 589 371 print DEBUG;
#X obj 117 6 inlet;
#X obj 360 231 t b b b;
#X obj 361 310 s \$0-cireset;
#X obj 381 289 s \$0-struct_pads;
#X msg 399 255 \; pd-data_pads clear \;;
#X obj 26 77 symbol;
#X obj 26 116 select drawpads drawpad clearpads logdbg, f 96;
#X obj 17 46 select 1;
#X obj 17 23 int;
#X obj 117 42 symbol;
#X connect 0 0 16 0;
#X connect 1 0 6 3;
#X connect 2 0 6 4;
#X connect 3 0 6 2;
#X connect 4 0 6 1;
#X connect 5 0 6 5;
#X connect 6 0 7 0;
#X connect 8 0 17 0;
#X connect 9 0 10 0;
#X connect 9 1 11 0;
#X connect 9 2 12 0;
#X connect 13 0 14 0;
#X connect 14 2 9 0;
#X connect 14 3 6 0;
#X connect 15 0 13 0;
#X connect 16 0 15 0;
#X connect 17 0 13 1;
#X restore 614 180 pd debug;
#X obj 614 142 tgl 15 0 empty empty empty 17 7 0 10 -262144 -1 -1 0
1;
#X obj 667 140 r \$0-mpd24sysex_debug;
#X text 522 141 DEBUG SWITCH;
#N canvas 0 50 1807 908 read_live_ucs_data 0;
#X obj 68 158 textfile;
#X msg 123 101 rewind;
#X symbolatom 68 199 32 0 0 0 - - -;
#X obj 68 178 unpack s f;
#X obj 68 219 pack s f;
#X msg 68 240 add \$1 \$2;
#X msg 57 101 clear;
#X obj 43 264 textfile;
#X msg 42 33 symbol ./data/livescdir/-MPD-Generic1/UserConfiguration.txt
;
#X msg 124 75 read \$1 cr;
#X msg 42 75 write \$1 cr;
#X msg 124 54 symbol ./data/UserConfigurationSource.txt;
#X floatatom 247 147 5 0 0 0 - - -;
#X obj 207 79 ctlin;
#X obj 220 120 t b f;
#X connect 0 0 3 0;
#X connect 1 0 0 0;
#X connect 2 0 4 0;
#X connect 3 0 2 0;
#X connect 4 0 5 0;
#X connect 5 0 7 0;
#X connect 6 0 7 0;
#X connect 8 0 10 0;
#X connect 9 0 0 0;
#X connect 10 0 7 0;
#X connect 11 0 9 0;
#X connect 12 0 4 1;
#X connect 13 1 14 0;
#X connect 14 1 12 0;
#X restore 517 235 pd read_live_ucs_data;
#X connect 4 0 3 0;
#X connect 5 0 3 1;
