#N struct template_padno float x float y float iov_ptype float iov_pchan
float iov_pnpc float iov_ptrig float iov_paftc float iov_pno float
bg float fg;
#N struct template_ccs2 float x float y float ctlno float vmin float
vmax;
#N struct template_circletest float x float y float x1 float y1 float
x2 float y2 float ccn float vmin float vmax float chan;
#N struct template_pads float type float ch float noteprogcc float
triggermsb float atlsb float padpos float x float y;
#N struct ucs_globals float gchan float bankncc float bankpcc float
surfacelockcc float slidermastercc float slidermasterch;
#N struct ucs_pads float x float y float pnn float pchan;
#N struct ucs_device float x float y float eccn float echan;
#N struct ucs_mixer float x float y float fvolccn float fvolchn float
psnd1ccn float psnd2ccn float barmccn;
#N struct ucs_banksel float x float y float bccn;
#N struct ucs_transport float x float y float bstopccn float bplayccn
float brecccn float bloopccn float brwdccn float bfwdccn;
#N struct ucs_symbols float x float y symbol sportn symbol mvolmap
symbol msendmap symbol mencmap;
#N canvas -9 -9 1845 1028 12;
#N canvas -1929 104 1920 1028 sequence_list 1;
#N canvas -1929 104 1920 1028 template_pads 0;
#X obj 24 11 struct template_pads float type float ch float noteprogcc
float triggermsb float atlsb float padpos float x float y;
#X obj 24 69 route click;
#N canvas -1929 104 1920 1028 pads_record_values 0;
#X obj 368 275 r \$0-mpd24_pad_npc;
#X obj 594 279 pointer;
#X obj 608 90 inlet;
#X obj 211 420 set template_pads type ch noteprogcc triggermsb atlsb
;
#X floatatom 126 301 5 0 0 0 - - -;
#X floatatom 254 301 5 0 0 0 - - -;
#X floatatom 367 307 5 0 0 0 - - -;
#X floatatom 450 304 5 0 0 0 - - -;
#X floatatom 515 297 5 0 0 0 - - -;
#X obj 608 115 t p b;
#X obj 126 77 inlet;
#X msg 126 105 bang;
#X obj 314 80 r \$0-pads_disp_params;
#X obj 314 116 unpack f f f f;
#X connect 0 0 6 0;
#X connect 1 0 3 5;
#X connect 2 0 9 0;
#X connect 4 0 3 0;
#X connect 5 0 3 1;
#X connect 6 0 3 2;
#X connect 7 0 3 3;
#X connect 8 0 3 4;
#X connect 9 0 1 0;
#X connect 10 0 11 0;
#X connect 11 0 4 0;
#X connect 12 0 13 0;
#X connect 13 0 4 0;
#X connect 13 1 5 0;
#X connect 13 2 7 0;
#X connect 13 3 8 0;
#X restore 199 203 pd pads_record_values;
#X msg 99 48 click;
#N canvas -1929 104 1920 1028 struct_pads_init 0;
#X obj 368 85 until;
#X obj 258 13 inlet;
#X msg 17 374 0;
#X obj 14 449 append template_pads type ch noteprogcc triggermsb atlsb
padpos x y, f 107;
#X floatatom 407 147 5 0 0 0 - - #0-dbg-padno;
#X obj 258 40 trigger bang bang bang bang bang, f 63;
#X msg 688 318 0;
#X obj 466 213 r \$0-cireset;
#X obj 347 179 r \$0-cireset;
#X obj 551 146 r \$0-cireset;
#X obj 688 296 r \$0-cireset;
#X obj 483 69 s \$0-cireset;
#X floatatom 457 391 5 0 0 0 - - -;
#X floatatom 538 391 5 0 0 0 - - -;
#X obj 494 364 r \$0-pix;
#X obj 578 367 r \$0-piy;
#X obj 589 343 r \$0-piyo;
#X obj 510 342 r \$0-pixo;
#X obj 688 343 s \$0-pixo;
#X obj 752 342 s \$0-piyo;
#X obj 319 285 s \$0-piy;
#X obj 226 285 s \$0-pix;
#X msg 752 317 0;
#X obj 442 187 t f f, f 9;
#X text 559 232 padgroup++;
#X obj 17 398 t f f f f f, f 53;
#X obj 226 231 int;
#X obj 319 232 int;
#X text 281 202 row++;
#X text 171 164 column++;
#X text 522 275 set xy origin in bseq 0 \, 0 0 \, 32 32 \, 0 32 \,
32;
#X obj 17 106 trigger bang bang bang bang, f 105;
#X text 232 122 CALCULATE XY:;
#X text 448 122 SET XY ORIGIN FOR BANKS:;
#X msg 257 63 debug-draw-pad;
#X obj 441 299 s \$0-piyo;
#X obj 515 299 s \$0-pixo;
#X obj 250 144 r \$0-cireset;
#X obj 494 391 + 0;
#X obj 575 391 + 0;
#X msg 813 318 0;
#X msg 877 317 0;
#X obj 813 343 s \$0-pix;
#X obj 877 342 s \$0-piy;
#X obj 577 69 s \$0-struct_pads;
#X obj 758 378 r \$0-struct_pads;
#X obj 443 146 mpdsysex_ci 1 64;
#X obj 442 233 mpdsysex_ci 1 16;
#X obj 441 257 r \$0-cireset;
#X msg 368 63 64;
#X msg 752 144 logdbg;
#X obj 754 172 outlet;
#X text 802 172 debug msgs;
#X obj 758 424 cpx_structptr0;
#X msg 758 401 pd-data_pads;
#X obj 226 163 mpdsysex_ci 12 48;
#X obj 319 202 mpdsysex_ci 12 48;
#X obj 441 276 dtob 48, f 11;
#X connect 0 0 31 0;
#X connect 1 0 5 0;
#X connect 2 0 25 0;
#X connect 5 1 49 0;
#X connect 5 2 11 0;
#X connect 5 3 44 0;
#X connect 5 4 51 0;
#X connect 6 0 18 0;
#X connect 6 0 22 0;
#X connect 7 0 47 1;
#X connect 8 0 56 1;
#X connect 9 0 46 1;
#X connect 10 0 6 0;
#X connect 14 0 38 0;
#X connect 15 0 39 0;
#X connect 16 0 39 1;
#X connect 17 0 38 1;
#X connect 22 0 19 0;
#X connect 22 0 40 0;
#X connect 23 0 47 0;
#X connect 23 1 3 5;
#X connect 25 0 3 0;
#X connect 25 1 3 1;
#X connect 25 2 3 2;
#X connect 25 3 3 3;
#X connect 25 4 3 4;
#X connect 26 0 21 0;
#X connect 27 0 20 0;
#X connect 31 0 2 0;
#X connect 31 1 55 0;
#X connect 31 2 46 0;
#X connect 31 3 50 0;
#X connect 34 0 31 0;
#X connect 37 0 55 1;
#X connect 38 0 3 6;
#X connect 38 0 12 0;
#X connect 39 0 3 7;
#X connect 39 0 13 0;
#X connect 40 0 42 0;
#X connect 40 0 41 0;
#X connect 41 0 43 0;
#X connect 45 0 54 0;
#X connect 46 0 4 0;
#X connect 46 0 23 0;
#X connect 47 1 57 0;
#X connect 48 0 57 1;
#X connect 49 0 0 0;
#X connect 50 0 51 0;
#X connect 53 0 3 8;
#X connect 54 0 53 0;
#X connect 55 0 26 0;
#X connect 55 1 56 0;
#X connect 56 0 27 0;
#X connect 57 0 35 0;
#X connect 57 1 36 0;
#X restore 439 202 pd struct_pads_init;
#X msg 476 277 clearpads;
#X msg 464 179 debug-draw-pads;
#X obj 214 121 r \$0-mpd24_ppux_sticky;
#X obj 278 279 r \$0-mpd24_ppux_nninc;
#X obj 199 145 int;
#X obj 199 172 select 1;
#X obj 260 304 int;
#X obj 261 326 select 1;
#X obj 262 346 mpdsysex_ci 1 64;
#X obj 262 367 s \$0-mpd24_pad_npc;
#X obj 24 94 t p b b p, f 51;
#X text 140 48 set event listener;
#X text 110 70 on event listener;
#N canvas -9 -9 1845 1028 pads_retrieve_values 0;
#X floatatom 131 97 5 0 0 0 - - -;
#X obj 48 70 get template_pads type ch noteprogcc triggermsb atlsb
padpos;
#X floatatom 465 97 5 0 0 0 - - -;
#X floatatom 215 97 5 0 0 0 - - -;
#X floatatom 298 97 5 0 0 0 - - -;
#X floatatom 382 96 5 0 0 0 - - -;
#X floatatom 48 97 5 0 0 0 - - -;
#X obj 48 30 inlet;
#X obj 211 301 pack f f f f f f;
#X obj 211 324 s \$0-pads_params_sel;
#X connect 0 0 8 1;
#X connect 1 0 6 0;
#X connect 1 1 0 0;
#X connect 1 2 3 0;
#X connect 1 3 4 0;
#X connect 1 4 5 0;
#X connect 1 5 2 0;
#X connect 2 0 8 5;
#X connect 3 0 8 2;
#X connect 4 0 8 3;
#X connect 5 0 8 4;
#X connect 6 0 8 0;
#X connect 7 0 1 0;
#X connect 8 0 9 0;
#X restore 24 203 pd pads_retrieve_values;
#X text 108 222 read struct;
#X text 262 222 write struct;
#X text 495 221 init struct;
#X text 324 44 declare struct;
#X obj 439 368 s \$0-mpd24sysex_debug;
#X obj 439 154 r struct_pads_init;
#X obj 430 53 filledpolygon -xv 555 555 0 1 1 11 1 11 11 1 11 1 1;
#X obj 444 11 drawnumber noteprogcc 1 2 222;
#X connect 0 0 1 0;
#X connect 1 0 15 0;
#X connect 3 0 1 1;
#X connect 4 0 23 0;
#X connect 5 0 23 0;
#X connect 6 0 4 0;
#X connect 7 0 9 1;
#X connect 8 0 11 1;
#X connect 9 0 10 0;
#X connect 10 0 2 0;
#X connect 11 0 12 0;
#X connect 12 0 13 0;
#X connect 13 0 14 0;
#X connect 15 0 18 0;
#X connect 15 1 9 0;
#X connect 15 2 11 0;
#X connect 15 3 2 1;
#X connect 24 0 4 0;
#X coords 0 514 1 513 96 96 0;
#X restore 701 86 pd template_pads;
#X obj 20 20 cnv 15 479 239 empty empty empty 20 12 0 14 -195568 -66577
0;
#X obj 318 24 cnv 11 176 12 empty empty ▐▄░▄█▐███▐▀▀▄░▀▀▀▄▐▄▄█
12 4 0 12 -195568 -196685 0;
#N canvas -9 -9 1845 1028 data_padno 0;
#X scalar template_padno 0 0 2 0 0 0 0 31 0 0 \;;
#X coords 0 0 110 128 110 128 2 100 100;
#X restore 214 76 pd data_padno;
#N canvas 0 50 450 300 data_ccs2 0;
#X scalar template_ccs2 0 0 0 0 127 \;;
#X scalar template_ccs2 32 0 0 0 127 \;;
#X scalar template_ccs2 64 0 0 0 127 \;;
#X scalar template_ccs2 96 0 0 0 127 \;;
#X scalar template_ccs2 128 0 0 0 127 \;;
#X scalar template_ccs2 160 0 0 0 127 \;;
#X coords 0 127 188 0 180 48 2 0 0;
#X restore 26 23 pd data_ccs2;
#X obj 318 48 cnv 8 176 8 empty empty S░Y░S░E░X░░P░A░T░C░H░░E░D░I░T░O░R
12 4 0 8 -195568 -33289 0;
#X obj 318 36 cnv 11 176 12 empty empty ▐░█░█▐░░░▐▄▄█░███▄░░░█
12 4 0 12 -195568 -196685 0;
#N canvas -1929 104 1920 1028 data_circletest 0;
#X scalar template_circletest 0 0 -61.2906 79.0156 64.3084 76.5796
70 0 127 0 \;;
#X scalar template_circletest 450 0 -61.2906 79.0156 64.3084 76.5796
70 0 127 0 \;;
#X scalar template_circletest 0 256 -61.2906 79.0156 64.3084 76.5796
70 0 127 0 \;;
#X scalar template_circletest 450 256 -61.2906 79.0156 64.3084 76.5796
70 0 127 0 \;;
#X scalar template_circletest 0 512 -61.2906 79.0156 64.3084 76.5796
70 0 127 0 \;;
#X scalar template_circletest 450 512 -61.2906 79.0156 64.3084 76.5796
70 0 127 0 \;;
#X scalar template_circletest 0 768 -61.2906 79.0156 64.3084 76.5796
70 0 127 0 \;;
#X scalar template_circletest 450 768 -61.2906 79.0156 64.3084 76.5796
70 0 127 0 \;;
#X coords -150 -150 750 870 164 180 2 0 0;
#X restore 333 77 pd data_circletest;
#N canvas -9 -9 1845 1028 template_paddisp 0;
#N canvas 0 50 1513 580 struct_aptr 0;
#X msg 175 135 traverse pd-data_pads \, bang;
#X obj 175 157 pointer;
#X obj 177 106 inlet;
#X obj 174 185 outlet;
#X text 124 59 for append only \, set ptr to struct once;
#X connect 0 0 1 0;
#X connect 1 0 3 0;
#X connect 2 0 0 0;
#X restore 1037 701 pd struct_aptr;
#N canvas 421 106 1214 567 paddisp_init 0;
#X msg 24 79 0;
#X obj 24 55 t b b, f 6;
#X obj 24 22 inlet;
#X obj 24 129 append template_padno x y iov_ptype iov_pchan iov_pnpc
iov_ptrig iov_paftc iov_pno bg fg, f 47;
#X obj 350 88 cpx_structptr0 pd-data_padno, f 14;
#X connect 0 0 3 1;
#X connect 0 0 3 0;
#X connect 1 0 0 0;
#X connect 1 1 4 0;
#X connect 2 0 1 0;
#X connect 4 0 3 10;
#X restore 620 280 pd paddisp_init;
#N canvas 253 105 1401 474 paddisp_assign 0;
#X obj 136 3 inlet;
#X obj 136 188 set template_padno iov_ptype iov_pchan iov_ptrig iov_paftc
iov_pno;
#X obj 136 68 unpack f f f f f f;
#X obj 136 30 t l b, f 57;
#X obj 532 164 cpx_structptri pd-data_padno 1;
#X connect 0 0 3 0;
#X connect 2 0 1 0;
#X connect 2 1 1 1;
#X connect 2 3 1 2;
#X connect 2 4 1 3;
#X connect 2 5 1 4;
#X connect 3 0 2 0;
#X connect 3 1 4 0;
#X connect 4 0 1 5;
#X restore 148 237 pd paddisp_assign;
#X msg 620 99 debug-init;
#X obj 28 217 route click;
#N canvas 444 125 1293 702 paddisp_retr 0;
#X obj 66 87 get template_padno iov_ptype iov_pchan iov_ptrig iov_paftc
;
#X obj 173 129 pack f f f f;
#X obj 66 25 inlet;
#X obj 173 189 s \$0-pads_disp_params;
#X connect 0 0 1 0;
#X connect 0 1 1 1;
#X connect 0 2 1 2;
#X connect 0 3 1 3;
#X connect 1 0 3 0;
#X connect 2 0 0 0;
#X restore 28 254 pd paddisp_retr;
#X obj 148 211 r \$0-pads_params_sel;
#X obj 28 16 struct template_padno float x float y float iov_ptype
float iov_pchan float iov_pnpc float iov_ptrig float iov_paftc float
iov_pno float bg float fg, f 17;
#X obj 276 331 r \$0-mpd24_ppux_sticky;
#X obj 259 356 int;
#X obj 261 382 select 1;
#X floatatom 60 346 5 0 0 0 - - -;
#X obj 37 312 mpdsysex_ci 1 2;
#X obj 639 226 r struct_paddisp_init;
#X obj 154 137 filledpolygon 47 47 0 0 0 111 0 111 181 0 181 0 0;
#X obj 155 16 drawtext iov_paftc 8 72 679 AT░░░;
#X obj 155 37 drawtext iov_ptrig 8 56 679 TG░░░;
#X obj 155 58 drawtext iov_pchan 8 40 679 CH░░░;
#X obj 155 79 drawtext iov_ptype 8 24 679 N/P░░;
#X obj 155 100 drawtext iov_pno 8 8 679 PAD░░;
#X connect 3 0 1 0;
#X connect 4 0 5 0;
#X connect 4 0 12 0;
#X connect 6 0 2 0;
#X connect 7 0 4 0;
#X connect 8 0 9 1;
#X connect 9 0 10 0;
#X connect 12 0 11 0;
#X connect 13 0 1 0;
#X restore 701 65 pd template_paddisp;
#N canvas -9 -9 1845 1028 template_knobs 0;
#X obj 20 65 route click;
#N canvas -9 -9 1845 1028 getvminvmax 0;
#X obj 33 34 inlet;
#X obj 27 146 get template_circletest vmin vmax;
#X obj 36 315 pack f f;
#X obj 32 349 s \$0-set_limit_sprites;
#X obj 26 212 clip 0 128;
#X obj 255 206 clip 0 128;
#X connect 0 0 1 0;
#X connect 1 0 4 0;
#X connect 1 1 5 0;
#X connect 2 0 3 0;
#X connect 4 0 2 0;
#X connect 5 0 2 1;
#X restore 20 212 pd getvminvmax;
#N canvas 288 206 1323 755 struct_circletest_init 0;
#X obj 18 -17 inlet;
#X obj 490 218 cpx_structptr0 pd-data_circletest;
#X obj 18 55 until;
#X obj 18 28 t f b;
#X obj 365 145 mpdsysex_ci 256 900;
#X msg 365 88 0;
#X obj 18 77 t b b;
#X obj 235 118 mpdsysex_ci 450 900;
#X obj 18 257 append template_circletest x1 y1 x2 y2 ccn chan vmin
vmax x y, f 68;
#X obj 18 197 pack -61 79 61 79 70 -1 0 127;
#X connect 0 0 3 0;
#X connect 1 0 8 10;
#X connect 2 0 6 0;
#X connect 3 0 2 0;
#X connect 3 1 1 0;
#X connect 3 1 5 0;
#X connect 4 0 8 9;
#X connect 5 0 4 1;
#X connect 5 0 7 1;
#X connect 6 0 9 0;
#X connect 6 1 7 0;
#X connect 7 0 8 8;
#X connect 7 1 4 0;
#X connect 9 0 8 0;
#X restore 401 212 pd struct_circletest_init;
#X obj 401 186 r struct_circletest_init;
#X obj 168 146 r \$0-set_limit_sprites;
#X obj 20 128 t p p;
#N canvas -9 -9 1845 1028 setlimitsprites 0;
#X floatatom 163 332 5 0.71 2.29 0 - - -;
#X floatatom 163 430 5 0 0 0 - - -;
#X floatatom 266 430 5 0 0 0 - - -;
#X obj 163 364 cpx_rotxy 100 0;
#X floatatom 298 331 5 0.71 2.29 0 - - -;
#X floatatom 368 430 5 0 0 0 - - -;
#X floatatom 471 430 5 0 0 0 - - -;
#X obj 298 362 t b f, f 6;
#X obj 369 399 cpx_rotxy 100 0;
#X obj 163 455 set template_circletest x1 y1 x2 y2, f 59;
#X obj 218 251 / 128;
#X obj 285 251 / 128;
#X obj 218 275 * 1.58;
#X obj 216 299 + 0.71;
#X obj 282 276 * 1.58;
#X obj 280 300 + 0.71;
#X obj 210 149 inlet;
#X obj 217 187 unpack f f;
#X obj 463 149 inlet;
#X connect 0 0 3 0;
#X connect 1 0 9 0;
#X connect 2 0 9 1;
#X connect 3 0 1 0;
#X connect 3 1 2 0;
#X connect 4 0 7 0;
#X connect 5 0 9 2;
#X connect 6 0 9 3;
#X connect 7 0 9 0;
#X connect 7 1 8 0;
#X connect 8 0 5 0;
#X connect 8 1 6 0;
#X connect 10 0 12 0;
#X connect 11 0 14 0;
#X connect 12 0 13 0;
#X connect 13 0 0 0;
#X connect 14 0 15 0;
#X connect 15 0 4 0;
#X connect 16 0 17 0;
#X connect 17 0 10 0;
#X connect 17 1 11 0;
#X connect 18 0 9 4;
#X restore 168 212 pd setlimitsprites;
#X obj 20 10 struct template_circletest float x float y float x1 float
y1 float x2 float y2 float ccn float vmin float vmax float chan, f
89;
#X obj 210 340 filledpolygon 666 666 0 -150 -150 300 -150 300 106 -150
106 -150 -150, f 71;
#X obj 171 46 filledcurve -xv 222 444 4 100 0 71 71 0 100 -71 71 -100
0 -71 -71 0 -100 71 -71 100 0, f 86;
#X obj 171 70 drawpolygon -xv 900 1 x1 y1 0 0;
#X obj 171 94 drawpolygon -xv 900 1 x2 y2 0 0;
#X obj 602 70 drawnumber ccn -40 -40 660;
#X obj 397 70 drawnumber vmax 100 -100 222;
#X obj 397 94 drawnumber vmin 100 32 222;
#X obj 602 94 drawnumber chan 164 -48 222;
#X connect 0 0 5 0;
#X connect 3 0 2 0;
#X connect 4 0 6 0;
#X connect 5 0 1 0;
#X connect 5 1 6 1;
#X connect 7 0 0 0;
#X restore 701 107 pd template_knobs;
#N canvas -9 -9 1845 1028 template_faders 0;
#X obj 32 21 struct template_ccs2 float x float y float ctlno float
vmin float vmax, f 71;
#N canvas -775 333 1921 1028 struct_ccs2_init 0;
#X msg 24 208 0;
#X obj 24 4 inlet;
#X obj 24 55 t f b, f 6;
#X obj 24 83 until;
#X obj 24 258 append template_ccs2 x y ctlno vmin vmax, f 47;
#X msg 23 32 6;
#X msg 206 226 0;
#X msg 274 225 127;
#X obj 36 163 mpdsysex_ci 32 1024;
#X obj 350 233 cpx_structptr0 pd-data_ccs2;
#X connect 0 0 4 2;
#X connect 0 0 4 1;
#X connect 1 0 5 0;
#X connect 2 0 3 0;
#X connect 2 1 8 1;
#X connect 2 1 9 0;
#X connect 3 0 0 0;
#X connect 3 0 7 0;
#X connect 3 0 6 0;
#X connect 3 0 8 0;
#X connect 5 0 2 0;
#X connect 6 0 4 3;
#X connect 7 0 4 4;
#X connect 8 0 4 0;
#X connect 9 0 4 5;
#X restore 375 196 pd struct_ccs2_init;
#X obj 375 167 r struct_ccs2_init;
#X text 458 73 note the reverse order and the reverse range for GOP
;
#X text 458 85 basically \, its upside down (reversed Y axis);
#X obj 89 328 filledpolygon -xv 666 666 0 0 127 32 127 32 0 0 0 0 127
, f 62;
#X obj 89 302 filledpolygon 777 777 0 1 48 24 48 24 80 1 80 1 48;
#X obj 89 262 filledpolygon -xv 990 990 0 12 vmin 13 vmin 13 vmax 12
vmax 12 vmin, f 62;
#X obj 21 119 drawtext vmin 2 32 111;
#X obj 21 141 drawtext vmax 2 128 111;
#X obj 20 163 drawtext ctlno 2 80 111;
#X connect 2 0 1 0;
#X restore 701 128 pd template_faders;
#X obj 25 76 cnv 15 180 180 empty empty empty 20 12 0 14 -24967 -66577
0;
#N canvas -1929 104 1920 1028 data_pads 0;
#X scalar template_pads 2 0 0 0 0 0 0 0 \;;
#X scalar template_pads 2 0 0 0 0 1 12 0 \;;
#X scalar template_pads 2 0 0 0 0 2 24 0 \;;
#X scalar template_pads 2 0 0 0 0 3 36 0 \;;
#X scalar template_pads 2 0 0 0 0 4 0 12 \;;
#X scalar template_pads 2 0 0 0 0 5 12 12 \;;
#X scalar template_pads 2 0 0 0 0 6 24 12 \;;
#X scalar template_pads 2 0 0 0 0 7 36 12 \;;
#X scalar template_pads 2 0 0 0 0 8 0 24 \;;
#X scalar template_pads 2 0 0 0 0 9 12 24 \;;
#X scalar template_pads 2 0 0 0 0 10 24 24 \;;
#X scalar template_pads 2 0 0 0 0 11 36 24 \;;
#X scalar template_pads 2 0 0 0 0 12 0 36 \;;
#X scalar template_pads 2 0 0 0 0 13 12 36 \;;
#X scalar template_pads 2 0 0 0 0 14 24 36 \;;
#X scalar template_pads 2 0 0 0 0 15 36 36 \;;
#X scalar template_pads 2 0 0 0 0 16 48 0 \;;
#X scalar template_pads 2 0 0 0 0 17 60 0 \;;
#X scalar template_pads 2 0 0 0 0 18 72 0 \;;
#X scalar template_pads 2 0 0 0 0 19 84 0 \;;
#X scalar template_pads 2 0 0 0 0 20 48 12 \;;
#X scalar template_pads 2 0 0 0 0 21 60 12 \;;
#X scalar template_pads 2 0 0 0 0 22 72 12 \;;
#X scalar template_pads 2 0 0 0 0 23 84 12 \;;
#X scalar template_pads 2 0 0 0 0 24 48 24 \;;
#X scalar template_pads 2 0 0 0 0 25 60 24 \;;
#X scalar template_pads 2 0 0 0 0 26 72 24 \;;
#X scalar template_pads 2 0 0 0 0 27 84 24 \;;
#X scalar template_pads 2 0 0 0 0 28 48 36 \;;
#X scalar template_pads 2 0 0 0 0 29 60 36 \;;
#X scalar template_pads 2 0 0 0 0 30 72 36 \;;
#X scalar template_pads 2 0 0 0 0 31 84 36 \;;
#X scalar template_pads 2 0 0 0 0 32 0 48 \;;
#X scalar template_pads 2 0 0 0 0 33 12 48 \;;
#X scalar template_pads 2 0 0 0 0 34 24 48 \;;
#X scalar template_pads 2 0 0 0 0 35 36 48 \;;
#X scalar template_pads 2 0 0 0 0 36 0 60 \;;
#X scalar template_pads 2 0 0 0 0 37 12 60 \;;
#X scalar template_pads 2 0 0 0 0 38 24 60 \;;
#X scalar template_pads 2 0 0 0 0 39 36 60 \;;
#X scalar template_pads 2 0 0 0 0 40 0 72 \;;
#X scalar template_pads 2 0 0 0 0 41 12 72 \;;
#X scalar template_pads 2 0 0 0 0 42 24 72 \;;
#X scalar template_pads 2 0 0 0 0 43 36 72 \;;
#X scalar template_pads 2 0 0 0 0 44 0 84 \;;
#X scalar template_pads 2 0 0 0 0 45 12 84 \;;
#X scalar template_pads 2 0 0 0 0 46 24 84 \;;
#X scalar template_pads 2 0 0 0 0 47 36 84 \;;
#X scalar template_pads 2 0 0 0 0 48 48 48 \;;
#X scalar template_pads 2 0 0 0 0 49 60 48 \;;
#X scalar template_pads 2 0 0 0 0 50 72 48 \;;
#X scalar template_pads 2 0 0 0 0 51 84 48 \;;
#X scalar template_pads 2 0 8 0 0 52 48 60 \;;
#X scalar template_pads 2 0 0 0 0 53 60 60 \;;
#X scalar template_pads 2 0 0 0 0 54 72 60 \;;
#X scalar template_pads 2 0 0 0 0 55 84 60 \;;
#X scalar template_pads 2 0 0 0 0 56 48 72 \;;
#X scalar template_pads 2 0 0 0 0 57 60 72 \;;
#X scalar template_pads 2 0 0 0 0 58 72 72 \;;
#X scalar template_pads 2 0 0 0 0 59 84 72 \;;
#X scalar template_pads 2 0 0 0 0 60 48 84 \;;
#X scalar template_pads 2 0 0 0 0 61 60 84 \;;
#X scalar template_pads 2 0 0 0 0 62 72 84 \;;
#X scalar template_pads 2 0 0 0 0 63 84 84 \;;
#X coords 0 0 96 96 180 180 2 0 0;
#X restore 26 77 pd data_pads;
#N canvas -9 -9 1845 1028 presetparams 0;
#X msg 226 407 label \$1;
#X obj 225 381 r \$0-pstname;
#X obj 226 435 s \$0-pstname_disp;
#X obj 373 219 r \$0-pstbank;
#X obj 374 427 s \$0-pstbank_disp;
#X msg 374 399 label \$1;
#X obj 373 242 select 0 1 2 3;
#X msg 552 341 label \$1;
#X obj 552 242 select 0 1;
#X msg 552 291 s MMC;
#X msg 602 291 s CTL;
#X obj 552 369 s \$0-psttrsp_disp;
#X obj 552 219 r \$0-psttrsp;
#X obj 684 219 r \$0-pstaddr;
#X obj 684 369 s \$0-pstaddr_disp;
#X obj 638 107 cpxg_textBang newbangs isSameLabel;
#X obj 749 106 cpxg_textBang www lbl;
#X obj 639 22 cnv 72 268 38 empty \$0-resizedcanvas HITHERE 134 19
0 38 -33289 -4034 0;
#X obj 434 85 s \$0-resizedcanvas;
#X floatatom 132 368 5 0 0 0 - - -;
#X floatatom 183 369 5 0 0 0 - - -;
#X obj 153 421 /;
#X floatatom 153 444 5 0 0 0 - - -;
#X msg 373 291 s A░░░░░░;
#X msg 396 313 s ░░B░░░░;
#X msg 420 335 s ░░░░C░░;
#X msg 439 356 s ░░░░░░D;
#X obj 100 100 cnv 15 110 48 empty empty empty 20 12 0 14 -195568 -66577
0;
#X symbolatom 114 101 8 0 0 1 - #0-mpd24_bangall #0-pstname;
#X obj 100 100 cnv 11 80 20 empty \$0-pstname_disp whattheh 16 10 0
11 -86277 -261234 0;
#N canvas -9 -9 1845 1028 canvbtn_dump 0;
#X obj 132 100 bng 15 250 50 0 \$0-mpd24sysex_dump empty empty 17 7
0 10 -262144 -1 -1;
#X obj 116 100 bng 15 250 50 0 empty empty empty 17 7 0 10 -262144
-1 -1;
#X obj 100 100 bng 15 250 50 0 empty empty empty 17 7 0 10 -262144
-1 -1;
#X obj 100 100 cnv 13 47 15 empty \$0-dump_disp DUMP 8 8 0 14 -143491
-99865 0;
#X obj 132 260 s \$0-dump_disp;
#X msg 262 215 color 23 21 21;
#X msg 132 216 color 13 3 3;
#X msg 132 73 send \$0-mpd24sysex_dump;
#X obj 132 184 cpxg_bmetro 500 8;
#X connect 0 0 8 0;
#X connect 1 0 0 0;
#X connect 2 0 1 0;
#X connect 5 0 4 0;
#X connect 6 0 4 0;
#X connect 7 0 0 0;
#X connect 8 0 6 0;
#X connect 8 1 5 0;
#X coords 0 0 48 16 48 16 2 100 100;
#X restore 163 133 pd canvbtn_dump;
#X obj 152 121 nbx 2 11 0 1 0 0 \$0-psttrsp \$0-mpd24_bangall empty
0 -8 0 10 -262144 -1 -1 1 256;
#X obj 148 120 cnv 11 32 12 empty \$0-psttrsp_disp CTL 8 6 0 10 -86277
-261234 0;
#X obj 102 121 hradio 11 1 0 4 \$0-pstbank \$0-mpd24_bangall empty
0 -8 0 10 -262144 -1 -1 2;
#X obj 100 120 cnv 11 48 12 empty \$0-pstbank_disp ░░░░C░░
2 6 0 10 -86277 -261234 0;
#X obj 184 105 nbx 1 24 1 30 0 0 \$0-pstaddr \$0-mpd24_bangall empty
0 -8 0 10 -262144 -1 -1 22 256;
#X obj 180 100 cnv 11 30 32 empty \$0-pstaddr_disp P22 2 16 0 14 -86277
-261234 0;
#X obj 118 135 tgl 12 0 \$0-mpd24_ppux_sticky empty W 3 6 0 10 -128992
-258113 -86277 0 1;
#X obj 148 136 tgl 12 0 \$0-mpd24_ppux_nninc empty I 3 6 0 10 -128992
-159808 -16662 0 1;
#X msg 684 341 label P\$1;
#X obj 106 135 tgl 12 0 empty remove_recv W 3 6 0 10 -228856 -1 -1
0 1;
#X obj 100 132 cnv 6 62 16 empty empty empty 20 12 0 14 -86277 -66577
0;
#X obj 103 134 cnv 8 28 14 empty empty empty 20 12 0 14 -261234 -99865
0;
#X obj 104 135 cnv 10 26 12 empty \$0-dump_disp_wrt WRT 4 6 0 10 -143491
-99865 0;
#X obj 136 136 tgl 12 0 empty remove_recv I 3 6 0 10 -228856 -1 -1
0 1;
#X msg 24 267 color 13 3 3;
#X msg 35 246 color 23 21 21;
#X obj 25 203 r \$0-mpd24_ppux_sticky;
#X obj 25 225 select 1;
#X obj 24 288 s \$0-dump_disp_wrt;
#X obj 186 203 r \$0-mpd24_ppux_nninc;
#X msg 185 268 color 13 3 3;
#X msg 196 247 color 23 21 21;
#X obj 186 226 select 1;
#X obj 185 289 s \$0-dump_disp_inc;
#X obj 133 134 cnv 8 28 14 empty empty empty 20 12 0 14 -261234 -66577
0;
#X obj 134 135 cnv 10 26 12 empty \$0-dump_disp_inc INC 4 6 0 10 -143491
-99865 0;
#X floatatom 434 29 5 0 0 0 - - -;
#X obj 434 61 cpxg_dispscale HITHERE 64;
#X text 510 141 UNDER CONSTRUCTION ^^^^^^^;
#X text 510 127 __________________;
#X connect 0 0 2 0;
#X connect 1 0 0 0;
#X connect 3 0 6 0;
#X connect 5 0 4 0;
#X connect 6 0 23 0;
#X connect 6 1 24 0;
#X connect 6 2 25 0;
#X connect 6 3 26 0;
#X connect 7 0 11 0;
#X connect 8 0 9 0;
#X connect 8 1 10 0;
#X connect 9 0 7 0;
#X connect 10 0 7 0;
#X connect 12 0 8 0;
#X connect 13 0 39 0;
#X connect 19 0 21 0;
#X connect 20 0 21 1;
#X connect 21 0 22 0;
#X connect 23 0 5 0;
#X connect 24 0 5 0;
#X connect 25 0 5 0;
#X connect 26 0 5 0;
#X connect 39 0 14 0;
#X connect 40 0 37 0;
#X connect 44 0 38 0;
#X connect 45 0 49 0;
#X connect 46 0 49 0;
#X connect 47 0 48 0;
#X connect 48 0 45 0;
#X connect 48 1 46 0;
#X connect 50 0 53 0;
#X connect 51 0 54 0;
#X connect 52 0 54 0;
#X connect 53 0 51 0;
#X connect 53 1 52 0;
#X connect 57 0 58 0;
#X connect 58 0 18 0;
#X coords 0 -1 1 1 111 49 2 100 100;
#X restore 214 23 pd presetparams;
#X obj 330 58 bng 12 250 50 0 \$0-preview_file_bang rcv_remove PREVIEW
14 6 0 12 -262144 -1 -1;
#X obj 401 58 tgl 12 0 \$0-sysexbool rmv_receive ╚══▐PORT1▌
14 6 0 12 -262144 -33289 -1 1 1;
#N canvas -9 -9 1845 1028 on_dump 0;
#N canvas -9 -9 1845 1028 list_presetparams 0;
#X obj 230 164 list fromsymbol;
#X obj 153 299 list store;
#X obj 210 274 pack 1 32 32 32 32 32 32 32 32 0 1;
#X obj 230 222 list prepend 32 32 32 32 32 32 32 32;
#X obj 230 188 t b l;
#X obj 230 244 unpack f f f f f f f f;
#X obj 153 59 inlet;
#X obj 153 335 s \$0-sysexbuffer;
#X text 493 221 prepend = pad with spaces =);
#X text 293 21 Note: these have to come from vanilla objects \, not
structs;
#X text 293 35 mainly because there is no way to change text data through
struct data window;
#X obj 210 122 r \$0-pstaddr;
#X obj 230 143 r \$0-pstname;
#X obj 391 142 r \$0-pstbank;
#X obj 411 164 r \$0-psttrsp;
#X connect 0 0 4 0;
#X connect 1 0 7 0;
#X connect 2 0 1 1;
#X connect 3 0 5 0;
#X connect 4 0 3 0;
#X connect 4 1 3 1;
#X connect 5 0 2 1;
#X connect 5 1 2 2;
#X connect 5 2 2 3;
#X connect 5 3 2 4;
#X connect 5 4 2 5;
#X connect 5 5 2 6;
#X connect 5 6 2 7;
#X connect 5 7 2 8;
#X connect 6 0 1 0;
#X connect 11 0 2 0;
#X connect 12 0 0 0;
#X connect 13 0 2 9;
#X connect 14 0 2 10;
#X restore 410 180 pd list_presetparams;
#N canvas -1929 104 1920 1028 list_ccs 0;
#X obj 9 9 inlet;
#X obj 8 369 list append;
#X msg 203 445 list 80 80 80 80 80 80 80 80 80 80 80 80 80 80;
#X obj 8 461 list append;
#X obj 203 422 r \$0-mpd24_ccs_initpos;
#X obj 31 84 s \$0-mpd24_ccs_initpos;
#X obj 8 489 s \$0-sysexbuffer;
#X msg 205 146 bang;
#N canvas 580 318 1076 567 getcc_ccn_knobs 0;
#X obj 21 10 inlet;
#X obj 21 34 t b b;
#X obj 21 60 cpx_structptri pd-data_circletest 8;
#X obj 21 83 get template_circletest ccn;
#X obj 21 105 outlet;
#X connect 0 0 1 0;
#X connect 1 0 2 0;
#X connect 2 0 3 0;
#X connect 3 0 4 0;
#X restore 349 248 pd getcc_ccn_knobs;
#N canvas 580 318 1076 567 getcc_ccn_faders 0;
#X obj 21 10 inlet;
#X obj 21 34 t b b;
#X obj 21 60 cpx_structptri pd-data_ccs2 6;
#X obj 21 83 get template_ccs2 ctlno;
#X obj 21 105 outlet;
#X connect 0 0 1 0;
#X connect 1 0 2 0;
#X connect 2 0 3 0;
#X connect 3 0 4 0;
#X restore 320 269 pd getcc_ccn_faders;
#X obj 205 179 t b b b b b b, f 21;
#N canvas 580 318 1076 567 getcc_vmin_knobs 0;
#X obj 21 10 inlet;
#X obj 21 34 t b b;
#X obj 21 60 cpx_structptri pd-data_circletest 8;
#X obj 21 83 get template_circletest vmin;
#X obj 21 105 outlet;
#X connect 0 0 1 0;
#X connect 1 0 2 0;
#X connect 2 0 3 0;
#X connect 3 0 4 0;
#X restore 291 303 pd getcc_vmin_knobs;
#N canvas 580 318 1076 567 getcc_vmin_faders 0;
#X obj 21 10 inlet;
#X obj 21 34 t b b;
#X obj 21 60 cpx_structptri pd-data_ccs2 6;
#X obj 21 83 get template_ccs2 vmin;
#X obj 21 105 outlet;
#X connect 0 0 1 0;
#X connect 1 0 2 0;
#X connect 2 0 3 0;
#X connect 3 0 4 0;
#X restore 262 324 pd getcc_vmin_faders;
#N canvas 580 318 1076 567 getcc_vmax_knobs 0;
#X obj 21 10 inlet;
#X obj 21 34 t b b;
#X obj 21 60 cpx_structptri pd-data_circletest 8;
#X obj 21 83 get template_circletest vmax;
#X obj 21 105 outlet;
#X connect 0 0 1 0;
#X connect 1 0 2 0;
#X connect 2 0 3 0;
#X connect 3 0 4 0;
#X restore 231 355 pd getcc_vmax_knobs;
#N canvas 580 318 1076 567 getcc_vmax_faders 0;
#X obj 21 10 inlet;
#X obj 21 34 t b b;
#X obj 21 60 cpx_structptri pd-data_ccs2 6;
#X obj 21 83 get template_ccs2 vmax;
#X obj 21 105 outlet;
#X connect 0 0 1 0;
#X connect 1 0 2 0;
#X connect 2 0 3 0;
#X connect 3 0 4 0;
#X restore 204 382 pd getcc_vmax_faders;
#X msg 15 125 list 0 0 0 0 0 0 0 0 0 0 0 0 0 0;
#X obj 34 332 list store;
#X msg 66 276 append \$1;
#X text 316 118 CC channel (set all to common for now);
#X obj 11 51 t b b b b b;
#X text 105 52 right most bang clears the list;
#X connect 0 0 19 0;
#X connect 1 0 3 0;
#X connect 2 0 3 1;
#X connect 3 0 6 0;
#X connect 4 0 2 0;
#X connect 7 0 10 0;
#X connect 8 0 17 0;
#X connect 9 0 17 0;
#X connect 10 0 14 0;
#X connect 10 1 13 0;
#X connect 10 2 12 0;
#X connect 10 3 11 0;
#X connect 10 4 9 0;
#X connect 10 5 8 0;
#X connect 11 0 17 0;
#X connect 12 0 17 0;
#X connect 13 0 17 0;
#X connect 14 0 17 0;
#X connect 15 0 1 0;
#X connect 16 0 1 1;
#X connect 17 0 16 0;
#X connect 19 0 15 0;
#X connect 19 1 5 0;
#X connect 19 2 16 0;
#X connect 19 3 7 0;
#X connect 19 4 16 1;
#X restore 378 224 pd list_ccs;
#X text 445 139 LIST BUILDERS;
#N canvas 0 50 1800 789 list_filler1 0;
#X msg 35 81 0 0 0 0 0 0 0 0 0 0 0 0 0 0 0 0 0 0 0 0;
#X obj 35 55 inlet;
#X obj 34 112 s \$0-sysexbuffer;
#X connect 0 0 2 0;
#X connect 1 0 0 0;
#X restore 394 202 pd list_filler1;
#N canvas 219 296 1420 450 list_mpd24boiler 0;
#X obj 18 69 pack 240 71 0 104 16 3 113;
#X obj 18 28 inlet;
#X obj 17 105 s \$0-sysexbuffer;
#X connect 0 0 2 0;
#X connect 1 0 0 0;
#X restore 426 158 pd list_mpd24boiler;
#X msg 442 96 clear;
#X obj 314 26 r \$0-mpd24sysex_dump;
#X obj 314 49 t b b b b b b b b b b;
#X obj 458 73 s \$0-mpd24_bangall;
#X floatatom 476 49 5 0 0 1 DEBUG - -;
#N canvas -9 -9 1845 1028 list_pads 0;
#X obj 126 -23 inlet;
#X obj 634 308 s \$0-sysexbuffer;
#X obj 231 54 t b b b b b b, f 79;
#X obj 127 2 t b b b b b;
#N canvas 580 318 1076 567 getpads_ptype 0;
#X obj 21 10 inlet;
#X obj 21 34 t b b;
#X obj 21 105 outlet;
#X obj 21 60 cpx_structptri pd-data_pads 64;
#X obj 21 83 get template_pads type;
#X connect 0 0 1 0;
#X connect 1 0 3 0;
#X connect 3 0 4 0;
#X connect 4 0 2 0;
#X restore 793 78 pd getpads_ptype;
#X msg 781 126 append \$1;
#N canvas 580 318 1076 567 getpads_pchan 0;
#X obj 21 10 inlet;
#X obj 21 34 t b b;
#X obj 21 105 outlet;
#X obj 21 60 cpx_structptri pd-data_pads 64;
#X obj 21 83 get template_pads ch;
#X connect 0 0 1 0;
#X connect 1 0 3 0;
#X connect 3 0 4 0;
#X connect 4 0 2 0;
#X restore 672 78 pd getpads_pchan;
#X obj 672 245 list store;
#X msg 672 126 append \$1;
#N canvas 580 318 1076 567 getpads_npc 0;
#X obj 21 10 inlet;
#X obj 21 34 t b b;
#X obj 21 105 outlet;
#X obj 21 60 cpx_structptri pd-data_pads 64;
#X obj 21 83 get template_pads noteprogcc;
#X connect 0 0 1 0;
#X connect 1 0 3 0;
#X connect 3 0 4 0;
#X connect 4 0 2 0;
#X restore 561 78 pd getpads_npc;
#X obj 561 246 list store;
#X msg 561 127 append \$1;
#X obj 450 246 list store;
#X msg 450 127 append \$1;
#N canvas 580 318 1076 567 getpads_msb 0;
#X obj 21 10 inlet;
#X obj 21 34 t b b;
#X obj 21 105 outlet;
#X obj 21 60 cpx_structptri pd-data_pads 64;
#X obj 21 83 get template_pads triggermsb;
#X connect 0 0 1 0;
#X connect 1 0 3 0;
#X connect 3 0 4 0;
#X connect 4 0 2 0;
#X restore 450 78 pd getpads_msb;
#X obj 340 248 list store;
#X msg 341 126 append \$1;
#N canvas 580 318 1076 567 getpads_lsb 0;
#X obj 21 10 inlet;
#X obj 21 34 t b b;
#X obj 21 105 outlet;
#X obj 21 60 cpx_structptri pd-data_pads 64;
#X obj 21 83 get template_pads atlsb;
#X connect 0 0 1 0;
#X connect 1 0 3 0;
#X connect 3 0 4 0;
#X connect 4 0 2 0;
#X restore 341 78 pd getpads_lsb;
#X obj 347 165 r \$0-range_lsb;
#X obj 456 165 r \$0-range_msb;
#X obj 567 164 r \$0-range_npc;
#X obj 679 164 r \$0-range_ch;
#X obj 789 163 r \$0-range_type;
#X obj 20 421 s \$0-range_lsb;
#X obj 230 422 s \$0-range_msb;
#X obj 442 422 s \$0-range_npc;
#X obj 786 423 s \$0-range_type;
#X obj 357 215 r \$0-clrlst;
#X obj 464 214 r \$0-clrlst;
#X obj 577 215 r \$0-clrlst;
#X obj 687 216 r \$0-clrlst;
#X obj 798 217 r \$0-clrlst;
#X obj 232 31 s \$0-clrlst;
#X msg 786 399 get \$1 16;
#X obj 786 375 cpx_ci 16 64;
#X obj 20 303 until;
#X msg 20 282 4;
#X msg 653 398 get \$1 16;
#X obj 653 375 cpx_ci 16 64;
#X obj 653 422 s \$0-range_ch;
#X obj 20 345 t b b b b b, f 121;
#X msg 442 398 get \$1 16;
#X obj 442 375 cpx_ci 16 64;
#X msg 230 398 get \$1 16;
#X obj 231 375 cpx_ci 16 64;
#X msg 20 397 get \$1 16;
#X obj 20 374 cpx_ci 16 64;
#X msg 226 -23 bang;
#X obj 162 454 print MSG-GET-MSB;
#X obj 16 457 print MSG-GET-LSB;
#X obj 381 455 print MSG-GET-NPC;
#X obj 580 455 print MSG-GET-CHN;
#X obj 757 455 print MSG-GET-TPE;
#X obj 781 245 list store;
#X connect 0 0 3 0;
#X connect 2 1 17 0;
#X connect 2 2 14 0;
#X connect 2 3 9 0;
#X connect 2 4 6 0;
#X connect 2 5 4 0;
#X connect 3 1 36 0;
#X connect 3 3 2 0;
#X connect 3 4 32 0;
#X connect 4 0 5 0;
#X connect 5 0 53 0;
#X connect 6 0 8 0;
#X connect 7 0 1 0;
#X connect 8 0 7 0;
#X connect 9 0 11 0;
#X connect 10 0 1 0;
#X connect 11 0 10 0;
#X connect 12 0 1 0;
#X connect 13 0 12 0;
#X connect 14 0 13 0;
#X connect 15 0 1 0;
#X connect 16 0 15 0;
#X connect 17 0 16 0;
#X connect 18 0 15 0;
#X connect 19 0 12 0;
#X connect 20 0 10 0;
#X connect 21 0 7 0;
#X connect 22 0 53 0;
#X connect 27 0 15 1;
#X connect 27 0 46 1;
#X connect 28 0 12 1;
#X connect 28 0 44 1;
#X connect 29 0 10 1;
#X connect 29 0 42 1;
#X connect 30 0 7 1;
#X connect 30 0 38 1;
#X connect 31 0 34 1;
#X connect 31 0 53 1;
#X connect 33 0 26 0;
#X connect 33 0 52 0;
#X connect 34 0 33 0;
#X connect 35 0 40 0;
#X connect 36 0 35 0;
#X connect 37 0 39 0;
#X connect 37 0 51 0;
#X connect 38 0 37 0;
#X connect 40 0 46 0;
#X connect 40 1 44 0;
#X connect 40 2 42 0;
#X connect 40 3 38 0;
#X connect 40 4 34 0;
#X connect 41 0 25 0;
#X connect 41 0 50 0;
#X connect 42 0 41 0;
#X connect 43 0 24 0;
#X connect 43 0 48 0;
#X connect 44 0 43 0;
#X connect 45 0 23 0;
#X connect 45 0 49 0;
#X connect 46 0 45 0;
#X connect 47 0 3 0;
#X connect 53 0 1 0;
#X restore 362 246 pd list_pads;
#X obj 442 119 s \$0-bufferops;
#N canvas 0 50 1800 789 list_filler2 0;
#X obj 35 55 inlet;
#X obj 35 264 s \$0-sysexbuffer;
#X obj 125 136 until;
#X msg 125 104 76;
#X obj 124 188 list store;
#X msg 124 161 append 0;
#X obj 51 100 t b b b;
#X obj 50 219 list append 247;
#X text 213 168 IMPORTANT: always clear the list first (right bang
outlet);
#X connect 0 0 6 0;
#X connect 2 0 5 0;
#X connect 3 0 2 0;
#X connect 4 0 7 0;
#X connect 5 0 4 0;
#X connect 6 0 4 0;
#X connect 6 1 3 0;
#X connect 6 2 4 1;
#X connect 7 0 1 0;
#X restore 346 269 pd list_filler2;
#X msg 314 292 flush;
#X obj 314 315 s \$0-bufferops;
#X obj 330 75 bng 15 250 50 0 empty empty empty 17 7 0 10 -262144 -1
-1;
#X connect 5 0 11 0;
#X connect 6 0 7 0;
#X connect 7 0 13 0;
#X connect 7 1 15 0;
#X connect 7 2 12 0;
#X connect 7 3 10 0;
#X connect 7 4 1 0;
#X connect 7 5 3 0;
#X connect 7 6 0 0;
#X connect 7 7 4 0;
#X connect 7 8 5 0;
#X connect 7 9 8 0;
#X connect 9 0 8 0;
#X connect 13 0 14 0;
#X restore 542 87 pd on_dump;
#N canvas 0 50 1368 536 on_load 0;
#X obj 15 10 loadbang;
#X msg 15 48 \; pd-data_padno clear \; pd-data_ccs2 clear \; pd-data_pads
clear \; pd-data_circletest clear \; struct_ccs2_init bang \; struct_paddisp_init
bang \; struct_pads_init bang \; struct_circletest_init 8 \;;
#X text 80 10 on patch load \,;
#X text 21 29 (re)initialize everything;
#X obj 325 139 s \$0-setmidiport;
#X msg 325 113 1;
#X msg 363 113 1;
#X connect 0 0 1 0;
#X connect 0 0 5 0;
#X connect 5 0 4 0;
#X connect 6 0 4 0;
#X restore 542 66 pd on_load;
#N canvas 548 159 1043 601 on_receive 0;
#X obj 18 92 textfile;
#X msg 29 68 clear;
#X msg 18 44 add \$1;
#X text 15 110 read sysex from device;
#X text 15 124 (device needs to send);
#X obj 18 17 midiin;
#X floatatom 105 47 5 0 0 0 - - -;
#X connect 1 0 0 0;
#X connect 2 0 0 0;
#X connect 5 0 2 0;
#X connect 5 1 6 0;
#X restore 542 108 pd on_receive;
#X text 698 43 Data structures:;
#X text 539 44 Subprocedures:;
#N canvas 0 50 1816 707 on_preview 0;
#X obj 19 13 r \$0-preview_file_bang;
#X msg 19 35 preview;
#X obj 19 57 s \$0-bufferops;
#X connect 0 0 1 0;
#X connect 1 0 2 0;
#X restore 542 129 pd on_preview;
#N canvas 0 50 716 488 buffer_ops 1;
#X obj 17 207 midiout;
#X obj 20 16 r \$0-sysexbuffer;
#X obj 20 40 cpx_list2file;
#X obj 141 16 r \$0-bufferops;
#X obj 20 137 spigot;
#X obj 58 114 r \$0-sysexbool;
#X obj 42 90 s \$0-mpd24sysex_debug;
#X msg 41 66 printsysex;
#X obj 78 137 r \$0-setmidiport;
#X connect 1 0 2 0;
#X connect 2 0 4 0;
#X connect 2 0 7 0;
#X connect 3 0 2 1;
#X connect 4 0 0 0;
#X connect 5 0 4 1;
#X connect 7 0 6 0;
#X connect 8 0 0 1;
#X restore 542 150 pd buffer_ops;
#X text 264 279 TODO: fader/knobs channel set/get not implemented;
#X text 416 381 IMPORTANT: PRESET THAT IS SENT TO WILL NOT;
#X text 417 400 REFRESH IF IT IS ACTIVE \, BUT A SIMPLE ENTER PRESS
;
#X text 419 420 WILL RELOAD IT \; EMPIRICAL EVIDENCE \, NOT TESTED
;
#X coords 0 -1 1 1 480 240 2 20 20;
#X restore 10 9 pd sequence_list;
#X text 64 402 TODO======================;
#X text 93 415 interactive display struct for entering and displaying
values (for pads);
#N canvas -9 -9 1845 1028 debug 0;
#X obj 17 1 inlet;
#X obj 485 329 r \$0-pixo;
#X obj 503 349 r \$0-piyo;
#X obj 466 307 r \$0-piy;
#X obj 447 287 r \$0-pix;
#X obj 522 380 r \$0-dbg-padno;
#X obj 429 407 pack b f f f f f;
#X obj 429 436 print DEBUG;
#X obj 117 6 inlet;
#X obj 294 197 t b b b;
#X obj 295 276 s \$0-cireset;
#X obj 315 255 s \$0-struct_pads;
#X msg 333 221 \; pd-data_pads clear \;;
#X obj 26 77 symbol;
#X obj 17 46 select 1;
#X obj 17 23 int;
#X obj 117 42 symbol;
#X text 36 318 ║ BOX DRAWING ║╔══╗═╝╚═╬═╦═╩
║;
#X text 36 305 ╔═════════════╗░▀▄█▌▐░▒▓■▌
;
#X text 36 331 ╚═════════════╝;
#X obj 26 116 select drawpads drawpad clearpads logdbg printsysex,
f 96;
#X obj 561 268 print SYSEXOUT;
#X obj 614 195 r \$0-sysexbuffer;
#X obj 561 219 pack b l;
#X connect 0 0 15 0;
#X connect 1 0 6 3;
#X connect 2 0 6 4;
#X connect 3 0 6 2;
#X connect 4 0 6 1;
#X connect 5 0 6 5;
#X connect 6 0 7 0;
#X connect 8 0 16 0;
#X connect 9 0 10 0;
#X connect 9 1 11 0;
#X connect 9 2 12 0;
#X connect 13 0 20 0;
#X connect 14 0 13 0;
#X connect 15 0 14 0;
#X connect 16 0 13 1;
#X connect 20 2 9 0;
#X connect 20 3 6 0;
#X connect 20 4 23 0;
#X restore 168 305 pd debug;
#X obj 168 267 tgl 15 0 empty empty empty 17 7 0 10 -262144 -1 -1 0
1;
#X obj 221 267 r \$0-mpd24sysex_debug;
#X text 76 266 DEBUG SWITCH;
#N canvas -9 -9 1845 1028 read_live_ucs_data 0;
#X floatatom 648 96 5 0 0 0 - - -;
#X obj 600 31 ctlin;
#X obj 616 69 t b f;
#N canvas 94 147 1272 536 template_ucs_pads 0;
#N canvas 0 50 450 300 struct_get 0;
#X restore 462 132 pd struct_get;
#N canvas -9 -9 1845 1028 struct_assign 0;
#X restore 462 155 pd struct_assign;
#N canvas -1929 104 1920 1028 struct_innit 0;
#X obj 223 295 cpx_structptr0 pd-data_ucs_pads;
#X obj 23 11 r ucs_pads_init;
#X obj 23 161 until;
#X obj 23 336 append ucs_pads x y pnn pchan;
#X obj 23 202 mpdsysex_ci 32 128;
#X obj 146 229 mpdsysex_ci 32 128;
#X obj 23 263 pack f f -1 -1;
#X obj 23 109 t f b;
#X connect 0 0 3 4;
#X connect 1 0 7 0;
#X connect 2 0 4 0;
#X connect 4 0 6 0;
#X connect 4 1 5 0;
#X connect 5 0 6 1;
#X connect 6 0 3 0;
#X connect 7 0 2 0;
#X connect 7 1 0 0;
#X restore 462 177 pd struct_innit;
#X obj 91 43 struct ucs_pads float x float y float pnn float pchan
;
#X obj 145 146 drawpolygon 222 1 2 2 30 2 30 30 2 30 2 2;
#X obj 145 124 drawnumber pnn 2 2 222;
#X obj 145 102 drawnumber pchan 2 18 222;
#X restore 155 127 pd template_ucs_pads;
#N canvas 0 50 986 609 template_ucs_device_ctrl 0;
#N canvas 0 50 450 300 struct_get 0;
#X restore 210 98 pd struct_get;
#N canvas -9 -9 1845 1028 struct_assign 0;
#X restore 210 121 pd struct_assign;
#N canvas -1929 104 1920 1028 struct_innit 0;
#X obj 23 161 until;
#X obj 23 109 t f b;
#X obj 23 202 mpdsysex_ci 32 128;
#X obj 23 11 r ucs_device_init;
#X obj 244 295 cpx_structptr0 pd-data_ucs_device_ctrl;
#X obj 23 336 append ucs_device x y eccn echan;
#X obj 23 263 pack f f -1 -1;
#X obj 146 229 mpdsysex_ci 24 48;
#X connect 0 0 2 0;
#X connect 1 0 0 0;
#X connect 1 1 4 0;
#X connect 2 0 6 0;
#X connect 2 1 7 0;
#X connect 3 0 1 0;
#X connect 4 0 5 4;
#X connect 6 0 5 0;
#X connect 7 0 6 1;
#X restore 210 143 pd struct_innit;
#X obj 25 27 struct ucs_device float x float y float eccn float echan
, f 38;
#X obj 41 229 drawpolygon 222 1 1 1 31 1 31 23 1 23 1 1;
#X obj 41 201 drawnumber eccn 2 1 222;
#X obj 39 179 drawnumber echan 2 11 222;
#X restore 155 291 pd template_ucs_device_ctrl;
#N canvas -1929 104 1920 1028 template_ucs_mixer_ctrl 0;
#N canvas 0 50 450 300 struct_get 0;
#X restore 210 98 pd struct_get;
#N canvas -9 -9 1845 1028 struct_assign 0;
#X restore 210 121 pd struct_assign;
#N canvas -1929 104 1920 1028 struct_innit 0;
#X obj 23 161 until;
#X obj 23 109 t f b;
#X obj 23 202 mpdsysex_ci 16 128;
#X obj 518 285 cpx_structptr0 pd-data_ucs_mixer_ctrl;
#X obj 23 11 r ucs_mixer_init;
#X obj 23 263 pack f f -1 -1 -1 -1 -1;
#X obj 23 336 append ucs_mixer x y fvolccn fvolchn psnd1ccn psnd2ccn
barmccn, f 71;
#X obj 146 229 mpdsysex_ci 16 16;
#X connect 0 0 2 0;
#X connect 1 0 0 0;
#X connect 1 1 3 0;
#X connect 2 0 5 0;
#X connect 2 1 7 0;
#X connect 3 0 6 7;
#X connect 4 0 1 0;
#X connect 5 0 6 0;
#X connect 7 0 5 1;
#X restore 210 143 pd struct_innit;
#X obj 35 303 drawnumber fvolchn 2 1 222;
#X obj 25 27 struct ucs_mixer float x float y float fvolccn float fvolchn
float psnd1ccn float psnd2ccn float barmccn, f 38;
#X obj 436 260 drawpolygon 222 1 1 1 15 1 15 31 1 31 1 1;
#X obj 33 405 drawnumber barmccn 2 88 222;
#X obj 35 324 drawnumber fvolccn 2 18 222;
#X obj 34 345 drawnumber psnd1ccn 2 48 222;
#X obj 35 368 drawnumber psnd2ccn 2 64 222;
#X obj 436 281 drawcurve 222 1 1 48 16 48 16 64 1 64 1 48;
#X obj 436 302 drawcurve 222 1 1 64 16 64 16 80 1 80 1 64;
#X obj 436 240 drawpolygon 222 1 1 88 15 88 15 103 1 103 1 88;
#X restore 155 341 pd template_ucs_mixer_ctrl;
#N canvas -9 -9 1845 1028 template_ucs_transport_ctrl 0;
#N canvas 0 50 450 300 struct_get 0;
#X restore 210 98 pd struct_get;
#N canvas -9 -9 1845 1028 struct_assign 0;
#X restore 210 121 pd struct_assign;
#N canvas -1929 104 1920 1028 struct_innit 0;
#X obj 23 161 until;
#X obj 23 109 t f b;
#X obj 23 202 mpdsysex_ci 32 128;
#X obj 146 229 mpdsysex_ci 16 32;
#X obj 23 11 r ucs_transport_init;
#X obj 433 283 cpx_structptr0 pd-data_ucs_transport_ctrl;
#X obj 23 336 append ucs_transport x y bstopccn bplayccn brecccn bloopccn
brwdccn bfwdccn;
#X obj 23 263 pack f f -1 -1 -1 -1 -1 -1;
#X connect 0 0 2 0;
#X connect 1 0 0 0;
#X connect 1 1 5 0;
#X connect 2 0 7 0;
#X connect 2 1 3 0;
#X connect 3 0 7 1;
#X connect 4 0 1 0;
#X connect 5 0 6 8;
#X connect 7 0 6 0;
#X restore 210 143 pd struct_innit;
#X obj 32 203 drawpolygon 222 1 1 1 31 1 31 15 1 15 1 1;
#X obj 24 10 struct ucs_transport float x float y float bstopccn float
bplayccn float brecccn float bloopccn float brwdccn float bfwdccn,
f 123;
#X obj 32 254 drawnumber bstopccn 2 2 222;
#X obj 34 281 drawnumber bplayccn 2 2 222;
#X obj 31 310 drawnumber brecccn 2 2 222;
#X obj 33 341 drawnumber bloopccn 2 2 222;
#X obj 46 382 drawnumber brwdccn 2 2 222;
#X obj 42 415 drawnumber bfwdccn 2 2 222;
#X restore 155 471 pd template_ucs_transport_ctrl;
#N canvas 133 153 1315 693 data_ucs_globals 0;
#X scalar ucs_globals 37 0 0 0 0 0 \;;
#X coords 0 0 128 16 128 16 2 100 100;
#X restore 25 59 pd data_ucs_globals;
#N canvas 0 50 1032 636 data_ucs_pads 0;
#X scalar ucs_pads 0 0 0 -1 \;;
#X scalar ucs_pads 32 0 -1 -1 \;;
#X scalar ucs_pads 64 0 -1 -1 \;;
#X scalar ucs_pads 96 0 -1 -1 \;;
#X scalar ucs_pads 0 32 -1 -1 \;;
#X scalar ucs_pads 32 32 -1 -1 \;;
#X scalar ucs_pads 64 32 -1 -1 \;;
#X scalar ucs_pads 96 32 -1 -1 \;;
#X scalar ucs_pads 0 64 -1 -1 \;;
#X scalar ucs_pads 32 64 -1 -1 \;;
#X scalar ucs_pads 64 64 -1 -1 \;;
#X scalar ucs_pads 96 64 -1 -1 \;;
#X scalar ucs_pads 0 96 -1 -1 \;;
#X scalar ucs_pads 32 96 -1 -1 \;;
#X scalar ucs_pads 64 96 -1 -1 \;;
#X scalar ucs_pads 96 96 -1 -1 \;;
#X coords 0 0 128 128 128 128 2 0 0;
#X restore 25 127 pd data_ucs_pads;
#N canvas 0 50 450 300 data_ucs_device_ctrl 0;
#X scalar ucs_device 0 0 -1 -1 \;;
#X scalar ucs_device 32 0 -1 -1 \;;
#X scalar ucs_device 64 0 -1 -1 \;;
#X scalar ucs_device 96 0 -1 -1 \;;
#X scalar ucs_device 0 24 -1 -1 \;;
#X scalar ucs_device 32 24 -1 -1 \;;
#X scalar ucs_device 64 24 -1 -1 \;;
#X scalar ucs_device 96 24 -1 -1 \;;
#X coords 0 0 128 48 128 48 2 100 100;
#X restore 25 291 pd data_ucs_device_ctrl;
#N canvas 0 50 450 300 data_ucs_mixer_ctrl 0;
#X scalar ucs_mixer 0 0 -1 -1 92 -1 -1 \;;
#X scalar ucs_mixer 16 0 -1 -1 -1 -1 -1 \;;
#X scalar ucs_mixer 32 0 -1 -1 -1 -1 -1 \;;
#X scalar ucs_mixer 48 0 -1 -1 66 -1 -1 \;;
#X scalar ucs_mixer 64 0 -1 -1 -1 -1 -1 \;;
#X scalar ucs_mixer 80 0 -1 -1 -1 -1 -1 \;;
#X scalar ucs_mixer 96 0 -1 -1 -1 -1 -1 \;;
#X scalar ucs_mixer 112 0 -1 -1 -1 -1 -1 \;;
#X coords 0 0 128 128 128 128 2 100 100;
#X restore 25 341 pd data_ucs_mixer_ctrl;
#N canvas -9 -9 1845 1028 template_ucs_globals 0;
#N canvas 0 50 450 300 struct_get 0;
#X restore 462 132 pd struct_get;
#N canvas -9 -9 1845 1028 struct_assign 0;
#X restore 462 155 pd struct_assign;
#N canvas -9 -9 1845 1028 struct_innit 0;
#X obj 188 212 cpx_structptr0 pd-data_ucs_globals;
#X obj 20 11 r ucs_globals_init;
#X obj 23 250 append ucs_globals gchan;
#X obj 20 46 t f b;
#X connect 0 0 2 1;
#X connect 1 0 3 0;
#X connect 3 0 2 0;
#X connect 3 1 0 0;
#X restore 462 177 pd struct_innit;
#X obj 224 273 drawnumber gchan 2 2 222 CHANNEL\ ;
#X obj 78 71 struct ucs_globals float gchan float bankncc float bankpcc
float surfacelockcc float slidermastercc float slidermasterch;
#X restore 155 59 pd template_ucs_globals;
#X symbolatom 433 169 18 0 0 0 - - -;
#X floatatom 433 104 5 1 16 0 - - -;
#X obj 433 125 - 1;
#X msg 433 15 bang;
#X obj 433 147 t b f;
#N canvas -1351 260 1137 592 template_ucs_banksel 0;
#N canvas 0 50 450 300 struct_get 0;
#X restore 210 98 pd struct_get;
#N canvas -9 -9 1845 1028 struct_assign 0;
#X restore 210 121 pd struct_assign;
#N canvas -1929 104 1920 1028 struct_innit 0;
#X obj 23 161 until;
#X obj 23 109 t f b;
#X obj 23 11 r ucs_banksel_init;
#X obj 223 295 cpx_structptr0 pd-data_ucs_banksel;
#X obj 23 202 mpdsysex_ci 32 128;
#X obj 146 229 mpdsysex_ci 16 32;
#X obj 23 263 pack f f -1;
#X obj 23 336 append ucs_banksel x y bccn;
#X connect 0 0 4 0;
#X connect 1 0 0 0;
#X connect 1 1 3 0;
#X connect 2 0 1 0;
#X connect 3 0 7 3;
#X connect 4 0 6 0;
#X connect 4 1 5 0;
#X connect 5 0 6 1;
#X connect 6 0 7 0;
#X restore 210 143 pd struct_innit;
#X obj 26 25 struct ucs_banksel float x float y float bccn;
#X obj 32 203 drawpolygon 222 1 1 1 31 1 31 15 1 15 1 1;
#X obj 32 180 drawnumber bccn 2 2 222;
#X restore 155 257 pd template_ucs_banksel;
#N canvas 0 50 450 300 data_ucs_banksel 0;
#X scalar ucs_banksel 0 0 -1 \;;
#X scalar ucs_banksel 32 0 -1 \;;
#X scalar ucs_banksel 64 0 -1 \;;
#X scalar ucs_banksel 96 0 -1 \;;
#X scalar ucs_banksel 0 16 -1 \;;
#X scalar ucs_banksel 32 16 -1 \;;
#X scalar ucs_banksel 64 16 -1 \;;
#X scalar ucs_banksel 96 16 -1 \;;
#X coords 0 0 128 32 128 32 2 100 100;
#X restore 25 257 pd data_ucs_banksel;
#N canvas -9 -9 1845 1028 ucs_serialize 0;
#N canvas 596 89 1094 624 write_out_file 0;
#X obj 37 156 textfile;
#X msg 138 75 write \$1 cr;
#X msg 138 49 symbol ../data/livesurfaceOUTtest.txt;
#X obj 137 23 inlet;
#X obj 36 23 inlet;
#X connect 1 0 0 0;
#X connect 2 0 1 0;
#X connect 3 0 2 0;
#X connect 4 0 0 0;
#X restore 142 390 pd write_out_file;
#N canvas 0 50 1032 696 edit_in_file 0;
#X obj 51 144 textfile;
#X symbolatom 51 209 32 0 0 0 - - -;
#X obj 51 171 unpack s f;
#X obj 51 233 pack s f;
#X msg 153 82 read \$1 cr;
#X msg 153 62 symbol ../data/UserConfigurationSource.txt;
#X obj 51 290 outlet;
#X obj 153 42 inlet;
#X obj 51 42 inlet;
#X obj 138 290 outlet;
#X obj 221 290 outlet;
#X obj 106 42 inlet;
#X connect 0 0 2 0;
#X connect 1 0 3 0;
#X connect 1 0 9 0;
#X connect 2 0 1 0;
#X connect 2 1 10 0;
#X connect 3 0 6 0;
#X connect 4 0 0 0;
#X connect 5 0 4 0;
#X connect 7 0 5 0;
#X connect 8 0 0 0;
#X connect 11 0 3 1;
#X restore 200 269 pd edit_in_file;
#X msg 373 184 load;
#X obj 278 210 float 0;
#X msg 207 246 rewind;
#X obj 199 181 t b b;
#X obj 373 208 t b b;
#X msg 149 366 add \$1 \$2;
#X msg 142 270 clear;
#X obj 199 159 r \$0-setnextparam;
#X obj 324 159 r \$0-setucsvalue;
#X obj 142 14 inlet;
#X obj 190 36 symbol;
#X obj 142 36 t b s;
#X obj 142 59 symbol;
#X obj 142 83 select opencreate flush load, f 50;
#X connect 1 0 7 0;
#X connect 2 0 6 0;
#X connect 3 0 1 1;
#X connect 4 0 1 0;
#X connect 5 0 1 0;
#X connect 5 1 3 0;
#X connect 6 0 4 0;
#X connect 6 1 1 2;
#X connect 7 0 0 0;
#X connect 8 0 0 0;
#X connect 9 0 5 0;
#X connect 10 0 3 1;
#X connect 11 0 13 0;
#X connect 12 0 14 1;
#X connect 13 0 14 0;
#X connect 13 1 12 0;
#X connect 14 0 15 0;
#X connect 15 0 8 0;
#X connect 15 1 0 1;
#X connect 15 2 2 0;
#X restore 732 114 pd ucs_serialize;
#X msg 741 44 opencreate;
#X msg 748 67 flush;
#X msg 732 21 load;
#X obj 732 90 symbol;
#N canvas 0 50 450 300 data_ucs_transport_ctrl 0;
#X scalar ucs_transport 0 0 -1 -1 -1 -1 -1 -1 \;;
#X scalar ucs_transport 32 0 -1 -1 -1 -1 -1 -1 \;;
#X scalar ucs_transport 64 0 -1 -1 -1 -1 -1 -1 \;;
#X scalar ucs_transport 96 0 -1 -1 -1 -1 -1 -1 \;;
#X scalar ucs_transport 0 16 -1 -1 -1 -1 -1 -1 \;;
#X scalar ucs_transport 32 16 -1 -1 -1 -1 -1 -1 \;;
#X coords 0 0 128 32 128 32 2 100 100;
#X restore 25 471 pd data_ucs_transport_ctrl;
#N canvas -9 -9 1845 1028 template_ucs_symbol_values 0;
#N canvas 177 274 1461 654 struct_assign 0;
#X obj 413 188 cpx_structptri pd-data_ucs_symbol_values 1;
#X obj 31 229 set -symbol ucs_symbols sportn mvolmap msendmap mencmap
;
#X obj 164 91 t l b;
#X obj 164 128 unpack s s s s;
#X obj 164 60 r ucs_symbols_setglobalstr;
#X connect 0 0 1 4;
#X connect 2 0 3 0;
#X connect 2 1 0 0;
#X connect 3 0 1 0;
#X connect 3 1 1 1;
#X connect 3 2 1 2;
#X connect 3 3 1 3;
#X connect 4 0 2 0;
#X restore 134 160 pd struct_assign;
#N canvas 0 50 450 300 struct_get 0;
#X restore 134 139 pd struct_get;
#N canvas -9 -9 1845 1028 struct_innit 0;
#X obj 20 46 t f b;
#X obj 20 11 r ucs_symbols_init;
#X obj 175 212 cpx_structptr0 pd-data_ucs_symbol_values;
#X obj 24 252 append ucs_symbols x y;
#X obj 20 130 until;
#X msg 23 161 2 14;
#X connect 0 0 4 0;
#X connect 0 1 2 0;
#X connect 1 0 0 0;
#X connect 2 0 3 2;
#X connect 4 0 5 0;
#X connect 5 0 3 0;
#X restore 134 181 pd struct_innit;
#X obj 36 18 struct ucs_symbols float x float y symbol sportn symbol
mvolmap symbol msendmap symbol mencmap, f 35;
#X restore 155 78 pd template_ucs_symbol_values;
#N canvas 1050 187 450 300 data_ucs_symbol_values 0;
#X scalar ucs_symbols 2 14 symbol    \;;
#X coords 0 0 128 64 128 48 2 100 100;
#X restore 25 77 pd data_ucs_symbol_values;
#X obj 433 190 pack s s s s f;
#X msg 433 238 \; pd-data_ucs_globals clear \; pd-data_ucs_pads clear
\; pd-data_ucs_banksel clear \; pd-data_ucs_device_ctrl clear \; pd-data_ucs_mixer_ctrl
clear \; pd-data_ucs_transport_ctrl clear \; pd-data_ucs_symbol_values
clear \; ucs_globals_init \$5 \; ucs_symbols_init 1 \; ucs_pads_init
16 \; ucs_banksel_init 8 \; ucs_device_init 8 \; ucs_mixer_init 8 \;
ucs_transport_init 6 \; ucs_symbols_setglobalstr symbol \$1 symbol
\$2 symbol \$3 symbol \$4 \;;
#X text 179 383 NOTE: don't confuse MPD;
#X text 172 398 Common Channel with Live;
#X text 158 413 Control Surface Global Ch.;
#X text 156 160 Since we use coordinates;
#X text 156 175 proportionate to GOP canvas;
#X text 156 207 but lookie under \, where we don't;
#X text 156 223 have a quadratic (2^n) # of items;
#X text 156 191 we can get by with x \, y MOD w \, h;
#X symbolatom 489 147 10 0 0 1 Vodka - -;
#X text 438 220 Make me one with everything;
#X obj 24 24 cnv 15 130 32 empty empty User░Remote░Script 8 16
1 12 -4160 -262144 0;
#X connect 1 1 2 0;
#X connect 2 1 0 0;
#X connect 12 0 27 0;
#X connect 13 0 14 0;
#X connect 14 0 16 0;
#X connect 15 0 13 0;
#X connect 16 0 12 0;
#X connect 16 1 27 4;
#X connect 20 0 23 0;
#X connect 21 0 23 0;
#X connect 22 0 23 0;
#X connect 23 0 19 0;
#X connect 27 0 28 0;
#X connect 37 0 27 1;
#X connect 37 0 27 2;
#X connect 37 0 27 3;
#X coords 0 0 129 640 130 480 2 24 24;
#X restore 505 9 pd read_live_ucs_data;
#X text 283 331 TODO: switch pad numbers;
#X text 262 348 to a selected param in disp;
#X text 276 364 so we can edit each param;
#X text 346 379 on the pad view;
#X text 16 349 TODO: now were cooking with gas \; cockpit sim!!!;
#X connect 4 0 3 0;
#X connect 5 0 3 1;
