#N struct template_pads float type float ch float noteprogcc float
triggermsb float atlsb float padpos float x float y;
#N struct template_padno float x float y float vvv float bg float fg
;
#N canvas -9 -9 1845 1028 12;
#X obj 42 378 textfile;
#X msg 97 325 rewind;
#X symbolatom 42 419 32 0 0 0 - - -;
#X obj 42 398 unpack s f;
#X floatatom 212 367 5 0 0 0 - - -;
#X obj 42 439 pack s f;
#X msg 42 460 add \$1 \$2;
#X msg 31 325 clear;
#X obj 17 488 textfile;
#X obj 172 299 ctlin;
#X msg 16 257 symbol ./data/livescdir/-MPD-Generic1/UserConfiguration.txt
;
#X msg 98 299 read \$1 cr;
#X msg 16 299 write \$1 cr;
#X msg 98 278 symbol ./data/UserConfigurationSource.txt;
#X obj 185 340 t b f;
#X obj 668 274 sysexin;
#X obj 668 404 textfile;
#X msg 679 380 clear;
#X msg 668 356 add \$1;
#X obj 681 331 t f f;
#X msg 681 300 1 2;
#X text 527 235 read sysex from device (device needs to send);
#N canvas -9 -9 1845 1028 sequence_list 0;
#X obj 22 348 list append;
#X symbolatom 324 46 12 0 0 0 NAME #0-mpd24_bangall #0-mpd24_pstname
;
#X floatatom 410 46 5 29 30 1 NO #0-mpd24_bangall #0-mpd24_pstaddr
;
#X floatatom 324 64 5 0 3 0 BANK #0-mpd24_bangall #0-mpd24_pstbank
;
#X floatatom 361 64 5 0 1 1 MMC/CTRL #0-mpd24_bangall #0-mpd24_psttrsp
;
#X obj 41 314 list store;
#X obj 22 289 t b b l;
#N canvas -9 -9 1845 1028 sequence_output 0;
#X obj 60 92 inlet;
#X obj 61 313 outlet;
#X obj 62 286 list store;
#X obj 62 127 t b b l;
#X msg 82 160 0;
#X obj 62 187 until;
#X obj 62 223 f;
#X obj 89 223 + 1;
#X msg 62 260 get \$1 1;
#X connect 0 0 3 0;
#X connect 2 0 1 0;
#X connect 2 1 5 1;
#X connect 3 0 5 0;
#X connect 3 1 4 0;
#X connect 3 2 2 1;
#X connect 4 0 6 1;
#X connect 5 0 6 0;
#X connect 6 0 8 0;
#X connect 6 0 7 0;
#X connect 7 0 6 1;
#X connect 8 0 2 0;
#X restore 22 372 pd sequence_output;
#X obj 296 288 r \$0-mpd24sysex_presetparams;
#X obj 288 265 r \$0-mpd24sysex_boiler;
#X obj 288 415 s \$0-sysexbuffer;
#X obj 22 265 r \$0-sysexbuffer;
#X obj 304 311 r \$0-mpd24sysex_filler;
#X floatatom 324 82 5 0 32 0 CH #0-mpd24_bangall #0-mpd24_ccs_channel
;
#X floatatom 22 22 5 0 127 3 - #0-mpd24_bangall #0-mpd24_ccs_cc9;
#X floatatom 59 22 5 0 127 3 - #0-mpd24_bangall #0-mpd24_ccs_cc10;
#X floatatom 96 22 5 0 127 3 - #0-mpd24_bangall #0-mpd24_ccs_cc11;
#X floatatom 133 22 5 0 127 3 - #0-mpd24_bangall #0-mpd24_ccs_cc12
;
#X floatatom 170 22 5 0 127 3 - #0-mpd24_bangall #0-mpd24_ccs_cc13
;
#X floatatom 207 22 5 0 127 1 CC #0-mpd24_bangall #0-mpd24_ccs_cc14
;
#X floatatom 22 41 5 0 127 3 - #0-mpd24_bangall #0-mpd24_ccs_max9;
#X floatatom 59 41 5 0 127 3 - #0-mpd24_bangall #0-mpd24_ccs_max10
;
#X floatatom 96 41 5 0 127 3 - #0-mpd24_bangall #0-mpd24_ccs_max11
;
#X floatatom 133 41 5 0 127 3 - #0-mpd24_bangall #0-mpd24_ccs_max12
;
#X floatatom 170 41 5 0 127 3 - #0-mpd24_bangall #0-mpd24_ccs_max13
;
#X floatatom 207 41 5 0 127 1 MAX #0-mpd24_bangall #0-mpd24_ccs_max14
;
#X floatatom 22 60 5 0 127 3 - #0-mpd24_bangall #0-mpd24_ccs_min9;
#X floatatom 59 60 5 0 127 3 - #0-mpd24_bangall #0-mpd24_ccs_min10
;
#X floatatom 96 60 5 0 127 3 - #0-mpd24_bangall #0-mpd24_ccs_min11
;
#X floatatom 133 60 5 0 127 3 - #0-mpd24_bangall #0-mpd24_ccs_min12
;
#X floatatom 170 60 5 0 127 3 - #0-mpd24_bangall #0-mpd24_ccs_min13
;
#X floatatom 207 60 5 0 127 1 MIN #0-mpd24_bangall #0-mpd24_ccs_min14
;
#X floatatom 284 184 5 0 127 2 __CC_ #0-mpd24_bangall #0-mpd24_ccs_cc7
;
#X floatatom 321 184 5 0 127 2 _MIN_ #0-mpd24_bangall #0-mpd24_ccs_min7
;
#X floatatom 358 184 5 0 127 2 _MAX_ #0-mpd24_bangall #0-mpd24_ccs_max7
;
#X floatatom 393 184 5 0 127 2 __CC_ #0-mpd24_bangall #0-mpd24_ccs_cc8
;
#X floatatom 427 184 5 0 127 2 _MIN_ #0-mpd24_bangall #0-mpd24_ccs_min8
;
#X floatatom 461 184 5 0 127 2 _MAX_ #0-mpd24_bangall #0-mpd24_ccs_max8
;
#X floatatom 284 203 5 0 127 0 - #0-mpd24_bangall #0-mpd24_ccs_cc5
;
#X floatatom 321 203 5 0 127 3 - #0-mpd24_bangall #0-mpd24_ccs_min5
;
#X floatatom 358 203 5 0 127 3 - #0-mpd24_bangall #0-mpd24_ccs_max5
;
#X floatatom 393 203 5 0 127 0 - #0-mpd24_bangall #0-mpd24_ccs_cc6
;
#X floatatom 427 203 5 0 127 3 - #0-mpd24_bangall #0-mpd24_ccs_min6
;
#X floatatom 461 203 5 0 127 3 - #0-mpd24_bangall #0-mpd24_ccs_max6
;
#X floatatom 284 222 5 0 127 0 - #0-mpd24_bangall #0-mpd24_ccs_cc3
;
#X floatatom 321 222 5 0 127 3 - #0-mpd24_bangall #0-mpd24_ccs_min3
;
#X floatatom 358 222 5 0 127 3 - #0-mpd24_bangall #0-mpd24_ccs_max3
;
#X floatatom 393 222 5 0 127 0 - #0-mpd24_bangall #0-mpd24_ccs_cc4
;
#X floatatom 427 222 5 0 127 3 - #0-mpd24_bangall #0-mpd24_ccs_min4
;
#X floatatom 461 222 5 0 127 3 - #0-mpd24_bangall #0-mpd24_ccs_max4
;
#X floatatom 284 241 5 0 127 0 - #0-mpd24_bangall #0-mpd24_ccs_cc1
;
#X floatatom 321 241 5 0 127 3 - #0-mpd24_bangall #0-mpd24_ccs_min1
;
#X floatatom 358 241 5 0 127 3 - #0-mpd24_bangall #0-mpd24_ccs_max1
;
#X floatatom 393 241 5 0 127 0 - #0-mpd24_bangall #0-mpd24_ccs_cc2
;
#X floatatom 427 241 5 0 127 3 - #0-mpd24_bangall #0-mpd24_ccs_min2
;
#X floatatom 461 241 5 0 127 3 - #0-mpd24_bangall #0-mpd24_ccs_max2
;
#N canvas -9 -9 1845 1028 list_presetparams 0;
#X obj 230 164 list fromsymbol;
#X obj 153 299 list store;
#X obj 210 122 r \$0-mpd24_pstaddr;
#X obj 230 142 r \$0-mpd24_pstname;
#X obj 391 142 r \$0-mpd24_pstbank;
#X obj 411 164 r \$0-mpd24_psttrsp;
#X obj 210 274 pack 1 32 32 32 32 32 32 32 32 0 1;
#X obj 230 222 list prepend 32 32 32 32 32 32 32 32;
#X obj 230 188 t b l;
#X obj 230 244 unpack f f f f f f f f;
#X obj 153 335 s \$0-mpd24sysex_presetparams;
#X obj 153 59 inlet;
#X connect 0 0 8 0;
#X connect 1 0 10 0;
#X connect 2 0 6 0;
#X connect 3 0 0 0;
#X connect 4 0 6 9;
#X connect 5 0 6 10;
#X connect 6 0 1 1;
#X connect 7 0 9 0;
#X connect 8 0 7 0;
#X connect 8 1 7 1;
#X connect 9 0 6 1;
#X connect 9 1 6 2;
#X connect 9 2 6 3;
#X connect 9 3 6 4;
#X connect 9 4 6 5;
#X connect 9 5 6 6;
#X connect 9 6 6 7;
#X connect 9 7 6 8;
#X connect 11 0 1 0;
#X restore 641 183 pd list_presetparams;
#N canvas -1929 104 1920 1028 list_ccs 0;
#X obj 70 9 r \$0-mpd24_ccs_channel;
#X msg 71 35 list \$1 \$1 \$1 \$1 \$1 \$1 \$1 \$1 \$1 \$1 \$1 \$1 \$1
\$1;
#X obj 9 9 inlet;
#X obj 8 495 s \$0-mpd24sysex_ccs;
#X obj 495 34 r \$0-mpd24_ccs_min1;
#X obj 510 55 r \$0-mpd24_ccs_min2;
#X obj 524 76 r \$0-mpd24_ccs_min3;
#X obj 539 97 r \$0-mpd24_ccs_min4;
#X obj 553 118 r \$0-mpd24_ccs_min5;
#X obj 568 139 r \$0-mpd24_ccs_min6;
#X obj 582 160 r \$0-mpd24_ccs_min7;
#X obj 596 181 r \$0-mpd24_ccs_min8;
#X obj 611 202 r \$0-mpd24_ccs_min9;
#X obj 626 223 r \$0-mpd24_ccs_min10;
#X obj 640 244 r \$0-mpd24_ccs_min11;
#X obj 655 265 r \$0-mpd24_ccs_min12;
#X obj 669 286 r \$0-mpd24_ccs_min13;
#X obj 684 307 r \$0-mpd24_ccs_min14;
#X obj 495 333 pack 0 0 0 0 0 0 0 0 0 0 0 0 0 0;
#X obj 817 307 pack 0 0 0 0 0 0 0 0 0 0 0 0 0 0;
#X obj 817 8 r \$0-mpd24_ccs_max1;
#X obj 832 29 r \$0-mpd24_ccs_max2;
#X obj 846 50 r \$0-mpd24_ccs_max3;
#X obj 861 71 r \$0-mpd24_ccs_max4;
#X obj 875 92 r \$0-mpd24_ccs_max5;
#X obj 890 113 r \$0-mpd24_ccs_max6;
#X obj 904 134 r \$0-mpd24_ccs_max7;
#X obj 918 155 r \$0-mpd24_ccs_max8;
#X obj 933 176 r \$0-mpd24_ccs_max9;
#X obj 948 197 r \$0-mpd24_ccs_max10;
#X obj 962 218 r \$0-mpd24_ccs_max11;
#X obj 977 239 r \$0-mpd24_ccs_max12;
#X obj 991 260 r \$0-mpd24_ccs_max13;
#X obj 1006 281 r \$0-mpd24_ccs_max14;
#X obj 177 359 pack 0 0 0 0 0 0 0 0 0 0 0 0 0 0;
#X obj 177 61 r \$0-mpd24_ccs_cc1;
#X obj 191 82 r \$0-mpd24_ccs_cc2;
#X obj 206 102 r \$0-mpd24_ccs_cc3;
#X obj 221 124 r \$0-mpd24_ccs_cc4;
#X obj 235 145 r \$0-mpd24_ccs_cc5;
#X obj 250 166 r \$0-mpd24_ccs_cc6;
#X obj 264 187 r \$0-mpd24_ccs_cc7;
#X obj 278 208 r \$0-mpd24_ccs_cc8;
#X obj 293 229 r \$0-mpd24_ccs_cc9;
#X obj 308 250 r \$0-mpd24_ccs_cc10;
#X obj 322 271 r \$0-mpd24_ccs_cc11;
#X obj 337 292 r \$0-mpd24_ccs_cc12;
#X obj 351 313 r \$0-mpd24_ccs_cc13;
#X obj 367 334 r \$0-mpd24_ccs_cc14;
#X obj 8 392 list append;
#X obj 8 415 list append;
#X obj 8 438 list append;
#X obj 8 369 list append;
#X msg 1140 282 list 80 80 80 80 80 80 80 80 80 80 80 80 80 80;
#X obj 8 461 list append;
#X obj 9 50 t b b;
#X obj 1140 259 r \$0-mpd24_ccs_initpos;
#X obj 36 84 s \$0-mpd24_ccs_initpos;
#X connect 0 0 1 0;
#X connect 1 0 52 1;
#X connect 2 0 55 0;
#X connect 4 0 18 0;
#X connect 5 0 18 1;
#X connect 6 0 18 2;
#X connect 7 0 18 3;
#X connect 8 0 18 4;
#X connect 9 0 18 5;
#X connect 10 0 18 6;
#X connect 11 0 18 7;
#X connect 12 0 18 8;
#X connect 13 0 18 9;
#X connect 14 0 18 10;
#X connect 15 0 18 11;
#X connect 16 0 18 12;
#X connect 17 0 18 13;
#X connect 18 0 50 1;
#X connect 19 0 51 1;
#X connect 20 0 19 0;
#X connect 21 0 19 1;
#X connect 22 0 19 2;
#X connect 23 0 19 3;
#X connect 24 0 19 4;
#X connect 25 0 19 5;
#X connect 26 0 19 6;
#X connect 27 0 19 7;
#X connect 28 0 19 8;
#X connect 29 0 19 9;
#X connect 30 0 19 10;
#X connect 31 0 19 11;
#X connect 32 0 19 12;
#X connect 33 0 19 13;
#X connect 34 0 49 1;
#X connect 35 0 34 0;
#X connect 36 0 34 1;
#X connect 37 0 34 2;
#X connect 38 0 34 3;
#X connect 39 0 34 4;
#X connect 40 0 34 5;
#X connect 41 0 34 6;
#X connect 42 0 34 7;
#X connect 43 0 34 8;
#X connect 44 0 34 9;
#X connect 45 0 34 10;
#X connect 46 0 34 11;
#X connect 47 0 34 12;
#X connect 48 0 34 13;
#X connect 49 0 50 0;
#X connect 50 0 51 0;
#X connect 51 0 54 0;
#X connect 52 0 49 0;
#X connect 53 0 54 1;
#X connect 54 0 3 0;
#X connect 55 0 52 0;
#X connect 55 1 57 0;
#X connect 56 0 53 0;
#X restore 614 227 pd list_ccs;
#X text 674 142 LIST BUILDERS;
#N canvas 0 50 1800 789 list_filler1 0;
#X msg 35 81 0 0 0 0 0 0 0 0 0 0 0 0 0 0 0 0 0 0 0 0;
#X obj 35 106 s \$0-mpd24sysex_filler;
#X obj 35 55 inlet;
#X connect 0 0 1 0;
#X connect 2 0 0 0;
#X restore 627 205 pd list_filler1;
#X msg 22 397 add \$1;
#X text 69 396 needs to have textfile output;
#N canvas 431 322 1420 450 list_mpd24boiler 0;
#X obj 18 69 pack 240 71 0 104 16 3 113;
#X obj 18 92 s \$0-mpd24sysex_boiler;
#X obj 18 28 inlet;
#X connect 0 0 1 0;
#X connect 2 0 0 0;
#X restore 655 161 pd list_mpd24boiler;
#X obj 311 333 r \$0-mpd24sysex_ccs;
#X msg 668 99 clear;
#X obj 40 422 r \$0-clearbuffer;
#X obj 668 122 s \$0-clearbuffer;
#X obj 467 46 bng 32 250 50 0 \$0-mpd24sysex_dump remove_receive DUMP
4 16 0 10 -162280 -196685 -257985;
#X obj 559 20 r \$0-mpd24sysex_dump;
#X obj 22 457 textfile;
#X obj 559 52 t b b b b b b b b b b;
#X obj 682 76 s \$0-mpd24_bangall;
#X floatatom 716 52 5 0 0 1 DEBUG - -;
#X floatatom 527 128 5 0 0 0 - - -;
#N canvas -959 338 642 546 data_pads 0;
#X scalar template_pads 0 0 0 0 0 0 0 0 \;;
#X scalar template_pads 0 0 0 0 0 1 8 0 \;;
#X scalar template_pads 0 0 0 0 0 2 16 0 \;;
#X scalar template_pads 0 0 0 0 0 3 24 0 \;;
#X scalar template_pads 0 0 0 0 0 4 0 8 \;;
#X scalar template_pads 0 0 0 0 0 5 8 8 \;;
#X scalar template_pads 0 0 0 0 0 6 16 8 \;;
#X scalar template_pads 0 0 0 0 0 7 24 8 \;;
#X scalar template_pads 0 0 0 0 0 8 0 16 \;;
#X scalar template_pads 0 0 0 0 0 10 8 16 \;;
#X scalar template_pads 0 0 0 0 0 10 16 16 \;;
#X scalar template_pads 0 0 0 0 0 11 24 16 \;;
#X scalar template_pads 0 0 0 0 0 12 0 24 \;;
#X scalar template_pads 0 0 0 0 0 13 8 24 \;;
#X scalar template_pads 0 0 0 0 0 14 16 24 \;;
#X scalar template_pads 0 0 0 0 0 15 24 24 \;;
#X scalar template_pads 0 0 0 0 0 16 32 0 \;;
#X scalar template_pads 0 0 0 0 0 18 40 0 \;;
#X scalar template_pads 0 0 0 0 0 18 48 0 \;;
#X scalar template_pads 0 0 0 0 0 19 56 0 \;;
#X scalar template_pads 0 0 0 0 0 20 32 8 \;;
#X scalar template_pads 0 0 0 0 0 22 40 8 \;;
#X scalar template_pads 0 0 0 0 0 22 48 8 \;;
#X scalar template_pads 0 0 0 0 0 23 56 8 \;;
#X scalar template_pads 0 0 0 0 0 24 32 16 \;;
#X scalar template_pads 0 0 0 0 0 25 40 16 \;;
#X scalar template_pads 0 0 0 0 0 26 48 16 \;;
#X scalar template_pads 0 0 0 0 0 27 56 16 \;;
#X scalar template_pads 0 0 0 0 0 28 32 24 \;;
#X scalar template_pads 0 0 0 0 0 29 40 24 \;;
#X scalar template_pads 0 0 0 0 0 31 48 24 \;;
#X scalar template_pads 0 0 0 0 0 31 56 24 \;;
#X scalar template_pads 0 0 0 0 0 32 0 32 \;;
#X scalar template_pads 0 0 0 0 0 33 8 32 \;;
#X scalar template_pads 0 0 0 0 0 34 16 32 \;;
#X scalar template_pads 0 0 0 0 0 35 24 32 \;;
#X scalar template_pads 0 0 0 0 0 36 0 40 \;;
#X scalar template_pads 0 0 0 0 0 37 8 40 \;;
#X scalar template_pads 0 0 0 0 0 38 16 40 \;;
#X scalar template_pads 2 0 19 1 2 39 24 40 \;;
#X scalar template_pads 0 0 0 0 0 40 0 48 \;;
#X scalar template_pads 0 0 0 0 0 41 8 48 \;;
#X scalar template_pads 0 0 0 0 0 42 16 48 \;;
#X scalar template_pads 0 0 0 0 0 43 24 48 \;;
#X scalar template_pads 0 0 0 0 0 44 0 56 \;;
#X scalar template_pads 0 0 0 0 0 45 8 56 \;;
#X scalar template_pads 0 0 0 0 0 46 16 56 \;;
#X scalar template_pads 0 0 0 0 0 47 24 56 \;;
#X scalar template_pads 0 0 0 0 0 49 32 32 \;;
#X scalar template_pads 0 0 0 0 0 49 40 32 \;;
#X scalar template_pads 2 0 19 1 2 50 48 32 \;;
#X scalar template_pads 0 0 0 0 0 51 56 32 \;;
#X scalar template_pads 2 0 19 1 2 52 32 40 \;;
#X scalar template_pads 2 0 19 1 2 53 40 40 \;;
#X scalar template_pads 2 0 19 1 2 54 48 40 \;;
#X scalar template_pads 0 0 0 0 0 55 56 40 \;;
#X scalar template_pads 0 0 0 0 0 56 32 48 \;;
#X scalar template_pads 0 0 0 0 0 57 40 48 \;;
#X scalar template_pads 2 0 19 1 2 58 48 48 \;;
#X scalar template_pads 0 0 0 0 0 59 56 48 \;;
#X scalar template_pads 0 0 0 0 0 60 32 56 \;;
#X scalar template_pads 0 0 0 0 0 61 40 56 \;;
#X scalar template_pads 0 0 0 0 0 62 48 56 \;;
#X scalar template_pads 0 0 0 0 0 63 56 56 \;;
#X coords 8 8 74 74 180 180 2 0 0;
#X restore 22 78 pd data_pads;
#N canvas -1929 104 1920 1028 template_pads 0;
#X obj 24 11 struct template_pads float type float ch float noteprogcc
float triggermsb float atlsb float padpos float x float y;
#X obj 24 69 route click;
#N canvas -1929 104 1920 1028 pads_record_values 0;
#X obj 122 164 r \$0-mpd24_pad_type;
#X obj 247 165 r \$0-mpd24_pad_ch;
#X obj 365 162 r \$0-mpd24_pad_npc;
#X obj 495 161 r \$0-mpd24_pad_trgmsb;
#X obj 633 161 r \$0-mpd24_pad_atlsb;
#X obj 530 262 pointer;
#X obj 544 73 inlet;
#X obj 211 420 set template_pads type ch noteprogcc triggermsb atlsb
;
#X floatatom 124 313 5 0 0 0 - - -;
#X floatatom 254 313 5 0 0 0 - - -;
#X floatatom 367 318 5 0 0 0 - - -;
#X floatatom 450 315 5 0 0 0 - - -;
#X floatatom 621 311 5 0 0 0 - - -;
#X obj 544 98 t p b;
#X obj 73 77 inlet;
#X msg 71 105 bang;
#X connect 0 0 8 0;
#X connect 1 0 9 0;
#X connect 2 0 10 0;
#X connect 3 0 11 0;
#X connect 4 0 12 0;
#X connect 5 0 7 5;
#X connect 6 0 13 0;
#X connect 8 0 7 0;
#X connect 9 0 7 1;
#X connect 10 0 7 2;
#X connect 11 0 7 3;
#X connect 12 0 7 4;
#X connect 13 0 5 0;
#X connect 14 0 15 0;
#X connect 15 0 8 0;
#X restore 199 203 pd pads_record_values;
#X msg 99 48 click;
#N canvas -9 -9 1845 1028 struct_pads_init 0;
#X obj 352 85 until;
#X obj 258 13 inlet;
#X msg 17 374 0;
#X obj 17 423 append template_pads type ch noteprogcc triggermsb atlsb
padpos x y, f 107;
#X floatatom 407 147 5 0 0 0 - - #0-dbg-padno;
#X obj 258 40 trigger bang bang bang bang bang, f 63;
#X msg 688 318 0;
#X obj 441 276 dtob 32, f 11;
#X obj 466 213 r \$0-cireset;
#X obj 343 183 r \$0-cireset;
#X obj 551 146 r \$0-cireset;
#X obj 688 296 r \$0-cireset;
#X obj 445 63 s \$0-cireset;
#X floatatom 457 391 5 0 0 0 - - -;
#X floatatom 538 391 5 0 0 0 - - -;
#X obj 494 364 r \$0-pix;
#X obj 578 367 r \$0-piy;
#X obj 589 343 r \$0-piyo;
#X obj 510 342 r \$0-pixo;
#X obj 688 343 s \$0-pixo;
#X obj 752 342 s \$0-piyo;
#X obj 319 285 s \$0-piy;
#X obj 226 285 s \$0-pix;
#X msg 752 317 0;
#X obj 442 187 t f f, f 9;
#X text 549 229 padgroup++;
#X obj 17 398 t f f f f f, f 53;
#X obj 226 231 int;
#X obj 319 232 int;
#X text 281 202 row++;
#X text 171 164 column++;
#X text 511 275 set xy origin in bseq 0 \, 0 0 \, 32 32 \, 0 32 \,
32;
#X obj 17 106 trigger bang bang bang bang, f 105;
#X text 232 122 CALCULATE XY:;
#X text 448 122 SET XY ORIGIN FOR BANKS:;
#X msg 257 63 debug-draw-pad;
#X obj 441 299 s \$0-piyo;
#X obj 504 299 s \$0-pixo;
#X obj 250 144 r \$0-cireset;
#X obj 494 391 + 0;
#X obj 575 391 + 0;
#X msg 813 318 0;
#X msg 877 317 0;
#X obj 813 343 s \$0-pix;
#X obj 877 342 s \$0-piy;
#X obj 539 64 s \$0-struct_pads;
#X obj 654 374 r \$0-struct_pads;
#X obj 226 163 mpdsysex_ci 8 32;
#X obj 319 202 mpdsysex_ci 8 32;
#X obj 443 146 mpdsysex_ci 1 64;
#N canvas -1929 104 1920 1028 struct_iptr 0;
#X msg 405 223 next;
#X obj 283 303 pointer;
#X obj 282 78 inlet;
#X obj 436 101 inlet;
#X obj 282 335 outlet;
#X msg 439 197 traverse pd-data_pads;
#X obj 440 276 pointer;
#X obj 282 117 t b b;
#X text 583 89 this algo is for the get and or set;
#X text 593 137 append just needs a 0th pointer;
#X text 629 156 and takes over on its own;
#X connect 0 0 6 0;
#X connect 1 0 4 0;
#X connect 2 0 7 0;
#X connect 3 0 5 0;
#X connect 5 0 6 0;
#X connect 6 0 1 1;
#X connect 7 0 1 0;
#X connect 7 1 0 0;
#X restore 771 399 pd struct_iptr;
#X obj 442 233 mpdsysex_ci 1 16;
#X obj 441 257 r \$0-cireset;
#X msg 352 63 64;
#N canvas 0 50 1513 580 struct_aptr 0;
#X msg 175 135 traverse pd-data_pads \, bang;
#X obj 175 157 pointer;
#X obj 177 106 inlet;
#X obj 174 185 outlet;
#X text 124 59 for append only \, set ptr to struct once;
#X connect 0 0 1 0;
#X connect 1 0 3 0;
#X connect 2 0 0 0;
#X restore 654 398 pd struct_aptr;
#X msg 644 129 logdbg;
#X obj 635 149 outlet;
#X text 678 148 debug msgs;
#X connect 0 0 32 0;
#X connect 1 0 5 0;
#X connect 2 0 26 0;
#X connect 5 1 53 0;
#X connect 5 2 12 0;
#X connect 5 3 45 0;
#X connect 5 4 56 0;
#X connect 6 0 19 0;
#X connect 6 0 23 0;
#X connect 7 0 36 0;
#X connect 7 1 37 0;
#X connect 8 0 51 1;
#X connect 9 0 48 1;
#X connect 10 0 49 1;
#X connect 11 0 6 0;
#X connect 15 0 39 0;
#X connect 16 0 40 0;
#X connect 17 0 40 1;
#X connect 18 0 39 1;
#X connect 23 0 20 0;
#X connect 23 0 41 0;
#X connect 24 0 51 0;
#X connect 24 1 3 5;
#X connect 26 0 3 0;
#X connect 26 1 3 1;
#X connect 26 2 3 2;
#X connect 26 3 3 3;
#X connect 26 4 3 4;
#X connect 27 0 22 0;
#X connect 28 0 21 0;
#X connect 32 0 2 0;
#X connect 32 1 47 0;
#X connect 32 2 49 0;
#X connect 32 3 55 0;
#X connect 35 0 32 0;
#X connect 38 0 47 1;
#X connect 39 0 3 6;
#X connect 39 0 13 0;
#X connect 40 0 3 7;
#X connect 40 0 14 0;
#X connect 41 0 43 0;
#X connect 41 0 42 0;
#X connect 42 0 44 0;
#X connect 46 0 54 0;
#X connect 47 0 27 0;
#X connect 47 1 48 0;
#X connect 48 0 28 0;
#X connect 49 0 4 0;
#X connect 49 0 24 0;
#X connect 51 1 7 0;
#X connect 52 0 7 1;
#X connect 53 0 0 0;
#X connect 54 0 3 8;
#X connect 55 0 56 0;
#X restore 442 202 pd struct_pads_init;
#X obj 442 92 loadbang;
#N canvas -9 -9 1845 1028 debug 0;
#X obj 470 25 inlet;
#X obj 555 263 r \$0-pixo;
#X obj 573 283 r \$0-piyo;
#X obj 536 241 r \$0-piy;
#X obj 517 221 r \$0-pix;
#X obj 499 192 select 1;
#X obj 592 314 r \$0-dbg-padno;
#X obj 499 341 pack b f f f f f;
#X obj 499 370 print DEBUG;
#X obj 26 6 inlet;
#X obj 455 154 int;
#X obj 313 190 t b b b;
#X obj 314 269 s \$0-cireset;
#X obj 334 248 s \$0-struct_pads;
#X msg 352 214 \; pd-data_pads clear \;;
#X obj 26 77 symbol;
#X obj 26 116 select drawpads drawpad clearpads logdbg, f 96;
#X connect 0 0 10 1;
#X connect 1 0 7 3;
#X connect 2 0 7 4;
#X connect 3 0 7 2;
#X connect 4 0 7 1;
#X connect 5 0 7 0;
#X connect 6 0 7 5;
#X connect 7 0 8 0;
#X connect 9 0 15 0;
#X connect 10 0 5 0;
#X connect 11 0 12 0;
#X connect 11 1 13 0;
#X connect 11 2 14 0;
#X connect 15 0 16 0;
#X connect 16 2 11 0;
#X connect 16 3 10 0;
#X restore 442 335 pd debug;
#X obj 487 313 tgl 15 0 empty empty empty 17 7 0 10 -262144 -1 -1 0
1;
#X msg 469 287 clearpads;
#X msg 467 179 debug-draw-pads;
#X text 506 312 console logging;
#X obj 214 121 r \$0-mpd24_ppux_sticky;
#X obj 275 279 r \$0-mpd24_ppux_nninc;
#X obj 199 145 int;
#X obj 199 172 select 1;
#X obj 260 304 int;
#X obj 261 326 select 1;
#X obj 262 346 mpdsysex_ci 1 64;
#X obj 262 367 s \$0-mpd24_pad_npc;
#X obj 24 94 t p b b p, f 51;
#X obj 430 32 drawpolygon -xv 111 5 9 9 17 9 17 17 9 17 9 9;
#X obj 430 53 filledpolygon -xv 555 555 1 10 10 16 10 16 16 10 16;
#X obj 431 11 drawtext padpos 11 11 123;
#X text 140 48 set event listener;
#X text 110 70 on event listener;
#N canvas 0 0 1813 1010 pads_retrieve_values 0;
#X floatatom 131 97 5 0 0 0 - - -;
#X obj 48 70 get template_pads type ch noteprogcc triggermsb atlsb
padpos;
#X floatatom 465 97 5 0 0 0 - - -;
#X floatatom 215 97 5 0 0 0 - - -;
#X floatatom 298 97 5 0 0 0 - - -;
#X floatatom 382 96 5 0 0 0 - - -;
#X floatatom 48 97 5 0 0 0 - - -;
#X obj 465 124 s \$0-mpd24_ppuxd_padno;
#X obj 48 30 inlet;
#X connect 1 0 6 0;
#X connect 1 1 0 0;
#X connect 1 2 3 0;
#X connect 1 3 4 0;
#X connect 1 4 5 0;
#X connect 1 5 2 0;
#X connect 2 0 7 0;
#X connect 8 0 1 0;
#X restore 24 203 pd pads_retrieve_values;
#X text 108 222 read struct;
#X text 262 222 write struct;
#X text 498 221 init struct;
#X text 324 44 declare struct;
#X connect 0 0 1 0;
#X connect 1 0 19 0;
#X connect 3 0 1 1;
#X connect 4 0 6 0;
#X connect 5 0 4 0;
#X connect 7 0 6 1;
#X connect 8 0 6 0;
#X connect 9 0 4 0;
#X connect 11 0 13 1;
#X connect 12 0 15 1;
#X connect 13 0 14 0;
#X connect 14 0 2 0;
#X connect 15 0 16 0;
#X connect 16 0 17 0;
#X connect 17 0 18 0;
#X connect 19 0 25 0;
#X connect 19 1 13 0;
#X connect 19 2 15 0;
#X connect 19 3 2 1;
#X coords 0 514 1 513 96 96 0;
#X restore 637 383 pd template_pads;
#N canvas -9 -9 1845 1028 pad_params_ux 0;
#X floatatom 111 103 5 2 3 0 NOTE/PCH - #0-mpd24_pad_type;
#X floatatom 111 129 5 0 32 0 CHANNEL_ - #0-mpd24_pad_ch;
#X floatatom 111 155 5 0 127 0 NN/PRGN_ - #0-mpd24_pad_npc;
#X floatatom 112 182 5 0 127 0 TRG/MSB_ - #0-mpd24_pad_trgmsb;
#X floatatom 112 207 5 0 127 0 AFT/LSB_ - #0-mpd24_pad_atlsb;
#X obj 197 182 nbx 3 16 0 1 0 0 empty ppux_v2 TRG/MSB 12 -5 0 10 -203904
-4160 -1 1 256;
#X symbolatom 237 103 5 0 0 0 - ppux_stype_ind remove_send;
#X obj 130 284 select 2 3;
#X obj 197 208 nbx 3 16 0 2 0 0 empty ppux_v3 AT/LSB 18 -5 0 10 -203904
-4160 -1 2 256;
#X obj 130 263 r \$0-mpd24_pad_type;
#X obj 197 155 nbx 7 16 0 127 0 0 empty ppux_v1 NN/PRGN 12 -5 0 10
-203904 -4160 -1 10 256;
#X obj 197 129 nbx 3 16 0 32 0 0 empty remove_receive CHANNEL 14 -5
0 10 -203904 -4160 -1 0 256;
#X obj 202 103 hradio 16 1 1 2 empty remove_inlet empty -5 8 0 10 -262144
-1 -1 0;
#X obj 161 103 + 2;
#X symbolatom 237 129 5 0 0 0 - ppux_ch_ind remove_send;
#X obj 79 430 r \$0-mpd24_pad_ch;
#X obj 79 496 + 1;
#X obj 124 496 + 1;
#X obj 79 474 mod 15;
#X obj 124 474 mod 15;
#X obj 79 452 moses 15;
#X symbolatom 237 182 5 0 0 0 - ppux_v2_ind remove_send;
#X msg 124 521 \; ppux_ch_ind symbol \$1-B;
#X msg 79 554 \; ppux_ch_ind symbol \$1-A;
#X msg 158 312 \; ppux_stype_ind symbol PROG \; ppux_v2 range 0 127
\, bang \; ppux_v3 range 0 127 \, bang;
#X msg 130 370 \; ppux_stype_ind symbol NOTE \; ppux_v2 range 0 1 \,
bang \; ppux_v3 range 0 2 \, bang;
#X symbolatom 237 208 5 0 0 0 - ppux_v3_ind remove_send;
#X msg 78 715 \; ppux_v2_ind symbol MTY;
#X msg 107 683 \; ppux_v2_ind symbol TGL;
#X obj 78 587 r \$0-mpd24_pad_trgmsb;
#X obj 78 631 select 0 1;
#X msg 135 651 \; ppux_v2_ind symbol \$1=;
#X msg 148 815 \; ppux_v3_ind symbol \$1=;
#X obj 79 788 select 0 1 2;
#X msg 102 879 \; ppux_v3_ind symbol CPR;
#X msg 79 912 \; ppux_v3_ind symbol OFF;
#X msg 125 847 \; ppux_v3_ind symbol PPR;
#X obj 79 748 r \$0-mpd24_pad_atlsb;
#X obj 160 207 int;
#X obj 160 182 int;
#X connect 5 0 39 0;
#X connect 7 0 25 0;
#X connect 7 1 24 0;
#X connect 8 0 38 0;
#X connect 9 0 7 0;
#X connect 10 0 2 0;
#X connect 11 0 1 0;
#X connect 12 0 13 0;
#X connect 13 0 0 0;
#X connect 15 0 20 0;
#X connect 16 0 23 0;
#X connect 17 0 22 0;
#X connect 18 0 16 0;
#X connect 19 0 17 0;
#X connect 20 0 18 0;
#X connect 20 1 19 0;
#X connect 29 0 30 0;
#X connect 30 0 27 0;
#X connect 30 1 28 0;
#X connect 30 2 31 0;
#X connect 33 0 35 0;
#X connect 33 1 34 0;
#X connect 33 2 36 0;
#X connect 33 3 32 0;
#X connect 37 0 33 0;
#X connect 38 0 4 0;
#X connect 39 0 3 0;
#X coords 0 -1 1 1 80 128 2 192 100;
#X restore 202 78 pd pad_params_ux;
#X obj 303 21 cnv 15 196 24 empty empty MPD24|PRESET-EDITOR 4 12 0
16 -162280 -196685 0;
#X obj 134 265 r \$0-mpd24_pad_banksel;
#X floatatom 235 309 5 0 0 0 - - -;
#X obj 235 290 int;
#X obj 202 242 cnv 12 64 16 empty empty MODE 3 8 0 11 -128992 -257985
0;
#X obj 238 244 tgl 12 0 \$0-mpd24_ppux_sticky remove_recv C 3 6 0 10
-128992 -258113 -86277 0 1;
#X obj 252 244 tgl 12 0 \$0-mpd24_ppux_nninc remove_recv I 3 6 0 10
-128992 -159808 -45076 0 1;
#X obj 202 206 nbx 2 32 0 63 0 0 empty \$0-mpd24_ppuxd_padno empty
0 -8 0 16 -262144 -1 -1 48 256;
#N canvas -1929 104 1920 1028 template_padno 0;
#X obj 190 86 pointer;
#X msg 73 67 0;
#X obj 29 11 struct template_padno float x float y float vvv float
bg float fg;
#X msg 190 65 traverse pd-data_padno \, bang;
#X obj 73 117 append template_padno x y vvv bg fg;
#X obj 33 207 filledpolygon 47 47 0 0 0 32 0 32 32 0 32 0 0;
#X obj 190 44 loadbang;
#X obj 33 186 drawtext vvv 11 11 399;
#X connect 0 0 4 5;
#X connect 1 0 4 1;
#X connect 1 0 4 0;
#X connect 3 0 0 0;
#X connect 6 0 3 0;
#X connect 6 0 1 0;
#X restore 637 360 pd template_padno;
#N canvas 0 50 450 300 data_padno 0;
#X scalar template_padno 0 0 200 0 0 \;;
#X scalar template_padno 0 0 0 0 0 \;;
#X coords 0 0 32 32 32 32 2 100 100;
#X restore 249 206 pd data_padno;
#X text 531 322 Struct definitions \, declarations and functions;
#X text 706 340 =====================;
#X connect 0 0 7 0;
#X connect 5 0 0 1;
#X connect 6 0 0 0;
#X connect 6 1 5 0;
#X connect 6 2 5 1;
#X connect 7 0 60 0;
#X connect 8 0 10 0;
#X connect 9 0 10 0;
#X connect 11 0 6 0;
#X connect 12 0 10 0;
#X connect 60 0 69 0;
#X connect 63 0 10 0;
#X connect 64 0 66 0;
#X connect 65 0 69 0;
#X connect 68 0 70 0;
#X connect 70 4 57 0;
#X connect 70 5 59 0;
#X connect 70 6 56 0;
#X connect 70 7 62 0;
#X connect 70 8 64 0;
#X connect 70 9 71 0;
#X connect 72 0 71 0;
#X connect 78 0 80 0;
#X connect 80 0 79 0;
#X coords 0 -1 1 1 480 240 2 20 20;
#X restore 17 11 pd sequence_list;
#X connect 0 0 3 0;
#X connect 1 0 0 0;
#X connect 2 0 5 0;
#X connect 3 0 2 0;
#X connect 4 0 5 1;
#X connect 5 0 6 0;
#X connect 6 0 8 0;
#X connect 7 0 8 0;
#X connect 9 1 14 0;
#X connect 10 0 12 0;
#X connect 11 0 0 0;
#X connect 12 0 8 0;
#X connect 13 0 11 0;
#X connect 14 0 0 0;
#X connect 14 1 4 0;
#X connect 15 0 18 0;
#X connect 17 0 16 0;
#X connect 18 0 16 0;
#X connect 19 1 18 0;
#X connect 20 0 19 0;
