#N canvas -13 43 1093 572 16;
#X obj 228 357 ctlout 7;
#X obj 340 357 ctlout 10;
#X obj 113 357 ctlout 1;
#X obj 459 357 ctlout 64;
#X obj 573 357 ctlout 91;
#X obj 689 357 ctlout 93;
#N canvas 270 77 450 300 ccpr 0;
#X obj 70 22 inlet;
#X obj 70 165 outlet;
#X floatatom 70 133 5 0 0 0 - - -, f 5;
#X obj 70 77 * 1;
#X obj 70 104 + 0;
#X obj 70 49 int;
#X obj 265 84 r \$0-mmchan;
#X obj 265 164 outlet;
#X connect 0 0 5 0;
#X connect 2 0 1 0;
#X connect 3 0 4 0;
#X connect 4 0 2 0;
#X connect 5 0 3 0;
#X connect 6 0 7 0;
#X coords 0 -1 1 1 64 32 2 64 128;
#X restore 113 308 pd ccpr;
#N canvas 270 77 450 300 ccpr 0;
#X obj 70 22 inlet;
#X obj 70 165 outlet;
#X floatatom 70 133 5 0 0 0 - - -, f 5;
#X obj 70 63 * 1;
#X obj 70 90 + 0;
#X obj 265 84 r \$0-mmchan;
#X obj 265 164 outlet;
#X connect 0 0 3 0;
#X connect 2 0 1 0;
#X connect 3 0 4 0;
#X connect 4 0 2 0;
#X connect 5 0 6 0;
#X coords 0 -1 1 1 64 32 2 64 128;
#X restore 228 309 pd ccpr;
#N canvas 270 77 450 300 ccpr 0;
#X obj 70 22 inlet;
#X obj 70 165 outlet;
#X floatatom 70 133 5 0 0 0 - - -, f 5;
#X obj 70 63 * 20;
#X obj 70 90 + 4;
#X obj 172 22 int 20;
#X obj 173 48 int 4;
#X obj 265 84 r \$0-mmchan;
#X obj 265 164 outlet;
#X connect 0 0 3 0;
#X connect 2 0 1 0;
#X connect 3 0 4 0;
#X connect 4 0 2 0;
#X connect 5 0 3 1;
#X connect 6 0 4 1;
#X connect 7 0 8 0;
#X coords 0 -1 1 1 64 32 2 64 128;
#X restore 340 309 pd ccpr;
#N canvas 270 77 450 300 ccpr 0;
#X obj 70 22 inlet;
#X obj 70 165 outlet;
#X floatatom 70 133 5 0 0 0 - - -, f 5;
#X obj 70 63 * 1;
#X obj 70 90 + 0;
#X obj 265 84 r \$0-mmchan;
#X obj 265 164 outlet;
#X connect 0 0 3 0;
#X connect 2 0 1 0;
#X connect 3 0 4 0;
#X connect 4 0 2 0;
#X connect 5 0 6 0;
#X coords 0 -1 1 1 64 32 2 64 128;
#X restore 459 307 pd ccpr;
#N canvas 270 77 450 300 ccpr 0;
#X obj 70 22 inlet;
#X obj 70 165 outlet;
#X floatatom 70 133 5 0 0 0 - - -, f 5;
#X obj 70 73 * 1;
#X obj 70 100 + 0;
#X obj 70 48 int;
#X obj 265 84 r \$0-mmchan;
#X obj 265 164 outlet;
#X connect 0 0 5 0;
#X connect 2 0 1 0;
#X connect 3 0 4 0;
#X connect 4 0 2 0;
#X connect 5 0 3 0;
#X connect 6 0 7 0;
#X coords 0 -1 1 1 64 32 2 64 128;
#X restore 573 307 pd ccpr;
#N canvas 270 77 450 300 ccpr 0;
#X obj 70 22 inlet;
#X obj 70 165 outlet;
#X floatatom 70 133 5 0 0 0 - - -, f 5;
#X obj 70 76 * 1;
#X obj 70 103 + 0;
#X obj 70 48 int;
#X obj 265 84 r \$0-mmchan;
#X obj 265 164 outlet;
#X connect 0 0 5 0;
#X connect 2 0 1 0;
#X connect 3 0 4 0;
#X connect 4 0 2 0;
#X connect 5 0 3 0;
#X connect 6 0 7 0;
#X coords 0 -1 1 1 64 32 2 64 128;
#X restore 689 307 pd ccpr;
#X obj 113 272 r \$0-ccmod;
#X obj 228 272 r \$0-ccvol;
#X obj 340 272 r \$0-ccpan;
#X obj 458 272 r \$0-ccsus;
#X obj 573 272 r \$0-ccrev;
#X obj 689 272 r \$0-cccho;
#X obj 24 24 cnv 15 64 480 empty empty empty 20 12 0 14 -33289 -66577
0;
#X obj 41 363 vsl 32 128 0 127 0 0 \$0-ccvol \$0-ccvolff empty 0 -9
0 10 -66577 -4032 -1 10400 1;
#X obj 25 25 nbx 3 24 0 127 0 0 \$0-prog \$0-mmprogff empty 0 -8 0
18 -66577 -258113 -1 0 256;
#X obj 32 124 hsl 48 24 0 127 0 0 \$0-cccho \$0-ccchoff empty -2 -8
0 10 -66577 -260097 -1 0 1;
#X obj 32 95 hsl 48 24 0 127 0 0 \$0-ccrev \$0-ccrevff empty -2 -8
0 10 -66577 -4160 -1 0 1;
#X obj 41 237 tgl 32 0 \$0-ccsus \$0-ccsusff empty 17 7 0 10 -66577
-261234 -1 0 127;
#X obj 30 156 vsl 16 64 0 127 0 0 \$0-ccmod \$0-ccmodff empty 0 -9
0 10 -66577 -86277 -1 0 1;
#X obj 28 315 hradio 8 1 1 7 \$0-ccpan \$0-ccpanff empty 0 -8 0 10
-66577 -4032 -1 3;
#X obj 65 156 vsl 16 64 -1200 1200 0 0 \$0-ccbnd \$0-ccbndff empty
0 -9 0 10 -66577 -13381 -1 3318 1;
#N canvas 270 77 450 300 ccpr 0;
#X obj 70 22 inlet;
#X obj 70 165 outlet;
#X floatatom 70 133 5 0 0 0 - - -, f 5;
#X obj 70 76 * 1;
#X obj 70 103 + 0;
#X obj 70 48 int;
#X obj 265 84 r \$0-mmchan;
#X obj 265 164 outlet;
#X connect 0 0 5 0;
#X connect 2 0 1 0;
#X connect 3 0 4 0;
#X connect 4 0 2 0;
#X connect 5 0 3 0;
#X connect 6 0 7 0;
#X coords 0 -1 1 1 64 32 2 64 128;
#X restore 809 307 pd ccpr;
#X obj 809 357 pgmout;
#X obj 809 272 r \$0-prog;
#N canvas 270 77 450 300 ccpr 0;
#X obj 70 22 inlet;
#X obj 70 165 outlet;
#X floatatom 70 133 5 0 0 0 - - -, f 5;
#X obj 70 76 * 1;
#X obj 70 103 + 0;
#X obj 70 48 int;
#X obj 265 84 r \$0-mmchan;
#X obj 265 164 outlet;
#X connect 0 0 5 0;
#X connect 2 0 1 0;
#X connect 3 0 4 0;
#X connect 4 0 2 0;
#X connect 5 0 3 0;
#X connect 6 0 7 0;
#X coords 0 -1 1 1 64 32 2 64 128;
#X restore 919 307 pd ccpr;
#X obj 919 357 bendout;
#X obj 919 272 r \$0-ccbnd;
#X obj 30 277 nbx 3 24 0 127 0 0 \$0-mmchan \$0-mmchanff empty 0 -8
0 14 -159808 -204786 -1 1 256;
#X obj 53 350 bng 8 250 50 0 \$0-rstvol empty empty 17 7 0 10 -86853
-257985 -1;
#N canvas 114 20 1093 572 rstctl 0;
#X obj 36 25 r \$0-rstvol;
#X obj 157 25 r \$0-rstpan;
#X obj 278 26 r \$0-rstsus;
#X obj 167 263 r \$0-rstbnd;
#X obj 164 141 r \$0-rstcho;
#X obj 311 139 r \$0-rstrev;
#X obj 157 54 int 3;
#X obj 279 54 int 0;
#X obj 36 58 int 104;
#X obj 162 172 int 0;
#X obj 310 167 int 0;
#X obj 167 293 int 64;
#X obj 37 260 r \$0-rstmod;
#X obj 37 290 int 0;
#X obj 28 100 s \$0-ccvolff;
#X obj 167 99 s \$0-ccpanff;
#X obj 307 99 s \$0-ccsusff;
#X obj 37 339 s \$0-ccmodff;
#X obj 167 339 s \$0-ccbndff;
#X obj 162 207 s \$0-ccchoff;
#X obj 312 207 s \$0-ccrevff;
#X obj 750 64 loadbang;
#X obj 530 124 s \$0-rstvol;
#X obj 564 151 s \$0-rstpan;
#X obj 592 176 s \$0-rstsus;
#X obj 618 202 s \$0-rstmod;
#X obj 649 229 s \$0-rstbnd;
#X obj 679 254 s \$0-rstcho;
#X obj 709 279 s \$0-rstrev;
#X connect 0 0 8 0;
#X connect 1 0 6 0;
#X connect 2 0 7 0;
#X connect 3 0 11 0;
#X connect 4 0 9 0;
#X connect 5 0 10 0;
#X connect 6 0 15 0;
#X connect 7 0 16 0;
#X connect 8 0 14 0;
#X connect 9 0 19 0;
#X connect 10 0 20 0;
#X connect 11 0 18 0;
#X connect 12 0 13 0;
#X connect 13 0 17 0;
#X connect 21 0 22 0;
#X connect 21 0 23 0;
#X connect 21 0 24 0;
#X connect 21 0 25 0;
#X connect 21 0 26 0;
#X connect 21 0 27 0;
#X connect 21 0 28 0;
#X restore 257 212 pd rstctl;
#X obj 52 225 bng 8 250 50 0 \$0-rstsus empty empty 17 7 0 10 -86853
-257985 -1;
#X obj 32 225 bng 8 250 50 0 \$0-rstmod empty empty 17 7 0 10 -86853
-257985 -1;
#X obj 72 225 bng 8 250 50 0 \$0-rstbnd empty empty 17 7 0 10 -86853
-257985 -1;
#X obj 31 84 bng 8 250 50 0 \$0-rstrev empty empty 17 7 0 10 -86853
-257985 -1;
#X obj 72 84 bng 8 250 50 0 \$0-rstcho empty empty 17 7 0 10 -86853
-257985 -1;
#X obj 53 305 bng 8 250 50 0 \$0-rstpan empty empty 17 7 0 10 -86853
-257985 -1;
#X obj 210 4 inlet;
#X obj 210 148 s \$0-mmchanff;
#X obj 577 25 r \$0-mmbang;
#X obj 31 61 bng 15 250 50 0 \$0-mmbang \$0-mmbangff SYNC 20 8 0 12
-66577 -257985 -261682;
#X obj 577 56 float \$0;
#X msg 577 86 \; \$1-ccmod bang \; \$1-ccvol bang \; \$1-ccpan bang
\; \$1-ccsus bang \; \$1-ccrev bang \; \$1-cccho bang \; \$1-prog bang
\; \$1-ccbnd bang \;;
#X obj 847 25 r mmbangcommon;
#X obj 884 94 s \$0-mmbangff;
#X obj 210 43 select ch pr;
#X obj 210 86 int 0;
#X obj 268 86 int 0;
#X obj 268 121 s \$0-mmprogff;
#X connect 6 0 2 0;
#X connect 6 1 2 2;
#X connect 7 0 0 0;
#X connect 7 1 0 2;
#X connect 8 0 1 0;
#X connect 8 1 1 2;
#X connect 9 0 3 0;
#X connect 9 1 3 2;
#X connect 10 0 4 0;
#X connect 10 1 4 2;
#X connect 11 0 5 0;
#X connect 11 1 5 2;
#X connect 12 0 6 0;
#X connect 13 0 7 0;
#X connect 14 0 8 0;
#X connect 15 0 9 0;
#X connect 16 0 10 0;
#X connect 17 0 11 0;
#X connect 27 0 28 0;
#X connect 27 1 28 1;
#X connect 29 0 27 0;
#X connect 30 0 31 0;
#X connect 30 1 31 1;
#X connect 32 0 30 0;
#X connect 42 0 50 0;
#X connect 44 0 46 0;
#X connect 46 0 47 0;
#X connect 48 0 46 0;
#X connect 48 0 49 0;
#X connect 50 0 51 0;
#X connect 50 1 52 0;
#X connect 50 2 52 1;
#X connect 50 2 51 1;
#X connect 51 0 43 0;
#X connect 52 0 53 0;
#X coords 0 -1 1 1 64 480 2 24 24;
