#N struct template_adsr_mode float x float y symbol m;
#N struct template_adsr_multi float x float y array adsra template_adsrs
array adsrf template_adsrs array adsrm template_adsrs float gvisa float
gvisf float gvism;
#N struct template_adsrs float x float y float a float d float s float
r;
#N struct T_adsr_multi float x1 float y1 array vcae T_adsr array vcfe
T_adsr array vcme T_adsr;
#N struct T_adsr float y float ax float dx float dy float sy float
rfx float rix float rx;
#N struct T_StdMidiMap float x float y symbol id symbol rstdid float
rv float rvn symbol sstdid float sv float svn array rsrvdlist T_MidiStandardId
;
#N struct T_MidiStandardId symbol id float v;
#N canvas -9 -9 1846 1028 12;
#X declare -path cpx;
#N canvas 923 0 904 1010 ammod_path 0;
#X obj 200 212 cnv 15 64 244 empty empty empty 20 12 1 12 -66577 -228856
0;
#X obj 214 270 hsl 36 36 0 127 0 0 \$0-CtlKPathRate \$0-CtlKPathRateIn
RATE 7 42 1 8 -191407 -66577 -228856 0 1;
#X obj 210 331 hradio 15 1 0 3 \$0-CtlSPathMode empty MODE 8 24 1 8
-191407 -66577 -228856 0;
#X obj 221 371 bng 24 250 50 0 \$0-CtlTPathClear \$0-CtlTPathClearIn
CLEAR -2 32 1 8 -99865 -191407 -228856;
#X obj 220 220 tgl 24 0 \$0-CtlWPathSync \$0-CtlWPathSyncIn SYNC 0
32 1 8 -49153 -49153 -174763 0 1;
#X obj 221 415 tgl 24 0 \$0-CtlWPathEdit \$0-CtlWPathEditIn EDIT 2
32 1 8 -86277 -258113 -228856 0 1;
#X obj 200 200 cnv 11 64 12 empty empty PATH 20 7 1 8 -233017 -66577
0;
#N canvas -9 -9 1845 1028 color 0;
#X obj 241 51 r \$0-CtlWPathSync;
#X obj 71 353 s \$0-CtlWPathSyncIn;
#X obj 71 49 loadbang;
#X symbolatom 71 221 10 0 0 0 - - -;
#X symbolatom 146 221 10 0 0 0 - - -;
#X symbolatom 222 221 10 0 0 0 - - -;
#X msg 71 326 color \$1 \$2 \$3;
#X obj 241 78 select 0 1;
#X obj 222 246 t s s;
#X obj 71 245 t s s;
#X obj 71 170 unpack symbol symbol symbol symbol symbol symbol symbol
;
#X symbolatom 301 222 10 0 0 0 - - -;
#X symbolatom 380 222 10 0 0 0 - - -;
#X symbolatom 458 222 10 0 0 0 - - -;
#X symbolatom 535 223 10 0 0 0 - - -;
#X obj 146 247 t s s;
#X msg 71 83 list #330000 #AA0000 #AAAAAA;
#X obj 71 298 pack symbol symbol symbol symbol symbol symbol symbol
;
#X connect 0 0 7 0;
#X connect 2 0 16 0;
#X connect 3 0 9 0;
#X connect 4 0 15 0;
#X connect 5 0 8 0;
#X connect 6 0 1 0;
#X connect 7 0 3 0;
#X connect 7 1 4 0;
#X connect 8 1 17 2;
#X connect 9 0 17 0;
#X connect 9 1 17 1;
#X connect 10 0 3 0;
#X connect 10 1 4 0;
#X connect 10 2 5 0;
#X connect 10 3 11 0;
#X connect 10 4 12 0;
#X connect 10 5 13 0;
#X connect 10 6 14 0;
#X connect 15 0 17 0;
#X connect 15 1 17 1;
#X connect 16 0 10 0;
#X connect 17 0 6 0;
#X restore 79 83 pd color;
#X coords 0 -1 1 1 64 256 2 200 200;
#X restore 176 77 pd ammod_path;
#N canvas -1929 81 1920 1028 ammod_map 0;
#X obj 34 39 r \$0-CtlKPathRate;
#X floatatom 34 61 5 0 0 0 - - -;
#X obj 34 116 ctlout 22 14;
#X floatatom 165 61 5 0 0 0 - - -;
#X obj 165 39 r \$0-CtlSPathMode;
#X obj 165 115 ctlout 23 14;
#X obj 165 84 * 64;
#X floatatom 302 62 5 0 0 0 - - -;
#X obj 302 40 r \$0-CtlWPathSync;
#X obj 302 85 * 128;
#X obj 302 115 ctlout 24 14;
#X floatatom 31 165 5 0 0 0 - - -;
#X floatatom 165 165 5 0 0 0 - - -;
#X floatatom 302 165 5 0 0 0 - - -;
#X obj 31 143 r \$0-CtlKOrbitTime;
#X obj 165 143 r \$0-CtlKOrbitXAmt;
#X obj 302 143 r \$0-CtlKOrbitYAmt;
#X obj 31 218 ctlout 25 14;
#X obj 165 218 ctlout 26 14;
#X obj 302 218 ctlout 27 14;
#X floatatom 445 165 5 0 0 0 - - -;
#X obj 445 188 * 128;
#X obj 445 218 ctlout 28 14;
#X obj 445 143 r \$0-CtlKOrbitSync;
#X obj 165 188 * 1;
#X obj 31 188 * 1;
#X obj 302 188 * 1;
#X floatatom 32 273 5 0 0 0 - - -;
#X floatatom 166 273 5 0 0 0 - - -;
#X floatatom 303 273 5 0 0 0 - - -;
#X floatatom 446 273 5 0 0 0 - - -;
#X obj 166 296 * 1;
#X obj 32 296 * 1;
#X obj 303 296 * 1;
#X obj 32 251 r \$0-CtlKVcaA;
#X obj 32 326 ctlout 29 14;
#X obj 166 326 ctlout 30 14;
#X obj 303 326 ctlout 31 14;
#X obj 446 326 ctlout 32 14;
#X obj 166 251 r \$0-CtlKVcaD;
#X obj 303 251 r \$0-CtlKVcaS;
#X obj 446 251 r \$0-CtlKVcaR;
#X obj 446 296 * 1;
#X floatatom 29 386 5 0 0 0 - - -;
#X floatatom 163 386 5 0 0 0 - - -;
#X floatatom 300 386 5 0 0 0 - - -;
#X floatatom 443 386 5 0 0 0 - - -;
#X obj 163 409 * 1;
#X obj 29 409 * 1;
#X obj 300 409 * 1;
#X obj 443 409 * 1;
#X obj 29 439 ctlout 33 14;
#X obj 163 439 ctlout 34 14;
#X obj 300 439 ctlout 35 14;
#X obj 443 439 ctlout 36 14;
#X obj 29 364 r \$0-CtlKVcfA;
#X obj 163 364 r \$0-CtlKVcfD;
#X obj 300 364 r \$0-CtlKVcfS;
#X obj 443 364 r \$0-CtlKVcfR;
#X floatatom 29 489 5 0 0 0 - - -;
#X floatatom 163 489 5 0 0 0 - - -;
#X floatatom 300 489 5 0 0 0 - - -;
#X floatatom 443 489 5 0 0 0 - - -;
#X obj 163 512 * 1;
#X obj 29 512 * 1;
#X obj 300 512 * 1;
#X obj 443 512 * 1;
#X obj 29 542 ctlout 37 14;
#X obj 163 542 ctlout 38 14;
#X obj 300 542 ctlout 39 14;
#X obj 443 542 ctlout 40 14;
#X obj 29 467 r \$0-CtlKModA;
#X obj 163 467 r \$0-CtlKModD;
#X obj 300 467 r \$0-CtlKModS;
#X obj 443 467 r \$0-CtlKModR;
#X floatatom 29 591 5 0 0 0 - - -;
#X floatatom 163 591 5 0 0 0 - - -;
#X floatatom 300 591 5 0 0 0 - - -;
#X floatatom 443 591 5 0 0 0 - - -;
#X obj 300 614 * 1;
#X obj 28 644 ctlout 41 14;
#X obj 163 644 ctlout 42 14;
#X obj 300 644 ctlout 43 14;
#X obj 443 644 ctlout 44 14;
#X obj 29 569 r \$0-CtlTLfoSync;
#X obj 163 569 r \$0-CtlTLfoKbd;
#X obj 300 569 r \$0-CtlKLfoRate;
#X obj 443 569 r \$0-CtlSLfoShape;
#X obj 443 614 * 32;
#X obj 163 614 * 127;
#X obj 29 614 * 127;
#X floatatom 28 692 5 0 0 0 - - -;
#X floatatom 162 692 5 0 0 0 - - -;
#X floatatom 299 692 5 0 0 0 - - -;
#X floatatom 442 692 5 0 0 0 - - -;
#X obj 299 715 * 1;
#X obj 27 745 ctlout 45 14;
#X obj 162 745 ctlout 46 14;
#X obj 299 745 ctlout 47 14;
#X obj 442 745 ctlout 48 14;
#X obj 28 670 r \$0-CtlSVcfType;
#X obj 162 670 r \$0-CtlKVcfDrive;
#X obj 299 670 r \$0-CtlKVcfEnv;
#X obj 442 670 r \$0-CtlKVcfFreq;
#X floatatom 569 692 5 0 0 0 - - -;
#X obj 569 745 ctlout 49 14;
#X obj 569 670 r \$0-CtlKVcfRes;
#X obj 569 715 * 1;
#X obj 442 715 * 1;
#X obj 162 715 * 1;
#X obj 28 715 * 64;
#X floatatom 26 799 5 0 0 0 - - -;
#X floatatom 179 799 5 0 0 0 - - -;
#X floatatom 336 799 5 0 0 0 - - -;
#X floatatom 479 799 5 0 0 0 - - -;
#X obj 336 822 * 1;
#X obj 479 822 * 1;
#X obj 179 822 * 1;
#X obj 26 822 * 64;
#X obj 25 852 ctlout 50 14;
#X obj 179 852 ctlout 51 14;
#X obj 336 852 ctlout 52 14;
#X obj 479 852 ctlout 53 14;
#X obj 26 777 r \$0-CtlSThickUnison;
#X obj 179 777 r \$0-CtlKThickCrush;
#X obj 336 777 r \$0-CtlKThickDrive;
#X obj 479 777 r \$0-CtlKThickDetune;
#X floatatom 25 910 5 0 0 0 - - -;
#X obj 25 933 * 128;
#X obj 25 963 ctlout 54 14;
#X obj 24 888 r \$0-CtlWKbdHold;
#X floatatom 147 910 5 0 0 0 - - -;
#X obj 147 933 * 1;
#X obj 146 888 r \$0-CtlKKbdMod;
#X floatatom 261 910 5 0 0 0 - - -;
#X obj 261 933 * 1;
#X obj 260 888 r \$0-CtlKKbdPB;
#X obj 261 963 ctlout 56 14;
#X obj 147 963 ctlout 1 14;
#X text 786 783 THICK;
#X text 776 674 FILTER;
#X text 793 572 LFO;
#X text 764 458 MOD ENV;
#X text 746 368 FILTER ENV;
#X text 765 252 AMP ENV;
#X text 777 150 ORBIT;
#X text 782 50 PATH;
#X text 799 890 KBD;
#X floatatom 23 1019 5 0 0 0 - - -;
#X floatatom 157 1019 5 0 0 0 - - -;
#X floatatom 294 1019 5 0 0 0 - - -;
#X floatatom 437 1019 5 0 0 0 - - -;
#X obj 437 1042 * 128;
#X obj 157 1042 * 1;
#X obj 294 1042 * 1;
#X obj 23 1043 * 1;
#X obj 23 997 r \$0-CtlKDlyTime;
#X obj 157 997 r \$0-CtlKDlyFeed;
#X obj 294 997 r \$0-CtlKDlyMix;
#X obj 437 997 r \$0-CtlTDlySync;
#X obj 23 1072 ctlout 57 14;
#X obj 157 1072 ctlout 58 14;
#X obj 294 1072 ctlout 59 14;
#X obj 437 1072 ctlout 60 14;
#X connect 0 0 1 0;
#X connect 1 0 2 0;
#X connect 3 0 6 0;
#X connect 4 0 3 0;
#X connect 6 0 5 0;
#X connect 7 0 9 0;
#X connect 8 0 7 0;
#X connect 9 0 10 0;
#X connect 11 0 25 0;
#X connect 12 0 24 0;
#X connect 13 0 26 0;
#X connect 14 0 11 0;
#X connect 15 0 12 0;
#X connect 16 0 13 0;
#X connect 20 0 21 0;
#X connect 21 0 22 0;
#X connect 23 0 20 0;
#X connect 24 0 18 0;
#X connect 25 0 17 0;
#X connect 26 0 19 0;
#X connect 27 0 32 0;
#X connect 28 0 31 0;
#X connect 29 0 33 0;
#X connect 30 0 42 0;
#X connect 31 0 36 0;
#X connect 32 0 35 0;
#X connect 33 0 37 0;
#X connect 34 0 27 0;
#X connect 39 0 28 0;
#X connect 40 0 29 0;
#X connect 41 0 30 0;
#X connect 42 0 38 0;
#X connect 43 0 48 0;
#X connect 44 0 47 0;
#X connect 45 0 49 0;
#X connect 46 0 50 0;
#X connect 47 0 52 0;
#X connect 48 0 51 0;
#X connect 49 0 53 0;
#X connect 50 0 54 0;
#X connect 55 0 43 0;
#X connect 56 0 44 0;
#X connect 57 0 45 0;
#X connect 58 0 46 0;
#X connect 59 0 64 0;
#X connect 60 0 63 0;
#X connect 61 0 65 0;
#X connect 62 0 66 0;
#X connect 63 0 68 0;
#X connect 64 0 67 0;
#X connect 65 0 69 0;
#X connect 66 0 70 0;
#X connect 71 0 59 0;
#X connect 72 0 60 0;
#X connect 73 0 61 0;
#X connect 74 0 62 0;
#X connect 75 0 90 0;
#X connect 76 0 89 0;
#X connect 77 0 79 0;
#X connect 78 0 88 0;
#X connect 79 0 82 0;
#X connect 84 0 75 0;
#X connect 85 0 76 0;
#X connect 86 0 77 0;
#X connect 87 0 78 0;
#X connect 88 0 83 0;
#X connect 89 0 81 0;
#X connect 90 0 80 0;
#X connect 91 0 110 0;
#X connect 92 0 109 0;
#X connect 93 0 95 0;
#X connect 94 0 108 0;
#X connect 95 0 98 0;
#X connect 100 0 91 0;
#X connect 101 0 92 0;
#X connect 102 0 93 0;
#X connect 103 0 94 0;
#X connect 104 0 107 0;
#X connect 106 0 104 0;
#X connect 107 0 105 0;
#X connect 108 0 99 0;
#X connect 109 0 97 0;
#X connect 110 0 96 0;
#X connect 111 0 118 0;
#X connect 112 0 117 0;
#X connect 113 0 115 0;
#X connect 114 0 116 0;
#X connect 115 0 121 0;
#X connect 116 0 122 0;
#X connect 117 0 120 0;
#X connect 118 0 119 0;
#X connect 123 0 111 0;
#X connect 124 0 112 0;
#X connect 125 0 113 0;
#X connect 126 0 114 0;
#X connect 127 0 128 0;
#X connect 128 0 129 0;
#X connect 130 0 127 0;
#X connect 131 0 132 0;
#X connect 132 0 138 0;
#X connect 133 0 131 0;
#X connect 134 0 135 0;
#X connect 135 0 137 0;
#X connect 136 0 134 0;
#X connect 148 0 155 0;
#X connect 149 0 153 0;
#X connect 150 0 154 0;
#X connect 151 0 152 0;
#X connect 152 0 163 0;
#X connect 153 0 161 0;
#X connect 154 0 162 0;
#X connect 155 0 160 0;
#X connect 156 0 148 0;
#X connect 157 0 149 0;
#X connect 158 0 150 0;
#X connect 159 0 151 0;
#X restore 681 268 pd ammod_map;
#N canvas 48 79 890 671 ammod_orbit 0;
#X obj 200 211 cnv 15 64 244 empty empty empty 20 12 1 12 -66577 -228856
0;
#X obj 214 274 hsl 36 36 0 127 0 0 \$0-CtlKOrbitTime empty TIME 7 42
1 8 -191407 -66577 -228856 0 1;
#X obj 220 220 tgl 24 0 \$0-CtlWPathSync empty SYNC 0 32 1 8 -86277
-258113 -228856 0 1;
#X obj 200 200 cnv 11 64 12 empty empty ORBIT 18 8 1 8 -233017 -66577
0;
#X obj 214 339 hsl 36 36 0 127 0 0 \$0-CtlKOrbitXAmt empty XAMT 7 42
1 8 -191407 -66577 -228856 0 1;
#X obj 214 404 hsl 36 36 0 127 0 0 \$0-CtlKOrbitYAmt empty YAMT 7 42
1 8 -191407 -66577 -228856 0 1;
#X coords 0 -1 1 1 64 256 2 200 200;
#X restore 46 77 pd ammod_orbit;
#N canvas 757 18 956 750 ammod_vcaenv 0;
#X obj 177 203 vsl 15 32 0 127 0 0 \$0-CtlKVcaA empty A 4 -9 1 10 -59137
-92993 -25345 0 1;
#X obj 197 203 vsl 15 32 0 127 0 0 \$0-CtlKVcaD empty D 4 -9 1 10 -59137
-92993 -25345 0 1;
#X obj 217 203 vsl 15 32 0 127 0 0 \$0-CtlKVcaS empty S 4 -9 1 10 -59137
-92993 -25345 0 1;
#X obj 237 203 vsl 15 32 0 127 0 0 \$0-CtlKVcaR empty R 4 -9 1 10 -59137
-92993 -25345 0 1;
#X obj 177 139 unpack f f f f;
#X obj 172 98 r \$0-data_adsr_amp;
#X connect 4 0 0 0;
#X connect 4 1 1 0;
#X connect 4 2 2 0;
#X connect 4 3 3 0;
#X connect 5 0 4 0;
#X coords 0 375 1 374 96 72 0;
#X restore 681 291 pd ammod_vcaenv;
#N canvas 703 206 450 492 ammod_lfo 0;
#X obj 35 20 cnv 15 176 72 empty empty empty 0 7 0 14 -13381 -66577
0;
#X obj 48 41 hsl 36 36 0 127 0 0 \$0-CtlKLfoRate empty RATE 8 42 1
8 -59137 -92993 -228856 0 1;
#X obj 96 53 tgl 24 0 \$0-CtlTLfoSync \$0-CtlTLfoSync SYNC 0 30 1 8
-59137 -59137 -228856 0 1;
#X obj 177 53 tgl 24 0 \$0-CtlTLfoKbd \$0-CtlTLfoKbd KB 6 30 1 8 -59137
-59137 -228856 0 1;
#X obj 20 20 cnv 11 16 72 empty empty LFO 4 7 1 8 -13381 -92993 0;
#X obj 131 41 hsl 36 36 0 4 0 0 \$0-CtlSLfoShape \$0-CtlSLfoShapeIn
SHAPE 8 42 1 8 -59137 -92993 -228856 0 1;
#X coords 0 -1 1 1 192 72 2 20 20;
#X restore 241 261 pd ammod_lfo;
#N canvas -9 -9 1846 1028 ammod_filter 0;
#X obj 20 32 cnv 15 64 244 empty empty empty 20 12 0 14 -66577 -66577
0;
#X obj 35 46 hradio 12 1 0 3 \$0-CtlSVcfType empty TYPE 10 18 1 8 -191407
-99865 -228856 0;
#X obj 20 20 cnv 11 64 12 empty empty FILTER 18 7 1 8 -228856 -33289
0;
#X obj 36 158 hsl 36 36 0 127 0 0 \$0-CtlKVcfFreq empty FREQ 8 42 1
8 -191407 -99865 -228856 0 1;
#X obj 36 223 hsl 36 36 0 127 0 0 \$0-CtlKVcfRes empty RES. 8 42 1
8 -191407 -99865 -228856 0 1;
#X obj 31 88 vsl 15 36 0 127 0 0 \$0-CtlKVcfDrive empty DRIVE -4 44
1 8 -191407 -1 -191407 0 1;
#X obj 59 88 vsl 15 36 0 127 0 0 \$0-CtlKVcfEnv empty ENV. 0 44 1 8
-191407 -1 -191407 0 1;
#X obj 39 447 s multisend01;
#X obj 204 35 r multisend01;
#X floatatom 204 170 5 0 0 0 - - -;
#X floatatom 282 170 5 0 0 0 - - -;
#X floatatom 243 170 5 0 0 0 - - -;
#X symbolatom 393 169 10 0 0 0 - - -;
#X obj 353 93 f;
#X obj 384 93 f;
#X obj 415 93 f;
#X obj 447 93 s;
#X obj 204 89 unpack f f f s;
#X obj 39 336 t f b b b;
#X msg 249 378 \$1 \$2 \$3;
#X obj 249 346 textfile;
#X msg 249 316 bang;
#X obj 182 401 list store;
#X obj 182 425 print LIST;
#X obj 204 203 ctlout, f 12;
#X connect 8 0 17 0;
#X connect 9 0 24 0;
#X connect 10 0 24 2;
#X connect 11 0 24 1;
#X connect 17 0 9 0;
#X connect 17 1 11 0;
#X connect 17 2 10 0;
#X connect 17 3 12 0;
#X connect 18 0 7 0;
#X connect 18 3 22 0;
#X connect 19 0 22 1;
#X connect 20 0 19 0;
#X connect 21 0 20 0;
#X connect 22 0 23 0;
#X coords 0 -1 1 1 64 256 2 20 20;
#X restore 111 77 pd ammod_filter;
#N canvas 1240 154 450 492 ammod_thick 0;
#X obj 20 32 cnv 15 64 244 empty empty empty 20 12 0 14 -66577 -66577
0;
#X obj 35 238 hradio 12 1 0 3 \$0-CtlSThickUnison empty UNISON 4 18
1 8 -191407 -99865 -228856 2;
#X obj 20 20 cnv 11 64 12 empty empty THICK 18 7 1 8 -228856 -33289
0;
#X obj 34 43 hsl 36 36 0 127 0 0 \$0-CtlKThickCrush empty CRUSH 8 42
1 8 -191407 -99865 -228856 0 1;
#X obj 34 109 hsl 36 36 0 127 0 0 \$0-CtlKThickDrive empty DRIVE 8
42 1 8 -191407 -99865 -228856 0 1;
#X obj 35 174 hsl 36 36 0 127 0 0 \$0-CtlKThickDetune empty DETUNE
2 42 1 8 -191407 -99865 -228856 0 1;
#X coords 0 -1 1 1 64 256 2 20 20;
#X restore 534 77 pd ammod_thick;
#N canvas -1929 104 1920 1028 notesq 0;
#X obj 45 214 random 12;
#X msg 59 101 stop;
#X obj 46 177 metro 250;
#X obj 49 56 r \$0-seqStart;
#X obj 155 56 r \$0-seqStop;
#X obj 146 104 bng 15 250 50 0 \$0-seqStart \$0-seqStart > 5 7 0 10
-262144 -13381 -13381;
#X obj 165 104 bng 15 250 50 0 \$0-seqStop \$0-seqStop [] 2 7 0 10
-262144 -99865 -99865;
#N canvas -9 -9 1845 1028 BPMCalc 0;
#X text 60 45 granularity;
#X obj 227 8 inlet;
#X obj 227 215 outlet;
#X obj 227 97 /;
#X obj 227 34 t b f;
#X obj 227 66 int 60;
#X obj 227 178 / 16;
#X text 287 138 <- why the fuck 2 and not 4 \; figure out;
#X obj 227 140 * 4000;
#X connect 1 0 4 0;
#X connect 3 0 8 0;
#X connect 4 0 5 0;
#X connect 4 1 3 1;
#X connect 5 0 3 0;
#X connect 6 0 2 0;
#X connect 8 0 6 0;
#X restore 106 136 pd BPMCalc;
#X obj 141 367 notein;
#X obj 141 471 noteout 14;
#X obj 107 104 nbx 3 15 40 160 0 1 \$0-dispBPM \$0-dispBPM empty 0
-9 0 10 -262144 -1 -1 120 256;
#X obj 45 367 makenote 112;
#X obj 651 145 array set \$0-lascala;
#X obj 310 240 array define -yrange 0 11 -k \$0-lascala 14;
#A 0 0 0 3 3 3 7 7 7 10 10 10 10 0 0;
#X obj 45 254 array get \$0-lascala 0 1;
#X obj 258 224 bng 15 250 50 0 empty empty empty 17 7 0 10 -262144
-1 -1;
#X obj 45 318 + 36;
#X msg 651 90 0 0 3 3 3 7 7 7 10 0 0 10;
#X floatatom 149 326 5 0 0 0 - - -;
#X connect 0 0 14 0;
#X connect 1 0 2 0;
#X connect 2 0 15 0;
#X connect 2 0 0 0;
#X connect 3 0 2 0;
#X connect 4 0 1 0;
#X connect 7 0 2 1;
#X connect 8 0 9 0;
#X connect 8 1 9 1;
#X connect 10 0 7 0;
#X connect 11 0 9 0;
#X connect 11 1 9 1;
#X connect 14 0 16 0;
#X connect 16 0 11 0;
#X connect 17 0 12 0;
#X connect 18 0 11 2;
#X coords 0 -1 1 1 85 24 2 100 100;
#X restore 445 261 pd notesq;
#N canvas 88 144 671 583 Kbd 0;
#X obj 151 35 ctlin 1;
#X obj 100 100 cnv 15 100 64 empty empty empty 20 12 0 14 -128992 -66577
0;
#X obj 179 107 tgl 16 0 \$0-CtlWKbdHold \$0-CtlWKbdHoldIn HOLD 0 8
0 7 -49153 -49153 -174763 0 1;
#X obj 104 109 vsl 16 48 0 127 0 0 \$0-CtlKKbdMod empty empty 0 -9
0 10 -33289 -4034 -1 0 1;
#X floatatom 84 256 5 0 0 0 - - -;
#N canvas 599 73 1845 1028 color 0;
#X obj 71 49 loadbang;
#X symbolatom 71 221 10 0 0 0 - - -;
#X symbolatom 146 221 10 0 0 0 - - -;
#X symbolatom 222 221 10 0 0 0 - - -;
#X msg 71 326 color \$1 \$2 \$3;
#X obj 185 130 select 0 1;
#X obj 222 246 t s s;
#X obj 71 245 t s s;
#X obj 71 170 unpack symbol symbol symbol symbol symbol symbol symbol
;
#X symbolatom 301 222 10 0 0 0 - - -;
#X symbolatom 380 222 10 0 0 0 - - -;
#X symbolatom 458 222 10 0 0 0 - - -;
#X symbolatom 535 223 10 0 0 0 - - -;
#X obj 146 247 t s s;
#X msg 71 75 list #330000 #AA0000 #AAAAAA;
#X obj 71 298 pack symbol symbol symbol symbol symbol symbol symbol
;
#X obj 504 364 outlet;
#X obj 185 103 r \$0-CtlWKbdHold;
#X obj 71 353 s \$0-CtlWKbdHoldIn;
#X obj 504 338 int \$1;
#X connect 0 0 14 0;
#X connect 1 0 7 0;
#X connect 2 0 13 0;
#X connect 3 0 6 0;
#X connect 4 0 18 0;
#X connect 5 0 1 0;
#X connect 5 0 19 0;
#X connect 5 1 2 0;
#X connect 6 1 15 2;
#X connect 7 0 15 0;
#X connect 7 1 15 1;
#X connect 8 0 1 0;
#X connect 8 1 2 0;
#X connect 8 2 3 0;
#X connect 8 3 9 0;
#X connect 8 4 10 0;
#X connect 8 5 11 0;
#X connect 8 6 12 0;
#X connect 13 0 15 0;
#X connect 13 1 15 1;
#X connect 14 0 8 0;
#X connect 15 0 4 0;
#X connect 17 0 5 0;
#X connect 19 0 16 0;
#X restore 84 230 pd color 7;
#X connect 0 0 3 0;
#X connect 5 0 4 0;
#X coords 0 0 100 64 100 64 2 100 100;
#X restore 433 77 pd Kbd;
#N canvas -9 -9 1845 1028 presetsel 0;
#X obj 56 322 pgmout;
#X obj 56 223 int 0;
#X obj 160 222 +;
#X msg 165 138 1;
#X msg 105 138 -1;
#X obj 72 267 pgmin;
#X obj 100 100 cnv 8 85 24 empty empty PRESET 26 12 1 8 -13381 -92993
0;
#X obj 105 105 bng 15 250 50 0 empty empty < 4 7 0 10 -59137 -92993
-92993;
#X obj 165 105 bng 15 250 50 0 empty empty > 5 7 0 10 -59137 -92993
-92993;
#X obj 137 174 t b b f;
#X obj 104 223 max 1;
#X connect 1 0 0 0;
#X connect 1 0 10 0;
#X connect 2 0 1 1;
#X connect 3 0 9 0;
#X connect 4 0 9 0;
#X connect 5 0 0 0;
#X connect 7 0 4 0;
#X connect 8 0 3 0;
#X connect 9 0 1 0;
#X connect 9 1 2 0;
#X connect 9 2 2 1;
#X connect 10 0 2 0;
#X coords 0 -1 1 1 85 24 2 100 100;
#X restore 241 236 pd presetsel;
#N canvas 1299 223 450 639 ammod_dly 0;
#X obj 20 33 cnv 15 64 244 empty empty empty 20 12 0 14 -66577 -66577
0;
#X obj 34 90 hsl 36 36 0 127 0 0 \$0-CtlKDlyTime empty RATE 8 42 1
8 -191407 -99865 -228856 0 1;
#X obj 40 40 tgl 24 0 \$0-CtlTDlySync \$0-CtlTDlySyncIn SYNC 1 30 1
8 -86277 -258113 -228856 0 1;
#X obj 20 20 cnv 11 64 12 empty empty DELAY 18 7 1 8 -228856 -66577
0;
#X obj 34 157 hsl 36 36 0 127 0 0 \$0-CtlKDlyFeed empty FBACK 4 42
1 8 -191407 -99865 -228856 0 1;
#X obj 34 224 hsl 36 36 0 127 0 0 \$0-CtlKDlyMix empty MIX 12 42 1
8 -191407 -99865 -228856 0 1;
#X coords 0 -1 1 1 64 256 2 20 20;
#X restore 599 77 pd ammod_dly;
#X obj 296 12 declare -path cpx;
#X obj 55 357 loadbang;
#N canvas -9 -9 1845 1028 canvas_title 0;
#X obj 161 114 cnv 15 640 24 empty empty empty 20 12 0 14 -233017 -66577
0;
#X restore 44 38 pd canvas_title;
#N canvas 509 119 956 509 ammod_vcfenv 0;
#X obj 184 180 vsl 15 32 0 127 0 0 \$0-CtlKVcfA empty A 4 -9 1 10 -59137
-92993 -25345 0 1;
#X obj 204 180 vsl 15 32 0 127 0 0 \$0-CtlKVcfD empty D 4 -9 1 10 -59137
-92993 -25345 0 1;
#X obj 224 180 vsl 15 32 0 127 0 0 \$0-CtlKVcfS empty S 4 -9 1 10 -59137
-92993 -25345 0 1;
#X obj 244 180 vsl 15 32 0 127 0 0 \$0-CtlKVcfR empty R 4 -9 1 10 -59137
-92993 -25345 0 1;
#X obj 177 139 unpack f f f f;
#X obj 177 98 r \$0-data_adsr_flt;
#X connect 4 0 0 0;
#X connect 4 1 1 0;
#X connect 4 2 2 0;
#X connect 4 3 3 0;
#X connect 5 0 4 0;
#X coords 0 254.5 1 253.5 96 72 0;
#X restore 681 314 pd ammod_vcfenv;
#N canvas -1929 81 1920 1028 template_adsr_mode 0;
#X obj 586 205 r struct_adsr_mode_init;
#N canvas -1929 81 1920 1028 adsr_mode_init 0;
#X obj 273 56 inlet;
#X obj 275 90 t f b;
#X obj 275 130 until;
#X obj 274 161 t b b b b;
#X obj 400 210 cpx_structptr0 pd-data_adsr_mode;
#X obj 272 267 pack f 0, f 9;
#X obj 272 207 cpx_ci 64 256;
#X obj 180 335 append template_adsr_mode x y;
#X text 393 336 CANNOT SET SYMBOLS AT APPEND/INIT;
#X connect 0 0 1 0;
#X connect 1 0 2 0;
#X connect 1 1 4 0;
#X connect 1 1 6 1;
#X connect 2 0 3 0;
#X connect 3 0 6 0;
#X connect 4 0 7 2;
#X connect 5 0 7 0;
#X connect 6 0 5 0;
#X restore 586 229 pd adsr_mode_init;
#X obj 70 115 struct template_adsr_mode float x float y symbol m,
f 72;
#X obj 70 142 route click change, f 72;
#X obj 111 220 select 0 64 128 192, f 48;
#X obj 298 425 filledpolygon 120 120 0 0 1 63 1 63 15 0 15 0 1;
#X obj 299 395 filledpolygon 451 120 0 8 1 56 1 56 15 8 15 8 1;
#X obj 16 365 set -symbol template_adsr_mode m;
#X obj 299 368 drawsymbol m 20 1 120;
#N canvas -1929 81 1920 1028 set_adsr_mode 0;
#X obj 37 37 inlet;
#X obj 107 111 select VCA VCF MOD ALL, f 61;
#X obj 42 171 t b b b, f 35;
#X obj 43 291 list store;
#X obj 36 63 t b s b;
#X obj 533 139 bng 15 250 50 0 empty empty empty 17 7 0 10 -262144
-1 -1;
#X msg 43 234 get 0 3;
#X text 101 234 LISTS 0-BASED! (in Hitlers voice \, accent \, language
and dialect), f 70;
#X obj 110 261 pack f f f, f 31;
#X obj 110 140 cpx_ci 1 2;
#X obj 218 141 cpx_ci 1 2;
#X obj 327 144 cpx_ci 1 2;
#X msg 132 214 bang;
#X obj 43 316 set template_adsr_multi gvisa gvisf gvism;
#X obj 329 288 cpx_structptri pd-data_adsr_multi 1;
#X connect 0 0 4 0;
#X connect 1 0 9 0;
#X connect 1 1 10 0;
#X connect 1 2 11 0;
#X connect 1 4 5 0;
#X connect 2 0 6 0;
#X connect 2 2 14 0;
#X connect 3 0 13 0;
#X connect 4 0 2 0;
#X connect 4 1 1 0;
#X connect 6 0 3 0;
#X connect 8 0 3 1;
#X connect 9 0 8 0;
#X connect 10 0 8 1;
#X connect 10 0 12 0;
#X connect 11 0 8 2;
#X connect 11 0 12 0;
#X connect 12 0 8 0;
#X connect 14 0 13 3;
#X restore 282 343 pd set_adsr_mode;
#X msg 111 256 symbol ALL;
#X msg 193 256 symbol VCA;
#X msg 277 258 symbol VCF;
#X msg 361 258 symbol MOD;
#X obj 70 189 unpack p f f;
#X obj 26 298 pointer;
#X obj 111 298 symbol;
#X obj 34 166 t b b l;
#X connect 0 0 1 0;
#X connect 2 0 3 0;
#X connect 3 0 17 0;
#X connect 4 0 10 0;
#X connect 4 1 11 0;
#X connect 4 2 12 0;
#X connect 4 3 13 0;
#X connect 10 0 16 1;
#X connect 11 0 16 1;
#X connect 12 0 16 1;
#X connect 13 0 16 1;
#X connect 14 0 15 1;
#X connect 14 1 4 0;
#X connect 15 0 7 1;
#X connect 16 0 9 0;
#X connect 16 0 7 0;
#X connect 17 0 16 0;
#X connect 17 1 15 0;
#X connect 17 2 14 0;
#X restore 681 414 pd template_adsr_mode;
#N canvas 0 50 450 300 data_adsr_mode 0;
#X scalar template_adsr_mode 0 0 symbol \;;
#X scalar template_adsr_mode 64 0 symbol \;;
#X scalar template_adsr_mode 128 0 symbol \;;
#X scalar template_adsr_mode 192 0 symbol \;;
#X coords 0 0 256 16 256 16 2 100 100;
#X restore 241 218 pd data_adsr_mode;
#N canvas 453 243 956 680 ammod_vcmenv 0;
#X obj 212 218 vsl 15 32 0 127 0 0 \$0-CtlKModA empty A 4 -9 1 10 -59137
-92993 -25345 0 1;
#X obj 232 218 vsl 15 32 0 127 0 0 \$0-CtlKModD empty D 4 -9 1 10 -59137
-92993 -25345 0 1;
#X obj 252 218 vsl 15 32 0 127 0 0 \$0-CtlKModS empty S 4 -9 1 10 -59137
-92993 -25345 0 1;
#X obj 272 218 vsl 15 32 0 127 0 0 \$0-CtlKModR empty R 4 -9 1 10 -59137
-92993 -25345 0 1;
#X coords 0 340 1 339 96 72 0;
#X restore 681 337 pd ammod_vcmenv;
#N canvas -1929 81 1920 1028 template_adsr_multi 0;
#X obj 460 175 r struct_adsr_multi_init;
#X text 761 367 shoudl be equiv to append;
#X obj 501 279 append template_adsr_multi x y;
#X obj 460 198 t b b b b;
#X obj 500 255 pack 0 0;
#X obj 708 249 cpx_structptr0 pd-data_adsr_multi;
#X obj 525 367 setsize template_adsr_multi adsra;
#X msg 525 333 6;
#X obj 184 395 unpack f f f;
#X obj 501 306 t b b p;
#X obj 370 447 element template_adsr_multi adsra;
#X text 650 162 APPEND MASTER STRUCT \; SET POINTER FOR SETSIZE AND
ELEMENT \; SETSIZE FOR SUBSTRUCT \; SET SUBSTRUCT ELEMENT VALUES (multilist)
;
#X obj 343 474 element template_adsr_multi adsrf;
#X obj 326 502 element template_adsr_multi adsrm;
#X obj 492 389 setsize template_adsr_multi adsrf;
#X obj 470 412 setsize template_adsr_multi adsrm;
#X text 593 449 template is just template \; pointers decide which
data gets written \; so we could have several array of the same \;
template;
#X obj 25 75 filledpolygon 120 451 1 0 0 128 0 128 64 0 64 0 0;
#X msg 27 342 0 62 0 \, 16 0 1 \, 32 32 2 \, 88 32 3 \, 88 62 4 \,
120 62 5;
#X obj 27 14 struct template_adsr_multi float x float y array adsra
template_adsrs array adsrf template_adsrs array adsrm template_adsrs
float gvisa float gvisf float gvism;
#X obj 184 446 set template_adsrs x yamp;
#X obj 160 472 set template_adsrs x yamp;
#X obj 139 499 set template_adsrs x yamp;
#X obj 25 96 plot -v gvisa -x x(0:100)(0:128) -y yamp(0:100)(0:62)
adsra 500 1 1 1 2, f 75;
#X obj 25 117 plot -v gvisf -x x(0:100)(0:128) -y yamp(0:100)(0:62)
adsrf 50 1 1 1 2, f 75;
#X obj 25 138 plot -v gvism -x x(0:100)(0:128) -y yamp(0:100)(0:62)
adsrm 5 1 1 1 2, f 75;
#X obj 34 246 plot -y noy adsrm 5 1 1 1 2;
#X obj 33 268 plot -x nox -y yamp adsrm 5 1 1 1 20;
#X connect 0 0 3 0;
#X connect 2 0 9 0;
#X connect 3 2 4 0;
#X connect 3 3 5 0;
#X connect 4 0 2 0;
#X connect 5 0 2 2;
#X connect 7 0 6 0;
#X connect 7 0 14 0;
#X connect 7 0 15 0;
#X connect 8 0 20 0;
#X connect 8 0 21 0;
#X connect 8 0 22 0;
#X connect 8 1 20 1;
#X connect 8 1 21 1;
#X connect 8 1 22 1;
#X connect 8 2 10 0;
#X connect 8 2 12 0;
#X connect 8 2 13 0;
#X connect 9 0 18 0;
#X connect 9 1 7 0;
#X connect 9 2 6 1;
#X connect 9 2 10 1;
#X connect 9 2 12 1;
#X connect 9 2 13 1;
#X connect 9 2 14 1;
#X connect 9 2 15 1;
#X connect 10 0 20 2;
#X connect 12 0 21 2;
#X connect 13 0 22 2;
#X connect 18 0 8 0;
#X restore 681 364 pd template_adsr_multi;
#N canvas 0 50 1308 883 data_adsr_multi 0;
#X scalar template_adsr_multi 0 0 1 1 1 \; 0 0 0 0 0 0 \; 16 0 0 0
0 0 \; 32 0 0 0 0 0 \; 88 0 0 0 0 0 \; 88 0 0 0 0 0 \; 120 0 0 0 0
0 \; \; 0 0 0 0 0 0 \; 16 0 0 0 0 0 \; 32 0 0 0 0 0 \; 88 0 0 0 0 0
\; 88 0 0 0 0 0 \; 120 0 0 0 0 0 \; \; 0 0 0 0 0 0 \; 16 0 0 0 0 0
\; 32 0 0 0 0 0 \; 88 0 0 0 0 0 \; 88 0 0 0 0 0 \; 120 0 0 0 0 0 \;
\;;
#X coords 0 0 128 64 128 64 2 100 100;
#X restore 246 77 pd data_adsr_multi;
#N canvas -9 -9 1845 1028 data_adsrs 0;
#X coords 0 514 1 513 256 128 0;
#X restore 682 480 pd data_adsrs;
#N canvas -1929 81 1920 1028 template_adsr 0;
#X obj 404 172 s \$0-data_adsr_amp;
#N canvas 722 444 849 504 clipnscale_adsr 0;
#X obj 22 29 inlet;
#X obj 89 29 inlet;
#X obj 143 29 inlet;
#X obj 203 28 inlet;
#X obj 6 84 clip 0 16;
#X obj 78 85 clip 16 32;
#X obj 163 83 clip 0 64;
#X obj 241 83 clip 88 128;
#X obj 11 121 / 16;
#X obj 11 151 * 128;
#X obj 78 127 / 16;
#X obj 78 149 * 128;
#X obj 163 125 / 64;
#X obj 241 126 / 40;
#X obj 241 148 * 128;
#X obj 24 190 pack f f f f;
#X obj 30 223 outlet;
#X obj 163 148 * 128;
#X obj 78 106 - 16;
#X obj 241 104 - 88;
#X connect 0 0 4 0;
#X connect 1 0 5 0;
#X connect 2 0 6 0;
#X connect 3 0 7 0;
#X connect 4 0 8 0;
#X connect 5 0 18 0;
#X connect 6 0 12 0;
#X connect 7 0 19 0;
#X connect 8 0 9 0;
#X connect 9 0 15 0;
#X connect 10 0 11 0;
#X connect 11 0 15 1;
#X connect 12 0 17 0;
#X connect 13 0 14 0;
#X connect 14 0 15 3;
#X connect 15 0 16 0;
#X connect 17 0 15 2;
#X connect 18 0 10 0;
#X connect 19 0 13 0;
#X restore 404 126 pd clipnscale_adsr;
#X f 32;
#X obj 404 71 route change click;
#X obj 689 125 print ONCLICK;
#X obj 404 98 get template_adsrs dx1 dx2 sy rx3;
#X text 326 272 TODO R \, E \, W \, R \, I \, T \, E;
#X obj 445 382 filledpolygon 240 240 0 -1 -1 1 -1 1 1 -1 1 -1 -1;
#X obj 404 11 struct template_adsrs float x float y float a float d
float s float r;
#X connect 1 0 0 0;
#X connect 2 0 4 0;
#X connect 2 1 3 0;
#X connect 4 0 1 0;
#X connect 4 1 1 1;
#X connect 4 2 1 2;
#X connect 4 3 1 3;
#X connect 7 0 2 0;
#X coords 0 514 1 513 85 60 0;
#X restore 681 385 pd template_adsr;
#N canvas -9 -9 1845 1028 T_adsr_multi 0;
#X obj 339 188 r t_adsr_multi_init;
#N canvas -9 -9 1845 1028 \$0-on_init 0;
#X obj 37 37 inlet;
#X obj 37 61 t f b;
#X obj 37 85 until;
#X obj 79 193 append T_adsr_multi x1 y1;
#X obj 250 158 cpx_structptr0 pd-D_adsr_multi;
#X msg 38 138 10 10;
#X obj 72 220 trigger bang bang pointer;
#X obj 361 362 element T_adsr_multi vcenv;
#X obj 157 284 setsize T_adsr_multi vcenv;
#X msg 157 252 3;
#X msg 75 312 64 0 20 64 64 64 64 72 1 \, 64 0 20 64 64 64 64 72 2
\, 64 0 20 64 64 64 64 72 3, f 89;
#X obj 80 342 unpack f f f f f f f f f, f 31;
#X obj 74 407 set T_adsr y ax dx dy sy rfx rix rx, f 42;
#X connect 0 0 1 0;
#X connect 1 0 2 0;
#X connect 1 1 4 0;
#X connect 2 0 5 0;
#X connect 3 0 6 0;
#X connect 4 0 3 2;
#X connect 5 0 3 0;
#X connect 6 0 10 0;
#X connect 6 1 9 0;
#X connect 6 2 7 1;
#X connect 6 2 8 1;
#X connect 7 0 12 8;
#X connect 9 0 8 0;
#X connect 10 0 11 0;
#X connect 11 0 12 0;
#X connect 11 1 12 1;
#X connect 11 2 12 2;
#X connect 11 3 12 3;
#X connect 11 4 12 4;
#X connect 11 5 12 5;
#X connect 11 6 12 6;
#X connect 11 7 12 7;
#X connect 11 8 7 0;
#X restore 339 212 pd \$0-on_init;
#X obj 187 54 struct T_adsr_multi float x1 float y1 array vcae T_adsr
array vcfe T_adsr array vcme T_adsr;
#X obj 227 320 plot vcae 600 1 0 0 32;
#X connect 0 0 1 0;
#X restore 682 458 pd T_adsr_multi;
#N canvas 0 50 450 300 D_adsr_multi 0;
#X scalar T_adsr_multi 10 10 \; 0 0 0 0 0 0 0 0 \; \; 0 0 0 0 0 0 0
0 \; \; 0 0 0 0 0 0 0 0 \; \;;
#X coords 0 0 128 64 128 64 2 100 100;
#X restore 515 382 pd D_adsr_multi;
#N canvas 0 50 1060 622 T_adsr 0;
#X obj 91 95 filledpolygon 50 50 1 0 0 2 0 2 2 0 2 0 0;
#X obj 49 30 struct T_adsr float y float ax float dx float dy float
sy float rfx float rix float rx;
#X restore 682 436 pd T_adsr;
#N canvas -1929 81 1920 1028 visual_prototype 0;
#N canvas 0 50 939 504 SoftwareInstrumentExtenal 0;
#X obj 107 34 inlet;
#N canvas 0 50 450 300 Params 0;
#N canvas 0 50 450 300 MIDIMapIn 0;
#X obj 101 57 inlet;
#X coords 0 -1 1 1 85 24 1 100 100;
#X restore 105 133 pd MIDIMapIn;
#X coords 0 -1 1 1 118 59 1 100 100;
#X restore 103 118 pd Params;
#X coords 0 -1 1 1 103 83 1 100 100;
#X restore 120 329 pd SoftwareInstrumentExtenal;
#N canvas 0 50 708 402 SoftwareController 0;
#X obj 107 34 inlet;
#X obj 110 60 outlet;
#N canvas 0 50 950 621 Params 0;
#N canvas 0 50 450 300 MIDIMapIn 0;
#X obj 101 57 inlet;
#X coords 0 -1 1 1 85 24 1 100 100;
#X restore 103 122 pd MIDIMapIn;
#N canvas 0 50 450 300 MIDIMapOut 0;
#X obj 101 57 outlet;
#X coords 0 -1 1 1 85 24 1 100 100;
#X restore 103 147 pd MIDIMapOut;
#X coords 0 -1 1 1 124 72 1 100 100;
#X restore 109 116 pd Params;
#X coords 0 -1 1 1 185 94 1 100 100;
#X restore 120 196 pd SoftwareController;
#N canvas 0 50 1250 635 SoftwareHost 0;
#X obj 107 34 inlet;
#X obj 110 60 outlet;
#N canvas 0 50 450 300 ControlSurfaceAbstraction 0;
#N canvas 0 50 450 300 Params 0;
#N canvas 0 50 450 300 MIDIMapIn 0;
#X obj 101 57 inlet;
#X coords 0 -1 1 1 85 24 1 100 100;
#X restore 105 133 pd MIDIMapIn;
#X coords 0 -1 1 1 116 62 1 100 100;
#X restore 104 123 pd Params;
#X coords 0 -1 1 1 85 96 1 100 100;
#X restore 106 121 pd ControlSurfaceAbstraction;
#X text 313 133 x 6;
#X coords 0 -1 1 1 332 122 1 100 100;
#X restore 376 196 pd SoftwareHost;
#N canvas 0 50 759 575 SoftwareInstrumentHostAbstraction 0;
#X obj 107 34 inlet;
#N canvas 0 50 450 300 MacroMap 0;
#N canvas 735 79 450 300 Device 0;
#N canvas 0 50 450 300 Params 0;
#X coords 0 -1 1 1 60 32 1 100 100;
#X restore 102 120 pd Params;
#X coords 0 -1 1 1 85 60 1 100 100;
#X restore 103 117 pd Device;
#X coords 0 -1 1 1 96 85 1 100 100;
#X restore 102 120 pd MacroMap;
#X coords 0 -1 1 1 96 113 1 100 100;
#X restore 376 330 pd SoftwareInstrumentHostAbstraction;
#N canvas 0 50 1153 632 HardwareController 0;
#X obj 107 34 inlet;
#X obj 106 231 outlet;
#N canvas -9 -9 1846 1028 Presets 0;
#N canvas 0 50 450 300 Params 0;
#N canvas 0 50 450 300 MIDIMapOut 0;
#X obj 102 100 outlet;
#X coords 0 -1 1 1 85 24 1 100 100;
#X restore 105 122 pd MIDIMapOut;
#X coords 0 -1 1 1 127 62 1 100 100;
#X restore 111 122 pd Params;
#X coords 0 -1 1 1 146 90 1 100 100;
#X restore 107 128 pd Presets;
#X text 259 128 x 30;
#X coords 0 -1 1 1 200 132 1 100 100;
#X restore 84 37 pd HardwareController;
#X text 322 62 UML like diagram for MIDI mapping between components
;
#X connect 1 0 0 0;
#X connect 2 0 0 0;
#X connect 2 0 3 0;
#X connect 4 0 1 0;
#X connect 4 0 0 0;
#X connect 4 0 2 0;
#X restore 165 39 pd visual_prototype;
#N canvas -1929 81 1920 1028 T_StdMidiMap 1;
#X obj 373 16 r t_stdmidimap_init;
#N canvas -1929 81 1920 1028 \$0-t_stdmidimap_oninit 0;
#X obj 37 37 inlet;
#X obj 37 96 until;
#X obj 37 119 cpx_ci 1 128, f 15;
#X obj 209 164 cpx_structptr0 pd-D_StdMidiMap;
#N canvas -9 -9 1846 1028 populate_rsrvdlist 0;
#X obj 338 170 int 128;
#X obj 266 277 until;
#X obj 266 328 textfile;
#X obj 332 329 cpx_ci 1 128;
#X obj 266 299 t b b;
#X obj 338 193 setsize T_StdMidiMap rsrvdlist;
#X obj 452 396 element T_StdMidiMap rsrvdlist;
#X obj 266 432 set -symbol T_MidiStandardId id;
#X obj 302 464 set T_MidiStandardId v;
#X obj 332 353 t f f;
#X msg 412 83 rewind;
#X obj 267 357 symbol;
#X obj 266 36 inlet;
#X msg 484 83 read ../data/midiccstd.txt cr;
#X obj 266 60 t b b b b p, f 42;
#X obj 557 130 s \$0-setpointers;
#X obj 273 130 s \$0-clearcounters;
#X obj 545 169 r \$0-setpointers;
#X obj 659 371 r \$0-setpointers;
#X obj 412 307 r \$0-clearcounters;
#X obj 412 130 s \$0-fileiocontrol;
#X obj 129 277 r \$0-fileiocontrol;
#X connect 0 0 5 0;
#X connect 1 0 4 0;
#X connect 2 0 11 0;
#X connect 2 1 1 1;
#X connect 3 0 9 0;
#X connect 4 0 2 0;
#X connect 4 1 3 0;
#X connect 6 0 7 1;
#X connect 6 0 8 1;
#X connect 9 0 8 0;
#X connect 9 1 6 0;
#X connect 10 0 20 0;
#X connect 11 0 7 0;
#X connect 12 0 14 0;
#X connect 13 0 20 0;
#X connect 14 0 1 0;
#X connect 14 1 0 0;
#X connect 14 1 16 0;
#X connect 14 2 10 0;
#X connect 14 3 13 0;
#X connect 14 4 15 0;
#X connect 17 0 5 1;
#X connect 18 0 6 1;
#X connect 19 0 3 1;
#X connect 21 0 2 0;
#X restore 101 323 pd populate_rsrvdlist;
#X obj 34 323 textfile;
#X msg 85 233 rewind;
#X obj 33 379 symbol;
#X msg 134 233 read \$1 cr;
#X obj 33 400 set -symbol T_StdMidiMap id;
#X obj 37 58 t b b s, f 15;
#X obj 38 215 t b p;
#X obj 38 166 pack f f;
#X obj 38 189 append T_StdMidiMap sv y;
#X obj 91 144 * 12;
#X connect 0 0 10 0;
#X connect 1 0 2 0;
#X connect 2 0 12 0;
#X connect 2 0 14 0;
#X connect 3 0 13 2;
#X connect 5 0 7 0;
#X connect 5 1 1 1;
#X connect 6 0 5 0;
#X connect 7 0 9 0;
#X connect 8 0 5 0;
#X connect 10 0 1 0;
#X connect 10 1 2 1;
#X connect 10 1 3 0;
#X connect 10 1 6 0;
#X connect 10 2 8 0;
#X connect 11 0 5 0;
#X connect 11 1 4 0;
#X connect 11 1 9 1;
#X connect 12 0 13 0;
#X connect 13 0 11 0;
#X connect 14 0 12 1;
#X restore 373 40 pd \$0-t_stdmidimap_oninit;
#X obj 31 285 element T_StdMidiMap rsrvdlist;
#X obj 31 310 get T_MidiStandardId id;
#X obj 35 82 route click change;
#X obj 162 175 getsize T_StdMidiMap rsrvdlist;
#X obj 40 252 set T_StdMidiMap rvn;
#X obj 31 227 cpxg_intgran 24 128;
#X obj 84 131 s \$0-this;
#X obj 171 228 r \$0-this;
#X obj 202 262 r \$0-this;
#X obj 202 331 r \$0-this;
#X obj 162 153 r \$0-this;
#X obj 518 239 drawnumber rv 35 0 222;
#X obj 518 217 filledpolygon 999 222 1 10 1 180 1 180 12 10 12 10 1
;
#X obj 516 172 drawnumber rvn 11 0 222;
#X obj 574 263 drawsymbol id 184 0 222;
#X obj 518 353 drawnumber sv 360 0 222;
#X obj 519 332 filledpolygon 999 222 1 324 1 504 1 504 12 324 12 324
1;
#X obj 517 287 drawnumber svn 325 0 222;
#X obj 35 16 struct T_StdMidiMap float x float y symbol id symbol rstdid
float rv float rvn symbol sstdid float sv float svn array rsrvdlist
T_MidiStandardId, f 47;
#X obj 31 354 set -symbol T_StdMidiMap rstdid;
#X obj 518 309 drawsymbol sstdid 364 0 222;
#X obj 517 194 drawsymbol rstdid 40 0 222;
#X obj 31 200 get T_StdMidiMap rv sv, f 29;
#X obj 274 229 cpxg_intgran 24 128;
#X obj 274 284 element T_StdMidiMap rsrvdlist;
#X obj 274 314 get T_MidiStandardId id;
#X obj 421 230 r \$0-this;
#X obj 433 258 r \$0-this;
#X obj 428 330 r \$0-this;
#X obj 274 353 set -symbol T_StdMidiMap sstdid;
#X obj 283 258 set T_StdMidiMap svn;
#X obj 31 179 pointer;
#X obj 31 108 t b p, f 8;
#X obj 39 158 r \$0-this;
#X text 514 129 NOTE: Z-ORDER IS IMPLICIT (last object created);
#X connect 0 0 1 0;
#X connect 2 0 3 0;
#X connect 3 0 21 0;
#X connect 4 1 34 0;
#X connect 5 0 7 1;
#X connect 5 0 25 1;
#X connect 7 0 6 0;
#X connect 7 0 2 0;
#X connect 9 0 6 1;
#X connect 10 0 2 1;
#X connect 11 0 21 1;
#X connect 12 0 5 0;
#X connect 20 0 4 0;
#X connect 24 0 7 0;
#X connect 24 1 25 0;
#X connect 25 0 32 0;
#X connect 25 0 26 0;
#X connect 26 0 27 0;
#X connect 27 0 31 0;
#X connect 28 0 32 1;
#X connect 29 0 26 1;
#X connect 30 0 31 1;
#X connect 33 0 24 0;
#X connect 34 0 33 0;
#X connect 34 1 8 0;
#X connect 35 0 33 1;
#X restore 698 74 pd T_StdMidiMap;
#N canvas 0 50 1302 701 T_MidiStandardId 0;
#X obj 30 32 struct T_MidiStandardId symbol id float v;
#X obj 194 210 drawnumber v 10 10 222;
#X obj 192 175 drawsymbol id 10 20 222;
#X restore 699 119 pd T_MidiStandardId;
#N canvas -9 -9 1846 1028 D_MidiStandardId 0;
#X restore 699 142 pd D_MidiStandardId;
#N canvas -9 -9 1846 1028 D_StdMidiMap 0;
#X scalar T_StdMidiMap 0 36 KuracOdOvce ProgramChange 0 0 ProgramChange
19 0 \; ProgramChange 0 \; Modulation 1 \; PitchBend 2 \; symbol 3
\; symbol 0 \; symbol 0 \; symbol 0 \; symbol 0 \; symbol 0 \; symbol
0 \; symbol 0 \; symbol 0 \; symbol 0 \; symbol 0 \; symbol 0 \; symbol
0 \; symbol 0 \; symbol 0 \; symbol 0 \; symbol 0 \; symbol 0 \; symbol
0 \; symbol 0 \; symbol 0 \; symbol 0 \; symbol 0 \; symbol 0 \; symbol
0 \; symbol 0 \; symbol 0 \; symbol 0 \; symbol 0 \; symbol 0 \; symbol
0 \; symbol 0 \; symbol 0 \; symbol 0 \; symbol 0 \; symbol 0 \; symbol
0 \; symbol 0 \; symbol 0 \; symbol 0 \; symbol 0 \; symbol 0 \; symbol
0 \; symbol 0 \; symbol 0 \; symbol 0 \; symbol 0 \; symbol 0 \; symbol
0 \; symbol 0 \; symbol 0 \; symbol 0 \; symbol 0 \; symbol 0 \; symbol
0 \; symbol 0 \; symbol 0 \; symbol 0 \; symbol 0 \; symbol 0 \; symbol
0 \; symbol 0 \; symbol 0 \; symbol 0 \; symbol 0 \; symbol 0 \; symbol
0 \; symbol 0 \; symbol 0 \; symbol 0 \; symbol 0 \; symbol 0 \; symbol
0 \; symbol 0 \; symbol 0 \; symbol 0 \; symbol 0 \; symbol 0 \; symbol
0 \; symbol 0 \; symbol 0 \; symbol 0 \; symbol 0 \; symbol 0 \; symbol
0 \; symbol 0 \; symbol 0 \; symbol 0 \; symbol 0 \; symbol 0 \; symbol
0 \; symbol 0 \; symbol 0 \; symbol 0 \; symbol 0 \; symbol 0 \; symbol
0 \; symbol 0 \; symbol 0 \; symbol 0 \; symbol 0 \; symbol 0 \; symbol
0 \; symbol 0 \; symbol 0 \; symbol 0 \; symbol 0 \; symbol 0 \; symbol
0 \; symbol 0 \; symbol 0 \; symbol 0 \; symbol 0 \; symbol 0 \; symbol
0 \; symbol 0 \; symbol 0 \; symbol 0 \; symbol 0 \; symbol 0 \; symbol
0 \; symbol 0 \; symbol 0 \; symbol 0 \; symbol 0 \; \;;
#X scalar T_StdMidiMap 0 0 SvorcSam ProgramChange 21 0 Modulation 41
1 \; ProgramChange 0 \; Modulation 1 \; PitchBend 2 \; symbol 3 \;
symbol 0 \; symbol 0 \; symbol 0 \; symbol 0 \; symbol 0 \; symbol
0 \; symbol 0 \; symbol 0 \; symbol 0 \; symbol 0 \; symbol 0 \; symbol
0 \; symbol 0 \; symbol 0 \; symbol 0 \; symbol 0 \; symbol 0 \; symbol
0 \; symbol 0 \; symbol 0 \; symbol 0 \; symbol 0 \; symbol 0 \; symbol
0 \; symbol 0 \; symbol 0 \; symbol 0 \; symbol 0 \; symbol 0 \; symbol
0 \; symbol 0 \; symbol 0 \; symbol 0 \; symbol 0 \; symbol 0 \; symbol
0 \; symbol 0 \; symbol 0 \; symbol 0 \; symbol 0 \; symbol 0 \; symbol
0 \; symbol 0 \; symbol 0 \; symbol 0 \; symbol 0 \; symbol 0 \; symbol
0 \; symbol 0 \; symbol 0 \; symbol 0 \; symbol 0 \; symbol 0 \; symbol
0 \; symbol 0 \; symbol 0 \; symbol 0 \; symbol 0 \; symbol 0 \; symbol
0 \; symbol 0 \; symbol 0 \; symbol 0 \; symbol 0 \; symbol 0 \; symbol
0 \; symbol 0 \; symbol 0 \; symbol 0 \; symbol 0 \; symbol 0 \; symbol
0 \; symbol 0 \; symbol 0 \; symbol 0 \; symbol 0 \; symbol 0 \; symbol
0 \; symbol 0 \; symbol 0 \; symbol 0 \; symbol 0 \; symbol 0 \; symbol
0 \; symbol 0 \; symbol 0 \; symbol 0 \; symbol 0 \; symbol 0 \; symbol
0 \; symbol 0 \; symbol 0 \; symbol 0 \; symbol 0 \; symbol 0 \; symbol
0 \; symbol 0 \; symbol 0 \; symbol 0 \; symbol 0 \; symbol 0 \; symbol
0 \; symbol 0 \; symbol 0 \; symbol 0 \; symbol 0 \; symbol 0 \; symbol
0 \; symbol 0 \; symbol 0 \; symbol 0 \; symbol 0 \; symbol 0 \; symbol
0 \; symbol 0 \; symbol 0 \; symbol 0 \; symbol 0 \; symbol 0 \; symbol
0 \; symbol 0 \; symbol 0 \; symbol 0 \; symbol 0 \; \;;
#X scalar T_StdMidiMap 0 12 NemaPiva ProgramChange 0 0 Modulation 36
1 \; ProgramChange 0 \; Modulation 1 \; PitchBend 2 \; symbol 3 \;
symbol 0 \; symbol 0 \; symbol 0 \; symbol 0 \; symbol 0 \; symbol
0 \; symbol 0 \; symbol 0 \; symbol 0 \; symbol 0 \; symbol 0 \; symbol
0 \; symbol 0 \; symbol 0 \; symbol 0 \; symbol 0 \; symbol 0 \; symbol
0 \; symbol 0 \; symbol 0 \; symbol 0 \; symbol 0 \; symbol 0 \; symbol
0 \; symbol 0 \; symbol 0 \; symbol 0 \; symbol 0 \; symbol 0 \; symbol
0 \; symbol 0 \; symbol 0 \; symbol 0 \; symbol 0 \; symbol 0 \; symbol
0 \; symbol 0 \; symbol 0 \; symbol 0 \; symbol 0 \; symbol 0 \; symbol
0 \; symbol 0 \; symbol 0 \; symbol 0 \; symbol 0 \; symbol 0 \; symbol
0 \; symbol 0 \; symbol 0 \; symbol 0 \; symbol 0 \; symbol 0 \; symbol
0 \; symbol 0 \; symbol 0 \; symbol 0 \; symbol 0 \; symbol 0 \; symbol
0 \; symbol 0 \; symbol 0 \; symbol 0 \; symbol 0 \; symbol 0 \; symbol
0 \; symbol 0 \; symbol 0 \; symbol 0 \; symbol 0 \; symbol 0 \; symbol
0 \; symbol 0 \; symbol 0 \; symbol 0 \; symbol 0 \; symbol 0 \; symbol
0 \; symbol 0 \; symbol 0 \; symbol 0 \; symbol 0 \; symbol 0 \; symbol
0 \; symbol 0 \; symbol 0 \; symbol 0 \; symbol 0 \; symbol 0 \; symbol
0 \; symbol 0 \; symbol 0 \; symbol 0 \; symbol 0 \; symbol 0 \; symbol
0 \; symbol 0 \; symbol 0 \; symbol 0 \; symbol 0 \; symbol 0 \; symbol
0 \; symbol 0 \; symbol 0 \; symbol 0 \; symbol 0 \; symbol 0 \; symbol
0 \; symbol 0 \; symbol 0 \; symbol 0 \; symbol 0 \; symbol 0 \; symbol
0 \; symbol 0 \; symbol 0 \; symbol 0 \; symbol 0 \; symbol 0 \; symbol
0 \; symbol 0 \; symbol 0 \; symbol 0 \; symbol 0 \; \;;
#X scalar T_StdMidiMap 0 24 symbol PitchBend 52 2 PitchBend 56 2 \;
ProgramChange 0 \; Modulation 1 \; PitchBend 2 \; symbol 3 \; symbol
0 \; symbol 0 \; symbol 0 \; symbol 0 \; symbol 0 \; symbol 0 \; symbol
0 \; symbol 0 \; symbol 0 \; symbol 0 \; symbol 0 \; symbol 0 \; symbol
0 \; symbol 0 \; symbol 0 \; symbol 0 \; symbol 0 \; symbol 0 \; symbol
0 \; symbol 0 \; symbol 0 \; symbol 0 \; symbol 0 \; symbol 0 \; symbol
0 \; symbol 0 \; symbol 0 \; symbol 0 \; symbol 0 \; symbol 0 \; symbol
0 \; symbol 0 \; symbol 0 \; symbol 0 \; symbol 0 \; symbol 0 \; symbol
0 \; symbol 0 \; symbol 0 \; symbol 0 \; symbol 0 \; symbol 0 \; symbol
0 \; symbol 0 \; symbol 0 \; symbol 0 \; symbol 0 \; symbol 0 \; symbol
0 \; symbol 0 \; symbol 0 \; symbol 0 \; symbol 0 \; symbol 0 \; symbol
0 \; symbol 0 \; symbol 0 \; symbol 0 \; symbol 0 \; symbol 0 \; symbol
0 \; symbol 0 \; symbol 0 \; symbol 0 \; symbol 0 \; symbol 0 \; symbol
0 \; symbol 0 \; symbol 0 \; symbol 0 \; symbol 0 \; symbol 0 \; symbol
0 \; symbol 0 \; symbol 0 \; symbol 0 \; symbol 0 \; symbol 0 \; symbol
0 \; symbol 0 \; symbol 0 \; symbol 0 \; symbol 0 \; symbol 0 \; symbol
0 \; symbol 0 \; symbol 0 \; symbol 0 \; symbol 0 \; symbol 0 \; symbol
0 \; symbol 0 \; symbol 0 \; symbol 0 \; symbol 0 \; symbol 0 \; symbol
0 \; symbol 0 \; symbol 0 \; symbol 0 \; symbol 0 \; symbol 0 \; symbol
0 \; symbol 0 \; symbol 0 \; symbol 0 \; symbol 0 \; symbol 0 \; symbol
0 \; symbol 0 \; symbol 0 \; symbol 0 \; symbol 0 \; symbol 0 \; symbol
0 \; symbol 0 \; symbol 0 \; symbol 0 \; symbol 0 \; symbol 0 \; symbol
0 \; symbol 0 \; symbol 0 \; symbol 0 \; \;;
#X coords 0 0 1 1 384 720 0;
#X restore 247 159 pd D_StdMidiMap;
#X msg 55 395 \; pd-D_MidiStandardId clear \; pd-D_StdMidiMap clear
\; t_stdmidimap_init symbol ../data/animoogctl.txt \;;
