#N struct template_ccs2 float x float y float ccn float vmin float
vmax float chan;
#N struct template_circletest float x float y float x1 float y1 float
x2 float y2 float ccn float vmin float vmax float chan;
#N struct template_padno float x float y float bg float fg symbol modeparam_name
;
#N struct template_pads float type float ch float noteprogcc float
triggermsb float atlsb float padpos float x float y float gfxpadcol
float gfxissel float gfxp1 float gfxp2 float gfxp3 float gfxp4 float
gfxp5;
#N struct ucs_globals float gchan float bankncc float bankpcc float
surfacelockcc float slidermastercc float slidermasterch;
#N struct ucs_pads float x float y float pnn float pchan;
#N struct ucs_device float x float y float eccn float echan;
#N struct ucs_mixer float x float y float fvolccn float fvolchn float
psnd1ccn float psnd2ccn float barmccn;
#N struct ucs_banksel float x float y float bccn;
#N struct ucs_transport float x float y float bstopccn float bplayccn
float brecccn float bloopccn float brwdccn float bfwdccn;
#N struct ucs_symbols float x float y symbol sportn symbol mvolmap
symbol msendmap symbol mencmap;
#N canvas -9 -9 1845 1028 10;
#X declare -path cpx;
#N canvas -9 -9 1845 1028 sequence_list 1;
#N canvas -1929 81 1920 1028 template_pads 1;
#X obj 24 69 route click;
#N canvas -1929 81 1920 1028 struct_pads_init 0;
#X obj 351 67 until;
#X obj 258 13 inlet;
#X msg 42 87 0;
#X obj 432 153 r \$0-cireset;
#X obj 43 64 r \$0-cireset;
#X obj 445 67 s \$0-cireset;
#X obj 43 111 s \$0-pixo;
#X obj 107 110 s \$0-piyo;
#X obj 420 204 s \$0-piy;
#X obj 351 204 s \$0-pix;
#X msg 107 85 0;
#X text 578 206 padgroup++;
#X text 382 176 row++;
#X text 296 138 column++;
#X text 357 96 CALCULATE XY:;
#X obj 489 253 s \$0-piyo;
#X obj 563 253 s \$0-pixo;
#X obj 357 115 r \$0-cireset;
#X msg 168 86 0;
#X msg 232 85 0;
#X obj 168 111 s \$0-pix;
#X obj 232 110 s \$0-piy;
#X obj 539 67 s \$0-struct_pads;
#X obj 524 322 r \$0-struct_pads;
#X obj 497 207 r \$0-cireset;
#X msg 644 137 logdbg;
#X obj 633 170 outlet;
#X text 679 169 debug msgs;
#X obj 420 176 cpx_ci 12 48;
#X obj 489 230 cpx_dtob 48;
#X obj 351 137 cpx_ci 12 48;
#X obj 258 40 trigger bang float bang bang bang, f 63;
#X obj 524 347 cpx_structptr0 pd-data_pads;
#X obj 41 241 r \$0-pix;
#X obj 112 241 r \$0-piy;
#X obj 127 260 r \$0-piyo;
#X obj 56 260 r \$0-pixo;
#X obj 41 282 + 0;
#X obj 112 282 + 0;
#X obj 41 318 pack f f;
#X text 99 323 only the left inlet accepts list!;
#X text 570 229 set xy origin in bseq 0 \, 0 0 \, 32 32 \, 0 32 \,
32;
#X obj 41 376 append template_pads x y type ch noteprogcc triggermsb
atlsb gfxpadcol gfxissel gfxp1 gfxp2 gfxp3 gfxp4 gfxp5, f 81;
#X msg 41 343 \$1 \$2 2 0 80 0 2 555 555 0 0 1 0 0;
#X connect 0 0 30 0;
#X connect 1 0 31 0;
#X connect 2 0 6 0;
#X connect 2 0 10 0;
#X connect 3 0 28 1;
#X connect 4 0 2 0;
#X connect 10 0 7 0;
#X connect 10 0 18 0;
#X connect 17 0 30 1;
#X connect 18 0 20 0;
#X connect 18 0 19 0;
#X connect 19 0 21 0;
#X connect 23 0 32 0;
#X connect 24 0 29 1;
#X connect 25 0 26 0;
#X connect 28 0 8 0;
#X connect 28 1 29 0;
#X connect 29 0 15 0;
#X connect 29 1 16 0;
#X connect 30 0 9 0;
#X connect 30 1 28 0;
#X connect 31 1 0 0;
#X connect 31 2 5 0;
#X connect 31 3 22 0;
#X connect 31 4 26 0;
#X connect 32 0 42 14;
#X connect 33 0 37 0;
#X connect 34 0 38 0;
#X connect 35 0 38 1;
#X connect 36 0 37 1;
#X connect 37 0 39 0;
#X connect 38 0 39 1;
#X connect 39 0 43 0;
#X connect 43 0 42 0;
#X restore 23 315 pd struct_pads_init;
#X msg 164 358 clearpads;
#X msg 48 292 debug-draw-pads;
#X text 32 51 on event listener;
#X text 79 334 init struct;
#X text 290 39 declare struct;
#X obj 127 389 s \$0-mpd24sysex_debug;
#X obj 23 267 r struct_pads_init;
#N canvas 923 0 904 1010 indicate_sel 1;
#X obj 33 40 inlet;
#X obj 33 239 set template_pads gfxissel;
#X obj 186 217 cpx_structptri pd-data_pads 1;
#X msg 167 105 64;
#X obj 167 128 until;
#X msg 43 181 555;
#X obj 167 149 t b b b;
#X obj 206 169 cpx_ci 1 64;
#X msg 33 111 500;
#X obj 33 72 t b p b b;
#X obj 357 197 + 1;
#X connect 0 0 9 0;
#X connect 2 0 1 1;
#X connect 3 0 4 0;
#X connect 4 0 6 0;
#X connect 5 0 1 0;
#X connect 6 0 5 0;
#X connect 6 1 2 0;
#X connect 6 2 7 0;
#X connect 7 0 10 0;
#X connect 8 0 1 0;
#X connect 9 0 8 0;
#X connect 9 1 1 1;
#X connect 9 2 3 0;
#X connect 9 3 7 1;
#X connect 10 0 2 1;
#X restore 24 203 pd indicate_sel;
#X obj 24 159 t p p, f 22;
#N canvas -1929 81 1920 1028 write_copy_inc 0;
#X obj 592 318 pointer;
#X obj 592 78 inlet;
#X obj 314 80 r \$0-pads_disp_params;
#X obj 592 103 t p b;
#X obj 619 147 cpx_structptri pd-data_padno 1;
#X obj 215 189 unpack f f f f f, f 42;
#X obj 513 371 * 111;
#X obj 513 393 + 555;
#X obj 513 350 - 2;
#X obj 214 221 t f f;
#X obj 328 128 r \$0-mpd24_ppux_sticky;
#X obj 295 156 spigot;
#X obj 211 420 set template_pads type ch noteprogcc triggermsb atlsb
, f 64;
#X obj 497 194 r \$0-mpd24_ppux_nninc;
#X obj 464 218 spigot;
#X obj 491 264 cpx_ci 1 64;
#X obj 464 290 +;
#X obj 464 241 t f b;
#X connect 0 0 12 5;
#X connect 1 0 3 0;
#X connect 2 0 11 0;
#X connect 3 0 0 0;
#X connect 3 1 4 0;
#X connect 5 0 9 0;
#X connect 5 1 12 1;
#X connect 5 2 12 3;
#X connect 5 3 12 4;
#X connect 5 4 14 0;
#X connect 6 0 7 0;
#X connect 8 0 6 0;
#X connect 9 0 12 0;
#X connect 9 1 8 0;
#X connect 10 0 11 1;
#X connect 11 0 5 0;
#X connect 13 0 14 1;
#X connect 14 0 17 0;
#X connect 15 0 16 1;
#X connect 16 0 12 2;
#X connect 17 0 16 0;
#X connect 17 1 15 0;
#X restore 153 202 pd write_copy_inc;
#X obj 24 11 struct template_pads float type float ch float noteprogcc
float triggermsb float atlsb float padpos float x float y float gfxpadcol
float gfxissel float gfxp1 float gfxp2 float gfxp3 float gfxp4 float
gfxp5, f 146;
#X obj 183 165 drawpolygon -xv gfxissel 1 1 1 11 1 11 11 1 11 1 1,
f 67;
#X obj 183 141 drawnumber -v gfxp5 atlsb 2 3 222;
#X obj 183 121 drawnumber -v gfxp4 triggermsb 2 3 222;
#X obj 183 101 drawnumber -v gfxp3 noteprogcc 2 3 222;
#X obj 183 81 drawnumber -v gfxp2 ch 2 3 222;
#X obj 183 61 drawnumber -v gfxp1 type 2 3 222;
#X connect 0 0 10 0;
#X connect 1 0 7 0;
#X connect 2 0 7 0;
#X connect 3 0 1 0;
#X connect 8 0 1 0;
#X connect 10 0 9 0;
#X connect 10 1 11 0;
#X connect 12 0 0 0;
#X coords 0 514 1 513 96 96 0;
#X restore 511 199 pd template_pads;
#X obj 20 20 cnv 15 479 239 empty empty empty 20 12 0 14 -195568 -66577
0;
#X obj 213 25 cnv 11 176 12 empty empty ▐▄░▄█▐███▐▀▀▄░▀▀▀▄▐▄▄█
0 6 0 12 -195568 -196685 0;
#N canvas -1920 90 942 1010 data_ccs2 0;
#X scalar template_ccs2 0 0 20 21 127 0 \;;
#X scalar template_ccs2 32 0 20 21 127 0 \;;
#X scalar template_ccs2 64 0 20 21 127 0 \;;
#X scalar template_ccs2 96 0 20 21 127 0 \;;
#X scalar template_ccs2 128 0 20 21 127 0 \;;
#X scalar template_ccs2 160 0 20 21 127 0 \;;
#X coords 0 127 188 0 180 48 2 0 0;
#X restore 29 23 pd data_ccs2;
#X obj 213 51 cnv 8 176 8 empty empty S░Y░S░E░X░░P░A░T░C░H░░E░D░I░T░O░R
0 4 0 8 -195568 -33289 0;
#X obj 213 37 cnv 11 176 12 empty empty ▐░█░█▐░░░▐▄▄█░███▄░░░█
0 6 0 12 -195568 -196685 0;
#N canvas -9 -9 1845 1028 data_circletest 0;
#X scalar template_circletest 0 0 -61 79 61 79 70 0 127 0 \;;
#X scalar template_circletest 450 0 -61 79 61 79 70 0 127 0 \;;
#X scalar template_circletest 0 256 -61 79 61 79 70 0 127 0 \;;
#X scalar template_circletest 450 256 -61 79 61 79 70 0 127 0 \;;
#X scalar template_circletest 0 512 -61 79 61 79 70 0 127 0 \;;
#X scalar template_circletest 450 512 -61 79 61 79 70 0 127 0 \;;
#X scalar template_circletest 0 768 -61 79 61 79 70 0 127 0 \;;
#X scalar template_circletest 450 768 -61 79 61 79 70 0 127 0 \;;
#X coords -150 -150 750 870 164 180 2 0 0;
#X restore 331 76 pd data_circletest;
#N canvas -9 -9 1845 1028 template_paddisp 1;
#N canvas 0 50 1513 580 struct_aptr 0;
#X msg 175 135 traverse pd-data_pads \, bang;
#X obj 175 157 pointer;
#X obj 177 106 inlet;
#X obj 174 185 outlet;
#X text 124 59 for append only \, set ptr to struct once;
#X connect 0 0 1 0;
#X connect 1 0 3 0;
#X connect 2 0 0 0;
#X restore 1037 701 pd struct_aptr;
#N canvas 389 302 1214 567 paddisp_init 0;
#X obj 24 22 inlet;
#X obj 350 88 cpx_structptr0 pd-data_padno, f 14;
#X msg 24 72 until;
#X obj 24 129 append template_padno x y bg fg, f 47;
#X obj 36 53 t f b, f 6;
#X msg 24 96 0 0 0 0;
#X connect 0 0 4 0;
#X connect 1 0 3 4;
#X connect 2 0 5 0;
#X connect 4 0 2 0;
#X connect 4 1 1 0;
#X connect 5 0 3 0;
#X restore 620 280 pd paddisp_init;
#N canvas 253 105 1401 474 paddisp_assign 0;
#X obj 136 3 inlet;
#X obj 136 68 unpack f f f f f f;
#X obj 136 30 t l b, f 57;
#X obj 241 158 cpx_structptri pd-data_padno 1;
#X obj 136 188 set template_padno;
#X connect 0 0 2 0;
#X connect 1 0 4 0;
#X connect 2 0 1 0;
#X connect 2 1 3 0;
#X connect 3 0 4 1;
#X restore 148 237 pd paddisp_assign;
#X msg 620 99 debug-init;
#X obj 28 217 route click;
#X obj 148 211 r \$0-pads_params_sel;
#X obj 276 331 r \$0-mpd24_ppux_sticky;
#X obj 259 356 int;
#X obj 261 382 select 1;
#X obj 639 226 r struct_paddisp_init;
#X obj 28 16 struct template_padno float x float y float bg float fg
symbol modeparam_name, f 17;
#X obj 154 163 drawpolygon 333 0 0 0 110 0 110 128 0 128 0 0;
#X obj 154 139 filledpolygon 289 234 1 3 3 48 3 48 14 3 14 3 3;
#X obj 154 32 drawtext iov_paftc 8 72 679 AT░░░;
#X obj 154 52 drawtext iov_ptrig 8 56 679 TG░░░;
#X obj 154 73 drawtext iov_pchan 8 40 679 CH░░░;
#X obj 154 94 drawtext iov_ptype 8 24 679 N/P░░;
#X obj 154 12 drawtext iov_pnpc 8 88 679 ##░░░;
#N canvas -1929 81 1920 1028 cycle_paddisp_mode 1;
#X obj 66 25 inlet;
#X obj 85 95 cpx_ci 1 5;
#X symbolatom 258 216 10 0 0 0 - - -;
#X msg 85 120 get \$1 1;
#X obj 66 61 t p b p;
#X obj 258 241 set -symbol template_padno modeparam_name;
#N canvas 562 60 1263 669 switch_pad_param_vis 0;
#X obj 56 25 inlet;
#X obj 56 225 set template_pads gfxp1 gfxp2 gfxp3 gfxp4 gfxp5;
#X obj 179 196 cpx_structptri pd-data_pads 1;
#X obj 415 27 inlet;
#X obj 56 53 t f b;
#X obj 271 171 cpx_ci 1 64;
#X obj 56 80 until;
#X msg 415 77 1 0 0 0 0;
#X obj 56 121 t b b b;
#X msg 437 97 0 1 0 0 0;
#X msg 459 117 0 0 1 0 0;
#X msg 482 137 0 0 0 1 0;
#X msg 504 157 0 0 0 0 1;
#X obj 415 54 select TYPE CHN VAL TRG AFT;
#X obj 26 262 list length;
#X floatatom 26 284 5 0 0 0 - - -;
#X obj 415 191 s \$0-vis_param_list;
#X obj 56 195 list store;
#X obj 113 168 r \$0-vis_param_list;
#X obj 350 171 + 1;
#X connect 0 0 4 0;
#X connect 2 0 1 5;
#X connect 3 0 13 0;
#X connect 4 0 6 0;
#X connect 4 1 5 1;
#X connect 5 0 19 0;
#X connect 6 0 8 0;
#X connect 7 0 16 0;
#X connect 8 0 17 0;
#X connect 8 1 2 0;
#X connect 8 2 5 0;
#X connect 9 0 16 0;
#X connect 10 0 16 0;
#X connect 11 0 16 0;
#X connect 12 0 16 0;
#X connect 13 0 7 0;
#X connect 13 1 9 0;
#X connect 13 2 10 0;
#X connect 13 3 11 0;
#X connect 13 4 12 0;
#X connect 14 0 15 0;
#X connect 17 0 1 0;
#X connect 18 0 17 1;
#X connect 19 0 2 1;
#X restore 85 241 pd switch_pad_param_vis;
#X obj 85 146 list store TYPE CHN VAL TRG AFT;
#X obj 85 168 t b s s;
#X msg 85 215 64;
#X connect 0 0 4 0;
#X connect 1 0 3 0;
#X connect 2 0 5 0;
#X connect 3 0 7 0;
#X connect 4 1 1 0;
#X connect 4 2 5 1;
#X connect 7 0 8 0;
#X connect 8 0 9 0;
#X connect 8 1 6 1;
#X connect 8 2 2 0;
#X connect 9 0 6 0;
#X restore 28 269 pd cycle_paddisp_mode;
#X obj 154 118 drawsymbol modeparam_name 8 3 22;
#X connect 3 0 1 0;
#X connect 4 0 18 0;
#X connect 5 0 2 0;
#X connect 6 0 7 1;
#X connect 7 0 8 0;
#X connect 9 0 1 0;
#X connect 10 0 4 0;
#X restore 511 178 pd template_paddisp;
#N canvas -9 -9 1845 1028 template_knobs 0;
#X obj 20 65 route click;
#N canvas -9 -9 1845 1028 getvminvmax 0;
#X obj 33 34 inlet;
#X obj 27 146 get template_circletest vmin vmax;
#X obj 36 315 pack f f;
#X obj 32 349 s \$0-set_limit_sprites;
#X obj 26 212 clip 0 128;
#X obj 255 206 clip 0 128;
#X connect 0 0 1 0;
#X connect 1 0 4 0;
#X connect 1 1 5 0;
#X connect 2 0 3 0;
#X connect 4 0 2 0;
#X connect 5 0 2 1;
#X restore 20 212 pd getvminvmax;
#N canvas 288 206 1323 755 struct_circletest_init 0;
#X obj 18 -17 inlet;
#X obj 490 218 cpx_structptr0 pd-data_circletest;
#X obj 18 55 until;
#X obj 18 28 t f b;
#X msg 365 88 0;
#X obj 18 77 t b b;
#X obj 18 257 append template_circletest x1 y1 x2 y2 ccn chan vmin
vmax x y, f 68;
#X obj 18 197 pack -61 79 61 79 70 0 0 127;
#X obj 365 145 cpx_ci 256 900;
#X obj 235 118 cpx_ci 450 900;
#X connect 0 0 3 0;
#X connect 1 0 6 10;
#X connect 2 0 5 0;
#X connect 3 0 2 0;
#X connect 3 1 1 0;
#X connect 3 1 4 0;
#X connect 4 0 8 1;
#X connect 4 0 9 1;
#X connect 5 0 7 0;
#X connect 5 1 9 0;
#X connect 7 0 6 0;
#X connect 8 0 6 9;
#X connect 9 0 6 8;
#X connect 9 1 8 0;
#X restore 401 212 pd struct_circletest_init;
#X obj 401 186 r struct_circletest_init;
#X obj 168 146 r \$0-set_limit_sprites;
#X obj 20 128 t p p;
#N canvas -9 -9 1845 1028 setlimitsprites 0;
#X floatatom 163 332 5 0.71 2.29 0 - - -;
#X floatatom 163 430 5 0 0 0 - - -;
#X floatatom 266 430 5 0 0 0 - - -;
#X obj 163 364 cpx_rotxy 100 0;
#X floatatom 298 331 5 0.71 2.29 0 - - -;
#X floatatom 368 430 5 0 0 0 - - -;
#X floatatom 471 430 5 0 0 0 - - -;
#X obj 298 362 t b f, f 6;
#X obj 369 399 cpx_rotxy 100 0;
#X obj 163 455 set template_circletest x1 y1 x2 y2, f 59;
#X obj 218 251 / 128;
#X obj 285 251 / 128;
#X obj 218 275 * 1.58;
#X obj 216 299 + 0.71;
#X obj 282 276 * 1.58;
#X obj 280 300 + 0.71;
#X obj 210 149 inlet;
#X obj 217 187 unpack f f;
#X obj 463 149 inlet;
#X connect 0 0 3 0;
#X connect 1 0 9 0;
#X connect 2 0 9 1;
#X connect 3 0 1 0;
#X connect 3 1 2 0;
#X connect 4 0 7 0;
#X connect 5 0 9 2;
#X connect 6 0 9 3;
#X connect 7 0 9 0;
#X connect 7 1 8 0;
#X connect 8 0 5 0;
#X connect 8 1 6 0;
#X connect 10 0 12 0;
#X connect 11 0 14 0;
#X connect 12 0 13 0;
#X connect 13 0 0 0;
#X connect 14 0 15 0;
#X connect 15 0 4 0;
#X connect 16 0 17 0;
#X connect 17 0 10 0;
#X connect 17 1 11 0;
#X connect 18 0 9 4;
#X restore 168 212 pd setlimitsprites;
#X obj 20 10 struct template_circletest float x float y float x1 float
y1 float x2 float y2 float ccn float vmin float vmax float chan, f
89;
#X obj 171 46 filledcurve -xv 222 444 4 100 0 71 71 0 100 -71 71 -100
0 -71 -71 0 -100 71 -71 100 0, f 86;
#X obj 171 70 drawpolygon -xv 900 1 x1 y1 0 0;
#X obj 171 94 drawpolygon -xv 900 1 x2 y2 0 0;
#X obj 602 70 drawnumber ccn -40 -40 660;
#X obj 397 70 drawnumber vmax 100 -100 222;
#X obj 397 94 drawnumber vmin 100 32 222;
#X obj 602 94 drawnumber chan 164 -48 222;
#X obj 210 340 filledpolygon -n 666 666 0 -150 -150 300 -150 300 106
-150 106 -150 -150, f 71;
#X connect 0 0 5 0;
#X connect 3 0 2 0;
#X connect 4 0 6 0;
#X connect 5 0 1 0;
#X connect 5 1 6 1;
#X connect 7 0 0 0;
#X restore 511 220 pd template_knobs;
#N canvas -9 -9 1845 1028 template_faders 0;
#N canvas -1929 81 1920 1028 struct_ccs2_init 0;
#X obj 24 4 inlet;
#X obj 24 55 t f b, f 6;
#X obj 24 83 until;
#X obj 304 219 cpx_structptr0 pd-data_ccs2;
#X obj 24 258 append template_ccs2 x y ccn vmin vmax chan, f 47;
#X obj 36 163 cpx_ci 32 1024;
#X obj 59 215 pack f 0 20 21 127 0;
#X connect 0 0 1 0;
#X connect 1 0 2 0;
#X connect 1 1 3 0;
#X connect 1 1 5 1;
#X connect 2 0 5 0;
#X connect 3 0 4 6;
#X connect 5 0 6 0;
#X connect 6 0 4 0;
#X restore 31 199 pd struct_ccs2_init;
#X obj 31 170 r struct_ccs2_init;
#X text 387 430 note the reverse order and the reverse range for GOP
;
#X text 387 442 basically \, its upside down (reversed Y axis);
#X obj 29 464 filledpolygon -xv 666 666 0 0 127 32 127 32 0 0 0 0 127
, f 62;
#X text 179 173 (we mostly want to init x \, y coords for drawing objects
here;
#X text 198 321 In the end \, the "data" subpatch (not this one) is
what holds the data - so this is essentially just a definition \; data
subpatch can be graphical or just a plain subpatch to hold numbers
\; the point of Pd though is that graphical data subpatches are INHERENTLY
INTERACTIVE \, so you kill two birds with one stone, f 66;
#X obj 641 120 pointer;
#X msg 641 95 next;
#X obj 713 122 bng 15 250 50 0 empty empty Silly_me 17 7 0 10 -262144
-1 -1;
#X text 639 78 v-- get to the ith element;
#X text 666 41 v-- set pointer to array/object;
#X msg 669 60 traverse SOMEDATASUBPATCH;
#X text 185 184 and/or simply prepare the object for plain data get/set)
;
#X text 177 200 <- the ugly init subpatch \, open to see APPEND in
action;
#X text 28 5 1 It's pretty simple \, folks: first \, we define a C-like
struct (heterogenous object \, albeit with awkward string handling
\; nesting is allowed \, as well as simpler arrays) \; struct and data-canvas
names are arbitrary but be consistent, f 81;
#X text 28 88 ^--(the left outlet can be used to handle GUI events
\, eg. mouse), f 64;
#X text 630 8 4 THE NECESSARY GET/SET POINTER EVIL;
#X obj 687 195 pointer;
#X obj 641 217 pointer;
#X msg 641 195 bang;
#X obj 641 144 get SOMESTRUCT SOMEFIELD ANOTHERONE;
#X obj 641 243 set SOMESTRUCT SOMEFIELD ANOTHER;
#X text 638 165 You can use the right inlet to;
#X text 639 178 assign the pointer W/OUT output;
#X text 28 98 2 Then we "append" zeros/empty/initial data to populate
the memory (every append instantiates an additional element of the
array of type defined above \; btw \, we refer to elements with [pointer]
objects when getting/setting values \; append does pointers automatically
\, since it changes the length) \; data goes to a separate subpatch
(come up with a naming convention fast), f 81;
#X text 629 20 (thank you C) \, [get]/[set] examples;
#X text 675 95 (essentially \, pointer++);
#X text 176 215 (even uglier are set and get subpatches \, you need
to write them every time \; append can more or less be generic);
#X text 37 265 3 And finally \, but not obligatory \, we use the "fields"
of the object to draw stuff \; most numbers you see below are coordinates
\, some fixed \, and some variable \, depending on whether we need
user interaction (pretty limited stuff still) \; for every appended
element \, this stuff gets drawn \, so we're basically TILING graphics
, f 89;
#X obj 30 62 struct template_ccs2 float x float y float ccn float vmin
float vmax float chan, f 71;
#X obj 29 438 filledpolygon 777 777 0 1 48 24 48 24 80 1 80 1 48;
#X obj 29 398 filledpolygon -xv 990 990 0 12 vmin 13 vmin 13 vmax 12
vmax 12 vmin, f 62;
#X obj 29 327 drawtext vmin 2 32 111;
#X obj 29 349 drawtext vmax 2 128 111;
#X obj 28 371 drawtext ccn 2 80 111;
#X connect 1 0 0 0;
#X connect 7 0 21 0;
#X connect 7 1 9 0;
#X connect 8 0 7 0;
#X connect 12 0 7 0;
#X connect 18 0 19 1;
#X connect 19 0 22 2;
#X connect 20 0 19 0;
#X restore 511 241 pd template_faders;
#X obj 27 77 cnv 15 87 87 empty empty empty 20 12 0 14 -260129 -66577
0;
#N canvas -9 -9 1845 1028 presetparams 0;
#X msg 226 407 label \$1;
#X obj 226 381 r \$0-pstname;
#X obj 226 435 s \$0-pstname_disp;
#X obj 373 219 r \$0-pstbank;
#X obj 374 427 s \$0-pstbank_disp;
#X msg 374 399 label \$1;
#X obj 373 242 select 0 1 2 3;
#X msg 552 341 label \$1;
#X obj 552 242 select 0 1;
#X msg 552 291 s MMC;
#X msg 602 291 s CTL;
#X obj 552 369 s \$0-psttrsp_disp;
#X obj 552 219 r \$0-psttrsp;
#X obj 684 219 r \$0-pstaddr;
#X obj 684 369 s \$0-pstaddr_disp;
#X obj 536 30 cpxg_textBang newbangs isSameLabel;
#X obj 485 31 cpxg_textBang www lbl;
#X obj 639 22 cnv 72 268 38 empty \$0-resizedcanvas HITHERE 134 19
0 38 -33289 -4034 0;
#X obj 434 85 s \$0-resizedcanvas;
#X floatatom 132 368 5 0 0 0 - - -;
#X floatatom 183 369 5 0 0 0 - - -;
#X obj 153 421 /;
#X floatatom 153 444 5 0 0 0 - - -;
#X obj 100 100 cnv 8 110 48 empty empty empty 20 12 0 14 -195568 -66577
0;
#X symbolatom 114 102 8 0 0 1 - #0-pstname-in #0-pstname;
#X obj 152 121 nbx 2 11 0 1 0 0 \$0-psttrsp \$0-psttrsp-in empty 0
-8 0 10 -262144 -1 -1 0 256;
#X obj 102 121 hradio 11 1 0 4 \$0-pstbank \$0-pstbank-in empty 0 -8
0 10 -262144 -1 -1 0;
#X obj 184 105 nbx 1 24 1 30 0 0 \$0-pstaddr \$0-pstaddr-in empty 0
-8 0 10 -4032 -13330 -13330 11 256;
#X obj 117 135 tgl 12 0 \$0-mpd24_ppux_sticky empty W 3 6 0 10 -128992
-258113 -86277 0 1;
#X obj 145 135 tgl 12 0 \$0-mpd24_ppux_nninc empty I 3 6 0 10 -128992
-159808 -16662 0 1;
#X msg 684 341 label P\$1;
#X obj 105 135 tgl 12 0 empty remove_recv W 3 6 0 10 -228856 -1 -1
0 1;
#X obj 100 132 cnv 6 110 16 empty empty empty 20 12 0 14 -4032 -13330
0;
#X obj 102 134 cnv 8 28 13 empty empty empty 20 12 0 14 -13330 -13330
0;
#X obj 103 135 cnv 10 26 11 empty \$0-dump_disp_wrt CPY 4 6 0 10 -44926
-1109 0;
#X obj 133 135 tgl 12 0 empty remove_recv I 3 6 0 10 -228856 -1 -1
0 1;
#X obj 25 203 r \$0-mpd24_ppux_sticky;
#X obj 25 225 select 1;
#X obj 24 288 s \$0-dump_disp_wrt;
#X obj 186 203 r \$0-mpd24_ppux_nninc;
#X obj 186 226 select 1;
#X obj 185 289 s \$0-dump_disp_inc;
#X obj 131 134 cnv 8 28 13 empty empty empty 20 12 0 14 -13330 -13330
0;
#X obj 132 135 cnv 10 26 11 empty \$0-dump_disp_inc INC 4 6 0 10 -44926
-1109 0;
#X floatatom 434 29 5 0 0 0 - - -;
#X obj 434 61 cpxg_dispscale HITHERE 64;
#X text 510 141 UNDER CONSTRUCTION ^^^^^^^;
#X text 510 127 __________________;
#X obj 293 93 bng 48 250 50 0 empty empty empty 17 7 0 10 -44926 -143491
-262144;
#X msg 293 66 color \$1 \$2 \$3;
#X obj 293 40 pack f f f, f 14;
#X floatatom 292 13 5 0 33 0 - - -;
#X floatatom 338 14 5 0 33 0 - - -;
#X floatatom 385 15 5 0 33 0 - - -;
#N canvas -402 12 1845 1028 canvbtn_dump 0;
#X obj 136 101 bng 11 250 50 0 \$0-mpd24sysex_dump empty empty 17 7
0 10 -262144 -1 -1;
#X obj 124 101 bng 11 250 50 0 empty empty empty 17 7 0 10 -262144
-1 -1;
#X obj 112 101 bng 11 250 50 0 empty empty empty 17 7 0 10 -262144
-1 -1;
#X obj 132 260 s \$0-dump_disp;
#X msg 132 73 send \$0-mpd24sysex_dump;
#X obj 132 184 cpxg_bmetro 500 8;
#X obj 101 101 bng 11 250 50 0 empty empty empty 17 7 0 10 -262144
-1 -1;
#X obj 100 100 cnv 11 48 12 empty empty empty 20 12 0 14 -13330 -4032
0;
#X obj 101 101 cnv 9 46 10 empty \$0-dump_disp DUMP 12 5 0 10 -44926
-1109 0;
#X msg 262 215 color 17 27 27;
#X msg 132 216 color 27 17 17;
#X connect 0 0 5 0;
#X connect 1 0 0 0;
#X connect 2 0 1 0;
#X connect 4 0 0 0;
#X connect 5 0 10 0;
#X connect 5 1 9 0;
#X connect 6 0 2 0;
#X connect 9 0 3 0;
#X connect 10 0 3 0;
#X coords 0 0 48 13 48 13 2 100 100;
#X restore 161 134 pd canvbtn_dump;
#X msg 35 246 color 17 27 27;
#X msg 24 267 color 27 17 17;
#X msg 196 247 color 17 27 27;
#X msg 185 268 color 27 17 17;
#X obj 100 120 cnv 11 48 12 empty \$0-pstbank_disp A░\ ░\ ░\ 
2 6 0 10 -4032 -13330 0;
#X obj 180 100 cnv 11 30 32 empty \$0-pstaddr_disp P11 2 16 0 14 -4032
-13330 0;
#X obj 148 120 cnv 11 32 12 empty \$0-psttrsp_disp MMC 8 6 0 10 -4032
-13330 0;
#X obj 101 100 cnv 11 80 20 empty \$0-pstname_disp Lizzard\  16 10
0 11 -4032 -13330 0;
#X msg 373 291 s A░\ ░\ ░\ ;
#X msg 393 313 s \ ░B░\ ░;
#X msg 414 335 s \ ░\ ░C░\ ;
#X msg 433 356 s \ ░\ ░\ ░D;
#X connect 0 0 2 0;
#X connect 1 0 0 0;
#X connect 3 0 6 0;
#X connect 5 0 4 0;
#X connect 6 0 63 0;
#X connect 6 1 64 0;
#X connect 6 2 65 0;
#X connect 6 3 66 0;
#X connect 7 0 11 0;
#X connect 8 0 9 0;
#X connect 8 1 10 0;
#X connect 9 0 7 0;
#X connect 10 0 7 0;
#X connect 12 0 8 0;
#X connect 13 0 30 0;
#X connect 19 0 21 0;
#X connect 20 0 21 1;
#X connect 21 0 22 0;
#X connect 30 0 14 0;
#X connect 31 0 28 0;
#X connect 35 0 29 0;
#X connect 36 0 37 0;
#X connect 37 0 56 0;
#X connect 37 1 55 0;
#X connect 39 0 40 0;
#X connect 40 0 58 0;
#X connect 40 1 57 0;
#X connect 44 0 45 0;
#X connect 45 0 18 0;
#X connect 49 0 48 0;
#X connect 50 0 49 0;
#X connect 51 0 50 0;
#X connect 52 0 50 1;
#X connect 53 0 50 2;
#X connect 55 0 38 0;
#X connect 56 0 38 0;
#X connect 57 0 41 0;
#X connect 58 0 41 0;
#X connect 63 0 5 0;
#X connect 64 0 5 0;
#X connect 65 0 5 0;
#X connect 66 0 5 0;
#X coords 0 -1 1 1 111 49 2 100 100;
#X restore 384 23 pd presetparams;
#X obj 238 62 bng 12 250 50 0 \$0-preview_file_bang rcv_remove empty
14 6 0 12 -262144 -1 -1;
#X obj 360 62 tgl 12 1 \$0-sysexbool rmv_receive empty 14 6 0 12 -262144
-33289 -1 1 1;
#N canvas -1929 104 1920 1028 on_dump 0;
#N canvas -9 -9 1845 1028 list_presetparams 0;
#X obj 230 164 list fromsymbol;
#X obj 153 329 list store;
#X obj 210 304 pack 1 32 32 32 32 32 32 32 32 0 1;
#X obj 230 252 list prepend 32 32 32 32 32 32 32 32;
#X obj 230 274 unpack f f f f f f f f;
#X obj 153 59 inlet;
#X obj 153 365 s \$0-sysexbuffer;
#X text 457 251 prepend = pad with spaces =);
#X text 293 21 Note: these have to come from vanilla objects \, not
structs;
#X text 293 35 mainly because there is no way to change text data through
struct data window;
#X obj 210 122 r \$0-pstaddr;
#X obj 230 143 r \$0-pstname;
#X obj 391 142 r \$0-pstbank;
#X obj 411 164 r \$0-psttrsp;
#X obj 230 188 t b l b;
#X text 422 217 clear any previous characters;
#X text 239 323 pack only sends when leftmost output receives;
#X text 207 446 NOTE: WE SERIOUSLY NEED TO CONSIDER TO LOAD BANG ALL
PARAMS, f 69;
#X obj 269 229 list fromsymbol;
#X text 677 279 ╔═════════════╗░▀▄█▌▐░▒▓■▌
;
#X text 680 292 ╔══╗═╝╚═╬═╦═╩ ║;
#X msg 269 209 symbol ░░░░░░░░;
#X connect 0 0 14 0;
#X connect 1 0 6 0;
#X connect 2 0 1 1;
#X connect 3 0 4 0;
#X connect 4 0 2 1;
#X connect 4 1 2 2;
#X connect 4 2 2 3;
#X connect 4 3 2 4;
#X connect 4 4 2 5;
#X connect 4 5 2 6;
#X connect 4 6 2 7;
#X connect 4 7 2 8;
#X connect 5 0 1 0;
#X connect 10 0 2 0;
#X connect 11 0 0 0;
#X connect 12 0 2 9;
#X connect 13 0 2 10;
#X connect 14 0 3 0;
#X connect 14 1 3 1;
#X connect 14 2 21 0;
#X connect 18 0 3 0;
#X connect 21 0 18 0;
#X restore 410 180 pd list_presetparams;
#N canvas -1929 104 1920 1028 list_ccs 0;
#X obj 9 9 inlet;
#X obj 8 369 list append;
#X msg 203 445 list 80 80 80 80 80 80 80 80 80 80 80 80 80 80;
#X obj 8 461 list append;
#X obj 203 422 r \$0-mpd24_ccs_initpos;
#X obj 31 84 s \$0-mpd24_ccs_initpos;
#X obj 8 489 s \$0-sysexbuffer;
#N canvas 44 412 1076 567 getcc_ccn_knobs 0;
#X obj 21 10 inlet;
#X obj 21 34 t b b;
#X obj 21 60 cpx_structptri pd-data_circletest 8;
#X obj 21 83 get template_circletest ccn;
#X obj 21 105 outlet;
#X connect 0 0 1 0;
#X connect 1 0 2 0;
#X connect 2 0 3 0;
#X connect 3 0 4 0;
#X restore 349 248 pd getcc_ccn_knobs;
#N canvas 580 318 1076 567 getcc_ccn_faders 0;
#X obj 21 10 inlet;
#X obj 21 34 t b b;
#X obj 21 60 cpx_structptri pd-data_ccs2 6;
#X obj 21 105 outlet;
#X obj 21 83 get template_ccs2 ccn;
#X connect 0 0 1 0;
#X connect 1 0 2 0;
#X connect 2 0 4 0;
#X connect 4 0 3 0;
#X restore 320 269 pd getcc_ccn_faders;
#X obj 205 179 t b b b b b b, f 21;
#N canvas 580 318 1076 567 getcc_vmin_knobs 0;
#X obj 21 10 inlet;
#X obj 21 34 t b b;
#X obj 21 60 cpx_structptri pd-data_circletest 8;
#X obj 21 83 get template_circletest vmin;
#X obj 21 105 outlet;
#X connect 0 0 1 0;
#X connect 1 0 2 0;
#X connect 2 0 3 0;
#X connect 3 0 4 0;
#X restore 291 303 pd getcc_vmin_knobs;
#N canvas 580 318 1076 567 getcc_vmin_faders 0;
#X obj 21 10 inlet;
#X obj 21 34 t b b;
#X obj 21 60 cpx_structptri pd-data_ccs2 6;
#X obj 21 83 get template_ccs2 vmin;
#X obj 21 105 outlet;
#X connect 0 0 1 0;
#X connect 1 0 2 0;
#X connect 2 0 3 0;
#X connect 3 0 4 0;
#X restore 262 324 pd getcc_vmin_faders;
#N canvas 580 318 1076 567 getcc_vmax_knobs 0;
#X obj 21 10 inlet;
#X obj 21 34 t b b;
#X obj 21 60 cpx_structptri pd-data_circletest 8;
#X obj 21 83 get template_circletest vmax;
#X obj 21 105 outlet;
#X connect 0 0 1 0;
#X connect 1 0 2 0;
#X connect 2 0 3 0;
#X connect 3 0 4 0;
#X restore 231 355 pd getcc_vmax_knobs;
#N canvas 580 318 1076 567 getcc_vmax_faders 0;
#X obj 21 10 inlet;
#X obj 21 34 t b b;
#X obj 21 60 cpx_structptri pd-data_ccs2 6;
#X obj 21 83 get template_ccs2 vmax;
#X obj 21 105 outlet;
#X connect 0 0 1 0;
#X connect 1 0 2 0;
#X connect 2 0 3 0;
#X connect 3 0 4 0;
#X restore 202 375 pd getcc_vmax_faders;
#X obj 34 332 list store;
#X msg 66 276 append \$1;
#X obj 11 51 t b b b b b;
#X text 105 52 right most bang clears the list;
#X msg 15 125 list 11 11 11 11 11 11 11 11 11 11 11 11 11 11;
#X text 350 102 CC channel (set all to 11 for debug);
#X connect 0 0 16 0;
#X connect 1 0 3 0;
#X connect 2 0 3 1;
#X connect 3 0 6 0;
#X connect 4 0 2 0;
#X connect 7 0 15 0;
#X connect 8 0 15 0;
#X connect 9 0 13 0;
#X connect 9 1 12 0;
#X connect 9 2 11 0;
#X connect 9 3 10 0;
#X connect 9 4 8 0;
#X connect 9 5 7 0;
#X connect 10 0 15 0;
#X connect 11 0 15 0;
#X connect 12 0 15 0;
#X connect 13 0 15 0;
#X connect 14 0 1 1;
#X connect 15 0 14 0;
#X connect 16 0 18 0;
#X connect 16 1 5 0;
#X connect 16 2 14 0;
#X connect 16 3 9 0;
#X connect 16 4 14 1;
#X connect 18 0 1 0;
#X restore 378 224 pd list_ccs;
#X text 445 139 LIST BUILDERS;
#N canvas 0 50 1800 789 list_filler1 0;
#X msg 35 81 0 0 0 0 0 0 0 0 0 0 0 0 0 0 0 0 0 0 0 0;
#X obj 35 55 inlet;
#X obj 34 112 s \$0-sysexbuffer;
#X connect 0 0 2 0;
#X connect 1 0 0 0;
#X restore 394 202 pd list_filler1;
#N canvas 219 296 1420 450 list_mpd24boiler 0;
#X obj 18 69 pack 240 71 0 104 16 3 113;
#X obj 18 28 inlet;
#X obj 17 105 s \$0-sysexbuffer;
#X connect 0 0 2 0;
#X connect 1 0 0 0;
#X restore 426 158 pd list_mpd24boiler;
#X msg 442 96 clear;
#X obj 314 26 r \$0-mpd24sysex_dump;
#X obj 314 49 t b b b b b b b b b b;
#X floatatom 476 49 5 0 0 1 DEBUG - -;
#N canvas -9 -9 1845 1028 list_pads 0;
#X obj 126 -23 inlet;
#X obj 634 308 s \$0-sysexbuffer;
#X obj 231 54 t b b b b b b, f 79;
#X obj 127 2 t b b b b b;
#N canvas 580 318 1076 567 getpads_ptype 0;
#X obj 21 10 inlet;
#X obj 21 34 t b b;
#X obj 21 105 outlet;
#X obj 21 60 cpx_structptri pd-data_pads 64;
#X obj 21 83 get template_pads type;
#X connect 0 0 1 0;
#X connect 1 0 3 0;
#X connect 3 0 4 0;
#X connect 4 0 2 0;
#X restore 793 78 pd getpads_ptype;
#X msg 781 126 append \$1;
#N canvas 580 318 1076 567 getpads_pchan 0;
#X obj 21 10 inlet;
#X obj 21 34 t b b;
#X obj 21 105 outlet;
#X obj 21 60 cpx_structptri pd-data_pads 64;
#X obj 21 83 get template_pads ch;
#X connect 0 0 1 0;
#X connect 1 0 3 0;
#X connect 3 0 4 0;
#X connect 4 0 2 0;
#X restore 672 78 pd getpads_pchan;
#X obj 672 245 list store;
#X msg 672 126 append \$1;
#N canvas 580 318 1076 567 getpads_npc 0;
#X obj 21 10 inlet;
#X obj 21 34 t b b;
#X obj 21 105 outlet;
#X obj 21 60 cpx_structptri pd-data_pads 64;
#X obj 21 83 get template_pads noteprogcc;
#X connect 0 0 1 0;
#X connect 1 0 3 0;
#X connect 3 0 4 0;
#X connect 4 0 2 0;
#X restore 561 78 pd getpads_npc;
#X obj 561 246 list store;
#X msg 561 127 append \$1;
#X obj 450 246 list store;
#X msg 450 127 append \$1;
#N canvas 580 318 1076 567 getpads_msb 0;
#X obj 21 10 inlet;
#X obj 21 34 t b b;
#X obj 21 105 outlet;
#X obj 21 60 cpx_structptri pd-data_pads 64;
#X obj 21 83 get template_pads triggermsb;
#X connect 0 0 1 0;
#X connect 1 0 3 0;
#X connect 3 0 4 0;
#X connect 4 0 2 0;
#X restore 450 78 pd getpads_msb;
#X obj 340 248 list store;
#X msg 341 126 append \$1;
#N canvas 580 318 1076 567 getpads_lsb 0;
#X obj 21 10 inlet;
#X obj 21 34 t b b;
#X obj 21 105 outlet;
#X obj 21 60 cpx_structptri pd-data_pads 64;
#X obj 21 83 get template_pads atlsb;
#X connect 0 0 1 0;
#X connect 1 0 3 0;
#X connect 3 0 4 0;
#X connect 4 0 2 0;
#X restore 341 78 pd getpads_lsb;
#X obj 347 165 r \$0-range_lsb;
#X obj 456 165 r \$0-range_msb;
#X obj 567 164 r \$0-range_npc;
#X obj 679 164 r \$0-range_ch;
#X obj 789 163 r \$0-range_type;
#X obj 20 421 s \$0-range_lsb;
#X obj 230 422 s \$0-range_msb;
#X obj 442 422 s \$0-range_npc;
#X obj 786 423 s \$0-range_type;
#X obj 357 215 r \$0-clrlst;
#X obj 464 214 r \$0-clrlst;
#X obj 577 215 r \$0-clrlst;
#X obj 687 216 r \$0-clrlst;
#X obj 798 217 r \$0-clrlst;
#X obj 232 31 s \$0-clrlst;
#X msg 786 399 get \$1 16;
#X obj 786 375 cpx_ci 16 64;
#X obj 20 303 until;
#X msg 20 282 4;
#X msg 653 398 get \$1 16;
#X obj 653 375 cpx_ci 16 64;
#X obj 653 422 s \$0-range_ch;
#X obj 20 345 t b b b b b, f 121;
#X msg 442 398 get \$1 16;
#X obj 442 375 cpx_ci 16 64;
#X msg 230 398 get \$1 16;
#X obj 231 375 cpx_ci 16 64;
#X msg 20 397 get \$1 16;
#X obj 20 374 cpx_ci 16 64;
#X msg 226 -23 bang;
#X obj 162 454 print MSG-GET-MSB;
#X obj 16 457 print MSG-GET-LSB;
#X obj 381 455 print MSG-GET-NPC;
#X obj 580 455 print MSG-GET-CHN;
#X obj 757 455 print MSG-GET-TPE;
#X obj 781 245 list store;
#X connect 0 0 3 0;
#X connect 2 1 17 0;
#X connect 2 2 14 0;
#X connect 2 3 9 0;
#X connect 2 4 6 0;
#X connect 2 5 4 0;
#X connect 3 1 36 0;
#X connect 3 3 2 0;
#X connect 3 4 32 0;
#X connect 4 0 5 0;
#X connect 5 0 53 0;
#X connect 6 0 8 0;
#X connect 7 0 1 0;
#X connect 8 0 7 0;
#X connect 9 0 11 0;
#X connect 10 0 1 0;
#X connect 11 0 10 0;
#X connect 12 0 1 0;
#X connect 13 0 12 0;
#X connect 14 0 13 0;
#X connect 15 0 1 0;
#X connect 16 0 15 0;
#X connect 17 0 16 0;
#X connect 18 0 15 0;
#X connect 19 0 12 0;
#X connect 20 0 10 0;
#X connect 21 0 7 0;
#X connect 22 0 53 0;
#X connect 27 0 15 1;
#X connect 27 0 46 1;
#X connect 28 0 12 1;
#X connect 28 0 44 1;
#X connect 29 0 10 1;
#X connect 29 0 42 1;
#X connect 30 0 7 1;
#X connect 30 0 38 1;
#X connect 31 0 34 1;
#X connect 31 0 53 1;
#X connect 33 0 26 0;
#X connect 33 0 52 0;
#X connect 34 0 33 0;
#X connect 35 0 40 0;
#X connect 36 0 35 0;
#X connect 37 0 39 0;
#X connect 37 0 51 0;
#X connect 38 0 37 0;
#X connect 40 0 46 0;
#X connect 40 1 44 0;
#X connect 40 2 42 0;
#X connect 40 3 38 0;
#X connect 40 4 34 0;
#X connect 41 0 25 0;
#X connect 41 0 50 0;
#X connect 42 0 41 0;
#X connect 43 0 24 0;
#X connect 43 0 48 0;
#X connect 44 0 43 0;
#X connect 45 0 23 0;
#X connect 45 0 49 0;
#X connect 46 0 45 0;
#X connect 47 0 3 0;
#X connect 53 0 1 0;
#X restore 362 246 pd list_pads;
#X obj 442 119 s \$0-bufferops;
#N canvas 0 50 1800 789 list_filler2 0;
#X obj 35 55 inlet;
#X obj 35 264 s \$0-sysexbuffer;
#X obj 125 136 until;
#X msg 125 104 76;
#X obj 124 188 list store;
#X msg 124 161 append 0;
#X obj 51 100 t b b b;
#X obj 50 219 list append 247;
#X text 213 168 IMPORTANT: always clear the list first (right bang
outlet);
#X connect 0 0 6 0;
#X connect 2 0 5 0;
#X connect 3 0 2 0;
#X connect 4 0 7 0;
#X connect 5 0 4 0;
#X connect 6 0 4 0;
#X connect 6 1 3 0;
#X connect 6 2 4 1;
#X connect 7 0 1 0;
#X restore 346 269 pd list_filler2;
#X msg 314 292 flush;
#X obj 314 315 s \$0-bufferops;
#X obj 330 75 bng 15 250 50 0 empty empty empty 17 7 0 10 -262144 -1
-1;
#X obj 458 73 s \$0-diss_receive;
#X connect 5 0 10 0;
#X connect 6 0 7 0;
#X connect 7 0 12 0;
#X connect 7 1 14 0;
#X connect 7 2 11 0;
#X connect 7 3 9 0;
#X connect 7 4 1 0;
#X connect 7 5 3 0;
#X connect 7 6 0 0;
#X connect 7 7 4 0;
#X connect 7 8 5 0;
#X connect 7 9 15 0;
#X connect 8 0 15 0;
#X connect 12 0 13 0;
#X restore 512 60 pd on_dump;
#N canvas -9 -9 1845 1028 on_load 0;
#X obj 15 10 loadbang;
#X text 80 10 on patch load \,;
#X text 21 80 (re)initialize everything;
#X obj 325 190 s \$0-setmidiport;
#X msg 325 164 1;
#X obj 15 40 t b b b, f 104;
#X obj 537 85 s \$0-diss_receive;
#X text 434 104 cycle the receive passthru on load;
#X text 416 119 (blocked by DUMP to prevent loopback);
#X msg 15 99 \; pd-data_padno clear \; pd-data_ccs2 clear \; pd-data_pads
clear \; pd-data_circletest clear \; struct_ccs2_init 6 \; struct_paddisp_init
6 \; struct_pads_init 64 \; struct_circletest_init 8 \;;
#X connect 0 0 5 0;
#X connect 4 0 3 0;
#X connect 5 0 9 0;
#X connect 5 1 4 0;
#X connect 5 2 6 0;
#X restore 512 39 pd on_load;
#N canvas -1929 81 1920 1028 on_receive 0;
#X obj 18 219 textfile;
#X msg 77 192 clear;
#X msg 18 193 add \$1;
#X obj 18 17 midiin;
#X floatatom 86 39 5 0 0 1 MIDI_IN_Port_number_(useful_to_get_for_sysex_dump)
- -;
#X obj 160 308 r \$0-sysexbufferin;
#X obj 18 308 s \$0-sysexbufferin;
#X obj 154 219 until;
#X text 23 357 PRESET;
#X text 23 340 BOILER;
#X text 141 339 1;
#X text 141 356 1;
#X text 114 390 5;
#X text 37 408 PADS;
#X text 80 407 16;
#X text 114 407 5;
#X text 141 406 4;
#X text 16 425 PADDING;
#X text 107 424 76;
#X text 44 442 EOX;
#X text 87 441 1;
#X text 87 356 1;
#X text 114 356 4;
#X obj 160 429 list store;
#X obj 18 171 spigot;
#X obj 57 150 tgl 15 0 empty empty empty 17 7 0 10 -262144 -1 -1 0
1;
#X obj 160 361 float;
#X msg 160 383 append \$1;
#X obj 177 407 r \$0-getrange;
#X obj 807 322 s \$0-getrange;
#X obj 160 451 s \$0-rangeout;
#X obj 807 345 r \$0-rangeout;
#X text 87 339 1;
#X text 114 339 7;
#X text 87 424 1;
#X text 16 374 PADDING;
#X text 107 373 20;
#X text 87 373 1;
#X obj 629 323 s \$0-getrange;
#X obj 629 346 r \$0-rangeout;
#X obj 451 324 s \$0-getrange;
#X obj 451 347 r \$0-rangeout;
#X text 80 390 14;
#X text 44 391 CCS;
#N canvas -1929 104 1920 1028 update_preset 0;
#X obj 424 20 inlet;
#X obj 804 170 list store;
#X obj 804 132 r \$0-getparam;
#X obj 804 215 s \$0-paramout;
#X obj 694 154 r \$0-paramout;
#X obj 695 132 s \$0-getparam;
#X obj 663 82 t b b;
#X obj 592 154 r \$0-paramout;
#X obj 593 132 s \$0-getparam;
#X obj 561 82 t b b;
#X obj 561 202 list tosymbol;
#X msg 695 109 get 0 1;
#X msg 593 109 get 1 8;
#X obj 561 179 list store;
#X obj 424 51 t b b b b l b, f 46;
#X obj 663 179 list store;
#X text 473 402 WARNING: DO NOT MIX GUI OBJECTS AND LIST STORE OBJECTS
;
#X obj 492 152 r \$0-paramout;
#X obj 493 130 s \$0-getparam;
#X obj 461 80 t b b;
#X obj 461 177 list store;
#X obj 389 152 r \$0-paramout;
#X obj 390 130 s \$0-getparam;
#X obj 358 80 t b b;
#X obj 358 177 list store;
#X msg 493 107 get 9 1;
#X msg 390 107 get 10 1;
#X text 464 305 WARNING: WATCH YOUR SUBPATCH SEND/RECEIVE IDs!;
#X obj 561 227 s \$0-pstname-in;
#X obj 663 202 s \$0-pstaddr-in;
#X obj 461 200 s \$0-pstbank-in;
#X obj 358 200 s \$0-psttrsp-in;
#X connect 0 0 14 0;
#X connect 1 0 3 0;
#X connect 2 0 1 0;
#X connect 4 0 15 1;
#X connect 6 0 15 0;
#X connect 6 1 11 0;
#X connect 7 0 13 1;
#X connect 9 0 13 0;
#X connect 9 1 12 0;
#X connect 10 0 28 0;
#X connect 11 0 5 0;
#X connect 12 0 8 0;
#X connect 13 0 10 0;
#X connect 14 0 23 0;
#X connect 14 1 19 0;
#X connect 14 2 9 0;
#X connect 14 3 6 0;
#X connect 14 4 1 1;
#X connect 14 5 1 1;
#X connect 15 0 29 0;
#X connect 17 0 20 1;
#X connect 19 0 20 0;
#X connect 19 1 25 0;
#X connect 20 0 30 0;
#X connect 21 0 24 1;
#X connect 23 0 24 0;
#X connect 23 1 26 0;
#X connect 24 0 31 0;
#X connect 25 0 18 0;
#X connect 26 0 22 0;
#X restore 733 406 pd update_preset;
#X obj 57 107 select 240 247;
#X obj 104 128 t b b;
#X msg 807 300 get 7 11;
#X obj 733 381 list store;
#X obj 152 133 bng 15 250 50 0 empty empty empty 17 7 0 10 -262144
-1 -1;
#X obj 18 39 t f f;
#X obj 57 128 t b b;
#X text 105 146 open data path only when 0xF0 seen \, close after F7
;
#X text 228 244 only when reaching EOF on read (bang);
#X obj 125 192 s \$0-clrinlist;
#X obj 242 382 r \$0-clrinlist;
#X text 185 346 ALWAYS CLEAR LIST STORE;
#X text 234 363 BEFORE APPEND!!!;
#N canvas -1929 104 1920 1028 update_ccs 0;
#X obj 620 2 inlet;
#X obj 393 229 list store;
#X text 14 -1 BANKS === KNOB | FADER || 2;
#X text 14 15 PARAMS == CHAN | CCN | VMIN | VMAX | INITPOS || 5;
#X text 14 30 PERBANK = 14;
#X text 741 54 BANK[PARAM[ITEMNO]];
#X text 776 69 (for pads its);
#X text 804 101 0 14 CHAN 14 14 CCN 28 14 VMIN 42 14 VMAX 56 14 INIT
;
#X text 783 85 PARAM[ITEMNO];
#X obj 492 485 cpx_structptri pd-data_ccs2 1;
#X obj 113 254 set template_circletest vmax vmin ccn chan, f 54;
#X obj 104 485 set template_ccs2 vmax vmin ccn chan, f 54;
#X msg 392 183 get \$1 1;
#X obj 303 229 list store;
#X msg 302 183 get \$1 1;
#X obj 206 231 list store;
#X msg 205 185 get \$1 1;
#X obj 113 226 list store;
#X msg 112 180 get \$1 1;
#X obj 208 112 t f b;
#X obj 301 112 t f b;
#X obj 393 112 t f b;
#X obj 113 109 t f b;
#X obj 200 63 until;
#X obj 114 63 cpx_ci 1 8;
#X obj 601 73 list store;
#X obj 113 87 t f f f f b f, f 67;
#X obj 564 51 r \$0-getccs;
#X obj 601 95 s \$0-ccsout;
#X obj 124 204 r \$0-ccsout;
#X obj 217 209 r \$0-ccsout;
#X obj 312 206 r \$0-ccsout;
#X obj 404 207 r \$0-ccsout;
#X obj 427 160 s \$0-getccs;
#X obj 335 159 s \$0-getccs;
#X obj 241 161 s \$0-getccs;
#X obj 147 157 s \$0-getccs;
#X text 513 232 (0 is "head" special pointer);
#X text 485 218 WARNING: POINTERS START FROM 1!!!;
#X msg 427 136 get 0 8;
#X msg 335 135 get 14 8;
#X msg 240 138 get 28 8;
#X msg 147 133 get 42 8;
#X obj 389 451 list store;
#X msg 388 405 get \$1 1;
#X obj 299 451 list store;
#X msg 298 405 get \$1 1;
#X obj 202 453 list store;
#X msg 201 407 get \$1 1;
#X obj 109 448 list store;
#X msg 108 402 get \$1 1;
#X obj 204 334 t f b;
#X obj 297 334 t f b;
#X obj 389 334 t f b;
#X obj 109 331 t f b;
#X obj 196 285 until;
#X obj 110 308 t f f f f b f, f 67;
#X obj 120 426 r \$0-ccsout;
#X obj 213 431 r \$0-ccsout;
#X obj 308 428 r \$0-ccsout;
#X obj 400 429 r \$0-ccsout;
#X obj 423 382 s \$0-getccs;
#X obj 331 381 s \$0-getccs;
#X obj 237 383 s \$0-getccs;
#X obj 143 379 s \$0-getccs;
#X obj 110 285 cpx_ci 1 6;
#X msg 423 358 get 8 6;
#X msg 331 357 get 22 6;
#X msg 236 358 get 36 6;
#X msg 143 355 get 50 6;
#X obj 498 254 cpx_structptri pd-data_circletest 1;
#X text 492 464 (0 is "head" special pointer);
#X text 464 450 WARNING: POINTERS START FROM 1!!!;
#X obj 620 25 t b b l b;
#X text 300 282 C O U L D B E S I M P L E R;
#X obj 740 229 + 1;
#X obj 704 457 + 1;
#X connect 0 0 73 0;
#X connect 1 0 10 3;
#X connect 9 0 11 4;
#X connect 12 0 1 0;
#X connect 13 0 10 2;
#X connect 14 0 13 0;
#X connect 15 0 10 1;
#X connect 16 0 15 0;
#X connect 17 0 10 0;
#X connect 18 0 17 0;
#X connect 19 0 16 0;
#X connect 19 1 41 0;
#X connect 20 0 14 0;
#X connect 20 1 40 0;
#X connect 21 0 12 0;
#X connect 21 1 39 0;
#X connect 22 0 18 0;
#X connect 22 1 42 0;
#X connect 23 0 24 0;
#X connect 24 0 26 0;
#X connect 24 1 23 1;
#X connect 25 0 28 0;
#X connect 26 0 22 0;
#X connect 26 1 19 0;
#X connect 26 2 20 0;
#X connect 26 3 21 0;
#X connect 26 4 70 0;
#X connect 26 5 75 0;
#X connect 27 0 25 0;
#X connect 29 0 17 1;
#X connect 30 0 15 1;
#X connect 31 0 13 1;
#X connect 32 0 1 1;
#X connect 39 0 33 0;
#X connect 40 0 34 0;
#X connect 41 0 35 0;
#X connect 42 0 36 0;
#X connect 43 0 11 3;
#X connect 44 0 43 0;
#X connect 45 0 11 2;
#X connect 46 0 45 0;
#X connect 47 0 11 1;
#X connect 48 0 47 0;
#X connect 49 0 11 0;
#X connect 50 0 49 0;
#X connect 51 0 48 0;
#X connect 51 1 68 0;
#X connect 52 0 46 0;
#X connect 52 1 67 0;
#X connect 53 0 44 0;
#X connect 53 1 66 0;
#X connect 54 0 50 0;
#X connect 54 1 69 0;
#X connect 55 0 65 0;
#X connect 56 0 54 0;
#X connect 56 1 51 0;
#X connect 56 2 52 0;
#X connect 56 3 53 0;
#X connect 56 4 9 0;
#X connect 56 5 76 0;
#X connect 57 0 49 1;
#X connect 58 0 47 1;
#X connect 59 0 45 1;
#X connect 60 0 43 1;
#X connect 65 0 56 0;
#X connect 65 1 55 1;
#X connect 66 0 61 0;
#X connect 67 0 62 0;
#X connect 68 0 63 0;
#X connect 69 0 64 0;
#X connect 70 0 10 4;
#X connect 73 0 23 0;
#X connect 73 1 55 0;
#X connect 73 2 25 1;
#X connect 73 3 25 1;
#X connect 75 0 70 1;
#X connect 76 0 9 1;
#X restore 557 406 pd update_ccs;
#X obj 559 381 list store;
#X text 141 389 1;
#X msg 451 302 get 108 320;
#X msg 629 301 get 38 70;
#X text 653 248 WARNING: LIST STORE INDEXING 0-based;
#X text 814 265 BE CONSISTENT;
#X text 739 298 +20 pad;
#X text 166 21 comment;
#X text 66 16 read sysex from device (device needs to send);
#X obj 362 273 t b b b b b b, f 64;
#X obj 378 382 list store;
#X obj 181 60 r \$0-diss_receive;
#X obj 57 81 spigot;
#X obj 180 84 t b b;
#X obj 228 84 delay 4000;
#X msg 228 110 1;
#X text 305 72 ___ this is to prevent a SysEx feedback loop that;
#X text 306 85 /``` probably occurs due to SELECT handling;
#X msg 181 110 0;
#X obj 32 135 bng 15 250 50 0 empty empty empty 17 7 0 10 -262144 -1
-1;
#N canvas -9 -9 1845 1028 update_pads 0;
#X obj 543 32 inlet;
#X obj 617 129 list store;
#X obj 635 434 cpx_structptri pd-data_pads 1;
#X obj 317 352 list store;
#X obj 190 259 s \$0-getpads;
#X obj 617 150 s \$0-padsout;
#X obj 251 304 r \$0-padsout;
#X obj 433 105 until;
#X text 80 43 set bank offset set param offset set item offset for
each item \, output param value;
#X obj 617 108 r \$0-getpads;
#X obj 99 238 print OFFSET;
#N canvas 185 100 767 683 get_param_offset 0;
#X obj 54 37 inlet;
#X obj 54 255 outlet;
#X obj 186 144 cpx_ci 1 4;
#X obj 186 173 * 80;
#X obj 54 172 + 0;
#X obj 54 220 + 0;
#X obj 117 108 cpx_ci 1 16;
#X obj 54 77 cpx_ci 16 80;
#X obj 170 40 inlet;
#X msg 170 62 0;
#X connect 0 0 7 0;
#X connect 2 0 3 0;
#X connect 3 0 5 1;
#X connect 4 0 5 0;
#X connect 5 0 1 0;
#X connect 6 0 4 1;
#X connect 6 1 2 0;
#X connect 7 0 4 0;
#X connect 7 1 6 0;
#X connect 8 0 9 0;
#X connect 9 0 7 1;
#X connect 9 0 6 1;
#X connect 9 0 2 1;
#X restore 190 213 pd get_param_offset;
#X obj 266 145 t b b b, f 44;
#X msg 466 24 bang;
#X obj 266 176 cpx_ci 1 5;
#X obj 323 250 t b b;
#X obj 317 381 unpack f f f f f, f 43;
#X msg 190 237 get \$1 1;
#X obj 635 315 / 5;
#X obj 635 292 cpx_ci 5 320;
#X msg 350 276 get 0 5;
#X obj 635 371 t b f;
#X obj 323 199 t b b;
#X msg 251 326 append \$1;
#X obj 543 61 t b b l, f 22;
#X floatatom 833 434 5 0 0 0 - - -;
#X msg 433 82 320;
#X obj 582 438 * 111;
#X obj 582 460 + 555;
#X obj 582 417 - 2;
#X obj 320 482 set template_pads type ch noteprogcc triggermsb atlsb
gfxpadcol;
#X obj 806 409 + 1;
#X connect 0 0 24 0;
#X connect 1 0 5 0;
#X connect 2 0 30 6;
#X connect 3 0 16 0;
#X connect 6 0 23 0;
#X connect 7 0 12 0;
#X connect 9 0 1 0;
#X connect 11 0 10 0;
#X connect 11 0 17 0;
#X connect 12 0 14 0;
#X connect 13 0 24 0;
#X connect 14 0 11 0;
#X connect 14 1 22 0;
#X connect 15 0 3 1;
#X connect 15 1 20 0;
#X connect 16 0 29 0;
#X connect 16 0 30 0;
#X connect 16 1 30 1;
#X connect 16 2 30 2;
#X connect 16 3 30 3;
#X connect 16 4 30 4;
#X connect 17 0 4 0;
#X connect 18 0 21 0;
#X connect 19 0 18 0;
#X connect 20 0 3 0;
#X connect 21 0 2 0;
#X connect 21 1 31 0;
#X connect 22 0 15 0;
#X connect 22 1 19 0;
#X connect 23 0 3 0;
#X connect 24 0 26 0;
#X connect 24 1 19 1;
#X connect 24 1 11 1;
#X connect 24 2 1 1;
#X connect 26 0 7 0;
#X connect 27 0 28 0;
#X connect 28 0 30 5;
#X connect 29 0 27 0;
#X connect 31 0 2 1;
#X connect 31 0 25 0;
#X restore 377 429 pd update_pads;
#X connect 0 0 6 0;
#X connect 0 1 7 1;
#X connect 0 1 68 0;
#X connect 1 0 0 0;
#X connect 2 0 0 0;
#X connect 3 0 50 0;
#X connect 3 1 4 0;
#X connect 5 0 26 0;
#X connect 7 0 0 0;
#X connect 23 0 30 0;
#X connect 24 0 2 0;
#X connect 25 0 24 1;
#X connect 26 0 27 0;
#X connect 27 0 23 0;
#X connect 28 0 23 0;
#X connect 31 0 48 1;
#X connect 39 0 59 1;
#X connect 41 0 69 1;
#X connect 45 0 51 0;
#X connect 45 0 78 0;
#X connect 45 1 46 0;
#X connect 45 2 49 0;
#X connect 46 0 25 0;
#X connect 46 1 7 0;
#X connect 47 0 29 0;
#X connect 48 0 44 0;
#X connect 50 0 24 0;
#X connect 50 1 71 0;
#X connect 51 0 25 0;
#X connect 51 1 1 0;
#X connect 51 1 54 0;
#X connect 55 0 23 1;
#X connect 59 0 58 0;
#X connect 61 0 40 0;
#X connect 62 0 38 0;
#X connect 68 0 69 0;
#X connect 68 1 61 0;
#X connect 68 2 59 0;
#X connect 68 3 62 0;
#X connect 68 4 48 0;
#X connect 68 5 47 0;
#X connect 69 0 79 0;
#X connect 70 0 72 0;
#X connect 71 0 45 0;
#X connect 72 0 77 0;
#X connect 72 1 73 0;
#X connect 73 0 74 0;
#X connect 74 0 71 1;
#X connect 77 0 71 1;
#X restore 512 81 pd on_receive;
#X text 508 156 Data structures:;
#X text 509 17 Subprocedures:;
#N canvas -1929 104 1920 1028 on_preview 0;
#X obj 19 13 r \$0-preview_file_bang;
#X msg 19 35 preview;
#X obj 19 57 s \$0-bufferops;
#X connect 0 0 1 0;
#X connect 1 0 2 0;
#X restore 512 102 pd on_preview;
#N canvas -1929 104 1920 1028 buffer_ops 0;
#X obj 17 207 midiout;
#X obj 20 16 r \$0-sysexbuffer;
#X obj 20 40 cpx_list2file;
#X obj 141 16 r \$0-bufferops;
#X obj 20 137 spigot;
#X obj 58 114 r \$0-sysexbool;
#X obj 42 90 s \$0-mpd24sysex_debug;
#X msg 41 66 printsysex;
#X obj 78 137 r \$0-setmidiport;
#X text 81 207 not so obvious \, but this object;
#X text 81 224 must convert any data to binary;
#X obj 101 382 s \$0-latch_indicator_strip;
#X obj 102 291 select 1;
#X text 493 289 ╔══╗═╝╚═╬═╦═╩ ║;
#X text 561 178 ▀▄█▌▐░▒▓■▌;
#X msg 102 324 label ═══☑═════════════──═
;
#X msg 101 353 label ═══☑═════════════╛╒═
;
#X connect 1 0 2 0;
#X connect 2 0 4 0;
#X connect 2 0 7 0;
#X connect 3 0 2 1;
#X connect 4 0 0 0;
#X connect 5 0 4 1;
#X connect 5 0 12 0;
#X connect 7 0 6 0;
#X connect 8 0 0 1;
#X connect 12 0 15 0;
#X connect 12 1 16 0;
#X connect 15 0 11 0;
#X connect 16 0 11 0;
#X restore 512 123 pd buffer_ops;
#X text 598 39 When this patch/subpatch loads;
#X text 618 81 When receiving incoming MIDI (check port!);
#X text 618 102 Memory buffer preview (mostly for debug);
#X text 598 60 When data gets written to output buffer;
#X text 618 124 Various operations on output buffer;
#X text 659 199 Preset encapsulation for pads;
#X text 659 220 Preset encapsulation for knobs;
#X text 659 241 Preset encapsulation for faders;
#X text 659 178 Light blue display encapsulation;
#X text 39 261 NOTE: Technical limitations allow numbers to go out
of range;
#X text 18 278 but their values shall be clipped before storing to
0 < x < 128, f 63;
#X text 508 268 Click to open these subpatches \, but beware;
#X text 508 286 all ye who entreth...;
#X obj 213 60 cnv 8 172 14 empty \$0-latch_indicator_strip ═══☑═════════════──═
0 7 0 14 -191407 -1 0;
#X text 172 295 (todo - add clipping to all data patches);
#X text 569 334 TODO: now were cooking with gas \; cockpit sim!!!,
f 33;
#X text 587 417 This is a comment with \; new \; lines;
#X text 22 334 IMPORTANT: PRESET THAT IS SENT TO WILL NOT \; REFRESH
IF IT IS ACTIVE \, BUT A SIMPLE [ENTER] PRESS \; WILL RELOAD IT (device
behavior by design) \; add. This seems to be a constant \; if it doesn't
\, it ain't right;
#X obj 117 77 cnv 15 87 87 empty empty empty 20 12 0 14 -2112 -66577
0;
#X obj 27 167 cnv 15 87 87 empty empty empty 20 12 0 14 -4065 -66577
0;
#X obj 117 167 cnv 15 87 87 empty empty empty 20 12 0 14 -262113 -66577
0;
#N canvas -9 -9 1845 1028 data_padno 0;
#X scalar template_padno 0 0 0 0 CHN \;;
#X coords 0 0 110 128 110 128 2 100 100;
#X restore 213 76 pd data_padno;
#N canvas -9 -9 1845 1028 data_pads 0;
#X scalar template_pads 2 0 80 0 2 0 0 84 555 555 0 1 0 0 0 \;;
#X scalar template_pads 2 0 80 0 2 0 0 0 555 555 0 1 0 0 0 \;;
#X scalar template_pads 2 0 80 0 2 0 12 0 555 555 0 1 0 0 0 \;;
#X scalar template_pads 2 0 80 0 2 0 24 0 555 555 0 1 0 0 0 \;;
#X scalar template_pads 2 0 80 0 2 0 36 0 555 555 0 1 0 0 0 \;;
#X scalar template_pads 2 0 80 0 2 0 0 12 555 555 0 1 0 0 0 \;;
#X scalar template_pads 2 0 80 0 2 0 12 12 555 555 0 1 0 0 0 \;;
#X scalar template_pads 2 117 80 0 2 0 24 12 555 555 0 1 0 0 0 \;;
#X scalar template_pads 2 102 80 0 2 0 36 12 555 500 0 1 0 0 0 \;;
#X scalar template_pads 2 0 80 0 2 0 0 24 555 555 0 1 0 0 0 \;;
#X scalar template_pads 2 0 80 0 2 0 12 24 555 555 0 1 0 0 0 \;;
#X scalar template_pads 2 0 80 0 2 0 24 24 555 555 0 1 0 0 0 \;;
#X scalar template_pads 2 0 80 0 2 0 36 24 555 555 0 1 0 0 0 \;;
#X scalar template_pads 2 0 80 0 2 0 0 36 555 555 0 1 0 0 0 \;;
#X scalar template_pads 2 0 80 0 2 0 12 36 555 555 0 1 0 0 0 \;;
#X scalar template_pads 2 0 80 0 2 0 24 36 555 555 0 1 0 0 0 \;;
#X scalar template_pads 2 0 80 0 2 0 36 36 555 555 0 1 0 0 0 \;;
#X scalar template_pads 2 0 80 0 2 0 48 0 555 555 0 1 0 0 0 \;;
#X scalar template_pads 2 0 80 0 2 0 60 0 555 555 0 1 0 0 0 \;;
#X scalar template_pads 2 0 80 0 2 0 72 0 555 555 0 1 0 0 0 \;;
#X scalar template_pads 2 0 80 0 2 0 84 0 555 555 0 1 0 0 0 \;;
#X scalar template_pads 2 0 80 0 2 0 48 12 555 555 0 1 0 0 0 \;;
#X scalar template_pads 2 0 80 0 2 0 60 12 555 555 0 1 0 0 0 \;;
#X scalar template_pads 2 0 80 0 2 0 72 12 555 555 0 1 0 0 0 \;;
#X scalar template_pads 2 0 80 0 2 0 84 12 555 555 0 1 0 0 0 \;;
#X scalar template_pads 2 0 80 0 2 0 48 24 555 555 0 1 0 0 0 \;;
#X scalar template_pads 2 0 80 0 2 0 60 24 555 555 0 1 0 0 0 \;;
#X scalar template_pads 2 0 80 0 2 0 72 24 555 555 0 1 0 0 0 \;;
#X scalar template_pads 2 0 80 0 2 0 84 24 555 555 0 1 0 0 0 \;;
#X scalar template_pads 2 0 80 0 2 0 48 36 555 555 0 1 0 0 0 \;;
#X scalar template_pads 2 0 80 0 2 0 60 36 555 555 0 1 0 0 0 \;;
#X scalar template_pads 2 0 80 0 2 0 72 36 555 555 0 1 0 0 0 \;;
#X scalar template_pads 2 101 80 0 2 0 84 36 555 555 0 1 0 0 0 \;;
#X scalar template_pads 2 0 80 0 2 0 0 48 555 555 0 1 0 0 0 \;;
#X scalar template_pads 2 0 80 0 2 0 12 48 555 555 0 1 0 0 0 \;;
#X scalar template_pads 2 0 80 0 2 0 24 48 555 555 0 1 0 0 0 \;;
#X scalar template_pads 2 0 80 0 2 0 36 48 555 555 0 1 0 0 0 \;;
#X scalar template_pads 2 0 80 0 2 0 0 60 555 555 0 1 0 0 0 \;;
#X scalar template_pads 2 0 80 0 2 0 12 60 555 555 0 1 0 0 0 \;;
#X scalar template_pads 2 0 80 0 2 0 24 60 555 555 0 1 0 0 0 \;;
#X scalar template_pads 2 0 80 0 2 0 36 60 555 555 0 1 0 0 0 \;;
#X scalar template_pads 2 0 80 0 2 0 0 72 555 555 0 1 0 0 0 \;;
#X scalar template_pads 2 0 80 0 2 0 12 72 555 555 0 1 0 0 0 \;;
#X scalar template_pads 2 0 80 0 2 0 24 72 555 555 0 1 0 0 0 \;;
#X scalar template_pads 2 0 80 0 2 0 36 72 555 555 0 1 0 0 0 \;;
#X scalar template_pads 2 0 80 0 2 0 0 84 555 555 0 1 0 0 0 \;;
#X scalar template_pads 2 0 80 0 2 0 12 84 555 555 0 1 0 0 0 \;;
#X scalar template_pads 2 0 80 0 2 0 24 84 555 555 0 1 0 0 0 \;;
#X scalar template_pads 2 0 80 0 2 0 36 84 555 555 0 1 0 0 0 \;;
#X scalar template_pads 2 0 80 0 2 0 48 48 555 555 0 1 0 0 0 \;;
#X scalar template_pads 2 0 80 0 2 0 60 48 555 555 0 1 0 0 0 \;;
#X scalar template_pads 2 0 80 0 2 0 72 48 555 555 0 1 0 0 0 \;;
#X scalar template_pads 2 0 80 0 2 0 84 48 555 555 0 1 0 0 0 \;;
#X scalar template_pads 2 0 80 0 2 0 48 60 555 555 0 1 0 0 0 \;;
#X scalar template_pads 2 0 80 0 2 0 60 60 555 555 0 1 0 0 0 \;;
#X scalar template_pads 2 0 80 0 2 0 72 60 555 555 0 1 0 0 0 \;;
#X scalar template_pads 2 0 80 0 2 0 84 60 555 555 0 1 0 0 0 \;;
#X scalar template_pads 2 0 80 0 2 0 48 72 555 555 0 1 0 0 0 \;;
#X scalar template_pads 2 0 80 0 1 0 60 72 555 555 0 1 0 0 0 \;;
#X scalar template_pads 2 0 80 0 2 0 72 72 555 555 0 1 0 0 0 \;;
#X scalar template_pads 2 0 80 0 2 0 84 72 555 555 0 1 0 0 0 \;;
#X scalar template_pads 2 0 80 0 1 0 48 84 555 555 0 1 0 0 0 \;;
#X scalar template_pads 2 0 80 0 2 0 60 84 555 555 0 1 0 0 0 \;;
#X scalar template_pads 2 0 80 0 2 0 72 84 555 555 0 1 0 0 0 \;;
#X scalar template_pads 2 0 80 0 2 0 84 84 555 500 0 0 1 0 0 \;;
#X coords 0 0 96 96 180 180 2 0 0;
#X restore 26 76 pd data_pads;
#X coords 0 -1 1 1 480 240 2 20 20;
#X restore 10 9 pd sequence_list;
#N canvas -9 -9 1845 1028 read_live_ucs_data 0;
#X floatatom 648 96 5 0 0 0 - - -;
#X obj 600 31 ctlin;
#X obj 616 69 t b f;
#N canvas 94 147 1272 536 template_ucs_pads 0;
#N canvas 0 50 450 300 struct_get 0;
#X restore 462 132 pd struct_get;
#N canvas -9 -9 1845 1028 struct_assign 0;
#X restore 462 155 pd struct_assign;
#N canvas -1929 104 1920 1028 struct_innit 0;
#X obj 223 295 cpx_structptr0 pd-data_ucs_pads;
#X obj 23 11 r ucs_pads_init;
#X obj 23 161 until;
#X obj 23 336 append ucs_pads x y pnn pchan;
#X obj 23 263 pack f f -1 -1;
#X obj 23 109 t f b;
#X obj 146 229 cpx_ci 32 128;
#X obj 23 202 cpx_ci 32 128;
#X connect 0 0 3 4;
#X connect 1 0 5 0;
#X connect 2 0 7 0;
#X connect 4 0 3 0;
#X connect 5 0 2 0;
#X connect 5 1 0 0;
#X connect 6 0 4 1;
#X connect 7 0 4 0;
#X connect 7 1 6 0;
#X restore 462 177 pd struct_innit;
#X obj 91 43 struct ucs_pads float x float y float pnn float pchan
;
#X obj 145 146 drawpolygon 222 1 2 2 30 2 30 30 2 30 2 2;
#X obj 145 124 drawnumber pnn 2 2 222;
#X obj 145 102 drawnumber pchan 2 18 222;
#X restore 155 127 pd template_ucs_pads;
#N canvas 0 50 986 609 template_ucs_device_ctrl 0;
#N canvas 0 50 450 300 struct_get 0;
#X restore 210 98 pd struct_get;
#N canvas -9 -9 1845 1028 struct_assign 0;
#X restore 210 121 pd struct_assign;
#N canvas -1929 104 1920 1028 struct_innit 0;
#X obj 23 161 until;
#X obj 23 109 t f b;
#X obj 23 11 r ucs_device_init;
#X obj 244 295 cpx_structptr0 pd-data_ucs_device_ctrl;
#X obj 23 336 append ucs_device x y eccn echan;
#X obj 23 263 pack f f -1 -1;
#X obj 146 229 cpx_ci 24 48;
#X obj 23 202 cpx_ci 32 128;
#X connect 0 0 7 0;
#X connect 1 0 0 0;
#X connect 1 1 3 0;
#X connect 2 0 1 0;
#X connect 3 0 4 4;
#X connect 5 0 4 0;
#X connect 6 0 5 1;
#X connect 7 0 5 0;
#X connect 7 1 6 0;
#X restore 210 143 pd struct_innit;
#X obj 25 27 struct ucs_device float x float y float eccn float echan
, f 38;
#X obj 41 229 drawpolygon 222 1 1 1 31 1 31 23 1 23 1 1;
#X obj 41 201 drawnumber eccn 2 1 222;
#X obj 39 179 drawnumber echan 2 11 222;
#X restore 155 291 pd template_ucs_device_ctrl;
#N canvas -1929 104 1920 1028 template_ucs_mixer_ctrl 0;
#N canvas 0 50 450 300 struct_get 0;
#X restore 210 98 pd struct_get;
#N canvas -9 -9 1845 1028 struct_assign 0;
#X restore 210 121 pd struct_assign;
#N canvas -1929 104 1920 1028 struct_innit 0;
#X obj 23 161 until;
#X obj 23 109 t f b;
#X obj 518 285 cpx_structptr0 pd-data_ucs_mixer_ctrl;
#X obj 23 11 r ucs_mixer_init;
#X obj 23 263 pack f f -1 -1 -1 -1 -1;
#X obj 23 336 append ucs_mixer x y fvolccn fvolchn psnd1ccn psnd2ccn
barmccn, f 71;
#X obj 146 229 cpx_ci 16 16;
#X obj 23 202 cpx_ci 16 128;
#X connect 0 0 7 0;
#X connect 1 0 0 0;
#X connect 1 1 2 0;
#X connect 2 0 5 7;
#X connect 3 0 1 0;
#X connect 4 0 5 0;
#X connect 6 0 4 1;
#X connect 7 0 4 0;
#X connect 7 1 6 0;
#X restore 210 143 pd struct_innit;
#X obj 35 303 drawnumber fvolchn 2 1 222;
#X obj 25 27 struct ucs_mixer float x float y float fvolccn float fvolchn
float psnd1ccn float psnd2ccn float barmccn, f 38;
#X obj 436 260 drawpolygon 222 1 1 1 15 1 15 31 1 31 1 1;
#X obj 33 405 drawnumber barmccn 2 88 222;
#X obj 35 324 drawnumber fvolccn 2 18 222;
#X obj 34 345 drawnumber psnd1ccn 2 48 222;
#X obj 35 368 drawnumber psnd2ccn 2 64 222;
#X obj 436 281 drawcurve 222 1 1 48 16 48 16 64 1 64 1 48;
#X obj 436 302 drawcurve 222 1 1 64 16 64 16 80 1 80 1 64;
#X obj 436 240 drawpolygon 222 1 1 88 15 88 15 103 1 103 1 88;
#X restore 155 341 pd template_ucs_mixer_ctrl;
#N canvas -9 -9 1845 1028 template_ucs_transport_ctrl 0;
#N canvas 0 50 450 300 struct_get 0;
#X restore 210 98 pd struct_get;
#N canvas -9 -9 1845 1028 struct_assign 0;
#X restore 210 121 pd struct_assign;
#N canvas -1929 104 1920 1028 struct_innit 0;
#X obj 23 161 until;
#X obj 23 109 t f b;
#X obj 23 11 r ucs_transport_init;
#X obj 433 283 cpx_structptr0 pd-data_ucs_transport_ctrl;
#X obj 23 336 append ucs_transport x y bstopccn bplayccn brecccn bloopccn
brwdccn bfwdccn;
#X obj 23 263 pack f f -1 -1 -1 -1 -1 -1;
#X obj 146 229 cpx_ci 16 32;
#X obj 23 202 cpx_ci 32 128;
#X connect 0 0 7 0;
#X connect 1 0 0 0;
#X connect 1 1 3 0;
#X connect 2 0 1 0;
#X connect 3 0 4 8;
#X connect 5 0 4 0;
#X connect 6 0 5 1;
#X connect 7 0 5 0;
#X connect 7 1 6 0;
#X restore 210 143 pd struct_innit;
#X obj 32 203 drawpolygon 222 1 1 1 31 1 31 15 1 15 1 1;
#X obj 24 10 struct ucs_transport float x float y float bstopccn float
bplayccn float brecccn float bloopccn float brwdccn float bfwdccn,
f 123;
#X obj 32 254 drawnumber bstopccn 2 2 222;
#X obj 34 281 drawnumber bplayccn 2 2 222;
#X obj 31 310 drawnumber brecccn 2 2 222;
#X obj 33 341 drawnumber bloopccn 2 2 222;
#X obj 46 382 drawnumber brwdccn 2 2 222;
#X obj 42 415 drawnumber bfwdccn 2 2 222;
#X restore 155 471 pd template_ucs_transport_ctrl;
#N canvas 133 153 1315 693 data_ucs_globals 0;
#X scalar ucs_globals 37 0 0 0 0 0 \;;
#X coords 0 0 128 16 128 16 2 100 100;
#X restore 25 59 pd data_ucs_globals;
#N canvas 0 50 1032 636 data_ucs_pads 0;
#X scalar ucs_pads 0 0 0 -1 \;;
#X scalar ucs_pads 32 0 -1 -1 \;;
#X scalar ucs_pads 64 0 -1 -1 \;;
#X scalar ucs_pads 96 0 -1 -1 \;;
#X scalar ucs_pads 0 32 -1 -1 \;;
#X scalar ucs_pads 32 32 -1 -1 \;;
#X scalar ucs_pads 64 32 -1 -1 \;;
#X scalar ucs_pads 96 32 -1 -1 \;;
#X scalar ucs_pads 0 64 -1 -1 \;;
#X scalar ucs_pads 32 64 -1 -1 \;;
#X scalar ucs_pads 64 64 -1 -1 \;;
#X scalar ucs_pads 96 64 -1 -1 \;;
#X scalar ucs_pads 0 96 -1 -1 \;;
#X scalar ucs_pads 32 96 -1 -1 \;;
#X scalar ucs_pads 64 96 -1 -1 \;;
#X scalar ucs_pads 96 96 -1 -1 \;;
#X coords 0 0 128 128 128 128 2 0 0;
#X restore 25 127 pd data_ucs_pads;
#N canvas 0 50 450 300 data_ucs_device_ctrl 0;
#X scalar ucs_device 0 0 -1 -1 \;;
#X scalar ucs_device 32 0 -1 -1 \;;
#X scalar ucs_device 64 0 -1 -1 \;;
#X scalar ucs_device 96 0 -1 -1 \;;
#X scalar ucs_device 0 24 -1 -1 \;;
#X scalar ucs_device 32 24 -1 -1 \;;
#X scalar ucs_device 64 24 -1 -1 \;;
#X scalar ucs_device 96 24 -1 -1 \;;
#X coords 0 0 128 48 128 48 2 100 100;
#X restore 25 291 pd data_ucs_device_ctrl;
#N canvas 0 50 450 300 data_ucs_mixer_ctrl 0;
#X scalar ucs_mixer 0 0 -1 -1 92 -1 -1 \;;
#X scalar ucs_mixer 16 0 -1 -1 -1 -1 -1 \;;
#X scalar ucs_mixer 32 0 -1 -1 -1 -1 -1 \;;
#X scalar ucs_mixer 48 0 -1 -1 66 -1 -1 \;;
#X scalar ucs_mixer 64 0 -1 -1 -1 -1 -1 \;;
#X scalar ucs_mixer 80 0 -1 -1 -1 -1 -1 \;;
#X scalar ucs_mixer 96 0 -1 -1 -1 -1 -1 \;;
#X scalar ucs_mixer 112 0 -1 -1 -1 -1 -1 \;;
#X coords 0 0 128 128 128 128 2 100 100;
#X restore 25 341 pd data_ucs_mixer_ctrl;
#N canvas -9 -9 1845 1028 template_ucs_globals 0;
#N canvas 0 50 450 300 struct_get 0;
#X restore 462 132 pd struct_get;
#N canvas -9 -9 1845 1028 struct_assign 0;
#X restore 462 155 pd struct_assign;
#N canvas -9 -9 1845 1028 struct_innit 0;
#X obj 188 212 cpx_structptr0 pd-data_ucs_globals;
#X obj 20 11 r ucs_globals_init;
#X obj 23 250 append ucs_globals gchan;
#X obj 20 46 t f b;
#X connect 0 0 2 1;
#X connect 1 0 3 0;
#X connect 3 0 2 0;
#X connect 3 1 0 0;
#X restore 462 177 pd struct_innit;
#X obj 224 273 drawnumber gchan 2 2 222 CHANNEL\ ;
#X obj 78 71 struct ucs_globals float gchan float bankncc float bankpcc
float surfacelockcc float slidermastercc float slidermasterch;
#X restore 155 59 pd template_ucs_globals;
#X symbolatom 433 169 18 0 0 0 - - -;
#X floatatom 433 104 5 1 16 0 - - -;
#X obj 433 125 - 1;
#X msg 433 15 bang;
#X obj 433 147 t b f;
#N canvas -1351 260 1137 592 template_ucs_banksel 0;
#N canvas 0 50 450 300 struct_get 0;
#X restore 210 98 pd struct_get;
#N canvas -9 -9 1845 1028 struct_assign 0;
#X restore 210 121 pd struct_assign;
#N canvas -1929 104 1920 1028 struct_innit 0;
#X obj 23 161 until;
#X obj 23 109 t f b;
#X obj 23 11 r ucs_banksel_init;
#X obj 223 295 cpx_structptr0 pd-data_ucs_banksel;
#X obj 23 263 pack f f -1;
#X obj 23 336 append ucs_banksel x y bccn;
#X obj 146 229 cpx_ci 16 32;
#X obj 23 202 cpx_ci 32 128;
#X connect 0 0 7 0;
#X connect 1 0 0 0;
#X connect 1 1 3 0;
#X connect 2 0 1 0;
#X connect 3 0 5 3;
#X connect 4 0 5 0;
#X connect 6 0 4 1;
#X connect 7 0 4 0;
#X connect 7 1 6 0;
#X restore 210 143 pd struct_innit;
#X obj 26 25 struct ucs_banksel float x float y float bccn;
#X obj 32 203 drawpolygon 222 1 1 1 31 1 31 15 1 15 1 1;
#X obj 32 180 drawnumber bccn 2 2 222;
#X restore 155 257 pd template_ucs_banksel;
#N canvas 0 50 450 300 data_ucs_banksel 0;
#X scalar ucs_banksel 0 0 -1 \;;
#X scalar ucs_banksel 32 0 -1 \;;
#X scalar ucs_banksel 64 0 -1 \;;
#X scalar ucs_banksel 96 0 -1 \;;
#X scalar ucs_banksel 0 16 -1 \;;
#X scalar ucs_banksel 32 16 -1 \;;
#X scalar ucs_banksel 64 16 -1 \;;
#X scalar ucs_banksel 96 16 -1 \;;
#X coords 0 0 128 32 128 32 2 100 100;
#X restore 25 257 pd data_ucs_banksel;
#N canvas -9 -9 1845 1028 ucs_serialize 0;
#N canvas 596 89 1094 624 write_out_file 0;
#X obj 37 156 textfile;
#X msg 138 75 write \$1 cr;
#X msg 138 49 symbol ../data/livesurfaceOUTtest.txt;
#X obj 137 23 inlet;
#X obj 36 23 inlet;
#X connect 1 0 0 0;
#X connect 2 0 1 0;
#X connect 3 0 2 0;
#X connect 4 0 0 0;
#X restore 142 390 pd write_out_file;
#N canvas 0 50 1032 696 edit_in_file 0;
#X obj 51 144 textfile;
#X symbolatom 51 209 32 0 0 0 - - -;
#X obj 51 171 unpack s f;
#X obj 51 233 pack s f;
#X msg 153 82 read \$1 cr;
#X msg 153 62 symbol ../data/UserConfigurationSource.txt;
#X obj 51 290 outlet;
#X obj 153 42 inlet;
#X obj 51 42 inlet;
#X obj 138 290 outlet;
#X obj 221 290 outlet;
#X obj 106 42 inlet;
#X connect 0 0 2 0;
#X connect 1 0 3 0;
#X connect 1 0 9 0;
#X connect 2 0 1 0;
#X connect 2 1 10 0;
#X connect 3 0 6 0;
#X connect 4 0 0 0;
#X connect 5 0 4 0;
#X connect 7 0 5 0;
#X connect 8 0 0 0;
#X connect 11 0 3 1;
#X restore 200 269 pd edit_in_file;
#X msg 373 184 load;
#X obj 278 210 float 0;
#X msg 207 246 rewind;
#X obj 199 181 t b b;
#X obj 373 208 t b b;
#X msg 149 366 add \$1 \$2;
#X msg 142 270 clear;
#X obj 199 159 r \$0-setnextparam;
#X obj 324 159 r \$0-setucsvalue;
#X obj 142 14 inlet;
#X obj 190 36 symbol;
#X obj 142 36 t b s;
#X obj 142 59 symbol;
#X obj 142 83 select opencreate flush load, f 50;
#X connect 1 0 7 0;
#X connect 2 0 6 0;
#X connect 3 0 1 1;
#X connect 4 0 1 0;
#X connect 5 0 1 0;
#X connect 5 1 3 0;
#X connect 6 0 4 0;
#X connect 6 1 1 2;
#X connect 7 0 0 0;
#X connect 8 0 0 0;
#X connect 9 0 5 0;
#X connect 10 0 3 1;
#X connect 11 0 13 0;
#X connect 12 0 14 1;
#X connect 13 0 14 0;
#X connect 13 1 12 0;
#X connect 14 0 15 0;
#X connect 15 0 8 0;
#X connect 15 1 0 1;
#X connect 15 2 2 0;
#X restore 732 114 pd ucs_serialize;
#X msg 741 44 opencreate;
#X msg 748 67 flush;
#X msg 732 21 load;
#X obj 732 90 symbol;
#N canvas 0 50 450 300 data_ucs_transport_ctrl 0;
#X scalar ucs_transport 0 0 -1 -1 -1 -1 -1 -1 \;;
#X scalar ucs_transport 32 0 -1 -1 -1 -1 -1 -1 \;;
#X scalar ucs_transport 64 0 -1 -1 -1 -1 -1 -1 \;;
#X scalar ucs_transport 96 0 -1 -1 -1 -1 -1 -1 \;;
#X scalar ucs_transport 0 16 -1 -1 -1 -1 -1 -1 \;;
#X scalar ucs_transport 32 16 -1 -1 -1 -1 -1 -1 \;;
#X coords 0 0 128 32 128 32 2 100 100;
#X restore 25 471 pd data_ucs_transport_ctrl;
#N canvas -9 -9 1845 1028 template_ucs_symbol_values 0;
#N canvas 177 274 1461 654 struct_assign 0;
#X obj 413 188 cpx_structptri pd-data_ucs_symbol_values 1;
#X obj 31 229 set -symbol ucs_symbols sportn mvolmap msendmap mencmap
;
#X obj 164 91 t l b;
#X obj 164 128 unpack s s s s;
#X obj 164 60 r ucs_symbols_setglobalstr;
#X connect 0 0 1 4;
#X connect 2 0 3 0;
#X connect 2 1 0 0;
#X connect 3 0 1 0;
#X connect 3 1 1 1;
#X connect 3 2 1 2;
#X connect 3 3 1 3;
#X connect 4 0 2 0;
#X restore 134 160 pd struct_assign;
#N canvas 0 50 450 300 struct_get 0;
#X restore 134 139 pd struct_get;
#N canvas -9 -9 1845 1028 struct_innit 0;
#X obj 20 46 t f b;
#X obj 20 11 r ucs_symbols_init;
#X obj 175 212 cpx_structptr0 pd-data_ucs_symbol_values;
#X obj 24 252 append ucs_symbols x y;
#X obj 20 130 until;
#X msg 23 161 2 14;
#X connect 0 0 4 0;
#X connect 0 1 2 0;
#X connect 1 0 0 0;
#X connect 2 0 3 2;
#X connect 4 0 5 0;
#X connect 5 0 3 0;
#X restore 134 181 pd struct_innit;
#X obj 36 18 struct ucs_symbols float x float y symbol sportn symbol
mvolmap symbol msendmap symbol mencmap, f 35;
#X restore 155 78 pd template_ucs_symbol_values;
#N canvas 1050 187 450 300 data_ucs_symbol_values 0;
#X scalar ucs_symbols 2 14 symbol    \;;
#X coords 0 0 128 64 128 48 2 100 100;
#X restore 25 77 pd data_ucs_symbol_values;
#X obj 433 190 pack s s s s f;
#X msg 433 238 \; pd-data_ucs_globals clear \; pd-data_ucs_pads clear
\; pd-data_ucs_banksel clear \; pd-data_ucs_device_ctrl clear \; pd-data_ucs_mixer_ctrl
clear \; pd-data_ucs_transport_ctrl clear \; pd-data_ucs_symbol_values
clear \; ucs_globals_init \$5 \; ucs_symbols_init 1 \; ucs_pads_init
16 \; ucs_banksel_init 8 \; ucs_device_init 8 \; ucs_mixer_init 8 \;
ucs_transport_init 6 \; ucs_symbols_setglobalstr symbol \$1 symbol
\$2 symbol \$3 symbol \$4 \;;
#X text 179 383 NOTE: don't confuse MPD;
#X text 172 398 Common Channel with Live;
#X text 158 413 Control Surface Global Ch.;
#X text 156 160 Since we use coordinates;
#X text 156 175 proportionate to GOP canvas;
#X text 156 207 but lookie under \, where we don't;
#X text 156 223 have a quadratic (2^n) # of items;
#X text 156 191 we can get by with x \, y MOD w \, h;
#X symbolatom 489 147 10 0 0 1 Vodka - -;
#X text 438 220 Make me one with everything;
#X obj 24 24 cnv 15 130 32 empty empty User░Remote░Script 8 16
0 12 -4160 -262144 0;
#X connect 1 1 2 0;
#X connect 2 1 0 0;
#X connect 12 0 27 0;
#X connect 13 0 14 0;
#X connect 14 0 16 0;
#X connect 15 0 13 0;
#X connect 16 0 12 0;
#X connect 16 1 27 4;
#X connect 20 0 23 0;
#X connect 21 0 23 0;
#X connect 22 0 23 0;
#X connect 23 0 19 0;
#X connect 27 0 28 0;
#X connect 37 0 27 1;
#X connect 37 0 27 2;
#X connect 37 0 27 3;
#X coords 0 0 129 640 130 480 2 24 24;
#X restore 505 9 pd read_live_ucs_data;
#N canvas -9 -9 1845 1028 mpd24sysex_debug 0;
#N canvas -9 -9 1845 1028 debug 0;
#X obj 17 1 inlet;
#X obj 485 329 r \$0-pixo;
#X obj 503 349 r \$0-piyo;
#X obj 466 307 r \$0-piy;
#X obj 447 287 r \$0-pix;
#X obj 522 380 r \$0-dbg-padno;
#X obj 429 407 pack b f f f f f;
#X obj 429 436 print DEBUG;
#X obj 117 6 inlet;
#X obj 294 197 t b b b;
#X obj 295 276 s \$0-cireset;
#X obj 315 255 s \$0-struct_pads;
#X msg 333 221 \; pd-data_pads clear \;;
#X obj 26 77 symbol;
#X obj 17 46 select 1;
#X obj 17 23 int;
#X obj 117 42 symbol;
#X text 36 318 ║ BOX DRAWING ║╔══╗═╝╚═╬═╦═╩
║;
#X text 36 305 ╔═════════════╗░▀▄█▌▐░▒▓■▌
;
#X text 36 331 ╚═════════════╝;
#X obj 26 116 select drawpads drawpad clearpads logdbg printsysex,
f 96;
#X obj 561 268 print SYSEXOUT;
#X obj 614 195 r \$0-sysexbuffer;
#X obj 561 219 pack b l;
#X connect 0 0 15 0;
#X connect 1 0 6 3;
#X connect 2 0 6 4;
#X connect 3 0 6 2;
#X connect 4 0 6 1;
#X connect 5 0 6 5;
#X connect 6 0 7 0;
#X connect 8 0 16 0;
#X connect 9 0 10 0;
#X connect 9 1 11 0;
#X connect 9 2 12 0;
#X connect 13 0 20 0;
#X connect 14 0 13 0;
#X connect 15 0 14 0;
#X connect 16 0 13 1;
#X connect 20 2 9 0;
#X connect 20 3 6 0;
#X connect 20 4 23 0;
#X restore 108 203 pd debug;
#X obj 108 108 tgl 15 0 empty empty Debug 17 7 0 10 -262144 -1 -1 0
1;
#X obj 161 165 r \$0-mpd24sysex_debug;
#X connect 1 0 0 0;
#X connect 2 0 0 1;
#X coords 0 -1 1 1 85 60 2 100 100;
#X restore 644 10 pd mpd24sysex_debug;
#N canvas 0 50 1130 738 module_loader 0;
#X obj 14 130 declare -path cpx;
#X text 9 43 Include "external library" of abstractions from standard
path., f 62;
#X text 9 62 These are stand-alone pd patches ("abstractions") made
for reuse., f 65;
#X text 10 81 This mechanism is known as a "non-binary" library. We
might as well, f 68;
#X text 10 100 put everything in one folder \, but this is by convention
\, and good style, f 72;
#X restore 145 297 pd module_loader;
