#N struct T_pbs float color1 float color2 float bstate float sstate
float acttype symbol ind symbol sst;
#N struct T_panel1 float x1 float y1 float x2 float y2 array pb1 T_pbs
array pbs-lights T_pbs array fsw1 T_fsw array rsd-passigns T_rsd float
panelcolour;
#N struct T_fsw float nstates float bstate float springstate float
r1 float r2 float bstateg float rstate float seamlesscolor;
#N struct T_rsd float r1 float r2 float bstate1 float bstate2 float
rstate1 float rstate2 float color1 float h1x float h1y float h1x1 float
h1y1 float h2x float h2y float rgran1 float rgran2 float rn1 float
rn2 float roff1 float roff2 float rrf1 float rrf2 float rvislen1 float
rviswidth1 float x float y;
#N canvas -9 -9 1846 1028 12;
#X declare -path cpx;
#X obj 585 208 declare -path cpx, f 18;
#N canvas 554 101 1084 635 \$0-panel 0;
#X coords 0 0 128 128 128 128 2 100 100;
#X restore 585 236 pd \$0-panel;
#N canvas -1929 81 1920 1028 T_pbs 0;
#X obj 31 68 route click;
#X text 549 63 bstate 0 - blank/OUT \; bstate 1 - ind/IN \; sstate
0 - sst NOERROR \; sstate 1 - sst ERROR;
#X obj 179 98 r t_pbs_init;
#X obj 435 944 drawpolygon -v bstate 222 1 0 32 0 0 32 0;
#X obj 324 364 filledpolygon 222 222 0 1 1 31 1 31 31 1 31 1 1;
#X obj 327 264 drawpolygon 777 2 0 32 0 0 32 0;
#X obj 325 339 drawpolygon -v bstate 555 2 0 32 0 0 32 0;
#X obj 325 164 drawsymbol -v bstate ind 4 2 color1;
#X obj 325 189 drawsymbol -v sstate sst 4 17 color2;
#X obj 325 313 drawpolygon 333 2 32 0 32 32 0 32;
#X obj 323 288 drawpolygon -v bstate 444 2 32 0 32 32 0 32;
#X obj 326 223 drawpolygon 333 1 2 16 30 16;
#X obj 31 30 struct T_pbs float color1 float color2 float bstate float
sstate float acttype symbol ind symbol sst;
#N canvas -9 -9 1845 1028 \$0-on_click 0;
#X obj 63 257 cpx_ci 1 2;
#X obj 62 296 set T_pbs bstate;
#X obj 228 143 get T_pbs acttype;
#X msg 74 217 0;
#X obj 229 168 select 1;
#X obj 74 194 delay 1000;
#X obj 229 191 t b b;
#X obj 63 114 t b b p p, f 24;
#X obj 61 61 inlet;
#X text 354 143 MULTIACTION SWITCH BUTTON \; acttype=0 \, toggle \;
acttype=1 \, momentary/spring;
#X connect 0 0 1 0;
#X connect 2 0 4 0;
#X connect 3 0 1 0;
#X connect 4 0 5 0;
#X connect 4 0 6 0;
#X connect 5 0 3 0;
#X connect 6 0 0 0;
#X connect 6 1 0 1;
#X connect 7 0 0 0;
#X connect 7 2 1 1;
#X connect 7 3 2 0;
#X connect 8 0 7 0;
#X restore 31 126 pd \$0-on_click;
#N canvas -1929 81 1920 1028 \$0-on_init 0;
#X obj 53 53 inlet;
#X obj 53 208 until;
#X obj 53 378 list store;
#X obj 134 268 list store;
#X obj 72 122 list store, f 19;
#X msg 119 164 \$1 \$2;
#X obj 53 186 int;
#X obj 467 257 cpx_structptr0 pd-D_pbs;
#X obj 53 403 set -symbol T_pbs ind sst;
#X obj 134 292 append T_pbs bstate sstate color1 color2 acttype;
#X msg 201 164 \$3 \$4 \$5 \$6 \$7;
#X msg 72 164 \$8;
#X text 190 312 NOTE: append outputs pointer \, so we can \; directly
"set" additional params;
#X obj 53 77 t bang bang list bang, f 23;
#X obj 53 231 t bang bang, f 12;
#X connect 0 0 13 0;
#X connect 1 0 14 0;
#X connect 2 0 8 0;
#X connect 3 0 9 0;
#X connect 4 0 10 0;
#X connect 4 0 11 0;
#X connect 4 0 5 0;
#X connect 5 0 2 1;
#X connect 6 0 1 0;
#X connect 7 0 9 5;
#X connect 9 0 8 2;
#X connect 10 0 3 1;
#X connect 11 0 6 1;
#X connect 13 0 6 0;
#X connect 13 1 4 0;
#X connect 13 2 4 1;
#X connect 13 3 7 0;
#X connect 14 0 2 0;
#X connect 14 1 3 0;
#X restore 179 125 pd \$0-on_init;
#X connect 0 0 13 0;
#X connect 2 0 14 0;
#X connect 12 0 0 0;
#X restore 119 208 pd T_pbs;
#N canvas -1929 81 1920 1028 T_rsd 0;
#X text 528 110 NOTE: \$0 is really not needed for subpatches;
#X obj 268 102 r t_rsd_init;
#X obj 32 124 t p p;
#N canvas -9 -9 1845 1028 \$0-on_change1 0;
#X obj 261 10 inlet;
#X obj 285 171 int;
#X obj 284 254 / 6, f 33;
#X obj 316 171 / 46;
#X obj 285 196 clip 0 2, f 16;
#X obj 285 225 + 2, f 23;
#X text 52 219 rotary offset;
#X text 30 243 rotary range factor (inverse);
#X text 25 132 rotary granularity;
#X text 39 177 rotary positions;
#X text 67 154 integer cast;
#X obj 261 114 int;
#X obj 261 37 t b p p, f 59;
#X obj 412 120 - 1;
#X obj 284 436 set T_rsd h1x h1y h1x1 h1y1 bstate1, f 59;
#X obj 284 283 t f f, f 20;
#X obj 279 77 get T_rsd rstate1 rgran1 rn1 roff1 rrf1 rvislen1;
#X obj 421 347 spigot;
#X obj 284 401 cpx_rotxy 22 0;
#X obj 421 401 cpx_rotxy -22 0;
#X connect 0 0 12 0;
#X connect 1 0 4 0;
#X connect 2 0 15 0;
#X connect 3 0 1 0;
#X connect 4 0 5 0;
#X connect 4 0 14 4;
#X connect 5 0 2 0;
#X connect 11 0 3 0;
#X connect 12 0 11 0;
#X connect 12 1 16 0;
#X connect 12 2 14 5;
#X connect 13 0 4 2;
#X connect 15 0 18 0;
#X connect 15 1 17 0;
#X connect 16 0 11 1;
#X connect 16 1 3 1;
#X connect 16 2 13 0;
#X connect 16 3 5 1;
#X connect 16 4 2 1;
#X connect 16 5 17 1;
#X connect 16 5 14 2;
#X connect 16 5 14 3;
#X connect 17 0 19 0;
#X connect 18 0 14 0;
#X connect 18 1 14 1;
#X connect 19 0 14 2;
#X connect 19 1 14 3;
#X restore 32 205 pd \$0-on_change1;
#N canvas -1929 81 1920 1028 \$0-on_change2 0;
#X obj 314 10 inlet;
#X obj 345 181 int;
#X obj 346 250 / 6, f 33;
#X obj 374 181 / 46;
#X obj 345 204 clip 0 2, f 14;
#X obj 345 227 + 2, f 23;
#X text 166 228 rotary offset;
#X text 132 252 rotary range factor (inverse);
#X text 147 171 rotary granularity;
#X text 155 204 rotary positions;
#X text 186 191 integer cast;
#X obj 314 122 int;
#X obj 314 37 t b p p, f 64;
#X obj 332 82 get T_rsd rstate2 rgran2 rn2 roff2 rrf2;
#X obj 346 308 set T_rsd h2x h2y bstate2, f 59;
#X obj 346 274 cpx_rotxy 16 0;
#X text 466 116 NOTE: watch stale vals on cold inlets;
#X obj 440 115 - 1;
#X connect 0 0 12 0;
#X connect 1 0 4 0;
#X connect 2 0 15 0;
#X connect 3 0 1 0;
#X connect 4 0 5 0;
#X connect 4 0 14 2;
#X connect 5 0 2 0;
#X connect 11 0 3 0;
#X connect 12 0 11 0;
#X connect 12 1 13 0;
#X connect 12 2 14 3;
#X connect 13 0 11 1;
#X connect 13 1 3 1;
#X connect 13 2 17 0;
#X connect 13 3 5 1;
#X connect 13 4 2 1;
#X connect 15 0 14 0;
#X connect 15 1 14 1;
#X connect 17 0 4 2;
#X restore 64 178 pd \$0-on_change2;
#X text 527 128 WARNING: can't have 2 appends;
#N canvas -9 -9 1845 1028 \$0-on_init 0;
#X obj 134 52 inlet;
#X obj 134 231 until;
#X obj 134 268 list store;
#X obj 201 128 list store, f 19;
#X obj 134 209 int;
#X obj 134 76 t bang bang list bang, f 53;
#X obj 593 249 cpx_structptr0 pd-D_rsd;
#X obj 240 198 print init_vals;
#X msg 153 187 \$20;
#X obj 134 402 set T_rsd rvislen1;
#X obj 134 338 t p p, f 18;
#X obj 134 369 get T_rsd h1x1;
#X obj 134 292 append T_rsd r1 bstate1 color1 h1x h1y h1x1 h1y1 rstate1
rgran1 rn1 roff1 rrf1 r2 bstate2 h2x h2y rstate2 rgran2 rn2 roff2 rrf2
rviswidth1 rvislen1 x y, f 102;
#X msg 201 164 \$1 \$2 777 \$3 \$4 \$5 \$6 0 \$7 \$8 \$9 \$10 \$11
\$12 \$13 \$14 0 \$15 \$16 \$17 \$18 \$19 0 0, f 79;
#X connect 0 0 5 0;
#X connect 1 0 2 0;
#X connect 2 0 12 0;
#X connect 3 0 8 0;
#X connect 3 0 13 0;
#X connect 4 0 1 0;
#X connect 5 0 4 0;
#X connect 5 1 3 0;
#X connect 5 2 3 1;
#X connect 5 3 6 0;
#X connect 6 0 12 25;
#X connect 8 0 4 1;
#X connect 10 0 11 0;
#X connect 10 1 9 1;
#X connect 11 0 9 0;
#X connect 12 0 10 0;
#X connect 13 0 2 1;
#X connect 13 0 7 0;
#X restore 268 135 pd \$0-on_init;
#X obj 258 232 filledcurve -xv 776 444 1 r1(0:100)(0:100) 0 r1(0:100)(0:71)
r1(0:100)(0:71) 0 r1(0:100)(0:100) r1(0:100)(0:-71) r1(0:100)(0:71)
r1(0:100)(0:-100) 0 r1(0:100)(0:-71) r1(0:100)(0:-71) 0 r1(0:100)(0:-100)
r1(0:100)(0:71) r1(0:100)(0:-71) r1(0:100)(0:100) 0, f 30;
#X obj 258 182 drawpolygon -xv 222 rviswidth1 h1x h1y h1x1 h1y1;
#X obj 601 232 filledcurve -v r2 -xv 776 444 1 r2(0:100)(0:100) 0 r2(0:100)(0:71)
r2(0:100)(0:71) 0 r2(0:100)(0:100) r2(0:100)(0:-71) r2(0:100)(0:71)
r2(0:100)(0:-100) 0 r2(0:100)(0:-71) r2(0:100)(0:-71) 0 r2(0:100)(0:-100)
r2(0:100)(0:71) r2(0:100)(0:-71) r2(0:100)(0:100) 0, f 30;
#X obj 601 182 drawpolygon -v r2 -xv 222 2 h2x h2y 0 0;
#X obj 32 5 struct T_rsd float r1 float r2 float bstate1 float bstate2
float rstate1 float rstate2 float color1 float h1x float h1y float
h1x1 float h1y1 float h2x float h2y float rgran1 float rgran2 float
rn1 float rn2 float roff1 float roff2 float rrf1 float rrf2 float rvislen1
float rviswidth1 float x float y, f 122;
#X obj 258 207 drawnumber rstate1 -8 -12 222;
#X obj 601 207 drawnumber -v r2 rstate2 -8 4 222;
#X obj 126 127 print EVERYTHING;
#X obj 31 82 route change select;
#X connect 1 0 6 0;
#X connect 2 0 3 0;
#X connect 2 1 4 0;
#X connect 11 0 15 0;
#X connect 15 0 2 0;
#X connect 15 1 14 0;
#X restore 188 208 pd T_rsd;
#N canvas -9 -9 1845 1028 D_pbs 0;
#X scalar T_pbs 777 777 0 0 0 ==== FAULT \;;
#X coords 0 0 32 32 40 40 2 100 100;
#X restore 70 207 pd D_pbs;
#N canvas -1929 81 1920 1028 T_fsw 0;
#X obj 31 30 struct T_fsw float nstates float bstate float springstate
float r1 float r2 float bstateg float rstate float seamlesscolor,
f 125;
#X obj 259 139 filledpolygon seamlesscolor 333 1 -16 -16 16 -16 16
16 -16 16 -16 -16, f 83;
#X obj 258 232 filledcurve -xv 776 444 1 r1(0:100)(0:100) 0 r1(0:100)(0:71)
r1(0:100)(0:71) 0 r1(0:100)(0:100) r1(0:100)(0:-71) r1(0:100)(0:71)
r1(0:100)(0:-100) 0 r1(0:100)(0:-71) r1(0:100)(0:-71) 0 r1(0:100)(0:-100)
r1(0:100)(0:71) r1(0:100)(0:-71) r1(0:100)(0:100) 0, f 30;
#X obj 601 232 filledcurve -v r2 -xv 776 444 1 r2(0:100)(0:100) 0 r2(0:100)(0:71)
r2(0:100)(0:71) 0 r2(0:100)(0:100) r2(0:100)(0:-71) r2(0:100)(0:71)
r2(0:100)(0:-100) 0 r2(0:100)(0:-71) r2(0:100)(0:-71) 0 r2(0:100)(0:-100)
r2(0:100)(0:71) r2(0:100)(0:-71) r2(0:100)(0:100) 0, f 30;
#X obj 258 194 filledpolygon 222 333 1 -1 -1 1 -1 2 bstateg -2 bstateg
-1 -1 1 -1, f 79;
#X obj 257 170 filledpolygon 222 333 3 1 bstateg 1 bstateg 4 bstateg
-4 bstateg -1 bstateg 1 bstateg, f 85;
#X obj 539 101 drawnumber rstate -20 -20 500;
#N canvas -9 -9 1846 1028 \$0-on_change 0;
#X obj 150 6 inlet;
#X obj 150 368 select 2 3, f 58;
#X obj 166 417 * 30, f 21;
#X obj 371 417 * 15, f 22;
#X obj 371 440 - 15, f 5;
#X obj 320 121 / 46;
#X obj 151 121 int, f 23;
#X obj 151 145 clip 0 2, f 32;
#X obj 150 391 int, f 27;
#X obj 352 391 int, f 28;
#X obj 372 116 - 1;
#X obj 173 216 select 0, f 12;
#X obj 173 264 delay 1000;
#X obj 151 341 int, f 30;
#X obj 173 168 -, f 56;
#X text 753 50 0 1 2 \; 0 \; 0-1 2 \; 0 1 2 \; 2 \; 0 1-2 \;;
#X obj 254 264 clip -1 1;
#X obj 226 310 int, f 4;
#X msg 182 240 stop;
#X obj 390 341 int, f 7;
#X obj 151 191 t b b f, f 41;
#X obj 264 310 abs;
#X obj 238 36 element T_panel1 fsw1;
#X obj 297 6 inlet;
#X obj 150 482 set T_fsw bstate bstateg, f 61;
#X obj 362 90 get T_fsw nstates springstate;
#X obj 173 287 t b b, f 8;
#X obj 166 442 - 15, f 5;
#X obj 150 64 t b p p p, f 61;
#X obj 224 93 get T_fsw rstate;
#X connect 0 0 28 0;
#X connect 1 0 8 0;
#X connect 1 1 9 0;
#X connect 2 0 27 0;
#X connect 3 0 4 0;
#X connect 4 0 24 1;
#X connect 5 0 6 1;
#X connect 6 0 7 0;
#X connect 7 0 14 0;
#X connect 7 0 20 0;
#X connect 8 0 2 0;
#X connect 8 0 24 0;
#X connect 9 0 3 0;
#X connect 9 0 24 0;
#X connect 10 0 7 2;
#X connect 11 0 12 0;
#X connect 11 1 16 0;
#X connect 11 1 18 0;
#X connect 12 0 26 0;
#X connect 13 0 1 0;
#X connect 14 0 11 0;
#X connect 16 0 17 1;
#X connect 17 0 21 0;
#X connect 18 0 12 0;
#X connect 19 0 8 1;
#X connect 19 0 9 1;
#X connect 20 0 13 0;
#X connect 20 1 19 0;
#X connect 20 2 19 1;
#X connect 21 0 19 0;
#X connect 23 0 22 1;
#X connect 25 0 10 0;
#X connect 25 0 13 1;
#X connect 25 1 14 1;
#X connect 26 0 13 0;
#X connect 26 1 17 0;
#X connect 27 0 24 1;
#X connect 28 0 6 0;
#X connect 28 1 29 0;
#X connect 28 2 25 0;
#X connect 28 3 24 2;
#X connect 29 0 5 0;
#X restore 17 278 pd \$0-on_change;
#X obj 17 59 route change click;
#X connect 0 0 8 0;
#X connect 8 0 7 0;
#X restore 326 208 pd T_fsw;
#N canvas -1929 81 1920 1028 T_panel1 1;
#N canvas -1929 81 1920 1028 \$0-on_init 0;
#X obj 37 37 inlet;
#X obj 425 202 cpx_structptr0 pd-D_panel1;
#X obj 114 81 t f b;
#X obj 114 122 until;
#X obj 113 271 trigger bang bang pointer;
#X obj 509 423 element T_panel1 fsw1;
#X obj 199 330 setsize T_panel1 fsw1;
#X obj 113 457 set T_fsw nstates bstate springstate r1 r2 bstateg rstate
seamlesscolor;
#X obj 113 390 unpack f f f f f f f f f, f 57;
#X msg 199 304 2;
#X msg 113 366 3 1 0 10 6 -15 -15 432 0 \, 2 1 0 10 6 -15 -15 432 1
;
#X obj 113 247 append T_panel1 x1 y1 x2 y2 panelcolour;
#X msg 114 186 10 10 50 50 331;
#X connect 0 0 2 0;
#X connect 1 0 11 5;
#X connect 2 0 3 0;
#X connect 2 1 1 0;
#X connect 3 0 12 0;
#X connect 4 0 10 0;
#X connect 4 1 9 0;
#X connect 4 2 6 1;
#X connect 4 2 5 1;
#X connect 5 0 7 8;
#X connect 8 0 7 0;
#X connect 8 1 7 1;
#X connect 8 2 7 2;
#X connect 8 3 7 3;
#X connect 8 4 7 4;
#X connect 8 5 7 5;
#X connect 8 6 7 6;
#X connect 8 7 7 7;
#X connect 8 8 5 0;
#X connect 9 0 6 0;
#X connect 10 0 8 0;
#X connect 11 0 4 0;
#X connect 12 0 11 0;
#X restore 355 181 pd \$0-on_init;
#X obj 355 157 r t_panel1_init;
#N canvas -9 -9 1846 1028 \$0-on_change 0;
#X obj 150 6 inlet;
#X obj 150 368 select 2 3, f 58;
#X obj 166 417 * 30, f 21;
#X obj 371 417 * 15, f 22;
#X obj 371 440 - 15, f 5;
#X obj 320 121 / 46;
#X obj 151 121 int, f 23;
#X obj 151 145 clip 0 2, f 32;
#X obj 150 391 int, f 27;
#X obj 352 391 int, f 28;
#X obj 372 116 - 1;
#X obj 173 216 select 0, f 12;
#X obj 173 264 delay 1000;
#X obj 151 341 int, f 30;
#X obj 173 168 -, f 56;
#X text 753 50 0 1 2 \; 0 \; 0-1 2 \; 0 1 2 \; 2 \; 0 1-2 \;;
#X obj 254 264 clip -1 1;
#X obj 226 310 int, f 4;
#X msg 182 240 stop;
#X obj 390 341 int, f 7;
#X obj 151 191 t b b f, f 41;
#X obj 264 310 abs;
#X obj 150 42 element T_panel1 fsw1;
#X obj 297 6 inlet;
#X obj 150 482 set T_fsw bstate bstateg, f 61;
#X obj 362 90 get T_fsw nstates springstate;
#X obj 173 287 t b b, f 8;
#X obj 166 442 - 15, f 5;
#X obj 150 64 t b p p p, f 61;
#X obj 224 93 get T_fsw rstate;
#X connect 0 0 22 0;
#X connect 1 0 8 0;
#X connect 1 1 9 0;
#X connect 2 0 27 0;
#X connect 3 0 4 0;
#X connect 4 0 24 1;
#X connect 5 0 6 1;
#X connect 6 0 7 0;
#X connect 7 0 14 0;
#X connect 7 0 20 0;
#X connect 8 0 2 0;
#X connect 8 0 24 0;
#X connect 9 0 3 0;
#X connect 9 0 24 0;
#X connect 10 0 7 2;
#X connect 11 0 12 0;
#X connect 11 1 16 0;
#X connect 11 1 18 0;
#X connect 12 0 26 0;
#X connect 13 0 1 0;
#X connect 14 0 11 0;
#X connect 16 0 17 1;
#X connect 17 0 21 0;
#X connect 18 0 12 0;
#X connect 19 0 8 1;
#X connect 19 0 9 1;
#X connect 20 0 13 0;
#X connect 20 1 19 0;
#X connect 20 2 19 1;
#X connect 21 0 19 0;
#X connect 22 0 28 0;
#X connect 23 0 22 1;
#X connect 25 0 10 0;
#X connect 25 0 13 1;
#X connect 25 1 14 1;
#X connect 26 0 13 0;
#X connect 26 1 17 0;
#X connect 27 0 24 1;
#X connect 28 0 6 0;
#X connect 28 1 29 0;
#X connect 28 2 25 0;
#X connect 28 3 24 2;
#X connect 29 0 5 0;
#X restore 17 278 pd \$0-on_change;
#X obj 17 83 t b p;
#X obj 17 59 route change click;
#X obj 333 304 plot fsw1 700 0 -12 -12 32;
#X obj 17 21 struct T_panel1 float x1 float y1 float x2 float y2 array
pb1 T_pbs array pbs-lights T_pbs array fsw1 T_fsw array rsd-passigns
T_rsd float panelcolour, f 98;
#X msg 17 226 1;
#X connect 1 0 0 0;
#X connect 3 0 7 0;
#X connect 3 1 2 1;
#X connect 4 0 3 0;
#X connect 6 0 4 0;
#X connect 7 0 2 0;
#X restore 396 208 pd T_panel1;
#X f 25;
#N canvas -9 -9 1845 1028 D_panel1 0;
#X scalar T_panel1 10 10 50 50 331 \; 0 0 0 0 0 symbol symbol \; \;
0 0 0 0 0 symbol symbol \; \; 3 1 0 10 6 -15.5 157 432 \; 2 1 0 10
6 -15 129 432 \; \; 0 0 0 0 0 0 0 0 0 0 0 0 0 0 0 0 0 0 0 0 0 0 0 0
0 \; \;;
#X coords -90 -90 90 90 180 180 2 100 100;
#X restore 395 236 pd D_panel1;
#X obj 43 17 loadbang;
#X msg 43 45 \; pd-D_pbs clear \; pd-D_rsd clear \; pd-D_panel1 clear
\; t_pbs_init list ==== FAULT 0 0 777 777 0 1 \; t_rsd_init list 24
0 -24 0 24 0 80 3 2 6 0 0 0 0 1 2 0 2 4 1 \; t_panel1_init 1 \;, f
85;
#N canvas -9 -9 1846 1028 D_rsd 0;
#X scalar T_rsd 24 0 2 0 168 0 777 16.1941 -14.8913 -16.1941 14.8913
-9.80649 12.6425 80 1 3 2 2 0 6 2 24 4 247 356 \;;
#X scalar T_rsd 24 0 1 0 90 0 777 -8.3661e-005 -22 8.3661e-005 22 -9.80649
12.6425 80 1 3 2 2 0 6 2 24 4 330 365 \;;
#X scalar T_rsd 24 0 2 0 233 0 777 16.1941 -14.8913 -16.1941 14.8913
-9.80649 12.6425 80 1 3 2 2 0 6 2 24 4 402 366 \;;
#X coords 0 514 1 513 100 100 0;
#X restore 257 208 pd D_rsd;
#X connect 8 0 9 0;
