#N canvas 700 142 450 300 12;
#X obj 184 171 log;
#X floatatom 240 91 5 1 32000 0 - - -;
#X floatatom 96 87 5 0 32000 0 - - -;
#X obj 184 124 /;
#X obj 184 214 * 20;
#X obj 60 266 nbx 5 14 -1e+037 1e+037 0 0 empty empty dB 0 -8 0 10
-262144 -1 -1 -20000 256;
#X connect 0 0 4 0;
#X connect 1 0 3 1;
#X connect 2 0 3 0;
#X connect 3 0 0 0;
#X connect 4 0 5 0;
