#N canvas 2291 82 1357 695 12;
#N canvas 1911 -105 1920 1028 ammod_path 0;
#X obj 200 200 cnv 15 72 254 empty empty empty 20 12 1 12 -66577 -228856
0;
#X obj 218 271 hsl 36 36 0 127 0 0 \$0-CtlKPathRate empty RATE 7 42
1 8 -191407 -66577 -228856 1500 1;
#X obj 214 330 hradio 15 1 0 3 \$0-CtlSPathMode empty MODE 8 24 1 8
-191407 -66577 -228856 1;
#X obj 224 370 bng 24 250 50 0 \$0-CtlTPathClear empty CLEAR -2 32
1 8 -99865 -191407 -228856;
#X obj 224 230 tgl 24 0 \$0-CtlWPathSync empty SYNC 0 32 1 8 -86277
-258113 -228856 0 1;
#X obj 224 415 tgl 24 0 \$0-CtlWPathEdit empty EDIT 2 32 1 8 -86277
-258113 -228856 0 1;
#X obj 200 208 cnv 15 72 16 empty empty PATH 24 8 1 8 -233017 -66577
0;
#X coords 0 -1 1 1 72 254 2 200 200;
#X restore 94 77 pd ammod_path;
#N canvas -9 -9 1920 1028 ammod_map 0;
#X obj 34 39 r \$0-CtlKPathRate;
#X floatatom 34 61 5 0 0 0 - - -;
#X obj 34 116 ctlout 22 14;
#X floatatom 165 61 5 0 0 0 - - -;
#X obj 165 39 r \$0-CtlSPathMode;
#X obj 165 115 ctlout 23 14;
#X obj 165 84 * 64;
#X floatatom 302 62 5 0 0 0 - - -;
#X obj 302 40 r \$0-CtlWPathSync;
#X obj 302 85 * 128;
#X obj 302 115 ctlout 24 14;
#X floatatom 31 165 5 0 0 0 - - -;
#X floatatom 165 165 5 0 0 0 - - -;
#X floatatom 302 165 5 0 0 0 - - -;
#X obj 31 143 r \$0-CtlKOrbitTime;
#X obj 165 143 r \$0-CtlKOrbitXAmt;
#X obj 302 143 r \$0-CtlKOrbitYAmt;
#X obj 31 218 ctlout 25 14;
#X obj 165 218 ctlout 26 14;
#X obj 302 218 ctlout 27 14;
#X floatatom 445 165 5 0 0 0 - - -;
#X obj 445 188 * 128;
#X obj 445 218 ctlout 28 14;
#X obj 445 143 r \$0-CtlKOrbitSync;
#X obj 165 188 * 1;
#X obj 31 188 * 1;
#X obj 302 188 * 1;
#X floatatom 32 273 5 0 0 0 - - -;
#X floatatom 166 273 5 0 0 0 - - -;
#X floatatom 303 273 5 0 0 0 - - -;
#X floatatom 446 273 5 0 0 0 - - -;
#X obj 166 296 * 1;
#X obj 32 296 * 1;
#X obj 303 296 * 1;
#X obj 32 251 r \$0-CtlKVcaA;
#X obj 32 326 ctlout 29 14;
#X obj 166 326 ctlout 30 14;
#X obj 303 326 ctlout 31 14;
#X obj 446 326 ctlout 32 14;
#X obj 166 251 r \$0-CtlKVcaD;
#X obj 303 251 r \$0-CtlKVcaS;
#X obj 446 251 r \$0-CtlKVcaR;
#X obj 446 296 * 1;
#X floatatom 29 386 5 0 0 0 - - -;
#X floatatom 163 386 5 0 0 0 - - -;
#X floatatom 300 386 5 0 0 0 - - -;
#X floatatom 443 386 5 0 0 0 - - -;
#X obj 163 409 * 1;
#X obj 29 409 * 1;
#X obj 300 409 * 1;
#X obj 443 409 * 1;
#X obj 29 439 ctlout 33 14;
#X obj 163 439 ctlout 34 14;
#X obj 300 439 ctlout 35 14;
#X obj 443 439 ctlout 36 14;
#X obj 29 364 r \$0-CtlKVcfA;
#X obj 163 364 r \$0-CtlKVcfD;
#X obj 300 364 r \$0-CtlKVcfS;
#X obj 443 364 r \$0-CtlKVcfR;
#X floatatom 29 489 5 0 0 0 - - -;
#X floatatom 163 489 5 0 0 0 - - -;
#X floatatom 300 489 5 0 0 0 - - -;
#X floatatom 443 489 5 0 0 0 - - -;
#X obj 163 512 * 1;
#X obj 29 512 * 1;
#X obj 300 512 * 1;
#X obj 443 512 * 1;
#X obj 29 542 ctlout 37 14;
#X obj 163 542 ctlout 38 14;
#X obj 300 542 ctlout 39 14;
#X obj 443 542 ctlout 40 14;
#X obj 29 467 r \$0-CtlKModA;
#X obj 163 467 r \$0-CtlKModD;
#X obj 300 467 r \$0-CtlKModS;
#X obj 443 467 r \$0-CtlKModR;
#X floatatom 29 591 5 0 0 0 - - -;
#X floatatom 163 591 5 0 0 0 - - -;
#X floatatom 300 591 5 0 0 0 - - -;
#X floatatom 443 591 5 0 0 0 - - -;
#X obj 300 614 * 1;
#X obj 28 644 ctlout 41 14;
#X obj 163 644 ctlout 42 14;
#X obj 300 644 ctlout 43 14;
#X obj 443 644 ctlout 44 14;
#X obj 29 569 r \$0-CtlTLfoSync;
#X obj 163 569 r \$0-CtlTLfoKbd;
#X obj 300 569 r \$0-CtlKLfoRate;
#X obj 443 569 r \$0-CtlSLfoShape;
#X obj 443 614 * 32;
#X obj 163 614 * 127;
#X obj 29 614 * 127;
#X floatatom 28 692 5 0 0 0 - - -;
#X floatatom 162 692 5 0 0 0 - - -;
#X floatatom 299 692 5 0 0 0 - - -;
#X floatatom 442 692 5 0 0 0 - - -;
#X obj 299 715 * 1;
#X obj 27 745 ctlout 45 14;
#X obj 162 745 ctlout 46 14;
#X obj 299 745 ctlout 47 14;
#X obj 442 745 ctlout 48 14;
#X obj 28 670 r \$0-CtlSVcfType;
#X obj 162 670 r \$0-CtlKVcfDrive;
#X obj 299 670 r \$0-CtlKVcfEnv;
#X obj 442 670 r \$0-CtlKVcfFreq;
#X floatatom 569 692 5 0 0 0 - - -;
#X obj 569 745 ctlout 49 14;
#X obj 569 670 r \$0-CtlKVcfRes;
#X obj 569 715 * 1;
#X obj 442 715 * 1;
#X obj 162 715 * 1;
#X obj 28 715 * 64;
#X floatatom 26 799 5 0 0 0 - - -;
#X floatatom 179 799 5 0 0 0 - - -;
#X floatatom 336 799 5 0 0 0 - - -;
#X floatatom 479 799 5 0 0 0 - - -;
#X obj 336 822 * 1;
#X obj 479 822 * 1;
#X obj 179 822 * 1;
#X obj 26 822 * 64;
#X obj 25 852 ctlout 50 14;
#X obj 179 852 ctlout 51 14;
#X obj 336 852 ctlout 52 14;
#X obj 479 852 ctlout 53 14;
#X obj 26 777 r \$0-CtlSThickUnison;
#X obj 179 777 r \$0-CtlKThickCrush;
#X obj 336 777 r \$0-CtlKThickDrive;
#X obj 479 777 r \$0-CtlKThickDetune;
#X connect 0 0 1 0;
#X connect 1 0 2 0;
#X connect 3 0 6 0;
#X connect 4 0 3 0;
#X connect 6 0 5 0;
#X connect 7 0 9 0;
#X connect 8 0 7 0;
#X connect 9 0 10 0;
#X connect 11 0 25 0;
#X connect 12 0 24 0;
#X connect 13 0 26 0;
#X connect 14 0 11 0;
#X connect 15 0 12 0;
#X connect 16 0 13 0;
#X connect 20 0 21 0;
#X connect 21 0 22 0;
#X connect 23 0 20 0;
#X connect 24 0 18 0;
#X connect 25 0 17 0;
#X connect 26 0 19 0;
#X connect 27 0 32 0;
#X connect 28 0 31 0;
#X connect 29 0 33 0;
#X connect 30 0 42 0;
#X connect 31 0 36 0;
#X connect 32 0 35 0;
#X connect 33 0 37 0;
#X connect 34 0 27 0;
#X connect 39 0 28 0;
#X connect 40 0 29 0;
#X connect 41 0 30 0;
#X connect 42 0 38 0;
#X connect 43 0 48 0;
#X connect 44 0 47 0;
#X connect 45 0 49 0;
#X connect 46 0 50 0;
#X connect 47 0 52 0;
#X connect 48 0 51 0;
#X connect 49 0 53 0;
#X connect 50 0 54 0;
#X connect 55 0 43 0;
#X connect 56 0 44 0;
#X connect 57 0 45 0;
#X connect 58 0 46 0;
#X connect 59 0 64 0;
#X connect 60 0 63 0;
#X connect 61 0 65 0;
#X connect 62 0 66 0;
#X connect 63 0 68 0;
#X connect 64 0 67 0;
#X connect 65 0 69 0;
#X connect 66 0 70 0;
#X connect 71 0 59 0;
#X connect 72 0 60 0;
#X connect 73 0 61 0;
#X connect 74 0 62 0;
#X connect 75 0 90 0;
#X connect 76 0 89 0;
#X connect 77 0 79 0;
#X connect 78 0 88 0;
#X connect 79 0 82 0;
#X connect 84 0 75 0;
#X connect 85 0 76 0;
#X connect 86 0 77 0;
#X connect 87 0 78 0;
#X connect 88 0 83 0;
#X connect 89 0 81 0;
#X connect 90 0 80 0;
#X connect 91 0 110 0;
#X connect 92 0 109 0;
#X connect 93 0 95 0;
#X connect 94 0 108 0;
#X connect 95 0 98 0;
#X connect 100 0 91 0;
#X connect 101 0 92 0;
#X connect 102 0 93 0;
#X connect 103 0 94 0;
#X connect 104 0 107 0;
#X connect 106 0 104 0;
#X connect 107 0 105 0;
#X connect 108 0 99 0;
#X connect 109 0 97 0;
#X connect 110 0 96 0;
#X connect 111 0 118 0;
#X connect 112 0 117 0;
#X connect 113 0 115 0;
#X connect 114 0 116 0;
#X connect 115 0 121 0;
#X connect 116 0 122 0;
#X connect 117 0 120 0;
#X connect 118 0 119 0;
#X connect 123 0 111 0;
#X connect 124 0 112 0;
#X connect 125 0 113 0;
#X connect 126 0 114 0;
#X restore 233 20 pd ammod_map;
#N canvas 1911 -105 1920 1028 ammod_orbit 0;
#X obj 200 200 cnv 15 72 254 empty empty empty 20 12 1 12 -66577 -228856
0;
#X obj 218 276 hsl 36 36 0 127 0 0 \$0-CtlKOrbitTime empty TIME 7 42
1 8 -191407 -66577 -228856 1400 1;
#X obj 224 230 tgl 24 0 \$0-CtlWPathSync empty SYNC 0 32 1 8 -86277
-258113 -228856 0 1;
#X obj 200 208 cnv 15 72 16 empty empty ORBIT 18 8 1 8 -233017 -66577
0;
#X obj 218 333 hsl 36 36 0 127 0 0 \$0-CtlKOrbitXAmt empty XAMT 7 42
1 8 -191407 -66577 -228856 2200 1;
#X obj 218 392 hsl 36 36 0 127 0 0 \$0-CtlKOrbitYAmt empty YAMT 7 42
1 8 -191407 -66577 -228856 2500 1;
#X coords 0 -1 1 1 72 254 2 200 200;
#X restore 168 77 pd ammod_orbit;
#N canvas 2702 22 956 509 ammod_vcaenv 0;
#X obj 200 200 cnv 15 96 64 empty empty empty 20 12 0 14 -13381 -66577
0;
#X obj 212 218 vsl 15 32 0 127 0 0 \$0-CtlKVcaA empty A 4 -9 1 10 -59137
-92993 -25345 3300 1;
#X obj 232 218 vsl 15 32 0 127 0 0 \$0-CtlKVcaD empty D 4 -9 1 10 -59137
-92993 -25345 4100 1;
#X obj 252 218 vsl 15 32 0 127 0 0 \$0-CtlKVcaS empty S 4 -9 1 10 -59137
-92993 -25345 0 1;
#X obj 272 218 vsl 15 32 0 127 0 0 \$0-CtlKVcaR empty R 4 -9 1 10 -59137
-92993 -25345 0 1;
#X obj 200 255 cnv 15 96 16 empty empty AMP 20 4 1 8 -29505 -4034 0
;
#X coords 0 -1 1 1 96 72 2 200 200;
#X restore 243 77 pd ammod_vcaenv;
#N canvas 2702 22 956 509 ammod_vcaenv 0;
#X obj 200 200 cnv 15 96 64 empty empty empty 20 12 0 14 -13381 -66577
0;
#X obj 212 218 vsl 15 32 0 127 0 0 \$0-CtlKVcfA empty A 4 -9 1 10 -59137
-92993 -25345 0 1;
#X obj 232 218 vsl 15 32 0 127 0 0 \$0-CtlKVcfD empty D 4 -9 1 10 -59137
-92993 -25345 2400 1;
#X obj 252 218 vsl 15 32 0 127 0 0 \$0-CtlKVcfS empty S 4 -9 1 10 -59137
-92993 -25345 2100 1;
#X obj 272 218 vsl 15 32 0 127 0 0 \$0-CtlKVcfR empty R 4 -9 1 10 -59137
-92993 -25345 0 1;
#X obj 200 255 cnv 15 96 16 empty empty FILTER 20 4 1 8 -29505 -4034
0;
#X coords 0 -1 1 1 96 72 2 200 200;
#X restore 340 77 pd ammod_vcaenv;
#N canvas 2582 81 956 509 ammod_vcaenv 0;
#X obj 200 200 cnv 15 96 64 empty empty empty 20 12 0 14 -13381 -66577
0;
#X obj 212 218 vsl 15 32 0 127 0 0 \$0-CtlKModA empty A 4 -9 1 10 -59137
-92993 -25345 3300 1;
#X obj 232 218 vsl 15 32 0 127 0 0 \$0-CtlKModD empty D 4 -9 1 10 -59137
-92993 -25345 2400 1;
#X obj 252 218 vsl 15 32 0 127 0 0 \$0-CtlKModS empty S 4 -9 1 10 -59137
-92993 -25345 1100 1;
#X obj 272 218 vsl 15 32 0 127 0 0 \$0-CtlKModR empty R 4 -9 1 10 -59137
-92993 -25345 3300 1;
#X obj 200 255 cnv 15 96 16 empty empty MOD 20 4 1 8 -29505 -4034 0
;
#X coords 0 -1 1 1 96 72 2 200 200;
#X restore 437 77 pd ammod_vcaenv;
#N canvas 3052 127 450 492 ammod_lfo 0;
#X obj 21 20 cnv 15 96 176 empty empty empty 20 12 0 14 -66577 -66577
0;
#X obj 51 107 hsl 36 36 0 127 0 0 \$0-CtlKLfoRate empty RATE 8 42 1
8 -191407 -99865 -228856 0 1;
#X obj 31 164 hradio 15 1 0 5 \$0-CtlSLfoShape empty SHAPE 24 20 1
8 -191407 -99865 -228856 4;
#X obj 39 59 tgl 24 0 \$0-CtlTLfoSync empty SYNC 0 30 1 8 -86277 -258113
-228856 0 1;
#X obj 76 59 tgl 24 0 \$0-CtlTLfoKbd empty KB 6 30 1 8 -86277 -258113
-228856 0 1;
#X obj 21 27 cnv 15 96 16 empty empty LFO 38 9 1 8 -228856 -99865 0
;
#X coords 0 -1 1 1 96 176 2 20 20;
#X restore 437 155 pd ammod_lfo;
#N canvas 3052 127 450 492 ammod_filter 0;
#X obj 21 20 cnv 15 96 176 empty empty empty 20 12 0 14 -66577 -66577
0;
#X obj 34 101 hsl 16 16 0 127 0 0 \$0-CtlKVcfDrive empty DRIVE 0 20
1 8 -191407 -99865 -228856 2100 1;
#X obj 33 51 hradio 24 1 0 3 \$0-CtlSVcfType empty TYPE 12 30 1 8 -191407
-99865 -228856 1;
#X obj 21 27 cnv 15 96 16 empty empty FILTER 36 9 1 8 -228856 -99865
0;
#X obj 34 153 hsl 16 16 0 127 0 0 \$0-CtlKVcfEnv empty ENV 2 20 1 8
-191407 -99865 -228856 800 1;
#X obj 70 93 hsl 36 36 0 127 0 0 \$0-CtlKVcfFreq empty FREQ 8 42 1
8 -191407 -99865 -228856 2800 1;
#X obj 70 144 hsl 36 36 0 127 0 0 \$0-CtlKVcfRes empty RES. 8 42 1
8 -191407 -99865 -228856 2300 1;
#X coords 0 -1 1 1 96 176 2 20 20;
#X restore 339 155 pd ammod_filter;
#N canvas 3052 127 450 492 ammod_thick 0;
#X obj 21 20 cnv 15 96 176 empty empty empty 20 12 0 14 -66577 -66577
0;
#X obj 34 158 hradio 24 1 0 3 \$0-CtlSThickUnison empty UNISON 24 30
1 8 -191407 -99865 -228856 2;
#X obj 21 27 cnv 15 96 16 empty empty THICK 36 9 1 8 -228856 -99865
0;
#X obj 29 51 hsl 36 36 0 127 0 0 \$0-CtlKThickCrush empty CRUSH 8 42
1 8 -191407 -99865 -228856 0 1;
#X obj 73 51 hsl 36 36 0 127 0 0 \$0-CtlKThickDrive empty DRIVE 8 42
1 8 -191407 -99865 -228856 6100 1;
#X obj 51 103 hsl 36 36 0 127 0 0 \$0-CtlKThickDetune empty DETUNE
2 42 1 8 -191407 -99865 -228856 400 1;
#X coords 0 -1 1 1 96 176 2 20 20;
#X restore 241 155 pd ammod_thick;
#X obj 74 47 cnv 15 480 24 empty empty ____________________________[ANIMOOG]_______________moog
20 12 1 14 -233017 -66577 0;
