#N canvas 690 222 450 300 10;
#X obj 126 64 midiin;
#X obj 342 118 vsl 15 128 0 127 0 0 empty empty empty 0 -9 0 10 -262144
-1 -1 0 1;
#X obj 236 57 touchin 10;
#X obj 175 174 polytouchin 10;
#X obj 341 273 ctlout 2;
#X obj 180 241 ctlin;
#X obj 179 274 ctlout;
#X connect 1 0 4 0;
#X connect 2 0 1 0;
#X connect 3 0 1 0;
#X connect 5 0 6 0;
#X connect 5 1 6 1;
#X connect 5 2 6 2;
