#N canvas 191 66 873 635 10;
#X obj 53 124 osc~ 440;
#X obj 52 271 dac~;
#N canvas 0 50 450 300 lever 0;
#X obj 159 40 inlet~;
#X obj 213 145 *~;
#X obj 251 220 outlet~;
#X obj 110 116 vsl 11 32 0 0.1 0 0 empty empty empty 0 -9 0 10 -262144
-1 -1 1300 1;
#X obj 242 24 loadbang;
#X connect 0 0 1 0;
#X connect 1 0 2 0;
#X connect 3 0 1 1;
#X connect 4 0 3 0;
#X coords 0 -1 1 1 64 60 2 100 100;
#X restore 52 149 pd lever;
#X obj 122 124 osc~ 220;
#X obj 124 52 mtof;
#N canvas 0 50 450 300 lever 0;
#X obj 159 40 inlet~;
#X obj 213 145 *~;
#X obj 251 220 outlet~;
#X obj 110 116 vsl 11 32 0 0.1 0 0 empty empty empty 0 -9 0 10 -262144
-1 -1 1300 1;
#X obj 242 24 loadbang;
#X connect 0 0 1 0;
#X connect 1 0 2 0;
#X connect 3 0 1 1;
#X connect 4 0 3 0;
#X coords 0 -1 1 1 64 60 2 100 100;
#X restore 121 149 pd lever;
#X obj 184 100 int;
#X floatatom 85 15 5 0 0 0 - - -, f 5;
#X floatatom 124 15 5 0 0 0 - - -, f 5;
#X obj 84 53 mtof;
#X obj 271 304 tabread tuningF;
#X obj 147 304 tabwrite tuningF;
#X obj 573 116 table tuningF 127;
#X msg 576 30 \; tuningF read ../tun02.txt;
#X msg 576 72 \; tuningF write ../tun02.txt;
#X floatatom 271 333 5 0 1500 0 - - -, f 5;
#X floatatom 124 75 5 0 0 0 - - -, f 5;
#X floatatom 84 75 5 0 0 0 - - -, f 5;
#X obj 147 273 +;
#X obj 134 246 bng 15 250 50 0 empty empty empty 17 7 0 10 -258113
-1 -1;
#X obj 571 211 *;
#X floatatom 589 179 5 0 3 0 - - -, f 5;
#X floatatom 571 235 5 0 0 0 - - -, f 5;
#X obj 571 261 ftom;
#X floatatom 571 283 5 0 0 0 - - -, f 5;
#X obj 568 347 +;
#X obj 530 259 bng 15 250 50 0 empty empty empty 17 7 0 10 -262144
-1 -1;
#X connect 0 0 2 0;
#X connect 2 0 1 0;
#X connect 2 0 1 1;
#X connect 3 0 5 0;
#X connect 4 0 3 0;
#X connect 4 0 16 0;
#X connect 5 0 1 0;
#X connect 5 0 1 1;
#X connect 6 0 11 1;
#X connect 6 0 10 0;
#X connect 7 0 9 0;
#X connect 8 0 4 0;
#X connect 8 0 6 0;
#X connect 9 0 0 0;
#X connect 9 0 17 0;
#X connect 10 0 15 0;
#X connect 16 0 18 1;
#X connect 16 0 20 0;
#X connect 18 0 11 0;
#X connect 19 0 18 0;
#X connect 20 0 22 0;
#X connect 21 0 20 1;
#X connect 22 0 23 0;
#X connect 23 0 24 0;
#X connect 24 0 25 1;
#X connect 25 0 8 0;
#X connect 26 0 25 0;
