#N canvas -8 -8 1366 696 24;
#X obj 244 2 inlet;
#X obj 253 445 outlet;
#X obj 347 444 outlet;
#X obj 249 411 r cc;
#X obj 344 412 r cn;
#X obj 245 176 select /crossfader /leftVolume /rightVolume /leftHighCut
/leftLowCut /leftMidCut /rightHighCut /rightLowCut /rightMidCut /leftCue
/rightCue /leftMulti/0 /leftMulti/1 /leftMulti/2 /leftMulti/3 /rightMulti/0
/rightMulti/1 /rightMulti/2 /rightMulti/3;
#X floatatom 248 353 5 0 0 0 - - cc, f 5;
#X floatatom 286 323 5 0 0 0 - - cc, f 5;
#X floatatom 323 353 5 0 0 0 - - cc, f 5;
#X floatatom 361 323 5 0 0 0 - - cn, f 5;
#X floatatom 400 353 5 0 0 0 - - cn, f 5;
#X floatatom 438 323 5 0 0 0 - - cn, f 5;
#X floatatom 475 353 5 0 0 0 - - cn, f 5;
#X floatatom 513 323 5 0 0 0 - - cn, f 5;
#X floatatom 557 353 5 0 0 0 - - cn, f 5;
#X floatatom 595 323 5 0 0 0 - - cc, f 5;
#X floatatom 632 353 5 0 0 0 - - cc, f 5;
#X floatatom 670 323 5 0 0 0 - - cc, f 5;
#X floatatom 709 353 5 0 0 0 - - cc, f 5;
#X floatatom 747 323 5 0 0 0 - - cc, f 5;
#X floatatom 784 353 5 0 0 0 - - cc, f 5;
#X floatatom 822 323 5 0 0 0 - - cc, f 5;
#X floatatom 868 353 5 0 0 0 - - cc, f 5;
#X floatatom 906 323 5 0 0 0 - - cc, f 5;
#X floatatom 943 353 5 0 0 0 - - cc, f 5;
#X obj 153 444 outlet;
#X obj 438 444 outlet;
#X obj 244 102 unpack s 0;
#X obj 977 78 change;
#X connect 0 0 27 0;
#X connect 3 0 1 0;
#X connect 4 0 2 0;
#X connect 5 0 6 0;
#X connect 5 1 7 0;
#X connect 5 2 8 0;
#X connect 5 3 9 0;
#X connect 5 4 10 0;
#X connect 5 5 11 0;
#X connect 5 6 12 0;
#X connect 5 7 13 0;
#X connect 5 8 14 0;
#X connect 5 9 15 0;
#X connect 5 10 16 0;
#X connect 5 11 17 0;
#X connect 5 12 18 0;
#X connect 5 13 19 0;
#X connect 5 14 20 0;
#X connect 5 15 21 0;
#X connect 5 16 22 0;
#X connect 5 17 23 0;
#X connect 5 18 24 0;
#X connect 27 0 5 0;
#X connect 27 0 26 0;
#X connect 27 1 25 0;
