#N canvas 0 0 1230 680 24;
#X obj 244 2 inlet;
#X obj 253 445 outlet;
#X obj 347 444 outlet;
#X obj 136 449 outlet;
#X obj 473 442 outlet;
#X obj 244 102 unpack s 0 0 0;
#X obj 613 211 select /accelerometer;
#X obj 557 380 int;
#X obj 617 380 int;
#X obj 677 380 int;
#X obj 747 39 inlet;
#X msg 747 103 symbol \$1;
#X connect 0 0 5 0;
#X connect 5 0 4 0;
#X connect 5 0 6 0;
#X connect 5 1 7 1;
#X connect 5 2 8 1;
#X connect 5 3 9 1;
#X connect 6 0 7 0;
#X connect 6 0 8 0;
#X connect 6 0 9 0;
#X connect 7 0 3 0;
#X connect 8 0 1 0;
#X connect 9 0 2 0;
#X connect 10 0 11 0;
#X connect 11 0 6 1;
