#N canvas -8 -8 1366 696 24;
#X obj 297 506 int;
#X obj 992 640 noteout;
#X obj 948 597 makenote 64 10;
#X obj 126 105 osc 20185 192.168.1.19;
#X obj 267 54 bng 15 250 50 0 empty empty empty 17 7 0 10 -262144 -1
-1;
#X obj 441 201 tgl 15 0 empty empty empty 17 7 0 10 -262144 -1 -1 0
1;
#X obj 357 506 int;
#X obj 417 506 int;
#X floatatom 528 444 5 0 0 0 - - -, f 5;
#X floatatom 653 444 5 0 0 0 - - -, f 5;
#X floatatom 783 444 5 0 0 0 - - -, f 5;
#X obj 295 425 bng 15 250 50 0 empty empty empty 17 7 0 10 -262144
-1 -1;
#X obj 367 425 bng 15 250 50 0 empty empty empty 17 7 0 10 -262144
-1 -1;
#X obj 441 425 bng 15 250 50 0 empty empty empty 17 7 0 10 -262144
-1 -1;
#X obj 437 645 ctlout;
#X obj 577 645 ctlout;
#X obj 717 645 ctlout;
#X obj 126 242 routeOSC /*;
#X obj 126 323 print OSC;
#X connect 0 0 14 0;
#X connect 2 0 1 0;
#X connect 2 1 1 1;
#X connect 3 0 17 0;
#X connect 3 1 5 0;
#X connect 4 0 3 1;
#X connect 6 0 15 0;
#X connect 7 0 16 0;
#X connect 8 0 14 1;
#X connect 9 0 15 1;
#X connect 10 0 16 1;
#X connect 11 0 0 0;
#X connect 12 0 6 0;
#X connect 13 0 7 0;
#X connect 17 0 18 0;
