#N struct notvis float n float v;
#N canvas -8 -8 1280 758 10;
#X obj 965 329 pointer;
#X msg 912 299 bang;
#X msg 1002 415 0, f 4;
#N canvas 0 50 1280 758 dttut_01 0;
#X obj 80 53 struct notvis float n float v;
#X obj 157 130 drawnumber n 0 0 0 wwww;
#X obj 113 214 drawpolygon 255 2 0 n 10 0 0 10 -10 0 0 -10;
#X restore 1116 28 pd dttut_01;
#N canvas 397 50 624 742 dtout_01 0;
#X scalar notvis 64 51 \;;
#X scalar notvis 0 0 \;;
#X scalar notvis 0 0 \;;
#X scalar notvis 0 0 \;;
#X restore 1116 55 pd dtout_01;
#X obj 1002 460 append notvis n v;
#X obj 870 390 set notvis n v;
#X msg 964 299 traverse pd-dtout_01 \, bang;
#X connect 0 0 5 2;
#X connect 0 0 6 2;
#X connect 1 0 0 0;
#X connect 2 0 5 0;
#X connect 2 0 5 1;
#X connect 7 0 0 0;
