#N canvas -8 -8 1093 572 16;
#X obj 665 5 vu 48 560 vumeter empty -1 -8 1 12 -66577 -1 1 0;
#X obj 391 182 osc~ 997;
#X obj 288 85 bng 15 250 50 0 empty empty empty 17 7 0 10 -262144 -1
-1;
#X obj 391 320 snapshot~;
#X floatatom 407 504 5 0 0 0 - - vumeter, f 5;
#X floatatom 912 226 5 0 0 0 - - -, f 5;
#X floatatom 795 193 5 0 0 0 - - -, f 5;
#X obj 525 234 *~;
#X obj 601 218 vsl 24 256 0 1 0 0 empty empty empty 0 -9 0 10 -262144
-1 -1 4000 1;
#X floatatom 601 483 5 0 0 0 - - -, f 5;
#X obj 392 371 rmstodb;
#X obj 445 423 - 101;
#X obj 289 125 metro 64;
#X connect 0 0 6 0;
#X connect 0 1 5 0;
#X connect 1 0 7 0;
#X connect 2 0 12 0;
#X connect 3 0 10 0;
#X connect 7 0 3 0;
#X connect 8 0 7 1;
#X connect 8 0 9 0;
#X connect 10 0 11 0;
#X connect 11 0 4 0;
#X connect 12 0 3 0;
