#N canvas 68 79 1239 480 10;
#X obj -55 43 inlet;
#X obj 64 43 inlet;
#X msg -55 76 bang;
#X msg 74 188 stop;
#X obj 58 314 line~;
#X obj 57 365 outlet~;
#X obj -55 242 pack f 200;
#X msg -55 177 \$1;
#X obj 12 211 r at;
#X obj 57 232 del 200;
#X floatatom 182 109 5 0 0 0 - - -, f 5;
#X obj 163 111 vsl 8 32 0 0.9 0 0 empty empty empty 0 -9 0 10 -262144
-1 -1 2800 1;
#X floatatom 182 133 5 0 0 0 - - -, f 5;
#X obj 55 265 pack f 2500;
#X floatatom 104 108 5 0 0 0 - - -, f 5;
#X obj 104 161 s at;
#X obj 201 296 del;
#X msg 175 334 0 \$1;
#X connect 0 0 2 0;
#X connect 0 0 7 0;
#X connect 1 0 3 0;
#X connect 1 0 12 0;
#X connect 2 0 9 0;
#X connect 3 0 9 0;
#X connect 4 0 5 0;
#X connect 6 0 4 0;
#X connect 7 0 6 0;
#X connect 8 0 6 1;
#X connect 9 0 11 0;
#X connect 10 0 13 1;
#X connect 10 0 16 1;
#X connect 11 0 13 0;
#X connect 13 0 4 0;
#X connect 14 0 15 0;
#X connect 16 0 17 0;
#X connect 17 0 4 0;
#X coords 0 -1 1 1 127 60 2 100 100;
