#N canvas 664 364 450 300 10;
#X obj 280 28 ctlin 1;
#X floatatom 265 81 5 0 0 0 - - -, f 5;
#X obj 63 33 notein;
#X obj 133 182 noteout;
#X obj 282 164 ctlout 1;
#X obj 346 57 touchin;
#X connect 0 0 1 0;
#X connect 1 0 4 0;
#X connect 2 0 3 0;
#X connect 2 1 3 1;
#X connect 5 0 1 0;
