#N canvas 0 0 1263 715 12;
#X obj 644 179 int 0;
#X obj 729 237 + 1;
#X floatatom 585 321 5 0 0 0 - - -;
#X obj 644 139 until;
#X obj 729 269 mod 52;
#X obj 465 68 inlet;
#X text 751 25 The inlet takes a signal \, and bangs "until" which
sends bangs until the stored number ("int") becomes 52 \, at the same
time writing a random value into the array element. The "mod" provides
both a loop sentinel and a reset mechanism for the "tabwrite";
#X obj 593 411 tabread \$1;
#X obj 899 592 outlet;
#X obj 898 527 int;
#X obj 900 440 sel 0;
#X obj 822 132 inlet;
#X connect 0 0 1 0;
#X connect 0 0 2 0;
#X connect 1 0 4 0;
#X connect 2 0 7 0;
#X connect 3 0 0 0;
#X connect 4 0 0 1;
#X connect 5 0 3 0;
#X connect 7 0 10 0;
#X connect 9 0 8 0;
#X connect 10 0 9 0;
#X connect 10 1 9 1;
#X connect 11 0 10 1;
