#N canvas 516 131 181 194 10;
#X obj 383 577 ctlout 1;
#X obj 455 577 ctlout 2;
#X obj 523 578 ctlout 3;
#X obj 597 579 ctlout 4;
#X obj 667 578 ctlout 5;
#X obj 740 579 ctlout 6;
#X floatatom 793 507 5 0 0 0 - - -, f 5;
#X obj 51 114 vradio 15 1 0 8 empty empty empty 0 -8 0 10 -262144 -1
-1 4;
#X obj 68 114 vradio 15 1 0 8 empty empty empty 0 -8 0 10 -262144 -1
-1 3;
#X obj 85 114 vradio 15 1 0 8 empty empty empty 0 -8 0 10 -262144 -1
-1 1;
#X obj 102 114 vradio 15 1 0 8 empty empty empty 0 -8 0 10 -262144
-1 -1 1;
#X obj 119 114 vradio 15 1 0 8 empty empty empty 0 -8 0 10 -262144
-1 -1 1;
#X obj 34 114 vradio 15 1 0 8 empty empty empty 0 -8 0 10 -262144 -1
-1 4;
#X obj 765 362 bng 15 250 50 0 empty empty empty 17 7 0 10 -262144
-1 -1;
#X connect 6 0 0 2;
#X connect 6 0 1 2;
#X connect 6 0 2 2;
#X connect 6 0 3 2;
#X connect 6 0 4 2;
#X connect 6 0 5 2;
#X connect 7 0 1 0;
#X connect 8 0 2 0;
#X connect 9 0 3 0;
#X connect 10 0 4 0;
#X connect 11 0 5 0;
#X connect 12 0 0 0;
#X connect 13 0 6 0;
