#N canvas 1 1 1263 715 12;
#X obj 125 224 gemwin;
#X msg 24 173 create;
#X msg 173 170 destroy;
#X obj 259 118 gemhead;
#X msg 164 123 1;
#X msg 122 122 0;
#X obj 267 213 color 0.5 0.2 0.1;
#X floatatom 533 61 5 1 2 0 - - -;
#X obj 272 176 translate 0 2 1 0;
#X floatatom 415 107 5 0 1 0 - - -;
#X obj 434 1 ctlin;
#X floatatom 114 33 5 0 0 0 - - -;
#X floatatom 396 29 5 0 0 0 - - -;
#X obj 204 85 *;
#X obj 192 224 notein;
#X obj 501 372 dac~;
#X msg 481 425 \$1 \$1 \$1;
#X obj 311 310 * 0.01;
#X floatatom 304 353 5 0 0 0 - - -;
#X obj 503 234 world_light;
#X msg 57 77 lighting \$1;
#X obj 390 369 max 0.3;
#X obj 400 281 sphere 1;
#X obj 595 114 tgl 15 0 empty empty empty 17 7 0 10 -262144 -1 -1 1
1;
#X obj 613 258 i;
#X obj 666 202 + 1;
#X obj 662 252 % 100;
#X obj 614 296 t f f;
#X obj 661 362 * 0.01;
#X floatatom 596 434 5 0 0 0 - - -;
#N canvas 0 0 450 300 (subpatch) 0;
#X array array1 77971 float 2;
#X coords 0 1 77971 -1 200 140 1;
#X restore 19 296 graph;
#X obj 600 397 tabread array1;
#X obj 184 47 pix_texture;
#X obj 182 12 pix_image pics/text.jpg;
#X obj 553 7 bng 32 250 50 0 empty empty Start_animation 17 7 1 12
-83269 -1 -1;
#X obj 599 31 bng 32 250 50 0 empty empty Stop_animation 2 36 0 12
-262144 -1 -1;
#X floatatom 456 322 5 0 1 0 - - -;
#X obj 261 414 line 0 100;
#X msg 16 112 fullscreen \$1;
#X msg 240 269 \$1 100;
#X symbolatom 696 481 10 0 0 0 - - -;
#X text 462 565 comment;
#X obj 906 198 soundfiler;
#X obj 102 -65 loadbang;
#X msg 38 -43 1;
#X msg 55 -7 0;
#X obj 835 82 select 60;
#X text 871 -32 Create a network PONG game in PD;
#X obj 581 160 metro 10;
#X connect 1 0 0 0;
#X connect 2 0 0 0;
#X connect 3 0 8 0;
#X connect 3 0 19 0;
#X connect 4 0 0 0;
#X connect 5 0 0 0;
#X connect 6 0 33 0;
#X connect 7 0 22 1;
#X connect 8 0 6 0;
#X connect 9 0 8 1;
#X connect 10 0 12 0;
#X connect 11 0 13 1;
#X connect 12 0 13 0;
#X connect 13 0 9 0;
#X connect 14 0 46 0;
#X connect 14 1 39 0;
#X connect 16 0 6 1;
#X connect 17 0 18 0;
#X connect 17 0 21 0;
#X connect 20 0 0 0;
#X connect 21 0 16 0;
#X connect 23 0 48 0;
#X connect 24 0 25 0;
#X connect 24 0 27 0;
#X connect 25 0 26 0;
#X connect 26 0 24 1;
#X connect 27 0 31 0;
#X connect 27 1 28 0;
#X connect 28 0 8 1;
#X connect 29 0 8 2;
#X connect 31 0 29 0;
#X connect 32 0 22 0;
#X connect 33 0 32 0;
#X connect 34 0 1 0;
#X connect 34 0 4 0;
#X connect 35 0 2 0;
#X connect 36 0 21 1;
#X connect 37 0 17 0;
#X connect 38 0 0 0;
#X connect 39 0 37 0;
#X connect 43 0 44 0;
#X connect 43 0 1 0;
#X connect 43 0 23 0;
#X connect 43 0 4 0;
#X connect 43 0 45 0;
#X connect 44 0 20 0;
#X connect 44 0 38 0;
#X connect 46 0 2 0;
#X connect 48 0 24 0;
