#N canvas -8 -8 1280 758 10;
#X obj 643 611 ctlout;
#X obj 106 193 vsl 36 127 1 127 0 0 ccv1 ccval1 empty 0 -9 0 10 -45076
-159808 -1 11000 1;
#X obj 238 122 hradio 16 1 0 16 ch empty Channel 0 -8 0 10 -83269 -257985
-1 6;
#X obj 1051 323 table CCMEM 1904;
#X obj 845 384 +;
#X obj 863 358 * 119;
#X obj 852 411 tabread CCMEM;
#X obj 695 611 tabwrite CCMEM;
#X obj 433 144 nbx 2 32 -1e+037 1e+037 0 0 empty ch empty 0 -8 0 24
-83269 -257985 -1 6 256;
#X obj 1051 345 table CCMAP 16;
#X obj 959 412 tabwrite CCMAP;
#X obj 1067 412 tabread CCMAP;
#X obj 852 606 s ccval;
#X obj 105 122 hradio 16 1 0 8 ccm ccnsel Controller 0 -8 0 10 -86853
-260097 -1 3;
#X obj 727 557 r ch;
#X obj 863 209 r ch;
#X obj 1060 385 r ccm;
#X floatatom 959 387 5 1 119 2 Edit - -, f 5;
#X obj 1066 438 s ccn;
#X obj 688 556 r cc;
#X obj 105 144 nbx 3 32 1 119 0 0 cc ccn empty 0 -8 0 24 -86853 -260097
-1 20 256;
#X obj 827 358 r cc;
#X obj 156 193 vsl 36 127 1 127 0 0 ccv2 ccval2 empty 0 -9 0 10 -45076
-159808 -1 8300 1;
#X obj 207 193 vsl 36 127 1 127 0 0 ccv3 ccval3 empty 0 -9 0 10 -45076
-159808 -1 8500 1;
#X obj 257 193 vsl 36 127 1 127 0 0 ccv4 ccval4 empty 0 -9 0 10 -45076
-159808 -1 8300 1;
#X obj 306 193 vsl 36 127 1 127 0 0 ccv5 ccval5 empty 0 -9 0 10 -45076
-159808 -1 5300 1;
#X obj 357 193 vsl 36 127 1 127 0 0 ccv6 ccval6 empty 0 -9 0 10 -45076
-159808 -1 12600 1;
#X obj 406 193 vsl 36 127 1 127 0 0 ccv7 ccval7 empty 0 -9 0 10 -45076
-159808 -1 5400 1;
#X obj 458 193 vsl 36 127 1 127 0 0 ccv8 ccval8 empty 0 -9 0 10 -45076
-159808 -1 12600 1;
#X msg 418 394 0;
#X msg 418 421 1;
#X msg 418 448 2;
#X msg 418 475 3;
#X msg 418 502 4;
#X msg 418 529 5;
#X msg 418 556 6;
#X msg 418 583 7;
#X obj 456 607 s ccnsel;
#X obj 460 392 r ccv1;
#X obj 460 420 r ccv2;
#X obj 460 444 r ccv3;
#X obj 460 470 r ccv4;
#X obj 461 494 r ccv5;
#X obj 461 518 r ccv6;
#X obj 462 544 r ccv7;
#X obj 463 567 r ccv8;
#X obj 959 326 r cc;
#X connect 4 0 7 1;
#X connect 4 0 6 0;
#X connect 5 0 4 1;
#X connect 6 0 12 0;
#X connect 11 0 18 0;
#X connect 11 0 17 0;
#X connect 14 0 0 2;
#X connect 15 0 5 0;
#X connect 16 0 10 1;
#X connect 16 0 11 0;
#X connect 17 0 10 0;
#X connect 17 0 18 0;
#X connect 19 0 0 1;
#X connect 21 0 4 0;
#X connect 29 0 37 0;
#X connect 30 0 37 0;
#X connect 31 0 37 0;
#X connect 32 0 37 0;
#X connect 33 0 37 0;
#X connect 34 0 37 0;
#X connect 35 0 37 0;
#X connect 36 0 37 0;
#X connect 38 0 0 0;
#X connect 38 0 7 0;
#X connect 38 0 29 0;
#X connect 39 0 0 0;
#X connect 39 0 7 0;
#X connect 39 0 30 0;
#X connect 40 0 0 0;
#X connect 40 0 7 0;
#X connect 40 0 31 0;
#X connect 41 0 0 0;
#X connect 41 0 7 0;
#X connect 41 0 32 0;
#X connect 42 0 0 0;
#X connect 42 0 7 0;
#X connect 42 0 33 0;
#X connect 43 0 0 0;
#X connect 43 0 7 0;
#X connect 43 0 34 0;
#X connect 44 0 0 0;
#X connect 44 0 7 0;
#X connect 44 0 35 0;
#X connect 45 0 0 0;
#X connect 45 0 7 0;
#X connect 45 0 36 0;
#X connect 46 0 17 0;
#X coords 0 -1 1 1 400 240 1 100 100;
