#N canvas 568 150 787 300 10;
#X obj 145 103 / 16;
#X obj 145 75 - 36;
#X obj 193 103 mod 16;
#X obj 193 133 outlet;
#X obj 145 163 outlet;
#X floatatom 268 166 5 0 0 0 - - -, f 5;
#X floatatom 45 170 5 0 0 0 - - -, f 5;
#X obj 145 41 notein;
#X floatatom 47 135 5 0 0 0 - - -, f 5;
#X obj 145 133 int;
#X obj 321 41 touchin;
#X obj 256 133 outlet;
#X obj 321 129 outlet;
#X obj 386 129 outlet;
#X obj 386 40 ctlin;
#X obj 439 129 outlet;
#X connect 0 0 9 0;
#X connect 1 0 0 0;
#X connect 1 0 2 0;
#X connect 2 0 3 0;
#X connect 2 0 5 0;
#X connect 7 0 1 0;
#X connect 7 0 8 0;
#X connect 7 1 11 0;
#X connect 9 0 6 0;
#X connect 9 0 4 0;
#X connect 10 0 12 0;
#X connect 14 0 13 0;
#X connect 14 1 15 0;
