#N canvas -8 -8 1280 758 10;
#X obj 264 -91 adc~;
#X obj 727 -25 vu 36 480 empty empty -1 -8 0 10 -66577 -1 1 0;
#X obj 74 -85 bang~;
#X obj 526 276 vsl 15 128 -1 1 0 0 empty empty empty 0 -9 0 10 -262144
-1 -1 12700 1;
#X obj 110 357 nbx 5 36 -100 100 0 0 empty empty empty 0 -8 0 36 -262144
-1 -1 8.85543 256;
#X obj 74 -51 spigot;
#X obj 123 -85 tgl 15 0 empty empty empty 17 7 0 10 -262144 -1 -1 0
1;
#X obj 399 119 -;
#X floatatom 456 61 5 0 100 0 - - -, f 5;
#X obj 685 -25 vsl 36 480 1 127 0 0 empty empty empty 0 -9 0 10 -262144
-1 -1 1300 1;
#X obj 263 -10 env~;
#X obj 393 9 dac~;
#X connect 0 0 10 0;
#X connect 0 1 11 1;
#X connect 2 0 5 0;
#X connect 6 0 5 1;
#X connect 7 0 1 0;
#X connect 8 0 7 1;
#X connect 10 0 4 0;
#X connect 10 0 3 0;
#X connect 10 0 7 0;
