#N canvas -9 -9 1845 1028 10;
#X obj 124 105 adc~;
#X obj 271 147 dac~;
#N canvas -1929 104 1920 1028 signalampdiv 1;
#X obj 111 353 select 1;
#X obj 199 353 select 1;
#X obj 30 353 select 1;
#X obj 293 353 select 1;
#X obj 293 403 s \$0-ledWEAK;
#X obj 30 403 s \$0-ledCLIP;
#X obj 111 403 s \$0-ledUNITY;
#X obj 199 403 s \$0-ledSTRONG;
#X obj 485 82 sqrt;
#X floatatom 485 125 9 0 0 0 V - -;
#X obj 485 179 log 10;
#X obj 485 203 * 20;
#X floatatom 485 232 9 -140 140 0 dBu - -;
#X obj 109 129 dbtorms;
#X obj 485 150 / 0.77459;
#X obj 367 69 bng 12 250 50 0 empty \$0-ledWEAK - 12 5 1 10 -4290 -4034
-1;
#X obj 367 56 bng 12 250 50 0 empty \$0-ledSTRONG - 12 5 1 10 -4290
-4034 -1;
#X obj 367 43 bng 12 250 50 0 empty \$0-ledUNITY - 12 5 1 10 -4290
-260097 -1;
#X obj 367 30 bng 12 250 50 0 empty \$0-ledCLIP - 12 5 1 10 -4290 -258113
-1;
#X obj 109 9 inlet~;
#X obj 383 29 cnv 12 32 12 empty empty CLIP 1 7 0 10 -233017 -66577
0;
#X obj 383 42 cnv 12 32 12 empty empty 8 10 7 0 10 -233017 -66577 0
;
#X obj 383 55 cnv 12 32 12 empty empty 0 10 7 0 10 -233017 -66577 0
;
#X obj 383 68 cnv 12 32 12 empty empty 20 6 7 0 10 -233017 -66577 0
;
#X obj 485 374 line -110;
#X obj 109 83 env~ 512 256;
#X obj 293 328 > -23;
#X obj 440 23 r \$0-insignal;
#X obj 109 154 s \$0-insignal;
#X obj 485 404 s \$0-dbu;
#X obj 30 185 r \$0-dbu;
#X obj 440 51 select 0;
#X obj 111 328 > 3.99;
#X obj 30 328 > 7.99;
#X obj 239 217 unpack f f f f;
#X text 688 84 if signal 0 \, set manual voltage;
#X msg 420 347 0 60 20;
#X obj 239 186 r \$0-lvlth;
#X obj 567 404 s \$0-dbv;
#X obj 567 179 log 10;
#X floatatom 567 233 9 -140 140 0 dBV - -;
#X obj 567 373 line -110;
#X obj 125 185 r \$0-dbv;
#X obj 567 203 * 20;
#X floatatom 49 84 8 0 2000 0 mW - -;
#X obj 49 107 / 1000;
#X obj 420 277 delay 4000;
#X msg 485 347 \$1 300 20;
#X msg 567 346 \$1 300 20;
#X obj 30 229 f;
#X obj 436 101 bng 15 250 50 0 empty empty empty 17 7 0 10 -262144
-1 -1;
#X obj 125 207 + 10;
#X obj 199 328 > -0.1;
#X obj 30 207 - 4;
#X floatatom 112 251 12 0 0 0 - - -;
#X floatatom 125 230 12 0 0 0 - - -;
#X connect 0 0 6 0;
#X connect 1 0 7 0;
#X connect 2 0 5 0;
#X connect 3 0 4 0;
#X connect 8 0 9 0;
#X connect 8 0 39 0;
#X connect 9 0 14 0;
#X connect 10 0 11 0;
#X connect 11 0 12 0;
#X connect 12 0 47 0;
#X connect 13 0 28 0;
#X connect 14 0 10 0;
#X connect 19 0 25 0;
#X connect 24 0 29 0;
#X connect 25 0 13 0;
#X connect 26 0 3 0;
#X connect 27 0 31 0;
#X connect 30 0 53 0;
#X connect 31 0 50 0;
#X connect 31 1 8 0;
#X connect 32 0 0 0;
#X connect 33 0 2 0;
#X connect 34 0 33 1;
#X connect 34 1 32 1;
#X connect 34 2 52 1;
#X connect 34 3 26 1;
#X connect 36 0 24 0;
#X connect 37 0 34 0;
#X connect 39 0 43 0;
#X connect 40 0 48 0;
#X connect 41 0 38 0;
#X connect 42 0 51 0;
#X connect 43 0 40 0;
#X connect 44 0 45 0;
#X connect 45 0 28 0;
#X connect 46 0 36 0;
#X connect 47 0 24 0;
#X connect 48 0 41 0;
#X connect 49 0 26 0;
#X connect 49 0 32 0;
#X connect 49 0 33 0;
#X connect 49 0 52 0;
#X connect 49 0 54 0;
#X connect 51 0 55 0;
#X connect 52 0 1 0;
#X connect 53 0 49 0;
#X coords 0 -1 1 1 64 96 2 360 24;
#X restore 345 133 pd signalampdiv;
#X obj 81 105 noise~;
#X obj 271 79 *~ 1;
#X obj 271 53 r~ multisrc;
#X obj 519 370 s~ multisrc;
#X obj 326 277 s \$0-lvlth;
#X obj 519 70 osc~ 1000;
#X msg 326 254 7.99 3.99 -0.1 -22.001;
#N canvas 69 130 966 748 modmonochan 1;
#X obj 188 97 inlet~;
#X obj 408 98 inlet~;
#X obj 236 219 dbtorms;
#X floatatom 108 169 5 -10 40 3 GAIN - #0-modgain;
#X obj 236 97 r \$0-modgain;
#X obj 188 269 *~;
#X obj 316 97 r \$0-modlevel;
#X obj 188 340 outlet~;
#X obj 108 301 hsl 32 32 0 110 0 0 \$0-modlevel empty LEVEL -2 -8 0
10 -262144 -1 -1 4700 0;
#X obj 236 191 +;
#X obj 251 163 t b f;
#X floatatom 236 310 5 0 0 0 - - -;
#N canvas 0 50 450 300 smoothup 0;
#X obj 118 64 line;
#X obj 118 5 inlet;
#X obj 118 93 outlet;
#X obj 118 34 pack 0 60 20;
#X connect 0 0 2 0;
#X connect 1 0 3 0;
#X connect 3 0 0 0;
#X restore 236 129 pd smoothup;
#N canvas 0 50 450 300 smoothup 0;
#X obj 118 64 line;
#X obj 118 5 inlet;
#X obj 118 93 outlet;
#X obj 118 34 pack 0 60 20;
#X connect 0 0 2 0;
#X connect 1 0 3 0;
#X connect 3 0 0 0;
#X restore 315 129 pd smoothup;
#X floatatom 105 338 5 0 0 0 - - -;
#X floatatom 237 271 5 0 0 0 - - -;
#X connect 0 0 5 0;
#X connect 2 0 5 1;
#X connect 2 0 15 0;
#X connect 4 0 12 0;
#X connect 5 0 7 0;
#X connect 6 0 13 0;
#X connect 8 0 14 0;
#X connect 9 0 2 0;
#X connect 10 0 9 0;
#X connect 10 1 9 1;
#X connect 12 0 9 0;
#X connect 13 0 10 0;
#X coords 0 -1 1 1 48 256 2 100 100;
#X restore 519 98 pd modmonochan;
#X connect 4 0 2 0;
#X connect 4 0 1 0;
#X connect 4 0 1 1;
#X connect 5 0 4 0;
#X connect 8 0 10 0;
#X connect 9 0 7 0;
#X connect 10 0 6 0;
