#N canvas -8 -8 1280 758 10;
#X floatatom 52 312 5 0 0 0 - - -, f 5;
#X obj 627 200 metro 500;
#X obj 627 160 tgl 15 0 empty empty empty 17 7 0 10 -262144 -1 -1 0
1;
#X floatatom 687 159 5 0 0 0 - - -, f 5;
#X obj 56 49 notein 49;
#X obj 259 88 stripnote;
#X obj 267 108 stripnote;
#X obj 277 128 stripnote;
#X obj 287 148 stripnote;
#X obj 296 169 stripnote;
#X obj 306 188 stripnote;
#X obj 314 208 stripnote;
#X obj 323 228 stripnote;
#X obj 334 248 stripnote;
#X obj 343 266 stripnote;
#X obj 352 284 stripnote;
#X obj 362 303 stripnote;
#X obj 371 323 stripnote;
#X obj 380 342 stripnote;
#X obj 388 361 stripnote;
#X obj 398 379 stripnote;
#X obj 64 69 notein 50;
#X obj 74 89 notein 51;
#X obj 84 109 notein 52;
#X obj 93 130 notein 53;
#X obj 103 149 notein 54;
#X obj 111 169 notein 55;
#X obj 120 189 notein 56;
#X obj 131 209 notein 57;
#X obj 140 227 notein 58;
#X obj 149 245 notein 59;
#X obj 159 264 notein 60;
#X obj 168 284 notein 61;
#X obj 177 303 notein 62;
#X obj 185 322 notein 63;
#X obj 195 340 notein 64;
#N canvas 661 126 450 300 gemshit 0;
#X obj 73 218 gemwin;
#X obj 74 31 loadbang;
#X obj 105 105 tgl 15 0 empty empty empty 17 7 0 10 -262144 -1 -1 0
1;
#X obj 177 151 select 0 1;
#X msg 62 177 0 \, destroy \, reset;
#X msg 186 178 reset \, create \, 1;
#X connect 1 0 2 0;
#X connect 2 0 3 0;
#X connect 3 0 4 0;
#X connect 3 1 5 0;
#X connect 4 0 0 0;
#X connect 5 0 0 0;
#X coords 0 -1 1 1 85 60 1 100 100;
#X restore 725 399 pd gemshit;
#X obj 676 294 gemhead;
#X msg 531 604 draw fill;
#X obj 191 585 color;
#X floatatom 277 563 5 0 0 0 - - -, f 5;
#X obj 733 489 delay 20;
#X obj 650 663 rectangle 0.06 0.06;
#X obj 628 542 translate 0 -3 0;
#X msg 573 379 \$1 0 0;
#X obj 281 462 * 0.125;
#X obj 281 425 - 72;
#X obj 904 363 line;
#X obj 678 627 color 0.5 0.5 0.5;
#X msg 903 416 \$1 \$1 \$1;
#X msg 967 483 1 1 1;
#X obj 1006 239 t b b;
#X obj 955 296 delay 30;
#X msg 906 330 0.2 100;
#X connect 2 0 1 0;
#X connect 3 0 1 1;
#X connect 4 0 5 0;
#X connect 4 1 5 1;
#X connect 9 0 46 0;
#X connect 9 0 51 0;
#X connect 21 0 6 0;
#X connect 21 1 6 1;
#X connect 22 0 7 0;
#X connect 22 1 7 1;
#X connect 23 0 8 0;
#X connect 23 1 8 1;
#X connect 24 0 9 0;
#X connect 24 1 9 1;
#X connect 25 0 10 0;
#X connect 25 1 10 1;
#X connect 26 0 11 0;
#X connect 26 1 11 1;
#X connect 27 0 12 0;
#X connect 27 1 12 1;
#X connect 28 0 13 0;
#X connect 28 1 13 1;
#X connect 29 0 14 0;
#X connect 29 1 14 1;
#X connect 30 0 15 0;
#X connect 30 1 15 1;
#X connect 31 0 16 0;
#X connect 31 1 16 1;
#X connect 32 0 17 0;
#X connect 32 1 17 1;
#X connect 33 0 18 0;
#X connect 33 1 18 1;
#X connect 34 0 19 0;
#X connect 34 1 19 1;
#X connect 35 0 20 0;
#X connect 35 1 20 1;
#X connect 37 0 43 0;
#X connect 38 0 42 0;
#X connect 43 0 48 0;
#X connect 44 0 43 2;
#X connect 45 0 40 0;
#X connect 45 0 44 0;
#X connect 46 0 45 0;
#X connect 47 0 49 0;
#X connect 48 0 42 0;
#X connect 49 0 48 1;
#X connect 50 0 48 1;
#X connect 51 0 52 0;
#X connect 51 1 50 0;
#X connect 52 0 53 0;
#X connect 53 0 47 0;
