#N canvas -272 -1089 1920 1028 12;
#X obj 497 460 dac~;
#X obj 377 32 notein;
#N canvas -9 -9 1366 716 rlib_adsr 0;
#X obj 13 33 inlet;
#X obj 13 329 outlet;
#X obj 166 329 outlet;
#X obj 250 329 outlet;
#X obj 123 181 *;
#X obj 13 56 / 127;
#X msg 13 295 \$2 \$3;
#X msg 166 295 \$2 \$3;
#X obj 13 270 pack 0 0 0;
#X obj 166 270 pack 0 0 0;
#X obj 250 270 pack 0 0;
#X obj 56 33 inlet;
#X obj 13 180 t b f;
#X msg 56 180 stop;
#X obj 166 246 delay;
#X msg 250 295 0 \$2;
#X obj 122 32 inlet;
#X obj 163 32 inlet;
#X obj 204 32 inlet;
#X obj 245 32 inlet;
#X text 15 4 note on;
#X text 58 4 note off;
#X text 125 11 att;
#X text 208 11 dcy;
#X text 167 11 stn;
#X text 251 11 rls;
#X connect 0 0 5 0;
#X connect 4 0 9 1;
#X connect 5 0 12 0;
#X connect 5 0 4 0;
#X connect 6 0 1 0;
#X connect 7 0 2 0;
#X connect 8 0 6 0;
#X connect 9 0 7 0;
#X connect 10 0 15 0;
#X connect 11 0 10 0;
#X connect 11 0 13 0;
#X connect 12 0 8 0;
#X connect 12 0 14 0;
#X connect 12 1 8 1;
#X connect 13 0 14 0;
#X connect 14 0 9 0;
#X connect 15 0 3 0;
#X connect 16 0 8 2;
#X connect 16 0 14 1;
#X connect 17 0 4 1;
#X connect 18 0 9 2;
#X connect 19 0 10 1;
#X coords 0 358 1 357 160 48 0;
#X restore 547 239 pd rlib_adsr;
#N canvas -9 -9 1366 716 rlib_notepre 0;
#X obj 217 182 stripnote;
#X obj 126 122 t b f;
#X obj 127 182 float;
#X obj 178 251 float;
#X obj 127 206 sel 0;
#X obj 178 279 select;
#X obj 126 23 inlet;
#X obj 199 23 inlet;
#X obj 178 313 outlet;
#X obj 217 152 r pit;
#X obj 277 152 r vel;
#X obj 126 97 r pit;
#X obj 159 151 r vel;
#X obj 126 61 s pit;
#X obj 199 61 s vel;
#X obj 112 313 outlet;
#X obj 112 279 r vel;
#X obj 51 313 outlet;
#X obj 51 279 r pit;
#X connect 0 0 5 1;
#X connect 1 0 2 0;
#X connect 1 1 3 1;
#X connect 2 0 4 0;
#X connect 3 0 5 0;
#X connect 4 0 3 0;
#X connect 5 0 8 0;
#X connect 6 0 13 0;
#X connect 7 0 14 0;
#X connect 9 0 0 0;
#X connect 10 0 0 1;
#X connect 11 0 1 0;
#X connect 12 0 2 1;
#X connect 16 0 15 0;
#X connect 18 0 17 0;
#X restore 377 77 pd rlib_notepre;
#N canvas -9 -9 1366 716 rlib_oscbank 0;
#X obj 34 142 osc~;
#X obj 401 285 *~;
#X obj 34 54 mtof;
#X obj 401 323 outlet~;
#X obj 34 6 inlet;
#X obj 419 9 inlet;
#X obj 419 36 line~;
#X obj 69 115 * 2;
#X obj 69 142 osc~;
#X obj 33 340 +~;
#X obj 34 115 * 1;
#X obj 110 115 * 3;
#X obj 145 115 * 4;
#X obj 182 115 * 5;
#X obj 217 115 * 6;
#X obj 254 115 * 7;
#X obj 69 176 *~;
#X obj 69 213 +~;
#X obj 110 176 *~;
#X obj 145 176 *~;
#X obj 182 176 *~;
#X obj 217 176 *~;
#X obj 254 176 *~;
#X obj 110 142 osc~;
#X obj 145 142 osc~;
#X obj 182 142 osc~;
#X obj 217 142 osc~;
#X obj 254 142 osc~;
#X obj 69 233 +~;
#X obj 69 253 +~;
#X obj 69 273 +~;
#X obj 69 293 +~;
#X obj 69 313 +~;
#X obj 193 74 unpack 0 0 0 0 0 0;
#X text 74 7 <- midi note in;
#X text 463 8 <- amplitude env in;
#X obj 193 9 inlet;
#X text 232 10 <- harmonics amp list in;
#X obj 20 176 *~ 0.5;
#X obj 512 65 table saw1;
#X obj 543 308 soundfiler;
#X obj 543 204 r \$1-gui-radio1;
#X obj 543 226 select 0 1 2;
#X obj 659 236 vradio 11 1 0 3 \$1-gui-radio1 empty wave 0 -8 0 10
-262144 -1 -1 0;
#X msg 543 282 read ./waveshapes/saw.wav saw1;
#X obj 336 195 *~ 0.5;
#X obj 285 195 *~ 0.5;
#X obj 318 246 +~;
#X obj 336 171 tabosc4~ saw1;
#X obj 336 145 * 1.015;
#X obj 336 115 / 2;
#X connect 0 0 38 0;
#X connect 1 0 3 0;
#X connect 2 0 7 0;
#X connect 2 0 11 0;
#X connect 2 0 12 0;
#X connect 2 0 13 0;
#X connect 2 0 14 0;
#X connect 2 0 15 0;
#X connect 2 0 10 0;
#X connect 2 0 50 0;
#X connect 4 0 2 0;
#X connect 5 0 6 0;
#X connect 6 0 1 1;
#X connect 7 0 8 0;
#X connect 8 0 16 0;
#X connect 9 0 46 0;
#X connect 10 0 0 0;
#X connect 11 0 23 0;
#X connect 12 0 24 0;
#X connect 13 0 25 0;
#X connect 14 0 26 0;
#X connect 15 0 27 0;
#X connect 16 0 17 0;
#X connect 17 0 28 0;
#X connect 18 0 17 1;
#X connect 19 0 28 1;
#X connect 20 0 29 1;
#X connect 21 0 30 1;
#X connect 22 0 31 1;
#X connect 23 0 18 0;
#X connect 24 0 19 0;
#X connect 25 0 20 0;
#X connect 26 0 21 0;
#X connect 27 0 22 0;
#X connect 28 0 29 0;
#X connect 29 0 30 0;
#X connect 30 0 31 0;
#X connect 31 0 32 0;
#X connect 32 0 9 1;
#X connect 33 0 16 1;
#X connect 33 1 18 1;
#X connect 33 2 19 1;
#X connect 33 3 20 1;
#X connect 33 4 21 1;
#X connect 33 5 22 1;
#X connect 36 0 33 0;
#X connect 38 0 9 0;
#X connect 41 0 42 0;
#X connect 42 0 44 0;
#X connect 44 0 40 0;
#X connect 45 0 47 1;
#X connect 46 0 47 0;
#X connect 47 0 1 0;
#X connect 48 0 45 0;
#X connect 49 0 48 0;
#X connect 50 0 49 0;
#X coords 0 358 1 357 170 120 0;
#X restore 377 313 pd rlib_oscbank;
#X obj 497 424 *~;
#N canvas -9 -9 1366 716 rlib_abletonctl 0;
#X obj 206 433 t f f;
#X msg 206 359 116 127;
#X obj 206 462 ctlout 1 10;
#X msg 212 383 115 127;
#X msg 228 408 114 127;
#X text 159 478 TODO: create Pd control surface for standard control
;
#X obj 205 205 bng 15 250 50 0 empty empty [>] 0 24 0 16 -262144 -1
-1;
#X obj 232 205 bng 15 250 50 0 empty empty [_] 0 24 0 10 -262144 -1
-1;
#X obj 259 205 bng 15 250 50 0 empty empty o 0 24 0 16 -261234 -1 -1
;
#X text 224 302 Ableton Live Control;
#X connect 0 0 2 0;
#X connect 0 1 2 1;
#X connect 1 0 0 0;
#X connect 3 0 0 0;
#X connect 4 0 0 0;
#X connect 6 0 1 0;
#X connect 7 0 3 0;
#X connect 8 0 4 0;
#X coords 0 -1 1 1 170 120 2 200 200;
#X restore 49 28 pd rlib_abletonctl;
#N canvas -272 -1089 1914 1028 rlib_vol 0;
#X obj 121 192 dbtorms;
#X obj 121 224 pack 0 30;
#X obj 121 249 line~;
#X obj 121 304 outlet~;
#X obj 195 273 - 100;
#X obj 195 49 inlet;
#X obj 195 304 outlet;
#X text 190 29 ctl in;
#X obj 195 157 -;
#X msg 195 115 bang;
#X obj 195 136 int 96;
#X text 249 51 <- input should be inverted logarithmic \, so we get
more precision at the top (exp. rising) \, then below \, we invert
again to get dB setting (maybe this could be done better by multipliying
0-1);
#X text 243 305 <- disp out;
#X connect 0 0 1 0;
#X connect 1 0 2 0;
#X connect 2 0 3 0;
#X connect 4 0 6 0;
#X connect 5 0 8 1;
#X connect 5 0 9 0;
#X connect 8 0 0 0;
#X connect 8 0 4 0;
#X connect 9 0 10 0;
#X connect 10 0 8 0;
#X coords 0 514 1 513 64 160 0;
#X restore 515 397 pd rlib_vol;
#X obj 57 268 vsl 8 32 96 0.96 1 0 \$0-gui-slider1 empty Σ 0 -9 0
10 -228856 -1 -1 6300 1;
#X msg 403 217 bang;
#X obj 403 239 array get osc-hs;
#X obj 515 374 r \$0-gui-slider1;
#X obj 602 143 r \$0-gui-slider2;
#X obj 612 165 r \$0-gui-slider3;
#X obj 624 187 r \$0-gui-slider4;
#X obj 634 209 r \$0-gui-slider5;
#X obj 589 441 s \$0-gui-disp1;
#X obj 589 419 int;
#X obj 82 268 vsl 8 32 5 60 1 0 \$0-gui-slider2 empty A 0 -9 0 10 -191407
-1 -1 0 1;
#X obj 92 268 vsl 8 32 0.1 1 1 0 \$0-gui-slider3 empty s 0 -9 0 10
-228856 -1 -1 5500 1;
#X obj 102 268 vsl 8 32 50 200 1 0 \$0-gui-slider4 empty D 0 -9 0 10
-191407 -1 -1 2700 1;
#X obj 112 268 vsl 8 32 5 300 1 0 \$0-gui-slider5 empty R 0 -9 0 10
-191407 -1 -1 5700 1;
#X obj 529 31 array define -k -yrange 0 0.3 osc-hs 9;
#A 0 -0.00751185 0.289007 -0.00700912 0.298003 -0.00750834 0.292003
-0.00750443 0.291509 0.0814921;
#X text 49 230 ─── VCA ───;
#N canvas -9 -9 1366 716 rlib_filterbank 1;
#X obj 64 62 lop~ 20000;
#X obj 64 4 inlet~;
#X obj 64 111 outlet~;
#X obj 155 4 inlet;
#X obj 278 3 inlet;
#X obj 155 35 *;
#X obj 278 94 line;
#X connect 0 0 2 0;
#X connect 1 0 0 0;
#X connect 3 0 5 0;
#X connect 4 0 6 0;
#X connect 5 0 0 1;
#X connect 6 0 5 1;
#X restore 377 373 pd rlib_filterbank;
#N canvas -9 -9 1366 716 rlib_adsr2 0;
#X obj 13 33 inlet;
#X obj 13 329 outlet;
#X obj 166 329 outlet;
#X obj 250 329 outlet;
#X obj 123 181 *;
#X obj 13 56 / 127;
#X msg 13 295 \$2 \$3;
#X msg 166 295 \$2 \$3;
#X obj 13 270 pack 0 0 0;
#X obj 166 270 pack 0 0 0;
#X obj 250 270 pack 0 0;
#X obj 56 33 inlet;
#X obj 13 180 t b f;
#X msg 56 180 stop;
#X obj 166 246 delay;
#X msg 250 295 0 \$2;
#X obj 122 32 inlet;
#X obj 163 32 inlet;
#X obj 204 32 inlet;
#X obj 245 32 inlet;
#X text 15 4 note on;
#X text 58 4 note off;
#X text 125 11 att;
#X text 208 11 dcy;
#X text 167 11 stn;
#X text 251 11 rls;
#X connect 0 0 5 0;
#X connect 4 0 9 1;
#X connect 5 0 12 0;
#X connect 5 0 4 0;
#X connect 6 0 1 0;
#X connect 7 0 2 0;
#X connect 8 0 6 0;
#X connect 9 0 7 0;
#X connect 10 0 15 0;
#X connect 11 0 10 0;
#X connect 11 0 13 0;
#X connect 12 0 8 0;
#X connect 12 0 14 0;
#X connect 12 1 8 1;
#X connect 13 0 14 0;
#X connect 14 0 9 0;
#X connect 15 0 3 0;
#X connect 16 0 8 2;
#X connect 16 0 14 1;
#X connect 17 0 4 1;
#X connect 18 0 9 2;
#X connect 19 0 10 1;
#X coords 0 358 1 357 160 48 0;
#X restore 753 240 pd rlib_adsr2;
#X obj 56 360 vsl 8 32 30 20000 1 0 \$0-gui-slider6 empty C 0 -9 0
10 -191407 -1 -1 2300 1;
#X obj 439 344 r \$0-gui-slider6;
#X obj 81 360 vsl 8 32 5 60 1 0 \$0-gui-slider7 empty A 0 -9 0 10 -191407
-1 -1 1000 1;
#X obj 91 360 vsl 8 32 0.1 1 1 0 \$0-gui-slider8 empty s 0 -9 0 10
-228856 -1 -1 0 1;
#X obj 101 360 vsl 8 32 50 200 1 0 \$0-gui-slider9 empty D 0 -9 0 10
-191407 -1 -1 2600 1;
#X obj 111 360 vsl 8 32 5 300 1 0 \$0-gui-slider10 empty R 0 -9 0 10
-191407 -1 -1 3300 1;
#X obj 804 144 r \$0-gui-slider7;
#X obj 814 166 r \$0-gui-slider8;
#X obj 826 188 r \$0-gui-slider9;
#X obj 836 210 r \$0-gui-slider10;
#X obj 428 109 s non;
#X obj 479 109 s nof;
#X obj 547 165 r non;
#X obj 563 187 r nof;
#X obj 753 172 r non;
#X obj 770 194 r nof;
#X floatatom 365 432 5 0 0 0 - - -;
#X connect 1 0 3 0;
#X connect 1 1 3 1;
#X connect 2 0 4 2;
#X connect 2 1 4 2;
#X connect 2 2 4 2;
#X connect 3 0 4 0;
#X connect 3 0 9 0;
#X connect 3 1 36 0;
#X connect 3 2 37 0;
#X connect 4 0 24 0;
#X connect 5 0 0 0;
#X connect 5 0 0 1;
#X connect 7 0 5 1;
#X connect 7 1 17 0;
#X connect 9 0 10 0;
#X connect 10 0 4 1;
#X connect 11 0 7 0;
#X connect 12 0 2 2;
#X connect 13 0 2 3;
#X connect 14 0 2 4;
#X connect 15 0 2 5;
#X connect 17 0 16 0;
#X connect 24 0 5 0;
#X connect 25 0 24 2;
#X connect 25 1 24 2;
#X connect 25 2 24 2;
#X connect 27 0 24 1;
#X connect 27 0 42 0;
#X connect 32 0 25 2;
#X connect 33 0 25 3;
#X connect 34 0 25 4;
#X connect 35 0 25 5;
#X connect 38 0 2 0;
#X connect 39 0 2 1;
#X connect 40 0 25 0;
#X connect 41 0 25 1;
