#N canvas 236 425 450 300 10;
#X obj 94 229 netsend;
#X floatatom 92 258 5 0 0 0 - - -;
#X msg 166 146 disconnect;
#X obj 300 98 notein;
#X msg 112 82 connect 192.168.0.6 8988;
#X floatatom 295 181 5 0 0 0 - - -;
#X msg 265 223 send \$1;
#X obj 329 134 stripnote;
#X connect 0 0 1 0;
#X connect 2 0 0 0;
#X connect 3 0 7 0;
#X connect 3 1 7 1;
#X connect 4 0 0 0;
#X connect 5 0 6 0;
#X connect 6 0 0 0;
#X connect 7 0 5 0;
