#N canvas 87 51 626 383 10;
#X obj 203 7 notein;
#X obj 228 50 t b f;
#X obj 101 62 stripnote;
#X obj 220 73 float;
#X obj 191 96 sel 0;
#X obj 226 124 float;
#X obj 223 152 select;
#X obj 102 92 mtof;
#X obj 169 152 / 127;
#X obj 102 201 outlet;
#X text 328 52 MIDI IN real-time note-off handler patch;
#X obj 223 227 outlet;
#X obj 169 203 outlet;
#X msg 223 205 bang;
#X connect 0 0 1 0;
#X connect 0 0 2 0;
#X connect 0 1 3 1;
#X connect 0 1 2 1;
#X connect 1 0 3 0;
#X connect 1 1 5 1;
#X connect 2 0 6 1;
#X connect 2 0 7 0;
#X connect 3 0 4 0;
#X connect 4 0 5 0;
#X connect 4 1 8 0;
#X connect 5 0 6 0;
#X connect 6 0 13 0;
#X connect 7 0 9 0;
#X connect 8 0 12 0;
#X connect 13 0 11 0;
