#N canvas -9 -9 1366 716 10;
#X obj 1129 15 loadbang;
#X obj 849 -1 bng 20 250 50 0 mmbangcommon empty DUMPALL 22 10 0 20
-262144 -1 -1;
#X obj 15 77 abs_midimix_module;
#X obj 741 -1 bng 20 250 50 0 manualinit empty REINIT 22 10 0 20 -262144
-1 -1;
#X obj 1187 15 r manualinit;
#X obj 15 46 r ch1;
#X obj 81 47 r ch2;
#X obj 147 46 r ch3;
#X obj 213 47 r ch4;
#X obj 279 46 r ch5;
#X obj 345 46 r ch6;
#X obj 411 46 r ch7;
#X obj 477 46 r ch8;
#X obj 543 46 r ch9;
#X obj 609 46 r ch10;
#X obj 675 46 r ch11;
#X obj 741 46 r ch12;
#X obj 807 46 r ch13;
#X obj 873 46 r ch14;
#X obj 939 46 r ch15;
#X obj 1005 46 r ch16;
#X obj 939 77 abs_midimix_module;
#X obj 1005 77 abs_midimix_module;
#X obj 81 77 abs_midimix_module;
#X obj 147 77 abs_midimix_module;
#X obj 213 77 abs_midimix_module;
#X obj 279 77 abs_midimix_module;
#X obj 345 77 abs_midimix_module;
#X obj 411 77 abs_midimix_module;
#X obj 477 77 abs_midimix_module;
#X obj 543 77 abs_midimix_module;
#X obj 609 77 abs_midimix_module;
#X obj 675 77 abs_midimix_module;
#X obj 741 77 abs_midimix_module;
#X obj 807 77 abs_midimix_module;
#X obj 873 77 abs_midimix_module;
#X msg 1104 93 1 2 3 4 5 6 7 8 9 10 11 12 13 14 15 16;
#X msg 1099 137 \; ch1 symbol ch \, \$1 \; ch2 symbol ch \, \$2 \;
ch3 symbol ch \, \$3 \; ch4 symbol ch \, \$4 \; ch5 symbol ch \, \$5
\; ch6 symbol ch \, \$6 \; ch7 symbol ch \, \$7 \; ch8 symbol ch \,
\$8 \; ch9 symbol ch \, \$9 \; ch10 symbol ch \, \$10 \; ch11 symbol
ch \, \$11 \; ch12 symbol ch \, \$12 \; ch13 symbol ch \, \$13 \; ch14
symbol ch \, \$14 \; ch15 symbol ch \, \$15 \; ch16 symbol ch \, \$16
\;;
#X msg 1109 517 \; ch1 symbol pr \, \$1 \; ch2 symbol pr \, \$2 \;
ch3 symbol pr \, \$3 \; ch4 symbol pr \, \$4 \; ch5 symbol pr \, \$5
\; ch6 symbol pr \, \$6 \; ch7 symbol pr \, \$7 \; ch8 symbol pr \,
\$8 \; ch9 symbol pr \, \$9 \; ch10 symbol pr \, \$10 \; ch11 symbol
pr \, \$11 \; ch12 symbol pr \, \$12 \; ch13 symbol pr \, \$13 \; ch14
symbol pr \, \$14 \; ch15 symbol pr \, \$15 \; ch16 symbol pr \, \$16
\;;
#X msg 1077 416 41 41 41 41 41 41 41 42 42 0 43 43 44 44 58 58;
#X connect 0 0 36 0;
#X connect 4 0 36 0;
#X connect 5 0 2 0;
#X connect 6 0 23 0;
#X connect 7 0 24 0;
#X connect 8 0 25 0;
#X connect 9 0 26 0;
#X connect 10 0 27 0;
#X connect 11 0 28 0;
#X connect 12 0 29 0;
#X connect 13 0 30 0;
#X connect 14 0 31 0;
#X connect 15 0 32 0;
#X connect 16 0 33 0;
#X connect 17 0 34 0;
#X connect 18 0 35 0;
#X connect 19 0 21 0;
#X connect 20 0 22 0;
#X connect 36 0 37 0;
#X connect 39 0 38 0;
