#N canvas -128 30 640 762 10;
#X floatatom 43 221 6 0 0 0 - - -, f 6;
#X floatatom 99 222 6 0 0 0 - - -, f 6;
#X obj 44 195 pix_blob 4;
#X obj 44 81 gemhead;
#X obj 44 167 pix_movement;
#X obj 44 107 pix_video;
#N canvas 87 154 247 179 Gem.init 0;
#X obj 118 46 loadbang;
#X msg 118 81 reset;
#X obj 118 113 outlet;
#X connect 0 0 1 0;
#X connect 1 0 2 0;
#X restore 383 144 pd Gem.init;
#N canvas 340 107 682 322 gemwin 0;
#X obj 154 147 tgl 64 0 \$0-gemstart \$0-gemstart empty 17 7 0 10 -45076
-232576 -1 0 1;
#X obj 102 161 r \$0-gemstart;
#X obj 102 182 select 1 0;
#X msg 102 214 create \, 1;
#X msg 177 215 destroy;
#X obj 102 239 t a;
#X obj 318 54 inlet;
#X obj 318 255 gemwin;
#X obj 318 100 t a a;
#X obj 318 287 outlet;
#X obj 350 128 route create destroy;
#X obj 350 150 t b;
#X msg 350 172 1;
#X obj 390 150 t b;
#X msg 390 172 0;
#X obj 350 195 t f;
#X msg 350 219 set \$1;
#X text 111 121 rendering;
#X connect 1 0 2 0;
#X connect 2 0 3 0;
#X connect 2 1 4 0;
#X connect 3 0 5 0;
#X connect 4 0 5 0;
#X connect 5 0 8 0;
#X connect 6 0 8 0;
#X connect 7 0 9 0;
#X connect 8 0 7 0;
#X connect 8 1 10 0;
#X connect 10 0 11 0;
#X connect 10 1 13 0;
#X connect 11 0 12 0;
#X connect 12 0 15 0;
#X connect 13 0 14 0;
#X connect 14 0 15 0;
#X connect 15 0 16 0;
#X connect 16 0 0 0;
#X coords 0 -1 1 1 128 128 1 100 100;
#X restore 384 173 pd gemwin;
#X obj 281 170 vsl 64 128 1 0 0 0 empty empty Sensitivity 0 -9 0 10
-128992 -1 -1 10700 1;
#X obj 921 527 dac~;
#X obj 921 490 *~;
#X obj 44 314 int;
#X obj 44 137 pix_contrast;
#X obj 207 170 vsl 64 128 0 2 0 0 empty empty Contrast 0 -9 0 10 -203904
-66577 -99865 1100 1;
#X obj 843 364 t bang bang;
#X msg 771 305 bang;
#X obj 771 335 metro 200;
#X msg 886 391 0 200;
#X obj 939 456 line 1;
#X msg 939 391 1;
#N canvas 0 50 450 300 (subpatch) 0;
#X array array1 7 float 3;
#A 0 329.034 216.152 329.034 219.288 260.051 219.288 260.051;
#X coords 1 1 7 7 200 140 1 20 20;
#X restore 313 393 graph;
#X obj 772 364 random 7;
#X obj 772 391 tabread array1;
#X obj 772 423 *;
#X obj 939 427 * 1;
#X obj 99 315 int;
#X obj 831 213 + 1;
#N canvas 799 137 450 300 pulsecalc 0;
#X obj 80 40 inlet;
#X obj 295 41 inlet;
#X obj 217 153 /;
#X floatatom 177 56 6 0 0 0 - - -, f 6;
#X obj 173 233 /;
#X obj 266 260 outlet;
#X obj 334 188 int;
#X floatatom 214 202 5 0 0 0 - - -, f 5;
#X floatatom 173 282 5 0 0 0 - - -, f 5;
#X floatatom 295 63 5 0 0 0 - - -, f 5;
#X floatatom 80 62 5 0 0 0 - - -, f 5;
#X msg 166 31 bang;
#X obj 221 249 * 4;
#X connect 0 0 4 1;
#X connect 0 0 10 0;
#X connect 0 0 11 0;
#X connect 1 0 2 1;
#X connect 1 0 9 0;
#X connect 1 0 11 0;
#X connect 2 0 4 0;
#X connect 2 0 7 0;
#X connect 3 0 2 0;
#X connect 4 0 6 0;
#X connect 4 0 8 0;
#X connect 6 0 12 0;
#X connect 11 0 3 0;
#X connect 12 0 5 0;
#X restore 831 308 pd pulsecalc;
#X obj 831 282 * 2;
#X obj 912 159 nbx 5 64 30 200 0 0 empty empty empty 0 -8 1 72 -13381
-4034 -1 30 256;
#X obj 772 450 phasor~ 440;
#X obj 831 236 / 2;
#X obj 831 259 int;
#X obj 43 280 * 127;
#X obj 44 533 ctlout 16;
#X obj 124 533 ctlout 17;
#X obj 100 279 * 40;
#X floatatom 325 97 5 0 127 0 - - -, f 5;
#X floatatom 205 98 5 0 127 0 - - -, f 5;
#X floatatom 277 97 5 0 127 0 - - -, f 5;
#X obj 130 349 +;
#X obj 205 17 loadbang;
#X msg 206 55 126;
#X msg 324 54 40;
#X msg 266 59 70;
#X msg -16 188 bang;
#X msg -14 148 bang;
#X text 49 598 WARNING: INTRUDER ALARM SENT;
#X obj 196 359 pix_texture;
#X obj 191 423 rectangle 4 3;
#X connect 0 0 33 0;
#X connect 1 0 36 0;
#X connect 2 1 0 0;
#X connect 2 2 1 0;
#X connect 3 0 5 0;
#X connect 4 0 2 0;
#X connect 5 0 12 0;
#X connect 6 0 7 0;
#X connect 8 0 4 1;
#X connect 10 0 9 0;
#X connect 11 0 34 0;
#X connect 12 0 4 0;
#X connect 12 0 48 0;
#X connect 13 0 12 1;
#X connect 14 0 17 0;
#X connect 14 1 19 0;
#X connect 15 0 16 0;
#X connect 16 0 14 0;
#X connect 16 0 21 0;
#X connect 17 0 18 0;
#X connect 18 0 10 1;
#X connect 19 0 24 0;
#X connect 21 0 22 0;
#X connect 22 0 23 0;
#X connect 23 0 30 0;
#X connect 24 0 18 0;
#X connect 25 0 40 0;
#X connect 26 0 31 0;
#X connect 27 0 16 1;
#X connect 28 0 27 0;
#X connect 29 0 27 1;
#X connect 30 0 10 0;
#X connect 31 0 32 0;
#X connect 32 0 28 0;
#X connect 33 0 11 0;
#X connect 36 0 25 0;
#X connect 37 0 36 1;
#X connect 38 0 33 1;
#X connect 39 0 40 1;
#X connect 40 0 35 0;
#X connect 41 0 42 0;
#X connect 41 0 44 0;
#X connect 41 0 43 0;
#X connect 42 0 38 0;
#X connect 43 0 37 0;
#X connect 44 0 39 0;
#X connect 45 0 11 0;
#X connect 46 0 25 0;
#X connect 48 0 49 0;
