#N canvas 526 143 450 300 10;
#X obj 127 121 notein;
#X obj 102 206 noteout;
#X obj 245 100 ctlin;
#X obj 244 176 ctlout;
#X obj 336 109 touchin;
#X obj 334 157 touchout;
#X connect 0 0 1 0;
#X connect 0 1 1 1;
#X connect 0 2 1 2;
#X connect 2 0 3 0;
#X connect 2 1 3 1;
#X connect 2 2 3 2;
#X connect 4 0 5 0;
#X connect 4 1 5 1;
