#N canvas 339 59 617 608 10;
#X obj 23 375 hradio 72 1 0 8 raas empty empty 0 -8 0 10 -262144 -1
-1 7;
#N canvas 480 77 658 511 netconn 0;
#X obj 37 11 netsend;
#X msg 37 -36 connect 192.168.0.6 4000;
#X obj 170 144 tgl 15 0 empty empty empty -8 24 0 10 -86277 -4032 -13381
1 1;
#X msg 232 -103 send \$1;
#X obj 46 -97 select 0 1;
#X obj 370 73 send \$1;
#X msg 230 -37 disconnect;
#X obj 138 144 tgl 15 0 empty empty empty 17 7 0 10 -162280 -1 -1 1
1;
#X obj 384 -90 r raas;
#X connect 0 0 2 0;
#X connect 1 0 0 0;
#X connect 3 0 0 0;
#X connect 4 0 6 0;
#X connect 4 1 1 0;
#X connect 6 0 0 0;
#X connect 7 0 4 0;
#X connect 8 0 3 0;
#X coords 0 -1 1 1 120 80 2 100 100;
#X restore 488 8 pd netconn;
#X coords 0 0 1 1 85 60 0;
