#N canvas 0 50 1013 438 10;
#X obj 239 183 tabwrite nanoxy;
#X obj 163 62 ctlin 1;
#X obj 259 62 ctlin 2;
#X floatatom 259 84 5 0 0 0 - - -, f 5;
#X floatatom 163 84 5 0 0 0 - - -, f 5;
#X obj 237 214 table nanoxy 130;
#X msg 218 82 bang;
#X obj 502 70 int;
#X floatatom 502 94 5 0 0 0 - - -, f 5;
#X obj 784 81 unpack;
#X obj 548 43 r i;
#X msg 502 30 bang \; i \$1;
#X text 581 24 how to remember previous number: depth first message
passing dictates that the int outputs the stored number before storing
nextone;
#X obj 385 255 pack 0 0 0 0;
#X obj 648 245 t f f f f;
#X obj 598 329 print a;
#X obj 737 337 print b;
#X obj 679 391 print c;
#X obj 809 397 print d;
#X connect 1 0 4 0;
#X connect 2 0 3 0;
#X connect 2 0 6 0;
#X connect 3 0 11 0;
#X connect 3 0 13 2;
#X connect 4 0 13 3;
#X connect 6 0 4 0;
#X connect 7 0 8 0;
#X connect 8 0 13 0;
#X connect 10 0 7 1;
#X connect 11 0 7 0;
#X connect 13 0 14 0;
#X connect 14 0 0 1;
#X connect 14 0 18 0;
#X connect 14 1 0 0;
#X connect 14 1 17 0;
#X connect 14 2 0 1;
#X connect 14 2 16 0;
#X connect 14 3 0 0;
#X connect 14 3 15 0;
