#N canvas -4 -4 1280 762 10;
#X obj 335 235 netsend 1;
#X msg 81 255 disconnect;
#X floatatom 325 408 5 0 0 0 - - -;
#X obj 839 -19 notein;
#X msg 597 138 send notep \$1;
#X msg 400 130 send notev \$1;
#X floatatom 890 291 5 0 0 0 - - -;
#X obj 762 190 print;
#X obj 1056 455 bng 64 250 50 0 empty empty empty 17 7 0 64 -4034 -1
-1;
#X obj 694 67 stripnote;
#X text 263 435 Paziti da u netrecieve-u bude naznacen odgovarajuci
protkol!!!;
#X obj 376 294 select 0;
#X msg 430 376 0;
#X floatatom 477 -11 1 0 1 0 - - -;
#X msg 707 -3 60;
#X obj 494 52 metro 500;
#X obj 298 44 metro 5000;
#X floatatom 388 -11 1 0 1 0 - - -;
#X floatatom 530 598 5 0 0 0 - - -;
#X floatatom 578 598 5 0 0 0 - - -;
#X floatatom 627 597 5 0 0 0 - - -;
#X floatatom 676 596 5 0 0 0 - - -;
#X obj 572 639 pack f f f f;
#X obj 123 653 print;
#X obj 461 497 netreceive 44641 1;
#X obj 984 86 random 12;
#X obj 1019 170 + 60;
#X obj 477 541 route karoga karogb karogc karogd karogx;
#X msg 451 682 connect \$1.\$2.\$3.\$4 3001;
#X connect 0 0 2 0;
#X connect 0 0 11 0;
#X connect 1 0 0 0;
#X connect 2 0 13 0;
#X connect 3 0 9 0;
#X connect 3 1 6 0;
#X connect 3 1 9 1;
#X connect 4 0 0 0;
#X connect 5 0 0 0;
#X connect 6 0 8 0;
#X connect 9 0 4 0;
#X connect 9 1 5 0;
#X connect 11 1 12 0;
#X connect 12 0 16 0;
#X connect 13 0 15 0;
#X connect 14 0 9 1;
#X connect 15 0 14 0;
#X connect 15 0 25 0;
#X connect 17 0 16 0;
#X connect 18 0 22 0;
#X connect 19 0 22 1;
#X connect 20 0 22 2;
#X connect 21 0 22 3;
#X connect 22 0 23 0;
#X connect 22 0 28 0;
#X connect 24 0 23 0;
#X connect 24 0 27 0;
#X connect 25 0 26 0;
#X connect 26 0 9 0;
#X connect 27 0 18 0;
#X connect 27 1 19 0;
#X connect 27 2 20 0;
#X connect 27 3 21 0;
#X connect 27 4 1 0;
#X connect 28 0 0 0;
