#N canvas 492 180 675 322 10;
#X obj 213 32 osc~ 440;
#X floatatom 373 10 5 128 16384 0 - - -, f 5;
#X obj 300 55 metro 85;
#X obj 300 37 tgl 15 0 empty empty empty 17 7 0 10 -262144 -1 -1 1
1;
#X obj 16 262 hsl 640 15 -320 320 0 0 empty empty empty -2 -8 0 10
-262144 -1 -1 31971 1;
#X obj 252 54 vsl 15 64 0 1 0 0 empty empty empty 0 -9 0 10 -262144
-1 -1 6300 1;
#X obj 213 124 *~ 0.1;
#X obj 561 82 int;
#X obj 561 136 line;
#X obj 561 108 pack 0 10;
#X floatatom 621 83 5 0 0 0 - - -, f 5;
#X floatatom 561 165 5 0 32000 0 - - -, f 5;
#X floatatom 607 165 5 0 0 0 - - -, f 5;
#N canvas 477 274 509 300 cntr 0;
#X obj 292 115 + 1;
#X msg 249 87 bang;
#X obj 291 173 select 0;
#X obj 291 198 int;
#X obj 249 144 mod 8192;
#X obj 249 32 inlet;
#X floatatom 105 105 5 128 16384 0 - - -, f 5;
#X obj 249 246 outlet;
#X obj 249 115 int 0;
#X connect 0 0 8 1;
#X connect 1 0 8 0;
#X connect 2 0 3 0;
#X connect 2 1 3 1;
#X connect 4 0 2 0;
#X connect 4 0 7 0;
#X connect 5 0 1 0;
#X connect 6 0 4 1;
#X connect 8 0 0 0;
#X connect 8 0 4 0;
#X coords 0 -1 1 1 85 24 2 100 100;
#X restore 318 124 pd cntr;
#X floatatom 318 154 5 0 0 0 - - -, f 5;
#X floatatom 266 10 5 56 440 0 - - -, f 5;
#X obj 300 233 table ampwind 8192;
#X floatatom 373 57 5 0 0 0 - - -, f 5;
#N canvas 0 50 1280 758 smptoms 0;
#X obj 85 137 * 1000;
#X obj 85 164 int;
#X obj 85 191 outlet;
#X obj 85 83 inlet;
#X obj 85 110 / 44000;
#X obj 131 83 inlet;
#X msg 147 110 bang;
#X connect 0 0 1 0;
#X connect 1 0 2 0;
#X connect 3 0 4 0;
#X connect 4 0 0 0;
#X connect 5 0 4 1;
#X connect 5 0 6 0;
#X coords 0 758 1 757 85 60 0;
#X restore 373 35 pd smptoms;
#X msg 440 9 48000;
#X msg 490 9 44100;
#X obj 300 213 tabwrite~ ampwind;
#X obj 434 119 array sum ampwind;
#X floatatom 434 139 5 0 0 0 - - -, f 5;
#X floatatom 434 196 8 0 0 0 - - -, f 8;
#X obj 434 156 / 128;
#X obj 434 176 * 16384;
#X obj 81 49 phasor~ 56;
#X obj 82 107 tabread4~;
#X obj 103 198 table wform;
#X obj 48 156 noise~;
#X connect 1 0 18 0;
#X connect 1 0 22 1;
#X connect 1 0 25 1;
#X connect 2 0 21 0;
#X connect 2 0 22 0;
#X connect 3 0 2 0;
#X connect 5 0 6 1;
#X connect 6 0 21 0;
#X connect 7 0 9 0;
#X connect 8 0 11 0;
#X connect 9 0 8 0;
#X connect 10 0 9 1;
#X connect 11 0 4 0;
#X connect 13 0 14 0;
#X connect 15 0 0 1;
#X connect 17 0 2 1;
#X connect 18 0 17 0;
#X connect 19 0 18 1;
#X connect 20 0 18 1;
#X connect 22 0 23 0;
#X connect 23 0 25 0;
#X connect 24 0 7 0;
#X connect 25 0 26 0;
#X connect 26 0 24 0;
#X connect 30 0 6 0;
