#N canvas 333 47 585 552 10;
#X obj 237 368 dac~;
#X obj 272 238 osc~;
#X obj 210 239 osc~;
#X floatatom 211 150 5 16 1760 0 - - -, f 5;
#X obj 272 190 *;
#X obj 190 190 *;
#X floatatom 125 152 5 1 100 0 - - -, f 5;
#X floatatom 298 150 5 1 100 0 - - -, f 5;
#X obj 236 319 +~;
#X msg 211 126 bang;
#X obj 355 277 dbtorms~;
#X obj 237 343 *~;
#X obj 355 113 vsl 15 128 0 80 0 0 empty empty empty 0 -9 0 10 -262144
-1 -1 12700 1;
#X msg 337 5 3 2;
#X msg 393 5 5 4;
#X msg 452 4 6 5;
#X obj 211 66 unpack f f;
#X obj 210 280 *~ 0.9;
#X obj 293 277 *~ 0.9;
#X obj 318 102 /;
#X msg 410 44 1;
#X msg 453 44 2;
#X obj 122 114 /;
#X connect 1 0 18 0;
#X connect 2 0 17 0;
#X connect 3 0 4 0;
#X connect 3 0 5 0;
#X connect 4 0 1 0;
#X connect 5 0 2 0;
#X connect 6 0 5 1;
#X connect 6 0 9 0;
#X connect 7 0 4 1;
#X connect 7 0 9 0;
#X connect 8 0 11 0;
#X connect 9 0 3 0;
#X connect 10 0 11 1;
#X connect 11 0 0 0;
#X connect 11 0 0 1;
#X connect 12 0 10 0;
#X connect 13 0 16 0;
#X connect 13 0 20 0;
#X connect 14 0 16 0;
#X connect 14 0 21 0;
#X connect 15 0 16 0;
#X connect 15 0 21 0;
#X connect 16 0 22 0;
#X connect 16 1 19 0;
#X connect 17 0 8 0;
#X connect 18 0 8 1;
#X connect 19 0 7 0;
#X connect 20 0 19 1;
#X connect 20 0 22 1;
#X connect 21 0 19 1;
#X connect 21 0 22 1;
#X connect 22 0 6 0;
