#N canvas 1911 -82 1920 1028 12;
#N canvas 2566 -43 1218 841 phys_accell 0;
#X obj 49 68 inlet;
#X obj 96 69 inlet;
#X obj 105 360 outlet;
#X text -26 33 instantaneous delta(change);
#X text 73 41 position (m);
#X obj 151 70 inlet;
#N canvas 2998 431 450 300 opbox 0;
#X obj 69 26 inlet;
#X obj 127 28 inlet;
#X obj 70 71 f;
#X obj 128 73 t b f;
#X obj 70 121 outlet;
#X obj 161 123 outlet;
#X connect 0 0 2 0;
#X connect 1 0 3 0;
#X connect 2 0 4 0;
#X connect 3 0 2 0;
#X connect 3 1 5 0;
#X restore 49 170 pd opbox;
#X obj 66 226 *;
#X obj 49 138 pow 2;
#X obj 152 134 pow 2;
#N canvas 2998 431 450 300 opbox 0;
#X obj 69 26 inlet;
#X obj 127 28 inlet;
#X obj 70 71 f;
#X obj 128 73 t b f;
#X obj 70 121 outlet;
#X obj 161 123 outlet;
#X connect 0 0 2 0;
#X connect 1 0 3 0;
#X connect 2 0 4 0;
#X connect 3 0 2 0;
#X connect 3 1 5 0;
#X restore 120 170 pd opbox;
#X obj 137 226 *;
#N canvas 2998 431 450 300 opbox 0;
#X obj 69 26 inlet;
#X obj 127 28 inlet;
#X obj 70 71 f;
#X obj 128 73 t b f;
#X obj 70 121 outlet;
#X obj 161 123 outlet;
#X connect 0 0 2 0;
#X connect 1 0 3 0;
#X connect 2 0 4 0;
#X connect 3 0 2 0;
#X connect 3 1 5 0;
#X restore 86 259 pd opbox;
#X obj 103 315 /;
#X connect 0 0 8 0;
#X connect 0 0 10 0;
#X connect 1 0 6 1;
#X connect 5 0 9 0;
#X connect 6 0 7 0;
#X connect 6 1 7 1;
#X connect 7 0 12 0;
#X connect 8 0 6 0;
#X connect 9 0 10 1;
#X connect 10 0 11 0;
#X connect 10 1 11 1;
#X connect 11 0 12 1;
#X connect 12 0 13 0;
#X connect 12 1 13 1;
#X connect 13 0 2 0;
#X restore 263 247 pd phys_accell;
#X obj 360 82 realtime;
#X floatatom 190 228 5 0 0 0 - - -;
#X msg 360 2 bang;
#X obj 361 119 / 1000;
#X obj 441 201 nbx 12 24 -1e+037 1e+037 0 0 empty empty empty 0 -8
0 24 -13381 -4034 -128992 684 256;
#X obj 340 397 hsl 256 15 8 800 1 0 empty empty FORCE 112 24 1 10 -262144
-1 -1 51100 0;
#X obj 46 23 vsl 8 256 0 20000 0 0 empty empty empty 0 -9 0 10 -262144
-1 -1 0 1;
#X obj 66 23 vsl 8 256 0 20000 0 0 empty empty empty 0 -9 0 10 -262144
-1 -1 0 1;
#X obj 263 275 nbx 12 24 -1e+037 1e+037 0 0 empty empty empty 0 -8
0 10 -13381 -4034 -128992 491.775 256;
#X obj 282 202 nbx 12 24 -1e+037 1e+037 0 0 empty empty empty 0 -8
0 10 -13381 -4034 -128992 824659 256;
#X obj 360 39 metro 128;
#N canvas 2568 503 450 373 phys_distance 0;
#X obj 39 25 inlet;
#X obj 114 24 inlet;
#N canvas 2998 431 450 300 opbox 0;
#X obj 69 26 inlet;
#X obj 127 28 inlet;
#X obj 70 71 f;
#X obj 128 73 t b f;
#X obj 70 121 outlet;
#X obj 161 123 outlet;
#X connect 0 0 2 0;
#X connect 1 0 3 0;
#X connect 2 0 4 0;
#X connect 3 0 2 0;
#X connect 3 1 5 0;
#X restore 49 61 pd opbox;
#X obj 58 109 *;
#X obj 58 131 outlet;
#X connect 0 0 2 0;
#X connect 1 0 2 1;
#X connect 2 0 3 0;
#X connect 2 1 3 1;
#X connect 3 0 4 0;
#X restore 281 174 pd phys_distance;
#X floatatom 280 100 5 0 0 0 - - -;
#X floatatom 241 176 5 0 0 0 - - -;
#N canvas 2998 431 450 300 opbox 0;
#X obj 69 26 inlet;
#X obj 127 28 inlet;
#X obj 70 71 f;
#X obj 128 73 t b f;
#X obj 70 121 outlet;
#X obj 161 123 outlet;
#X connect 0 0 2 0;
#X connect 1 0 3 0;
#X connect 2 0 4 0;
#X connect 3 0 2 0;
#X connect 3 1 5 0;
#X restore 168 302 pd opbox;
#X obj 168 353 *;
#N canvas 2998 431 450 300 opbox 0;
#X obj 69 26 inlet;
#X obj 127 28 inlet;
#X obj 70 71 f;
#X obj 128 73 t b f;
#X obj 70 121 outlet;
#X obj 161 123 outlet;
#X connect 0 0 2 0;
#X connect 1 0 3 0;
#X connect 2 0 4 0;
#X connect 3 0 2 0;
#X connect 3 1 5 0;
#X restore 173 431 pd opbox;
#X obj 178 462 /;
#X obj 178 487 nbx 12 24 -1e+037 1e+037 0 0 empty empty empty 0 -8
0 10 -13381 -4034 -128992 491.775 256;
#X obj 442 175 int;
#X connect 0 0 9 0;
#X connect 1 0 4 0;
#X connect 2 0 15 0;
#X connect 2 0 17 1;
#X connect 3 0 11 0;
#X connect 4 0 20 0;
#X connect 4 0 12 1;
#X connect 5 0 0 2;
#X connect 6 0 17 0;
#X connect 9 0 15 1;
#X connect 10 0 0 1;
#X connect 11 0 1 1;
#X connect 12 0 10 0;
#X connect 13 0 12 0;
#X connect 14 0 0 0;
#X connect 15 0 16 0;
#X connect 15 1 16 1;
#X connect 16 0 17 0;
#X connect 17 0 18 0;
#X connect 17 1 18 1;
#X connect 18 0 19 0;
#X connect 20 0 5 0;
