#N canvas 186 110 450 300 10;
#X obj 74 71 netreceive -u -b 8088;
#X obj 74 113 print UDP;
#X obj 192 206 ctlout 16;
#X obj 290 213 ctlout 17;
#X obj 249 110 unpack 0 0;
#X floatatom 344 48 5 0 0 0 - - -, f 5;
#X connect 0 0 1 0;
#X connect 0 0 4 0;
#X connect 4 0 2 0;
#X connect 4 1 3 0;
#X connect 5 0 2 0;
