#N canvas -9 -9 1366 716 16;
#N canvas 542 130 711 504 netct 0;
#X msg 68 150 connect localhost 24574;
#X msg 20 201 disconnect;
#X obj 20 80 tgl 15 0 empty empty empty 17 7 0 10 -262144 -1 -1 0 1
;
#X obj 20 114 select 0 1;
#X obj 205 280 select 0 1;
#X obj 205 358 s xind;
#X obj 18 8 bng 8 250 50 0 empty xind CONNECTION 17 4 0 12 -262131
-66577 -66577;
#X msg 293 318 color 44;
#X msg 205 318 color 5;
#X obj 205 245 netsend;
#X obj 336 45 r netpayload;
#X obj 20 41 r hiddenconnect;
#X msg 336 172 send \$4 \$3 \$2 \$1;
#X connect 0 0 9 0;
#X connect 1 0 9 0;
#X connect 2 0 3 0;
#X connect 3 0 1 0;
#X connect 3 1 0 0;
#X connect 4 0 8 0;
#X connect 4 1 7 0;
#X connect 7 0 5 0;
#X connect 8 0 5 0;
#X connect 9 0 4 0;
#X connect 10 0 12 0;
#X connect 11 0 2 0;
#X connect 12 0 9 0;
#X coords 0 -1 1 1 128 16 2 4 4;
#X restore 486 258 pd netct;
#N canvas 631 62 450 300 applyandclose 0;
#X obj 107 15 bng 24 250 50 0 empty empty OK 32 12 0 16 -262144 -1
-1;
#X obj 219 111 s apply;
#X obj 172 71 t b b;
#X msg 171 123 0;
#X obj 171 188 s hiddenconnect;
#X connect 0 0 2 0;
#X connect 2 0 3 0;
#X connect 2 1 1 0;
#X connect 3 0 4 0;
#X coords 0 -1 1 1 256 32 2 11 11;
#X restore 152 288 pd applyandclose;
#N canvas 807 154 450 300 justapply 0;
#X obj 183 104 bng 24 250 50 0 empty empty APPLY 32 12 0 16 -262144
-1 -1;
#X obj 183 256 s apply;
#X obj 230 228 s hiddenconnect;
#X obj 183 148 t b b;
#X msg 230 190 1;
#X connect 0 0 3 0;
#X connect 3 0 1 0;
#X connect 3 1 4 0;
#X connect 4 0 2 0;
#X coords 0 -1 1 1 256 32 2 100 100;
#X restore 413 288 pd justapply;
#N canvas -9 -9 1366 716 justapply 0;
#X obj 183 104 bng 24 250 50 0 empty empty OPEN 32 12 0 16 -262144
-1 -1;
#X obj 230 228 s hiddenconnect;
#X msg 230 190 1;
#X obj 183 256 s opencfg;
#X symbolatom 672 231 10 0 0 0 - - -, f 10;
#X obj 476 387 s netpayload;
#X obj 530 176 t b b;
#X obj 531 138 r opencfg;
#X obj 476 224 i 0;
#X obj 476 286 pack 0 s;
#X msg 476 338 \$1 FILENAME \$2 OPEN;
#X obj 183 148 t b b b;
#X msg 672 138 set \$1;
#X obj 287 190 s selfile;
#X obj 672 27 loadbang;
#X msg 672 83 symbol C:/Users/dkr85djo/AppData/Roaming/Microsoft/FS9/fs9.cfg
;
#X connect 0 0 11 0;
#X connect 2 0 1 0;
#X connect 4 0 9 1;
#X connect 6 0 8 0;
#X connect 6 1 4 0;
#X connect 7 0 6 0;
#X connect 8 0 9 0;
#X connect 9 0 10 0;
#X connect 10 0 5 0;
#X connect 11 0 3 0;
#X connect 11 1 2 0;
#X connect 11 2 13 0;
#X connect 12 0 4 0;
#X connect 14 0 15 0;
#X connect 15 0 12 0;
#X coords 0 -1 1 1 256 32 2 100 100;
#X restore 152 252 pd justapply;
#N canvas 683 0 665 698 page_one 0;
#X symbolatom 21 16 16 0 0 1 SECTION - -, f 16;
#X obj 21 54 s selsect;
#N canvas 500 6 510 716 param1 0;
#X floatatom 17 16 5 0 0 0 - - -, f 5;
#X symbolatom 130 16 32 0 0 0 - - -, f 32;
#X obj 43 212 i;
#X obj 98 126 r apply;
#X symbolatom 183 226 10 0 0 0 - - -, f 10;
#X msg 183 126 set \$1;
#X obj 43 375 s netpayload;
#X obj 325 127 r selsect;
#X symbolatom 324 226 10 0 0 0 - - -, f 10;
#X msg 325 173 symbol \$1;
#X obj 43 274 pack 0 s s;
#X obj 97 164 t b b b;
#X msg 43 326 \$1 \$2 \$3 SET;
#X connect 0 0 2 1;
#X connect 1 0 5 0;
#X connect 2 0 10 0;
#X connect 3 0 11 0;
#X connect 4 0 10 1;
#X connect 5 0 4 0;
#X connect 7 0 9 0;
#X connect 8 0 10 2;
#X connect 9 0 8 0;
#X connect 10 0 12 0;
#X connect 11 0 2 0;
#X connect 11 1 4 0;
#X connect 11 2 8 0;
#X connect 12 0 6 0;
#X coords 0 -1 1 1 448 32 2 11 11;
#X restore 11 131 pd param1;
#N canvas 500 6 510 716 param1 0;
#X floatatom 17 16 5 0 0 0 - - -, f 5;
#X symbolatom 130 16 32 0 0 0 - - -, f 32;
#X obj 43 212 i;
#X obj 98 126 r apply;
#X symbolatom 183 226 10 0 0 0 - - -, f 10;
#X msg 183 126 set \$1;
#X obj 43 375 s netpayload;
#X obj 325 127 r selsect;
#X symbolatom 324 226 10 0 0 0 - - -, f 10;
#X msg 325 173 symbol \$1;
#X obj 43 274 pack 0 s s;
#X obj 97 164 t b b b;
#X msg 43 326 \$1 \$2 \$3 SET;
#X connect 0 0 2 1;
#X connect 1 0 5 0;
#X connect 2 0 10 0;
#X connect 3 0 11 0;
#X connect 4 0 10 1;
#X connect 5 0 4 0;
#X connect 7 0 9 0;
#X connect 8 0 10 2;
#X connect 9 0 8 0;
#X connect 10 0 12 0;
#X connect 11 0 2 0;
#X connect 11 1 4 0;
#X connect 11 2 8 0;
#X connect 12 0 6 0;
#X coords 0 -1 1 1 448 32 2 11 11;
#X restore 11 165 pd param1;
#N canvas 500 6 510 716 param1 0;
#X floatatom 17 16 5 0 0 0 - - -, f 5;
#X symbolatom 130 16 32 0 0 0 - - -, f 32;
#X obj 43 212 i;
#X obj 98 126 r apply;
#X symbolatom 183 226 10 0 0 0 - - -, f 10;
#X msg 183 126 set \$1;
#X obj 43 375 s netpayload;
#X obj 325 127 r selsect;
#X symbolatom 324 226 10 0 0 0 - - -, f 10;
#X msg 325 173 symbol \$1;
#X obj 43 274 pack 0 s s;
#X obj 97 164 t b b b;
#X msg 43 326 \$1 \$2 \$3 SET;
#X connect 0 0 2 1;
#X connect 1 0 5 0;
#X connect 2 0 10 0;
#X connect 3 0 11 0;
#X connect 4 0 10 1;
#X connect 5 0 4 0;
#X connect 7 0 9 0;
#X connect 8 0 10 2;
#X connect 9 0 8 0;
#X connect 10 0 12 0;
#X connect 11 0 2 0;
#X connect 11 1 4 0;
#X connect 11 2 8 0;
#X connect 12 0 6 0;
#X coords 0 -1 1 1 448 32 2 11 11;
#X restore 11 199 pd param1;
#N canvas 500 6 510 716 param1 0;
#X floatatom 17 16 5 0 0 0 - - -, f 5;
#X symbolatom 130 16 32 0 0 0 - - -, f 32;
#X obj 43 212 i;
#X obj 98 126 r apply;
#X symbolatom 183 226 10 0 0 0 - - -, f 10;
#X msg 183 126 set \$1;
#X obj 43 375 s netpayload;
#X obj 325 127 r selsect;
#X symbolatom 324 226 10 0 0 0 - - -, f 10;
#X msg 325 173 symbol \$1;
#X obj 43 274 pack 0 s s;
#X obj 97 164 t b b b;
#X msg 43 326 \$1 \$2 \$3 SET;
#X connect 0 0 2 1;
#X connect 1 0 5 0;
#X connect 2 0 10 0;
#X connect 3 0 11 0;
#X connect 4 0 10 1;
#X connect 5 0 4 0;
#X connect 7 0 9 0;
#X connect 8 0 10 2;
#X connect 9 0 8 0;
#X connect 10 0 12 0;
#X connect 11 0 2 0;
#X connect 11 1 4 0;
#X connect 11 2 8 0;
#X connect 12 0 6 0;
#X coords 0 -1 1 1 448 32 2 11 11;
#X restore 11 233 pd param1;
#N canvas 500 6 510 716 param1 0;
#X floatatom 17 16 5 0 0 0 - - -, f 5;
#X symbolatom 130 16 32 0 0 0 - - -, f 32;
#X obj 43 212 i;
#X obj 98 126 r apply;
#X symbolatom 183 226 10 0 0 0 - - -, f 10;
#X msg 183 126 set \$1;
#X obj 43 375 s netpayload;
#X obj 325 127 r selsect;
#X symbolatom 324 226 10 0 0 0 - - -, f 10;
#X msg 325 173 symbol \$1;
#X obj 43 274 pack 0 s s;
#X obj 97 164 t b b b;
#X msg 43 326 \$1 \$2 \$3 SET;
#X connect 0 0 2 1;
#X connect 1 0 5 0;
#X connect 2 0 10 0;
#X connect 3 0 11 0;
#X connect 4 0 10 1;
#X connect 5 0 4 0;
#X connect 7 0 9 0;
#X connect 8 0 10 2;
#X connect 9 0 8 0;
#X connect 10 0 12 0;
#X connect 11 0 2 0;
#X connect 11 1 4 0;
#X connect 11 2 8 0;
#X connect 12 0 6 0;
#X coords 0 -1 1 1 448 32 2 11 11;
#X restore 11 267 pd param1;
#N canvas 500 6 510 716 param1 0;
#X floatatom 17 16 5 0 0 0 - - -, f 5;
#X symbolatom 130 16 32 0 0 0 - - -, f 32;
#X obj 43 212 i;
#X obj 98 126 r apply;
#X symbolatom 183 226 10 0 0 0 - - -, f 10;
#X msg 183 126 set \$1;
#X obj 43 375 s netpayload;
#X obj 325 127 r selsect;
#X symbolatom 324 226 10 0 0 0 - - -, f 10;
#X msg 325 173 symbol \$1;
#X obj 43 274 pack 0 s s;
#X obj 97 164 t b b b;
#X msg 43 326 \$1 \$2 \$3 SET;
#X connect 0 0 2 1;
#X connect 1 0 5 0;
#X connect 2 0 10 0;
#X connect 3 0 11 0;
#X connect 4 0 10 1;
#X connect 5 0 4 0;
#X connect 7 0 9 0;
#X connect 8 0 10 2;
#X connect 9 0 8 0;
#X connect 10 0 12 0;
#X connect 11 0 2 0;
#X connect 11 1 4 0;
#X connect 11 2 8 0;
#X connect 12 0 6 0;
#X coords 0 -1 1 1 448 32 2 11 11;
#X restore 11 301 pd param1;
#N canvas 500 6 510 716 param1 0;
#X floatatom 17 16 5 0 0 0 - - -, f 5;
#X symbolatom 130 16 32 0 0 0 - - -, f 32;
#X obj 43 212 i;
#X obj 98 126 r apply;
#X symbolatom 183 226 10 0 0 0 - - -, f 10;
#X msg 183 126 set \$1;
#X obj 43 375 s netpayload;
#X obj 325 127 r selsect;
#X symbolatom 324 226 10 0 0 0 - - -, f 10;
#X msg 325 173 symbol \$1;
#X obj 43 274 pack 0 s s;
#X obj 97 164 t b b b;
#X msg 43 326 \$1 \$2 \$3 SET;
#X connect 0 0 2 1;
#X connect 1 0 5 0;
#X connect 2 0 10 0;
#X connect 3 0 11 0;
#X connect 4 0 10 1;
#X connect 5 0 4 0;
#X connect 7 0 9 0;
#X connect 8 0 10 2;
#X connect 9 0 8 0;
#X connect 10 0 12 0;
#X connect 11 0 2 0;
#X connect 11 1 4 0;
#X connect 11 2 8 0;
#X connect 12 0 6 0;
#X coords 0 -1 1 1 448 32 2 11 11;
#X restore 11 335 pd param1;
#N canvas 500 6 510 716 param1 0;
#X floatatom 17 16 5 0 0 0 - - -, f 5;
#X symbolatom 130 16 32 0 0 0 - - -, f 32;
#X obj 43 212 i;
#X obj 98 126 r apply;
#X symbolatom 183 226 10 0 0 0 - - -, f 10;
#X msg 183 126 set \$1;
#X obj 43 375 s netpayload;
#X obj 325 127 r selsect;
#X symbolatom 324 226 10 0 0 0 - - -, f 10;
#X msg 325 173 symbol \$1;
#X obj 43 274 pack 0 s s;
#X obj 97 164 t b b b;
#X msg 43 326 \$1 \$2 \$3 SET;
#X connect 0 0 2 1;
#X connect 1 0 5 0;
#X connect 2 0 10 0;
#X connect 3 0 11 0;
#X connect 4 0 10 1;
#X connect 5 0 4 0;
#X connect 7 0 9 0;
#X connect 8 0 10 2;
#X connect 9 0 8 0;
#X connect 10 0 12 0;
#X connect 11 0 2 0;
#X connect 11 1 4 0;
#X connect 11 2 8 0;
#X connect 12 0 6 0;
#X coords 0 -1 1 1 448 32 2 11 11;
#X restore 11 369 pd param1;
#N canvas 500 6 510 716 param1 0;
#X floatatom 17 16 5 0 0 0 - - -, f 5;
#X symbolatom 130 16 32 0 0 0 - - -, f 32;
#X obj 43 212 i;
#X obj 98 126 r apply;
#X symbolatom 183 226 10 0 0 0 - - -, f 10;
#X msg 183 126 set \$1;
#X obj 43 375 s netpayload;
#X obj 325 127 r selsect;
#X symbolatom 324 226 10 0 0 0 - - -, f 10;
#X msg 325 173 symbol \$1;
#X obj 43 274 pack 0 s s;
#X obj 97 164 t b b b;
#X msg 43 326 \$1 \$2 \$3 SET;
#X connect 0 0 2 1;
#X connect 1 0 5 0;
#X connect 2 0 10 0;
#X connect 3 0 11 0;
#X connect 4 0 10 1;
#X connect 5 0 4 0;
#X connect 7 0 9 0;
#X connect 8 0 10 2;
#X connect 9 0 8 0;
#X connect 10 0 12 0;
#X connect 11 0 2 0;
#X connect 11 1 4 0;
#X connect 11 2 8 0;
#X connect 12 0 6 0;
#X coords 0 -1 1 1 448 32 2 11 11;
#X restore 11 403 pd param1;
#N canvas 127 37 510 716 param1 0;
#X floatatom 17 16 5 0 0 0 - - -, f 5;
#X symbolatom 130 16 32 0 0 0 - - -, f 32;
#X obj 43 212 i;
#X obj 98 126 r apply;
#X symbolatom 183 226 10 0 0 0 - - -, f 10;
#X msg 183 126 set \$1;
#X obj 43 375 s netpayload;
#X obj 325 127 r selsect;
#X symbolatom 324 226 10 0 0 0 - - -, f 10;
#X msg 325 173 symbol \$1;
#X obj 43 274 pack 0 s s;
#X obj 97 164 t b b b;
#X msg 43 326 \$1 \$2 \$3 SET;
#X connect 0 0 2 1;
#X connect 1 0 5 0;
#X connect 2 0 10 0;
#X connect 3 0 11 0;
#X connect 4 0 10 1;
#X connect 5 0 4 0;
#X connect 7 0 9 0;
#X connect 8 0 10 2;
#X connect 9 0 8 0;
#X connect 10 0 12 0;
#X connect 11 0 2 0;
#X connect 11 1 4 0;
#X connect 11 2 8 0;
#X connect 12 0 6 0;
#X coords 0 -1 1 1 448 32 2 11 11;
#X restore 11 97 pd param1;
#X connect 0 0 1 0;
#X coords 0 698 1 697 448 64 0;
#X restore 391 89 pd page_one;
