#N canvas 316 95 753 532 10;
#X obj 90 106 inlet;
#X obj 147 106 inlet;
#X obj 198 106 inlet;
#X obj 251 106 inlet;
#X obj 311 106 inlet;
#X obj 371 105 inlet;
#X obj 259 186 del \$3;
#X text 90 84 trig;
#X text 146 84 atten;
#X text 245 83 attack;
#X text 308 82 decay;
#X text 195 85 sust;
#X text 364 83 release;
#X obj 164 261 pack 0 \$3;
#X obj 260 273 pack 0 \$4;
#X obj 90 128 sel 0;
#X msg 90 151 stop;
#X obj 335 302 pack 0 \$5;
#X text 4 -1 REM parameter reference numbers are arbitral \, and have
nothing to do with inlets;
#X obj 260 212 * 0.01;
#X obj 260 234 * \$1;
#X obj 311 334 line~;
#X obj 310 358 outlet~;
#X text 433 23 created by Rastko;
#X text 3 29 TODO currently \, atten inlet has no effect \, because
the trigger inlet resets it \, because the sel object uses bang only
with left outlet;
#X msg 126 204 bang;
#X connect 0 0 15 0;
#X connect 1 0 13 0;
#X connect 1 0 20 1;
#X connect 2 0 19 0;
#X connect 3 0 13 1;
#X connect 3 0 6 1;
#X connect 4 0 14 1;
#X connect 5 0 17 1;
#X connect 6 0 19 0;
#X connect 13 0 21 0;
#X connect 14 0 21 0;
#X connect 15 0 16 0;
#X connect 15 0 17 0;
#X connect 15 1 6 0;
#X connect 15 1 25 0;
#X connect 16 0 6 0;
#X connect 17 0 21 0;
#X connect 19 0 20 0;
#X connect 20 0 14 0;
#X connect 21 0 22 0;
#X connect 25 0 13 0;
