#N canvas 491 173 608 300 10;
#X obj 122 103 vsl 8 64 0 100 0 0 empty empty empty 0 -9 0 10 -262144
-1 -1 200 1;
#X obj 109 244 pack 0 100 10 10 10;
#X obj 109 103 vsl 8 64 0 1 0 0 empty empty empty 0 -9 0 10 -262144
-1 -1 0 1;
#X floatatom 136 102 5 0 2000 0 - - -, f 5;
#X floatatom 136 129 5 0 2000 0 - - -, f 5;
#X floatatom 136 156 5 0 2500 0 - - -, f 5;
#X obj 109 270 outlet;
#X obj 233 200 t b f;
#X obj 279 200 t b f;
#X obj 324 200 t b f;
#X obj 186 200 t b f;
#X connect 0 0 10 0;
#X connect 1 0 6 0;
#X connect 2 0 1 0;
#X connect 3 0 7 0;
#X connect 4 0 8 0;
#X connect 5 0 9 0;
#X connect 7 0 1 0;
#X connect 7 1 1 2;
#X connect 8 0 1 0;
#X connect 8 1 1 3;
#X connect 9 0 1 0;
#X connect 9 1 1 4;
#X connect 10 0 1 0;
#X connect 10 1 1 1;
#X coords 0 -1 1 1 83 75 2 100 100;
