#N canvas 392 84 795 551 10;
#X obj 279 292 *~;
#X obj 350 293 *~;
#X obj 411 416 +~;
#X obj 368 241 osc~ 330;
#X obj 297 241 osc~ 180;
#X obj 531 242 noise~;
#X obj 513 303 *~;
#X obj 531 335 *~;
#X obj 513 356 +~;
#X obj 513 378 *~;
#X obj 310 324 +~;
#X obj 532 271 lop~ 1000;
#X obj 550 301 hip~ 500;
#X text 597 334 <Mr.Snappy;
#X obj 411 461 outlet~;
#X obj 368 183 * 1.83;
#X obj 297 140 inlet;
#X obj 172 177 unpack 0 0 0 0 0;
#X obj 415 140 inlet;
#X obj 53 210 rlib_contourgen 0.5 0 100 100 100;
#X obj 53 74 inlet;
#X obj 468 59 unpack 0 0 0 0 0;
#X obj 349 92 rlib_contourgen 0.5 0 100 100 100;
#X obj 468 26 inlet;
#X obj 633 165 unpack 0 0 0 0 0;
#X obj 514 193 rlib_contourgen 0.5 0 100 100 100;
#X obj 532 223 rlib_contourgen 0.5 0 100 100 100;
#X obj 535 141 inlet;
#X obj 592 249 * 20000;
#X obj 673 248 * 20000;
#X obj 593 140 inlet;
#X obj 673 137 inlet;
#X obj 742 137 inlet;
#X text 53 50 trig;
#X text 294 118 pitch;
#X text 413 117 EG1;
#X text 433 26 EG2;
#X text 537 118 EG3;
#X text 591 117 LPX;
#X text 674 117 HPX;
#X text 742 116 SNAP;
#X obj 67 120 sel 0;
#X connect 0 0 10 0;
#X connect 1 0 10 1;
#X connect 2 0 14 0;
#X connect 3 0 1 1;
#X connect 4 0 0 1;
#X connect 5 0 11 0;
#X connect 6 0 8 0;
#X connect 7 0 8 1;
#X connect 8 0 9 0;
#X connect 9 0 2 1;
#X connect 10 0 2 0;
#X connect 11 0 6 1;
#X connect 11 0 12 0;
#X connect 12 0 7 1;
#X connect 15 0 3 0;
#X connect 16 0 4 0;
#X connect 16 0 15 0;
#X connect 17 1 19 2;
#X connect 17 2 19 3;
#X connect 17 3 19 4;
#X connect 17 4 19 5;
#X connect 18 0 17 0;
#X connect 19 0 0 0;
#X connect 20 0 19 0;
#X connect 20 0 22 0;
#X connect 20 0 25 0;
#X connect 20 0 26 0;
#X connect 20 0 41 0;
#X connect 21 1 22 2;
#X connect 21 2 22 3;
#X connect 21 3 22 4;
#X connect 21 4 22 5;
#X connect 22 0 1 0;
#X connect 23 0 21 0;
#X connect 24 1 25 2;
#X connect 24 2 25 3;
#X connect 24 3 25 4;
#X connect 24 4 25 5;
#X connect 25 0 6 0;
#X connect 26 0 7 0;
#X connect 27 0 24 0;
#X connect 28 0 11 1;
#X connect 29 0 12 1;
#X connect 30 0 28 0;
#X connect 31 0 29 0;
#X connect 32 0 9 1;
#X connect 41 0 19 0;
#X connect 41 1 19 1;
#X connect 41 1 22 1;
#X connect 41 1 25 1;
