#N canvas 0 50 450 300 10;
#X obj 120 73 -~ 0.5;
#X obj 120 115 abs~;
#X obj 120 162 *~ 4;
#X obj 120 204 -~ 1;
#X obj 120 242 outlet~;
#X obj 121 36 phasor~ 440;
#X connect 0 0 1 0;
#X connect 1 0 2 0;
#X connect 2 0 3 0;
#X connect 3 0 4 0;
#X connect 5 0 0 0;
