#N canvas 795 153 1263 715 12;
#X obj 408 39 rpmidiin;
#X obj 260 566 dac~;
#X obj 496 290 phasor~ 440;
#X obj 531 231 mtof;
#X obj 502 140 stripnote;
#X floatatom 714 476 5 0 100 0 - - -;
#X obj 770 386 * 0.01;
#X obj 338 490 *~;
#X floatatom 501 385 5 0 1 0 - - -;
#X obj 437 428 *~;
#X connect 0 0 4 0;
#X connect 0 1 4 1;
#X connect 2 0 9 0;
#X connect 3 0 2 0;
#X connect 4 0 3 0;
#X connect 4 1 6 0;
#X connect 5 0 7 1;
#X connect 6 0 5 0;
#X connect 7 0 1 0;
#X connect 8 0 9 1;
#X connect 9 0 7 0;
