#N canvas 169 165 938 300 10;
#X obj 178 241 gemwin;
#X obj 436 30 gemhead;
#N canvas 638 308 450 300 whatever 0;
#X restore 603 222 pd whatever;
#X msg 76 123 create \, 1;
#X msg 157 123 0 \, destroy;
#X msg 57 216 reset;
#X msg 167 97 dimen \$1 \$2;
#X obj 335 217 pack 640 360;
#X floatatom 309 21 5 0 0 0 - - -, f 5;
#X floatatom 392 18 5 0 0 0 - - -, f 5;
#X connect 3 0 0 0;
#X connect 4 0 0 0;
#X connect 5 0 0 0;
#X connect 6 0 0 0;
#X connect 7 0 6 0;
#X connect 8 0 7 0;
#X connect 9 0 7 1;
