#N canvas -4 -4 1280 754 10;
#X obj 589 404 dac~;
#X obj 494 172 osc~;
#X obj 624 186 osc~;
#X floatatom 616 110 5 210 223 0 - - -;
#X floatatom 498 110 5 223 224 0 - - -;
#X obj 704 260 *~ 0.5;
#X obj 488 246 *~ 0.5;
#X obj 573 66 vsl 15 128 0 0.5 0 0 empty empty empty 0 -9 0 10 -262144
-1 -1 5800 1;
#X obj 597 285 -;
#X floatatom 642 27 5 0 0 0 - - -;
#X floatatom 650 445 5 0 0 0 - - -;
#X obj 319 248 nbx 5 14 0.5 0.5 0 0 empty empty empty 0 -8 0 10 -262144
-1 -1 0.5 256;
#X floatatom 307 59 5 0 0.1 0 - - -;
#X connect 1 0 6 0;
#X connect 2 0 5 0;
#X connect 3 0 2 0;
#X connect 4 0 1 0;
#X connect 5 0 0 1;
#X connect 6 0 0 0;
#X connect 7 0 6 1;
#X connect 7 0 8 1;
#X connect 7 0 9 0;
#X connect 7 0 11 0;
#X connect 8 0 5 1;
#X connect 8 0 10 0;
#X connect 11 0 8 0;
#X connect 12 0 1 1;
