max v2;
#N vpatcher -8 -8 1272 750;
#P newex 704 38 50 10 notein;
#P newex 704 68 50 10 stripnote;
#P newex 237 403 50 10 rlib_snaresynth;
#P newex 320 126 50 10 rlib_icontourgen;
#P slider 252 239 15 32 4.83871 180;
#P newex 704 138 100 10 / 127;
#P slider 324 238 15 32 0.0322581 0;
#P slider 345 237 15 32 0.0322581 0;
#P flonum 660 163 50;
#P newex 239 613 50 10 dac~;
#P newex 585 179 50 10 ctlin;
#P newex 634 237 750 10 sel 1 2 3 4 5 6 7 10 11 12 13 14 15 16;
#P newex 238 546 50 10 *~;
#P newex 585 237 100 10 / 127;
#P newex 603 351 50 10 f;
#P newex 647 351 50 10 f;
#P newex 229 125 50 10 rlib_icontourgen;
#P newex 410 126 50 10 rlib_icontourgen;
#P comment 769 199 150 10 created by RAstko;
#P newex 266 294 100 10 r eg1;
#P newex 280 315 100 10 r eg2;
#P newex 295 334 100 10 r eg3;
#P newex 237 338 100 10 r vt;
#P newex 764 138 100 10 / 600;
#P newex 764 161 100 10 s lpx;
#P newex 704 160 100 10 s vt;
#P comment 587 16 100 10 MIDI SHIT>;
#P comment 209 16 100 10 SNARE SYNTH>;
#P newex 616 566 50 10 s~;
#P newex 229 205 100 10 s eg1;
#P newex 320 206 100 10 s eg2;
#P newex 410 206 100 10 s eg3;
#P newex 309 354 100 10 r lpx;
#P newex 493 260 100 10 + 200;
#P message 493 216 50 10 bang;
#P newex 493 238 100 10 random 10;
#P connect 35 0 34 0;
#P connect 35 1 34 1;
#P connect 35 1 30 0;
#P connect 35 1 27 0;
#P connect 34 1 12 0;
#P connect 34 1 1 0;
#P connect 33 0 23 0;
#P connect 32 0 5 0;
#P connect 31 0 33 1;
#P connect 30 0 10 0;
#P connect 29 0 33 6;
#P connect 28 0 33 7;
#P connect 25 0 22 0;
#P connect 25 1 24 0;
#P connect 24 0 21 0;
#P connect 24 1 20 0;
#P connect 23 0 26 0;
#P connect 23 0 26 1;
#P connect 22 0 21 1;
#P connect 22 0 20 1;
#P connect 21 0 23 1;
#P connect 19 0 6 0;
#P connect 18 0 4 0;
#P connect 16 0 33 2;
#P connect 15 0 33 3;
#P connect 14 0 33 4;
#P connect 13 0 33 0;
#P connect 12 0 11 0;
#P connect 3 0 33 5;
#P connect 2 0 33 1;
#P connect 1 0 0 0;
#P connect 0 0 2 0;
#P pop;
