#N canvas -9 -9 1845 1028 10;
#N canvas 0 50 450 300 bd909_accent 0;
#X obj 105 80 outlet;
#X restore 80 19 pd bd909_accent;
#N canvas 0 50 450 300 bd909_trigger 0;
#X obj 150 21 metro 250;
#X obj 90 3 bng 15 250 50 0 empty empty empty 17 7 0 10 -262144 -1
-1;
#X obj 160 122 outlet~;
#X obj 144 87 line~;
#X msg 190 66 1;
#X msg 147 48 0 500;
#X connect 0 0 5 0;
#X connect 1 0 0 0;
#X connect 3 0 2 0;
#X connect 4 0 3 1;
#X connect 5 0 3 0;
#X restore 257 19 pd bd909_trigger;
#N canvas 0 50 450 300 bd909_mixer 0;
#X obj 114 22 inlet;
#X obj 105 80 outlet;
#X obj 169 19 inlet;
#X restore 80 178 pd bd909_mixer;
#N canvas -1549 170 1377 1010 bd909_vco 0;
#N canvas 0 50 450 250 (subpatch) 0;
#X array \$0-sawtooth 7 float 1;
#A 0 0.814287 0.56429 0.214295 -0.0499867 -0.335697 -0.799976 -1.03569
;
#X coords 0 1 6 -1 200 140 1 0 0;
#X restore 410 73 graph;
#X obj 218 272 outlet~;
#X obj 197 233 tabread~ \$0-sawtooth;
#X obj 236 65 inlet~;
#X obj 230 124 phasor~;
#X obj 198 185 *~ 4;
#X connect 2 0 1 0;
#X connect 3 0 4 0;
#X connect 4 0 5 0;
#X connect 5 0 2 0;
#X restore 350 220 pd bd909_vco;
#N canvas 0 50 450 300 bd909_vca 0;
#X obj 114 22 inlet;
#X obj 105 80 outlet;
#X obj 164 23 inlet;
#X restore 176 319 pd bd909_vca;
#N canvas 0 50 450 300 bd909_eg 0;
#X obj 114 22 inlet;
#X obj 105 80 outlet;
#X restore 80 318 pd bd909_eg;
#N canvas 0 50 450 300 bd909_pulse 0;
#X obj 114 22 inlet;
#X obj 105 80 outlet;
#X restore 257 216 pd bd909_pulse;
#N canvas -9 -9 1845 1028 bd909_waveshaper 0;
#X obj 128 62 inlet~;
#N canvas 0 50 450 250 (subpatch) 0;
#X array \$0-AR 16 float 1;
#A 0 1.00357 0.842858 0.592859 0.375003 0.0892861 -0.0249992 -0.0535705
-0.0285706 -0.0285706 -0.0357134 -0.0499991 -0.0678562 -0.074999 -0.0857132
-0.0892847 0.00357211;
#X coords 0 1 16 0 200 140 1 0 0;
#X restore 376 56 graph;
#X obj 225 307 outlet~;
#X obj 244 112 *~ 16;
#X obj 244 70 phasor~ 110;
#X obj 204 181 *~;
#N canvas 0 50 450 250 (subpatch) 0;
#X array \$0-wsf 16 float 3;
#A 0 -0.0857103 0.0285723 0.057143 0.0857137 0.242852 0.142855 0.0785709
0.0642856 0.0642856 0.0428576 -0.0142837 -0.0714251 -0.121424 -0.107138
-0.0857104 -0.0642824;
#X coords 0 1 16 -1 200 140 1 0 0;
#X restore 375 220 graph;
#X obj 244 148 tabread~ \$0-AR;
#X msg 243 34 110;
#X obj 210 241 clip~ -0.9 0.9;
#X connect 0 0 5 0;
#X connect 3 0 7 0;
#X connect 4 0 3 0;
#X connect 5 0 9 0;
#X connect 7 0 5 1;
#X connect 8 0 4 0;
#X connect 9 0 2 0;
#X restore 349 262 pd bd909_waveshaper;
#N canvas 0 50 450 300 bd909_noise 0;
#X obj 105 80 outlet;
#X restore 176 178 pd bd909_noise;
#N canvas 0 50 450 300 bd909_lpf 0;
#X obj 106 37 inlet;
#X obj 105 80 outlet;
#X restore 176 216 pd bd909_lpf;
#N canvas 1055 77 450 300 bd909_mixer 0;
#X obj 90 14 inlet~;
#X obj 169 19 inlet~;
#X obj 91 96 outlet~;
#X connect 1 0 2 0;
#X restore 471 179 pd bd909_mixer;
#N canvas 0 50 450 300 bd909_mixer 0;
#X obj 114 22 inlet;
#X obj 105 80 outlet;
#X obj 169 19 inlet;
#X restore 176 262 pd bd909_mixer;
#N canvas 242 96 1143 712 bd909_eg 0;
#X obj 113 230 outlet~;
#N canvas 0 50 450 250 (subpatch) 0;
#X array \$0-AR 16 float 1;
#A 0 1 0.935717 0.84643 0.789287 0.717858 0.653572 0.514285 0.371427
0.249998 0.153569 -0.146433 -0.178576 -0.142861 -0.092861 -0.0535751
-0.125004;
#X coords 0 1 16 0 200 140 1 0 0;
#X restore 301 31 graph;
#X obj 109 199 tabread~ \$0-AR;
#X obj 109 151 *~ 16;
#X obj 208 53 inlet~;
#X obj 166 122 phasor~;
#X connect 2 0 0 0;
#X connect 3 0 2 0;
#X connect 4 0 5 0;
#X connect 5 0 3 0;
#X restore 473 325 pd bd909_eg;
#N canvas -1920 163 1294 644 bd909_eg 0;
#N canvas 0 50 450 250 (subpatch) 0;
#X array \$0-AR 16 float 1;
#A 0 197.843 197.843 195.157 193.143 192.471 193.143 193.143 190.457
185.086 169.643 158.9 148.829 138.086 123.314 105.186 37.3711;
#X coords 0 220 16 32 200 140 1 0 0;
#X restore 293 14 graph;
#X obj 109 295 outlet~;
#X obj 109 199 tabread~ \$0-AR;
#X obj 109 99 inlet~;
#X obj 109 151 *~ 16;
#X connect 2 0 1 0;
#X connect 3 0 4 0;
#X connect 4 0 2 0;
#X restore 349 180 pd bd909_eg;
#N canvas 0 50 1362 617 bd909_vca 0;
#X obj 114 22 inlet~;
#X obj 164 23 inlet~;
#X obj 162 131 outlet~;
#X obj 122 53 *~;
#X connect 0 0 3 0;
#X connect 1 0 3 1;
#X connect 3 0 2 0;
#X restore 349 321 pd bd909_vca;
#N canvas 0 50 450 300 bd909_mixer 0;
#X obj 114 22 inlet~;
#X obj 169 19 inlet~;
#X obj 105 80 outlet~;
#X obj 148 49 +~;
#X connect 0 0 3 0;
#X connect 1 0 3 1;
#X connect 3 0 2 0;
#X restore 270 418 pd bd909_mixer;
#X obj 769 433 dac~;
#X obj 799 271 *~;
#X floatatom 728 51 5 0 100 0 - - -;
#X obj 727 89 dbtorms;
#X floatatom 823 146 5 0 0 0 - - -;
#X obj 812 203 line~;
#X msg 730 132 \$1 60;
#N canvas 0 50 450 250 (subpatch) 0;
#X array osc 19 float 3;
#A 0 0.96875 0.96875 1 1.03125 1.03125 1.03125 1.03125 1.03125 1.03125
1 -0.9375 -0.9375 -0.9375 -0.9375 -0.875 -0.875 -0.875 -0.875 -0.875
;
#X coords 0 1 19 -1 64 32 1 0 0;
#X restore 838 244 graph;
#X obj 706 203 tabosc4~ osc;
#X msg 703 26 110;
#X msg 778 27 0;
#X obj 558 98 tabread~ osc;
#X obj 550 64 *~ 4;
#X obj 550 32 phasor~;
#N canvas -9 -9 1845 1028 vanilla_eg 1;
#X obj 453 284 outlet;
#X obj 54 8 inlet;
#X obj 34 449 line 0;
#X obj 112 293 pack f f;
#X floatatom 35 477 5 0 0 0 - - -;
#X obj 55 40 bng 15 250 50 0 empty empty empty 17 7 0 10 -262144 -1
-1;
#X obj 49 259 pack 1 f;
#X obj 220 274 pack 0 f;
#X obj 145 228 f 0.5;
#X obj 111 228 i 1;
#X obj 111 257 *;
#X obj 70 180 delay 1000;
#X obj 188 228 delay 1000;
#X obj 70 219 bng 15 250 50 0 empty empty empty 17 7 0 10 -262144 -1
-1;
#X obj 187 264 bng 15 250 50 0 empty empty empty 17 7 0 10 -262144
-1 -1;
#X obj 160 141 i 1000;
#X obj 101 141 i 1000;
#X obj 238 142 i 1000;
#X obj 207 12 inlet;
#X obj 253 13 inlet;
#X obj 298 15 inlet;
#X obj 347 13 inlet;
#X connect 1 0 5 0;
#X connect 2 0 4 0;
#X connect 2 0 0 0;
#X connect 3 0 2 0;
#X connect 5 0 6 0;
#X connect 5 0 11 0;
#X connect 5 0 16 0;
#X connect 5 0 15 0;
#X connect 5 0 17 0;
#X connect 6 0 2 0;
#X connect 7 0 2 0;
#X connect 8 0 10 1;
#X connect 9 0 10 0;
#X connect 10 0 3 0;
#X connect 11 0 9 0;
#X connect 11 0 13 0;
#X connect 11 0 12 0;
#X connect 12 0 7 0;
#X connect 12 0 14 0;
#X connect 15 0 3 1;
#X connect 15 0 12 1;
#X connect 16 0 6 1;
#X connect 16 0 11 1;
#X connect 17 0 7 1;
#X connect 18 0 16 1;
#X connect 19 0 15 1;
#X connect 20 0 8 1;
#X connect 21 0 17 1;
#X coords 0 0 0.5 0.5 0 0 0;
#X restore 572 266 pd vanilla_eg;
#X connect 0 0 2 0;
#X connect 0 0 10 0;
#X connect 1 0 10 1;
#X connect 2 0 5 0;
#X connect 3 0 7 0;
#X connect 5 0 4 1;
#X connect 6 0 11 1;
#X connect 7 0 14 0;
#X connect 8 0 9 0;
#X connect 9 0 11 0;
#X connect 10 0 12 0;
#X connect 11 0 4 0;
#X connect 12 0 14 1;
#X connect 13 0 3 0;
#X connect 14 0 15 1;
#X connect 17 0 16 1;
#X connect 17 0 16 0;
#X connect 18 0 19 0;
#X connect 19 0 20 0;
#X connect 19 0 22 0;
#X connect 21 0 17 1;
#X connect 22 0 21 0;
#X connect 25 0 24 0;
#X connect 26 0 18 0;
#X connect 27 0 17 0;
#X connect 28 0 27 0;
#X connect 29 0 28 0;
