#N canvas 157 0 1082 742 10;
#X obj 528 540 dac~;
#X obj 492 268 table sine1;
#X obj 493 304 tabosc4~ sine1;
#X obj 493 325 tabosc4~ sine1;
#X obj 494 347 tabosc4~ sine1;
#X obj 494 369 tabosc4~ sine1;
#X obj 494 391 tabosc4~ sine1;
#X obj 494 412 tabosc4~ sine1;
#X obj 409 365 +~;
#X obj 409 387 +~;
#X obj 409 409 +~;
#X obj 409 431 +~;
#X obj 261 218 mtof;
#X obj 528 510 *~;
#X floatatom 601 481 5 0.1 0.5 0 - - -, f 5;
#X obj 529 478 *~;
#X obj 676 445 line~;
#X obj 664 322 del 200;
#X floatatom 643 266 5 10 200 0 - - -, f 5;
#X obj 614 375 int 50;
#X obj 261 192 + 32;
#X obj 537 78 metro;
#X obj 676 375 int 300;
#X floatatom 720 46 5 300 2500 0 - - -, f 5;
#X msg 676 411 0 \$1;
#X obj 536 47 tgl 15 0 empty empty empty 17 7 0 10 -262144 -1 -1 1
1;
#X obj 410 343 +~;
#X msg 614 411 1 \$1;
#X floatatom 191 102 5 32 64 0 - - -, f 5;
#X msg 193 5 \; sine1 sinesum 512 1;
#X msg 961 266 bang;
#X obj 415 205 +~;
#X obj 415 173 int 1;
#X obj 396 234 *~;
#X obj 284 291 *;
#X obj 283 319 *;
#X obj 281 341 *;
#X obj 283 363 *;
#X obj 282 385 *;
#X floatatom 67 244 5 0 0 0 - - -, f 5;
#X floatatom 110 246 5 0 0 0 - - -, f 5;
#X floatatom 151 246 5 0 0 0 - - -, f 5;
#X floatatom 192 244 5 0 0 0 - - -, f 5;
#X floatatom 25 244 5 0 0 0 - - -, f 5;
#X obj 50 191 unpack 2 3 4 5 6;
#X obj 369 273 *;
#X floatatom 353 220 5 0 0 0 - - -, f 5;
#X obj 312 182 table tons;
#X obj 302 161 tabread tons;
#X obj 303 137 random 7;
#X obj 50 158 r stm;
#X text 94 -58 Spectrum;
#X text 94 -94 Dia. Scale;
#X obj 192 -22 loadbang;
#X msg 191 -65 \; stm 2 3 4 5 6;
#X msg 296 -65 \; stm 2 3 4.2 5.4 8.8;
#X msg 192 -104 \; tons 0 2 4 7 7 9 9 12;
#X connect 2 0 26 0;
#X connect 3 0 26 1;
#X connect 4 0 8 1;
#X connect 5 0 9 1;
#X connect 6 0 10 1;
#X connect 7 0 11 1;
#X connect 8 0 9 0;
#X connect 9 0 10 0;
#X connect 10 0 11 0;
#X connect 11 0 15 0;
#X connect 12 0 34 0;
#X connect 12 0 35 0;
#X connect 12 0 36 0;
#X connect 12 0 37 0;
#X connect 12 0 38 0;
#X connect 12 0 45 0;
#X connect 13 0 0 0;
#X connect 13 0 0 1;
#X connect 14 0 13 1;
#X connect 15 0 13 0;
#X connect 16 0 15 1;
#X connect 17 0 22 0;
#X connect 18 0 17 1;
#X connect 18 0 19 1;
#X connect 19 0 27 0;
#X connect 20 0 12 0;
#X connect 21 0 19 0;
#X connect 21 0 17 0;
#X connect 21 0 32 0;
#X connect 21 0 49 0;
#X connect 22 0 24 0;
#X connect 23 0 22 1;
#X connect 23 0 21 1;
#X connect 24 0 16 0;
#X connect 25 0 21 0;
#X connect 26 0 8 0;
#X connect 27 0 16 0;
#X connect 28 0 20 1;
#X connect 31 0 33 1;
#X connect 32 0 31 0;
#X connect 34 0 3 0;
#X connect 35 0 4 0;
#X connect 36 0 5 0;
#X connect 37 0 6 0;
#X connect 38 0 7 0;
#X connect 39 0 35 1;
#X connect 40 0 36 1;
#X connect 41 0 37 1;
#X connect 42 0 38 1;
#X connect 43 0 34 1;
#X connect 44 0 43 0;
#X connect 44 1 39 0;
#X connect 44 2 40 0;
#X connect 44 3 41 0;
#X connect 44 4 42 0;
#X connect 45 0 2 0;
#X connect 46 0 45 1;
#X connect 48 0 20 0;
#X connect 49 0 48 0;
#X connect 50 0 44 0;
#X connect 53 0 29 0;
