max v2;
#N vpatcher 157 0 1239 742;
#P newex 528 540 50 10 dac~;
#P newex 492 268 100 10 table sine1;
#P newex 493 304 100 10 tabosc4~ sine1;
#P newex 493 325 100 10 tabosc4~ sine1;
#P newex 494 347 100 10 tabosc4~ sine1;
#P newex 494 369 100 10 tabosc4~ sine1;
#P newex 494 391 100 10 tabosc4~ sine1;
#P newex 494 412 100 10 tabosc4~ sine1;
#P newex 409 365 50 10 +~;
#P newex 409 387 50 10 +~;
#P newex 409 409 50 10 +~;
#P newex 409 431 50 10 +~;
#P newex 261 218 50 10 mtof;
#P newex 528 510 50 10 *~;
#P flonum 601 481 50;
#P newex 529 478 50 10 *~;
#P newex 676 445 50 10 line~;
#P newex 664 322 100 10 del 200;
#P flonum 643 266 50;
#P newex 614 375 100 10 int 50;
#P newex 261 192 100 10 + 32;
#P newex 537 78 50 10 metro;
#P newex 676 375 100 10 int 300;
#P flonum 720 46 50;
#P message 676 411 100 10 0 \$1;
#P toggle 536 47 15 0;
#P newex 410 343 50 10 +~;
#P message 614 411 100 10 1 \$1;
#P flonum 191 102 50;
#P message 193 5 250 10 \; sine1 sinesum 512 1;
#P message 961 266 50 10 bang;
#P newex 415 205 50 10 +~;
#P newex 415 173 100 10 int 1;
#P newex 396 234 50 10 *~;
#P newex 284 291 50 10 *;
#P newex 283 319 50 10 *;
#P newex 281 341 50 10 *;
#P newex 283 363 50 10 *;
#P newex 282 385 50 10 *;
#P flonum 67 244 50;
#P flonum 110 246 50;
#P flonum 151 246 50;
#P flonum 192 244 50;
#P flonum 25 244 50;
#P newex 50 191 300 10 unpack 2 3 4 5 6;
#P newex 369 273 50 10 *;
#P flonum 353 220 50;
#P newex 312 182 100 10 table tons;
#P newex 302 161 100 10 tabread tons;
#P newex 303 137 100 10 random 7;
#P newex 50 158 100 10 r stm;
#P comment 94 -58 50 10 Spectrum;
#P comment 94 -94 100 10 Dia. Scale;
#P newex 192 -22 50 10 loadbang;
#P message 191 -65 350 10 \; stm 2 3 4 5 6;
#P message 296 -65 350 10 \; stm 2 3 4.2 5.4 8.8;
#P message 192 -104 500 10 \; tons 0 2 4 7 7 9 9 12;
#P connect 54 0 30 0;
#P connect 53 0 30 1;
#P connect 52 0 48 1;
#P connect 51 0 47 1;
#P connect 50 0 46 1;
#P connect 49 0 45 1;
#P connect 48 0 47 0;
#P connect 47 0 46 0;
#P connect 46 0 45 0;
#P connect 45 0 41 0;
#P connect 44 0 22 0;
#P connect 44 0 21 0;
#P connect 44 0 20 0;
#P connect 44 0 19 0;
#P connect 44 0 18 0;
#P connect 44 0 11 0;
#P connect 43 0 56 0;
#P connect 43 0 56 1;
#P connect 42 0 43 1;
#P connect 41 0 43 0;
#P connect 40 0 41 1;
#P connect 39 0 34 0;
#P connect 38 0 39 1;
#P connect 38 0 37 1;
#P connect 37 0 29 0;
#P connect 36 0 44 0;
#P connect 35 0 37 0;
#P connect 35 0 39 0;
#P connect 35 0 24 0;
#P connect 35 0 7 0;
#P connect 34 0 32 0;
#P connect 33 0 34 1;
#P connect 33 0 35 1;
#P connect 32 0 40 0;
#P connect 31 0 35 0;
#P connect 30 0 48 0;
#P connect 29 0 40 0;
#P connect 28 0 36 1;
#P connect 25 0 23 1;
#P connect 24 0 25 0;
#P connect 22 0 53 0;
#P connect 21 0 52 0;
#P connect 20 0 51 0;
#P connect 19 0 50 0;
#P connect 18 0 49 0;
#P connect 17 0 21 1;
#P connect 16 0 20 1;
#P connect 15 0 19 1;
#P connect 14 0 18 1;
#P connect 13 0 22 1;
#P connect 12 0 13 0;
#P connect 12 1 17 0;
#P connect 12 2 16 0;
#P connect 12 3 15 0;
#P connect 12 4 14 0;
#P connect 11 0 54 0;
#P connect 10 0 11 1;
#P connect 8 0 36 0;
#P connect 7 0 8 0;
#P connect 6 0 12 0;
#P connect 3 0 27 0;
#P pop;
