#N canvas -4 -4 1280 762 10;
#X floatatom 289 -18 5 0 6 0 N - -;
#X floatatom 177 -17 5 0 90 0 Lat - -;
#X floatatom 177 240 5 0 0 0 K - -;
#X obj 152 131 cos;
#X obj 148 164 pow 2;
#X obj 214 131 sin;
#X obj 219 164 pow 2;
#X obj 178 206 /;
#X obj 177 66 / 360;
#X obj 176 95 * 6.2831;
#X obj 290 65 * 15;
#X obj 290 94 / 360;
#X obj 290 126 * 6.2831;
#X obj 290 182 pow 2;
#X obj 290 154 sin;
#X obj 267 290 *;
#X obj 269 331 + 1;
#X obj 266 373 sqrt;
#X obj 194 374 cos;
#X obj 225 424 /;
#X floatatom 225 462 5 0 0 0 sin_x - -;
#X obj 324 514 pow 2;
#X obj 299 556 -;
#X floatatom 258 517 5 0 1 0 - - -;
#X obj 302 595 sqrt;
#X obj 252 637 /;
#X obj 253 674 atan;
#X floatatom 515 14 5 0 0 0 - - -;
#X obj 377 -20 hradio 15 1 0 7 empty empty empty 0 -8 0 10 -262144
-1 -1 1;
#X floatatom 442 612 5 0 0 0 - - -;
#X floatatom 405 140 5 0 0 0 - - -;
#X obj 699 175 / 3.14159;
#X obj 620 660 *;
#X floatatom 642 68 5 179 180 0 - - -;
#X msg 84 22 bang;
#X msg 424 24 bang;
#X connect 0 0 10 0;
#X connect 1 0 8 0;
#X connect 1 0 34 0;
#X connect 2 0 15 0;
#X connect 3 0 4 0;
#X connect 4 0 7 0;
#X connect 5 0 6 0;
#X connect 6 0 7 1;
#X connect 7 0 2 0;
#X connect 8 0 9 0;
#X connect 9 0 3 0;
#X connect 9 0 5 0;
#X connect 10 0 11 0;
#X connect 10 0 30 0;
#X connect 11 0 12 0;
#X connect 12 0 14 0;
#X connect 12 0 18 0;
#X connect 12 0 30 0;
#X connect 13 0 15 1;
#X connect 14 0 13 0;
#X connect 15 0 16 0;
#X connect 16 0 17 0;
#X connect 17 0 19 1;
#X connect 18 0 19 0;
#X connect 19 0 20 0;
#X connect 20 0 25 0;
#X connect 20 0 21 0;
#X connect 21 0 22 1;
#X connect 22 0 24 0;
#X connect 23 0 22 0;
#X connect 24 0 25 1;
#X connect 25 0 26 0;
#X connect 26 0 29 0;
#X connect 28 0 10 0;
#X connect 29 0 32 0;
#X connect 31 0 32 1;
#X connect 32 0 27 0;
#X connect 33 0 31 0;
#X connect 34 0 28 0;
#X connect 34 0 23 0;
#X connect 34 0 16 0;
