#N struct template_pads float type float ch float noteprogcc float
triggermsb float atlsb float padpos float x float y;
#N canvas -9 -9 1845 1028 10;
#X obj 34 163 textfile;
#X msg 83 110 rewind;
#X symbolatom 34 220 32 0 0 0 - - -;
#X obj 34 191 unpack s f;
#X floatatom 204 173 5 0 0 0 - - -;
#X obj 34 251 pack s f;
#X msg 34 277 add \$1 \$2;
#X msg 23 110 clear;
#X obj 9 305 textfile;
#X obj 164 84 ctlin;
#X msg 8 7 symbol ./data/livescdir/-MPD-Generic1/UserConfiguration.txt
;
#X msg 90 84 read \$1 cr;
#X msg 8 84 write \$1 cr;
#X msg 90 33 symbol ./data/UserConfigurationSource.txt;
#X obj 177 125 t b f;
#X obj 255 91 sysexin;
#X obj 255 221 textfile;
#X msg 266 197 clear;
#X msg 255 173 add \$1;
#X obj 268 148 t f f;
#X msg 268 117 1 2;
#X text 201 64 read sysex from device (device needs to send);
#N canvas -9 -9 1845 1028 sequence_list 1;
#X obj 21 349 list append;
#X symbolatom 364 24 12 0 0 0 Name #0-mpd24_bangall #0-mpd24_pstname
;
#X floatatom 444 24 5 29 30 1 Nr #0-mpd24_bangall #0-mpd24_pstaddr
;
#X floatatom 364 44 5 0 3 0 Bank #0-mpd24_bangall #0-mpd24_pstbank
;
#X floatatom 406 44 5 0 1 1 Transport #0-mpd24_bangall #0-mpd24_psttrsp
;
#X obj 40 315 list store;
#X obj 21 290 t b b l;
#N canvas -9 -9 1845 1028 sequence_output 0;
#X obj 60 92 inlet;
#X obj 61 313 outlet;
#X obj 62 286 list store;
#X obj 62 127 t b b l;
#X msg 82 160 0;
#X obj 62 187 until;
#X obj 62 223 f;
#X obj 89 223 + 1;
#X msg 62 260 get \$1 1;
#X connect 0 0 3 0;
#X connect 2 0 1 0;
#X connect 2 1 5 1;
#X connect 3 0 5 0;
#X connect 3 1 4 0;
#X connect 3 2 2 1;
#X connect 4 0 6 1;
#X connect 5 0 6 0;
#X connect 6 0 8 0;
#X connect 6 0 7 0;
#X connect 7 0 6 1;
#X connect 8 0 2 0;
#X restore 21 373 pd sequence_output;
#X obj 295 289 r \$0-mpd24sysex_presetparams;
#X obj 287 266 r \$0-mpd24sysex_boiler;
#X obj 287 416 s \$0-sysexbuffer;
#X obj 21 266 r \$0-sysexbuffer;
#X obj 303 312 r \$0-mpd24sysex_filler;
#X floatatom 316 105 5 0 32 0 Channel #0-mpd24_bangall #0-mpd24_ccs_channel
;
#X floatatom 24 25 5 0 127 3 - #0-mpd24_bangall #0-mpd24_ccs_cc9;
#X floatatom 58 25 5 0 127 3 - #0-mpd24_bangall #0-mpd24_ccs_cc10;
#X floatatom 92 25 5 0 127 3 - #0-mpd24_bangall #0-mpd24_ccs_cc11;
#X floatatom 126 25 5 0 127 3 - #0-mpd24_bangall #0-mpd24_ccs_cc12
;
#X floatatom 160 25 5 0 127 3 - #0-mpd24_bangall #0-mpd24_ccs_cc13
;
#X floatatom 194 25 5 0 127 3 - #0-mpd24_bangall #0-mpd24_ccs_cc14
;
#X text 233 25 CCs;
#X floatatom 24 44 5 0 127 3 - #0-mpd24_bangall #0-mpd24_ccs_max9;
#X floatatom 58 44 5 0 127 3 - #0-mpd24_bangall #0-mpd24_ccs_max10
;
#X floatatom 92 44 5 0 127 3 - #0-mpd24_bangall #0-mpd24_ccs_max11
;
#X floatatom 126 44 5 0 127 3 - #0-mpd24_bangall #0-mpd24_ccs_max12
;
#X floatatom 160 44 5 0 127 3 - #0-mpd24_bangall #0-mpd24_ccs_max13
;
#X floatatom 194 44 5 0 127 3 - #0-mpd24_bangall #0-mpd24_ccs_max14
;
#X floatatom 24 63 5 0 127 3 F1 #0-mpd24_bangall #0-mpd24_ccs_min9
;
#X floatatom 58 63 5 0 127 3 F2 #0-mpd24_bangall #0-mpd24_ccs_min10
;
#X floatatom 92 63 5 0 127 3 F3 #0-mpd24_bangall #0-mpd24_ccs_min11
;
#X floatatom 126 63 5 0 127 3 F4 #0-mpd24_bangall #0-mpd24_ccs_min12
;
#X floatatom 160 63 5 0 127 3 F5 #0-mpd24_bangall #0-mpd24_ccs_min13
;
#X floatatom 194 63 5 0 127 3 F6 #0-mpd24_bangall #0-mpd24_ccs_min14
;
#X text 233 44 Max;
#X text 233 63 Min;
#X floatatom 274 181 5 0 127 0 K7 #0-mpd24_bangall #0-mpd24_ccs_cc7
;
#X text 279 158 CCs;
#X floatatom 308 181 5 0 127 3 - #0-mpd24_bangall #0-mpd24_ccs_min7
;
#X floatatom 342 181 5 0 127 3 - #0-mpd24_bangall #0-mpd24_ccs_max7
;
#X text 345 158 Max;
#X text 311 158 Min;
#X floatatom 394 181 5 0 127 0 K8 #0-mpd24_bangall #0-mpd24_ccs_cc8
;
#X text 398 157 CCs;
#X floatatom 428 181 5 0 127 3 - #0-mpd24_bangall #0-mpd24_ccs_min8
;
#X floatatom 462 181 5 0 127 3 - #0-mpd24_bangall #0-mpd24_ccs_max8
;
#X text 466 157 Max;
#X text 432 157 Min;
#X floatatom 274 200 5 0 127 0 K5 #0-mpd24_bangall #0-mpd24_ccs_cc5
;
#X floatatom 308 200 5 0 127 3 - #0-mpd24_bangall #0-mpd24_ccs_min5
;
#X floatatom 342 200 5 0 127 3 - #0-mpd24_bangall #0-mpd24_ccs_max5
;
#X floatatom 394 200 5 0 127 0 K6 #0-mpd24_bangall #0-mpd24_ccs_cc6
;
#X floatatom 428 200 5 0 127 3 - #0-mpd24_bangall #0-mpd24_ccs_min6
;
#X floatatom 462 200 5 0 127 3 - #0-mpd24_bangall #0-mpd24_ccs_max6
;
#X floatatom 274 219 5 0 127 0 K3 #0-mpd24_bangall #0-mpd24_ccs_cc3
;
#X floatatom 308 219 5 0 127 3 - #0-mpd24_bangall #0-mpd24_ccs_min3
;
#X floatatom 342 219 5 0 127 3 - #0-mpd24_bangall #0-mpd24_ccs_max3
;
#X floatatom 394 219 5 0 127 0 K4 #0-mpd24_bangall #0-mpd24_ccs_cc4
;
#X floatatom 428 219 5 0 127 3 - #0-mpd24_bangall #0-mpd24_ccs_min4
;
#X floatatom 462 219 5 0 127 3 - #0-mpd24_bangall #0-mpd24_ccs_max4
;
#X floatatom 274 238 5 0 127 0 K1 #0-mpd24_bangall #0-mpd24_ccs_cc1
;
#X floatatom 308 238 5 0 127 3 - #0-mpd24_bangall #0-mpd24_ccs_min1
;
#X floatatom 342 238 5 0 127 3 - #0-mpd24_bangall #0-mpd24_ccs_max1
;
#X floatatom 394 238 5 0 127 0 K2 #0-mpd24_bangall #0-mpd24_ccs_cc2
;
#X floatatom 428 238 5 0 127 3 - #0-mpd24_bangall #0-mpd24_ccs_min2
;
#X floatatom 462 238 5 0 127 3 - #0-mpd24_bangall #0-mpd24_ccs_max2
;
#N canvas -9 -9 1845 1028 list_presetparams 0;
#X obj 230 164 list fromsymbol;
#X obj 153 299 list store;
#X obj 210 122 r \$0-mpd24_pstaddr;
#X obj 230 142 r \$0-mpd24_pstname;
#X obj 391 142 r \$0-mpd24_pstbank;
#X obj 411 164 r \$0-mpd24_psttrsp;
#X obj 210 274 pack 1 32 32 32 32 32 32 32 32 0 1;
#X obj 230 222 list prepend 32 32 32 32 32 32 32 32;
#X obj 230 188 t b l;
#X obj 230 244 unpack f f f f f f f f;
#X obj 153 335 s \$0-mpd24sysex_presetparams;
#X obj 153 59 inlet;
#X connect 0 0 8 0;
#X connect 1 0 10 0;
#X connect 2 0 6 0;
#X connect 3 0 0 0;
#X connect 4 0 6 9;
#X connect 5 0 6 10;
#X connect 6 0 1 1;
#X connect 7 0 9 0;
#X connect 8 0 7 0;
#X connect 8 1 7 1;
#X connect 9 0 6 1;
#X connect 9 1 6 2;
#X connect 9 2 6 3;
#X connect 9 3 6 4;
#X connect 9 4 6 5;
#X connect 9 5 6 6;
#X connect 9 6 6 7;
#X connect 9 7 6 8;
#X connect 11 0 1 0;
#X restore 640 184 pd list_presetparams;
#N canvas -1929 104 1920 1028 list_ccs 0;
#X obj 70 9 r \$0-mpd24_ccs_channel;
#X msg 71 35 list \$1 \$1 \$1 \$1 \$1 \$1 \$1 \$1 \$1 \$1 \$1 \$1 \$1
\$1;
#X obj 9 9 inlet;
#X obj 8 495 s \$0-mpd24sysex_ccs;
#X obj 495 34 r \$0-mpd24_ccs_min1;
#X obj 510 55 r \$0-mpd24_ccs_min2;
#X obj 524 76 r \$0-mpd24_ccs_min3;
#X obj 539 97 r \$0-mpd24_ccs_min4;
#X obj 553 118 r \$0-mpd24_ccs_min5;
#X obj 568 139 r \$0-mpd24_ccs_min6;
#X obj 582 160 r \$0-mpd24_ccs_min7;
#X obj 596 181 r \$0-mpd24_ccs_min8;
#X obj 611 202 r \$0-mpd24_ccs_min9;
#X obj 626 223 r \$0-mpd24_ccs_min10;
#X obj 640 244 r \$0-mpd24_ccs_min11;
#X obj 655 265 r \$0-mpd24_ccs_min12;
#X obj 669 286 r \$0-mpd24_ccs_min13;
#X obj 684 307 r \$0-mpd24_ccs_min14;
#X obj 495 333 pack 0 0 0 0 0 0 0 0 0 0 0 0 0 0;
#X obj 817 307 pack 0 0 0 0 0 0 0 0 0 0 0 0 0 0;
#X obj 817 8 r \$0-mpd24_ccs_max1;
#X obj 832 29 r \$0-mpd24_ccs_max2;
#X obj 846 50 r \$0-mpd24_ccs_max3;
#X obj 861 71 r \$0-mpd24_ccs_max4;
#X obj 875 92 r \$0-mpd24_ccs_max5;
#X obj 890 113 r \$0-mpd24_ccs_max6;
#X obj 904 134 r \$0-mpd24_ccs_max7;
#X obj 918 155 r \$0-mpd24_ccs_max8;
#X obj 933 176 r \$0-mpd24_ccs_max9;
#X obj 948 197 r \$0-mpd24_ccs_max10;
#X obj 962 218 r \$0-mpd24_ccs_max11;
#X obj 977 239 r \$0-mpd24_ccs_max12;
#X obj 991 260 r \$0-mpd24_ccs_max13;
#X obj 1006 281 r \$0-mpd24_ccs_max14;
#X obj 177 359 pack 0 0 0 0 0 0 0 0 0 0 0 0 0 0;
#X obj 177 61 r \$0-mpd24_ccs_cc1;
#X obj 191 82 r \$0-mpd24_ccs_cc2;
#X obj 206 102 r \$0-mpd24_ccs_cc3;
#X obj 221 124 r \$0-mpd24_ccs_cc4;
#X obj 235 145 r \$0-mpd24_ccs_cc5;
#X obj 250 166 r \$0-mpd24_ccs_cc6;
#X obj 264 187 r \$0-mpd24_ccs_cc7;
#X obj 278 208 r \$0-mpd24_ccs_cc8;
#X obj 293 229 r \$0-mpd24_ccs_cc9;
#X obj 308 250 r \$0-mpd24_ccs_cc10;
#X obj 322 271 r \$0-mpd24_ccs_cc11;
#X obj 337 292 r \$0-mpd24_ccs_cc12;
#X obj 351 313 r \$0-mpd24_ccs_cc13;
#X obj 367 334 r \$0-mpd24_ccs_cc14;
#X obj 8 392 list append;
#X obj 8 415 list append;
#X obj 8 438 list append;
#X obj 8 369 list append;
#X msg 1140 282 list 80 80 80 80 80 80 80 80 80 80 80 80 80 80;
#X obj 8 461 list append;
#X obj 9 50 t b b;
#X obj 1140 259 r \$0-mpd24_ccs_initpos;
#X obj 36 84 s \$0-mpd24_ccs_initpos;
#X connect 0 0 1 0;
#X connect 1 0 52 1;
#X connect 2 0 55 0;
#X connect 4 0 18 0;
#X connect 5 0 18 1;
#X connect 6 0 18 2;
#X connect 7 0 18 3;
#X connect 8 0 18 4;
#X connect 9 0 18 5;
#X connect 10 0 18 6;
#X connect 11 0 18 7;
#X connect 12 0 18 8;
#X connect 13 0 18 9;
#X connect 14 0 18 10;
#X connect 15 0 18 11;
#X connect 16 0 18 12;
#X connect 17 0 18 13;
#X connect 18 0 50 1;
#X connect 19 0 51 1;
#X connect 20 0 19 0;
#X connect 21 0 19 1;
#X connect 22 0 19 2;
#X connect 23 0 19 3;
#X connect 24 0 19 4;
#X connect 25 0 19 5;
#X connect 26 0 19 6;
#X connect 27 0 19 7;
#X connect 28 0 19 8;
#X connect 29 0 19 9;
#X connect 30 0 19 10;
#X connect 31 0 19 11;
#X connect 32 0 19 12;
#X connect 33 0 19 13;
#X connect 34 0 49 1;
#X connect 35 0 34 0;
#X connect 36 0 34 1;
#X connect 37 0 34 2;
#X connect 38 0 34 3;
#X connect 39 0 34 4;
#X connect 40 0 34 5;
#X connect 41 0 34 6;
#X connect 42 0 34 7;
#X connect 43 0 34 8;
#X connect 44 0 34 9;
#X connect 45 0 34 10;
#X connect 46 0 34 11;
#X connect 47 0 34 12;
#X connect 48 0 34 13;
#X connect 49 0 50 0;
#X connect 50 0 51 0;
#X connect 51 0 54 0;
#X connect 52 0 49 0;
#X connect 53 0 54 1;
#X connect 54 0 3 0;
#X connect 55 0 52 0;
#X connect 55 1 57 0;
#X connect 56 0 53 0;
#X restore 613 228 pd list_ccs;
#X text 673 143 LIST BUILDERS;
#N canvas 0 50 1800 789 list_filler1 0;
#X msg 35 81 0 0 0 0 0 0 0 0 0 0 0 0 0 0 0 0 0 0 0 0;
#X obj 35 106 s \$0-mpd24sysex_filler;
#X obj 35 55 inlet;
#X connect 0 0 1 0;
#X connect 2 0 0 0;
#X restore 626 206 pd list_filler1;
#X msg 21 398 add \$1;
#X text 68 397 needs to have textfile output;
#N canvas 431 322 1420 450 list_mpd24boiler 0;
#X obj 18 69 pack 240 71 0 104 16 3 113;
#X obj 18 92 s \$0-mpd24sysex_boiler;
#X obj 18 28 inlet;
#X connect 0 0 1 0;
#X connect 2 0 0 0;
#X restore 654 162 pd list_mpd24boiler;
#X obj 310 334 r \$0-mpd24sysex_ccs;
#X msg 667 100 clear;
#X obj 39 423 r \$0-clearbuffer;
#X obj 667 123 s \$0-clearbuffer;
#X obj 465 89 bng 30 250 50 0 \$0-mpd24sysex_dump remove_receive DUMP
4 15 0 10 -128992 -196685 -257985;
#X obj 558 21 r \$0-mpd24sysex_dump;
#X obj 21 458 textfile;
#X obj 558 53 t b b b b b b b b b b;
#X obj 681 77 s \$0-mpd24_bangall;
#X text 234 86 |;
#X text 256 109 |;
#X text 256 120 |;
#X text 256 131 |;
#X text 237 98 _____;
#X text 234 97 |;
#X text 256 142 |;
#X text 256 153 |;
#X text 259 153 __;
#X floatatom 715 53 5 0 0 1 DEBUG - -;
#X floatatom 526 129 5 0 0 0 - - -;
#X obj 77 -32742 tgl 15 0 empty empty empty 17 7 0 10 -262144 -1 -1
0 1;
#X obj 97 -32766 tgl 15 0 empty empty empty 17 7 0 10 -262144 -1 -1
0 1;
#X obj 118 -32766 tgl 15 0 empty empty empty 17 7 0 10 -262144 -1 -1
0 1;
#X obj 136 -32754 tgl 15 0 empty empty empty 17 7 0 10 -262144 -1 -1
0 1;
#X obj 134 -32754 tgl 15 0 empty empty empty 17 7 0 10 -262144 -1 -1
0 1;
#X floatatom 579 387 5 0 0 0 - - -;
#N canvas -959 338 552 501 data_pads 0;
#X scalar template_pads 0 0 0 0 0 63 13312 120 \;;
#X scalar template_pads 0 0 0 0 0 62 13304 112 \;;
#X scalar template_pads 0 0 0 0 0 61 13296 112 \;;
#X scalar template_pads 0 0 0 0 0 60 13288 112 \;;
#X scalar template_pads 0 0 0 0 0 59 13280 112 \;;
#X scalar template_pads 0 0 0 0 0 58 13272 104 \;;
#X scalar template_pads 0 0 0 0 0 57 13264 104 \;;
#X scalar template_pads 0 0 0 0 0 56 13256 104 \;;
#X scalar template_pads 0 0 0 0 0 55 13248 104 \;;
#X scalar template_pads 0 0 0 0 0 54 13240 96 \;;
#X scalar template_pads 0 0 0 0 0 53 13232 96 \;;
#X scalar template_pads 0 0 0 0 0 52 13224 96 \;;
#X scalar template_pads 0 0 0 0 0 51 13216 96 \;;
#X scalar template_pads 0 0 0 0 0 50 13208 88 \;;
#X scalar template_pads 0 0 0 0 0 49 13200 88 \;;
#X scalar template_pads 0 0 0 0 0 48 13192 88 \;;
#X scalar template_pads 0 0 0 0 0 47 13184 88 \;;
#X scalar template_pads 0 0 0 0 0 46 13176 80 \;;
#X scalar template_pads 0 0 0 0 0 45 13168 80 \;;
#X scalar template_pads 0 0 0 0 0 44 13160 80 \;;
#X scalar template_pads 0 0 0 0 0 43 13152 80 \;;
#X scalar template_pads 0 0 0 0 0 42 13144 72 \;;
#X scalar template_pads 0 0 0 0 0 41 13136 72 \;;
#X scalar template_pads 0 0 0 0 0 40 13128 72 \;;
#X scalar template_pads 0 0 0 0 0 39 13120 72 \;;
#X scalar template_pads 0 0 0 0 0 38 13112 64 \;;
#X scalar template_pads 0 0 0 0 0 37 13104 64 \;;
#X scalar template_pads 0 0 0 0 0 36 13096 64 \;;
#X scalar template_pads 0 0 0 0 0 35 13088 64 \;;
#X scalar template_pads 0 0 0 0 0 34 13080 56 \;;
#X scalar template_pads 0 0 0 0 0 33 13072 56 \;;
#X scalar template_pads 0 0 0 0 0 32 13064 56 \;;
#X scalar template_pads 0 0 0 0 0 31 13056 56 \;;
#X scalar template_pads 0 0 0 0 0 30 13048 48 \;;
#X scalar template_pads 0 0 0 0 0 29 13040 48 \;;
#X scalar template_pads 0 0 0 0 0 28 13032 48 \;;
#X scalar template_pads 0 0 0 0 0 27 13024 48 \;;
#X scalar template_pads 0 0 0 0 0 26 13016 40 \;;
#X scalar template_pads 0 0 0 0 0 25 13008 40 \;;
#X scalar template_pads 0 0 0 0 0 24 13000 40 \;;
#X scalar template_pads 0 0 0 0 0 23 12992 40 \;;
#X scalar template_pads 0 0 0 0 0 22 12984 32 \;;
#X scalar template_pads 0 0 0 0 0 21 12976 32 \;;
#X scalar template_pads 0 0 0 0 0 20 12968 32 \;;
#X scalar template_pads 0 0 0 0 0 19 12960 32 \;;
#X scalar template_pads 0 0 0 0 0 18 12952 24 \;;
#X scalar template_pads 0 0 0 0 0 17 12944 24 \;;
#X scalar template_pads 0 0 0 0 0 16 12936 24 \;;
#X scalar template_pads 0 0 0 0 0 15 12928 24 \;;
#X scalar template_pads 0 0 0 0 0 14 12920 16 \;;
#X scalar template_pads 0 0 0 0 0 13 12912 16 \;;
#X scalar template_pads 0 0 0 0 0 12 12904 16 \;;
#X scalar template_pads 0 0 0 0 0 11 12896 16 \;;
#X scalar template_pads 0 0 0 0 0 10 12888 8 \;;
#X scalar template_pads 0 0 0 0 0 9 12880 8 \;;
#X scalar template_pads 0 0 0 0 0 8 12872 8 \;;
#X scalar template_pads 0 0 0 0 0 7 12864 8 \;;
#X scalar template_pads 0 0 0 0 0 6 12856 0 \;;
#X scalar template_pads 0 0 0 0 0 5 12848 0 \;;
#X scalar template_pads 0 0 0 0 0 4 12840 0 \;;
#X scalar template_pads 0 0 0 0 0 3 12832 0 \;;
#X scalar template_pads 0 0 0 0 0 2 12824 120 \;;
#X scalar template_pads 0 0 0 0 0 1 12816 120 \;;
#X scalar template_pads 0 0 0 0 0 0 12808 120 \;;
#X coords 8 8 74 74 112 112 2 0 0;
#X restore 106 129 pd data_pads;
#N canvas -1929 104 1920 1028 template_pads 1;
#X obj 22 165 outlet;
#X obj 435 272 pointer;
#X msg 433 172 traverse pd-data_pads \, bang;
#X msg 424 245 next;
#X obj 396 295 pointer;
#X obj 237 163 until;
#X obj 276 74 inlet;
#X obj 396 220 t b b;
#X msg 39 298 0;
#X obj 24 11 struct template_pads float type float ch float noteprogcc
float triggermsb float atlsb float padpos float x float y;
#X obj 30 477 append template_pads type ch noteprogcc triggermsb atlsb
padpos x y;
#X obj 229 302 t f f;
#X msg 465 128 \; pd-data_pads clear;
#X obj 22 99 route click;
#N canvas -1929 104 1920 1028 pads_record_values 0;
#X obj 122 164 r \$0-mpd24_pad_type;
#X obj 247 165 r \$0-mpd24_pad_ch;
#X obj 365 162 r \$0-mpd24_pad_npc;
#X obj 495 161 r \$0-mpd24_pad_trgmsb;
#X obj 633 161 r \$0-mpd24_pad_atlsb;
#X obj 530 262 pointer;
#X msg 707 240 traverse pd-data_pads \, bang;
#X obj 544 73 inlet;
#X obj 211 420 set template_pads type ch noteprogcc triggermsb atlsb
;
#X floatatom 124 313 5 0 0 0 - - -;
#X floatatom 254 313 5 0 0 0 - - -;
#X floatatom 367 318 5 0 0 0 - - -;
#X floatatom 450 315 5 0 0 0 - - -;
#X floatatom 621 311 5 0 0 0 - - -;
#X obj 544 98 t p b;
#X obj 375 231 t b b b b b;
#X connect 0 0 9 0;
#X connect 0 0 15 0;
#X connect 1 0 10 0;
#X connect 1 0 15 0;
#X connect 2 0 11 0;
#X connect 2 0 15 0;
#X connect 3 0 12 0;
#X connect 3 0 15 0;
#X connect 4 0 13 0;
#X connect 4 0 15 0;
#X connect 5 0 8 5;
#X connect 7 0 14 0;
#X connect 9 0 8 0;
#X connect 10 0 8 1;
#X connect 11 0 8 2;
#X connect 12 0 8 3;
#X connect 13 0 8 4;
#X connect 14 0 5 0;
#X connect 15 0 9 0;
#X connect 15 1 10 0;
#X connect 15 2 11 0;
#X connect 15 3 12 0;
#X connect 15 4 13 0;
#X restore 69 165 pd pads_record_values;
#X obj 21 142 t p p;
#X msg 85 64 click;
#X obj 66 214 pointer;
#X obj 39 329 t f f f f f;
#X msg 236 138 64;
#X obj 339 46 filledpolygon -xv 333 333 1 10 10 16 10 16 16 10 16;
#X floatatom 332 264 5 0 0 0 - - -;
#X obj 230 281 * 8;
#X obj 264 451 + 0;
#X obj 331 241 + 1;
#N canvas 154 144 450 300 ci 0;
#X obj 41 81 i 0;
#X obj 72 81 + 1;
#X obj 41 27 inlet;
#X obj 41 108 outlet;
#X msg 41 53 bang;
#X msg 111 49 0;
#X obj 111 28 inlet;
#X connect 0 0 1 0;
#X connect 0 0 3 0;
#X connect 1 0 0 1;
#X connect 2 0 4 0;
#X connect 4 0 0 0;
#X connect 5 0 0 1;
#X connect 6 0 5 0;
#X restore 254 214 pd ci;
#N canvas 154 144 450 300 ci 0;
#X obj 41 81 i 0;
#X obj 72 81 + 1;
#X obj 41 27 inlet;
#X obj 41 108 outlet;
#X msg 41 53 bang;
#X msg 111 49 0;
#X obj 111 28 inlet;
#X connect 0 0 1 0;
#X connect 0 0 3 0;
#X connect 1 0 0 1;
#X connect 2 0 4 0;
#X connect 4 0 0 0;
#X connect 5 0 0 1;
#X connect 6 0 5 0;
#X restore 279 366 pd ci;
#X obj 276 101 trigger bang bang bang bang bang;
#N canvas 282 113 450 657 every 0;
#X obj 68 6 inlet;
#X obj 94 61 unpack f f;
#X obj 68 119 mod 2;
#X obj 68 143 select 0;
#X obj 68 90 i;
#X obj 67 33 t b l;
#X obj 68 188 outlet;
#X connect 0 0 5 0;
#X connect 1 0 4 1;
#X connect 1 1 2 1;
#X connect 2 0 3 0;
#X connect 3 0 6 0;
#X connect 4 0 2 0;
#X connect 5 0 4 0;
#X connect 5 1 1 0;
#X restore 333 305 pd every;
#X msg 332 284 \$1 16;
#N canvas 282 113 450 657 every 0;
#X obj 68 6 inlet;
#X obj 94 61 unpack f f;
#X obj 68 119 mod 2;
#X obj 68 143 select 0;
#X obj 68 90 i;
#X obj 67 33 t b l;
#X obj 68 188 outlet;
#X connect 0 0 5 0;
#X connect 1 0 4 1;
#X connect 1 1 2 1;
#X connect 2 0 3 0;
#X connect 3 0 6 0;
#X connect 4 0 2 0;
#X connect 5 0 4 0;
#X connect 5 1 1 0;
#X restore 279 344 pd every;
#X msg 278 324 \$1 32;
#X obj 237 184 t b b b;
#X obj 281 389 * 8;
#N canvas 154 144 450 300 ci 0;
#X obj 41 81 i 0;
#X obj 72 81 + 1;
#X obj 41 27 inlet;
#X obj 41 108 outlet;
#X msg 41 53 bang;
#X msg 111 49 0;
#X obj 111 28 inlet;
#X connect 0 0 1 0;
#X connect 0 0 3 0;
#X connect 1 0 0 1;
#X connect 2 0 4 0;
#X connect 4 0 0 0;
#X connect 5 0 0 1;
#X connect 6 0 5 0;
#X restore 334 328 pd ci;
#X obj 310 450 + 0;
#X msg 324 186 0;
#N canvas 154 144 450 300 ci 0;
#X obj 41 81 i 0;
#X obj 72 81 + 1;
#X obj 41 27 inlet;
#X obj 41 108 outlet;
#X msg 41 53 bang;
#X msg 111 49 0;
#X obj 111 28 inlet;
#X connect 0 0 1 0;
#X connect 0 0 3 0;
#X connect 1 0 0 1;
#X connect 2 0 4 0;
#X connect 4 0 0 0;
#X connect 5 0 0 1;
#X connect 6 0 5 0;
#X restore 230 261 pd ci;
#X obj 178 239 t float bang float;
#X floatatom 154 311 5 0 0 0 - - -;
#X obj 405 425 select 32;
#X obj 337 424 select 32;
#N canvas 290 96 1273 718 dtob2 0;
#X obj 123 132 / 2;
#X obj 150 132 mod 2;
#X obj 149 245 int;
#X obj 149 269 * 32;
#X obj 201 267 * 32;
#X obj 120 57 inlet;
#X obj 151 294 outlet;
#X obj 202 292 outlet;
#X obj 122 88 unpack f f;
#X obj 199 245 int;
#X obj 190 131 t b f f b;
#X msg 239 155 0;
#X floatatom 368 317 5 0 0 0 - - -;
#X floatatom 53 311 5 0 0 0 - - -;
#X connect 0 0 2 1;
#X connect 1 0 9 1;
#X connect 2 0 3 0;
#X connect 2 0 13 0;
#X connect 3 0 6 0;
#X connect 4 0 7 0;
#X connect 5 0 8 0;
#X connect 8 0 0 0;
#X connect 8 0 1 0;
#X connect 8 1 10 0;
#X connect 9 0 4 0;
#X connect 9 0 12 0;
#X connect 10 0 2 0;
#X connect 10 0 9 0;
#X connect 10 1 3 1;
#X connect 10 2 4 1;
#X connect 10 3 11 0;
#X connect 11 0 9 1;
#X connect 11 0 2 1;
#X restore 340 385 pd dtob2;
#X msg 338 359 \$1 32;
#X connect 1 0 4 1;
#X connect 2 0 1 0;
#X connect 3 0 1 0;
#X connect 4 0 10 8;
#X connect 5 0 32 0;
#X connect 6 0 27 0;
#X connect 7 0 4 0;
#X connect 7 1 3 0;
#X connect 8 0 18 0;
#X connect 9 0 13 0;
#X connect 11 0 23 0;
#X connect 11 1 31 0;
#X connect 13 0 15 0;
#X connect 15 0 0 0;
#X connect 15 0 17 1;
#X connect 15 1 14 0;
#X connect 16 0 13 1;
#X connect 18 0 10 0;
#X connect 18 1 10 1;
#X connect 18 2 10 2;
#X connect 18 3 10 3;
#X connect 18 4 10 4;
#X connect 19 0 5 0;
#X connect 21 0 29 0;
#X connect 22 0 11 0;
#X connect 23 0 10 6;
#X connect 24 0 21 0;
#X connect 25 0 38 0;
#X connect 26 0 33 0;
#X connect 27 1 19 0;
#X connect 27 2 26 1;
#X connect 27 2 25 1;
#X connect 27 2 34 1;
#X connect 27 2 36 0;
#X connect 27 2 42 0;
#X connect 27 3 2 0;
#X connect 27 4 12 0;
#X connect 28 0 34 0;
#X connect 29 0 28 0;
#X connect 30 0 26 0;
#X connect 31 0 30 0;
#X connect 32 0 8 0;
#X connect 32 1 25 0;
#X connect 32 2 7 0;
#X connect 33 0 35 0;
#X connect 34 0 43 0;
#X connect 35 0 10 7;
#X connect 36 0 23 1;
#X connect 36 0 35 1;
#X connect 37 0 22 0;
#X connect 37 0 39 0;
#X connect 38 0 10 5;
#X connect 38 1 37 0;
#X connect 38 2 24 0;
#X connect 40 0 37 1;
#X connect 41 0 26 1;
#X connect 42 0 23 1;
#X connect 42 0 41 0;
#X connect 42 1 35 1;
#X connect 42 1 40 0;
#X connect 43 0 42 0;
#X coords 0 514 1 513 96 96 0;
#X restore 544 313 pd template_pads;
#X obj 544 338 get template_pads type ch noteprogcc triggermsb atlsb
padpos;
#X floatatom 740 387 5 0 0 0 - - -;
#X msg 544 292 init;
#X floatatom 615 387 5 0 0 0 - - -;
#X floatatom 652 387 5 0 0 0 - - -;
#X floatatom 689 387 5 0 0 0 - - -;
#X floatatom 543 387 5 0 0 0 - - -;
#N canvas -9 -9 1845 1028 pad_params_ux 0;
#X floatatom 111 103 5 2 3 0 NOTE/PCH - #0-mpd24_pad_type;
#X floatatom 111 129 5 0 32 0 CHANNEL_ - #0-mpd24_pad_ch;
#X floatatom 111 155 5 0 127 0 NN/PRGN_ - #0-mpd24_pad_npc;
#X floatatom 112 182 5 0 127 0 TRG/MSB_ - #0-mpd24_pad_trgmsb;
#X floatatom 112 207 5 0 127 0 AFT/LSB_ - #0-mpd24_pad_atlsb;
#X obj 197 182 nbx 3 16 0 127 0 0 empty ppux_v2 TRG/MSB 12 -5 0 10
-203904 -4160 -1 0 256;
#X symbolatom 237 103 5 0 0 0 - ppux_stype_ind remove_send;
#X obj 130 284 select 2 3;
#X obj 197 208 nbx 3 16 0 127 0 0 empty ppux_v3 AT/LSB 18 -5 0 10 -203904
-4160 -1 0 256;
#X obj 130 263 r \$0-mpd24_pad_type;
#X obj 197 155 nbx 7 16 0 127 0 0 empty ppux_v1 NN/PRGN 12 -5 0 10
-203904 -4160 -1 0 256;
#X obj 197 129 nbx 3 16 0 32 0 0 empty remove_receive CHANNEL 14 -5
0 10 -203904 -4160 -1 0 256;
#X obj 202 103 hradio 16 1 1 2 empty remove_inlet empty -5 8 0 10 -262144
-1 -1 1;
#X obj 161 103 + 2;
#X symbolatom 237 129 5 0 0 0 - ppux_ch_ind remove_send;
#X obj 79 430 r \$0-mpd24_pad_ch;
#X obj 79 496 + 1;
#X obj 124 496 + 1;
#X obj 79 474 mod 15;
#X obj 124 474 mod 15;
#X obj 79 452 moses 15;
#X symbolatom 237 182 5 0 0 0 - ppux_v2_ind remove_send;
#X msg 124 521 \; ppux_ch_ind symbol \$1-B;
#X msg 79 554 \; ppux_ch_ind symbol \$1-A;
#X msg 158 312 \; ppux_stype_ind symbol PROG \; ppux_v2 range 0 127
\, bang \; ppux_v3 range 0 127 \, bang;
#X msg 130 370 \; ppux_stype_ind symbol NOTE \; ppux_v2 range 0 1 \,
bang \; ppux_v3 range 0 2 \, bang;
#X symbolatom 237 208 5 0 0 0 - ppux_v3_ind remove_send;
#X msg 78 715 \; ppux_v2_ind symbol MTY;
#X msg 107 683 \; ppux_v2_ind symbol TGL;
#X obj 78 587 r \$0-mpd24_pad_trgmsb;
#X obj 78 631 select 0 1;
#X msg 135 651 \; ppux_v2_ind symbol \$1=;
#X msg 148 815 \; ppux_v3_ind symbol \$1=;
#X obj 79 788 select 0 1 2;
#X msg 102 879 \; ppux_v3_ind symbol CPR;
#X msg 79 912 \; ppux_v3_ind symbol OFF;
#X msg 125 847 \; ppux_v3_ind symbol PPR;
#X obj 79 748 r \$0-mpd24_pad_atlsb;
#X obj 160 207 int;
#X obj 160 182 int;
#X connect 5 0 39 0;
#X connect 7 0 25 0;
#X connect 7 1 24 0;
#X connect 8 0 38 0;
#X connect 9 0 7 0;
#X connect 10 0 2 0;
#X connect 11 0 1 0;
#X connect 12 0 13 0;
#X connect 13 0 0 0;
#X connect 15 0 20 0;
#X connect 16 0 23 0;
#X connect 17 0 22 0;
#X connect 18 0 16 0;
#X connect 19 0 17 0;
#X connect 20 0 18 0;
#X connect 20 1 19 0;
#X connect 29 0 30 0;
#X connect 30 0 27 0;
#X connect 30 1 28 0;
#X connect 30 2 31 0;
#X connect 33 0 35 0;
#X connect 33 1 34 0;
#X connect 33 2 36 0;
#X connect 33 3 32 0;
#X connect 37 0 33 0;
#X connect 38 0 4 0;
#X connect 39 0 3 0;
#X coords 0 -1 1 1 80 128 2 192 100;
#X restore 24 129 pd pad_params_ux;
#X obj 23 97 cnv 15 196 24 empty empty MPD24|PRESET-EDITOR 4 12 0 16
-162280 -196685 0;
#X obj 543 249 r \$0-mpd24_pad_banksel;
#X floatatom 145 271 5 0 0 0 - - -;
#X obj 718 267 int;
#X connect 0 0 7 0;
#X connect 5 0 0 1;
#X connect 6 0 0 0;
#X connect 6 1 5 0;
#X connect 6 2 5 1;
#X connect 7 0 69 0;
#X connect 8 0 10 0;
#X connect 9 0 10 0;
#X connect 11 0 6 0;
#X connect 12 0 10 0;
#X connect 69 0 78 0;
#X connect 72 0 10 0;
#X connect 73 0 75 0;
#X connect 74 0 78 0;
#X connect 77 0 79 0;
#X connect 79 4 66 0;
#X connect 79 5 68 0;
#X connect 79 6 65 0;
#X connect 79 7 71 0;
#X connect 79 8 73 0;
#X connect 79 9 80 0;
#X connect 90 0 80 0;
#X connect 99 0 100 0;
#X connect 100 0 106 0;
#X connect 100 1 97 0;
#X connect 100 2 103 0;
#X connect 100 3 104 0;
#X connect 100 4 105 0;
#X connect 100 5 101 0;
#X connect 102 0 99 0;
#X connect 109 0 111 0;
#X connect 111 0 110 0;
#X coords 0 -1 1 1 480 240 2 20 20;
#X restore 365 112 pd sequence_list;
#X connect 0 0 3 0;
#X connect 1 0 0 0;
#X connect 2 0 5 0;
#X connect 3 0 2 0;
#X connect 4 0 5 1;
#X connect 5 0 6 0;
#X connect 6 0 8 0;
#X connect 7 0 8 0;
#X connect 9 1 14 0;
#X connect 10 0 12 0;
#X connect 11 0 0 0;
#X connect 12 0 8 0;
#X connect 13 0 11 0;
#X connect 14 0 0 0;
#X connect 14 1 4 0;
#X connect 15 0 18 0;
#X connect 17 0 16 0;
#X connect 18 0 16 0;
#X connect 19 1 18 0;
#X connect 20 0 19 0;
