#N canvas 277 84 450 300 10;
#X obj 118 270 dac~;
#X obj 52 28 noise~;
#X obj 117 225 *~;
#X obj 158 130 osc~;
#X floatatom 160 27 5 0 0 0 - - -, f 5;
#X obj 189 186 *~ 1;
#X obj 234 15 noise~;
#X obj 317 45 metro 500;
#X obj 179 91 snapshot~;
#X obj 310 13 bng 15 250 50 0 empty empty empty 17 7 0 10 -262144 -1
-1;
#X floatatom 365 17 5 0 0 0 - - -, f 5;
#X obj 46 221 osc~;
#X obj 46 243 *~ 1;
#X floatatom 286 132 5 0 0 0 - - -, f 5;
#X obj 55 199 +~;
#X obj 208 132 phasor~;
#X obj 179 63 *~;
#X obj 354 108 vsl 15 128 0 600 0 0 empty empty empty 0 -9 0 10 -262144
-1 -1 0 1;
#X obj 111 175 + 20;
#X obj 22 151 * 100;
#X connect 1 0 2 0;
#X connect 3 0 5 0;
#X connect 5 0 2 1;
#X connect 5 0 18 0;
#X connect 6 0 16 0;
#X connect 7 0 8 0;
#X connect 8 0 3 0;
#X connect 8 0 2 1;
#X connect 8 0 13 0;
#X connect 8 0 15 0;
#X connect 8 0 19 0;
#X connect 9 0 7 0;
#X connect 10 0 7 1;
#X connect 11 0 12 0;
#X connect 14 0 11 0;
#X connect 15 0 5 0;
#X connect 16 0 8 0;
#X connect 17 0 16 1;
#X connect 18 0 14 1;
#X connect 19 0 14 0;
