#N canvas 133 49 659 449 10;
#N canvas 108 24 597 300 string 1;
#X obj 240 242 outlet~;
#X obj 239 138 osc~ \$1;
#X obj 239 80 inlet;
#X obj 103 105 nbx 6 14 0 1e+037 0 0 empty empty empty 0 -8 0 10 -262144
-1 -1 220 256;
#X obj 240 198 *~ 0.1;
#X obj 320 138 line;
#X obj 384 56 delay 10;
#X msg 384 79 0 1000;
#X obj 169 105 bng 15 250 50 0 empty empty empty 17 7 0 10 -262144
-1 -1;
#X msg 320 78 0.1;
#X obj 193 105 bng 15 250 50 0 empty empty empty 17 7 0 10 -262144
-1 -1;
#X connect 1 0 4 0;
#X connect 2 0 3 0;
#X connect 3 0 1 0;
#X connect 4 0 0 0;
#X connect 5 0 4 1;
#X connect 6 0 7 0;
#X connect 7 0 5 0;
#X connect 8 0 9 0;
#X connect 9 0 5 0;
#X connect 10 0 9 0;
#X connect 10 0 6 0;
#X coords 0 -1 1 1 112 24 2 100 100;
#X restore 273 231 pd string;
#X obj 392 274 dac~;
#X obj 392 252 *~ 1;
#X obj 447 256 vsl 11 32 0 1 0 0 empty empty empty 0 -9 0 10 -262144
-1 -1 500 1;
#N canvas 506 196 450 300 tuninglist 0;
#X obj 229 141 table thalist 1024;
#X msg 229 54 \; thalist write ../thalist.txt;
#X msg 229 101 \; thalist read ../thalist.txt;
#X obj 106 38 tabread thalist;
#X obj 50 9 tabwrite thalist;
#X obj 126 106 bng 15 250 50 0 empty empty empty 17 7 0 10 -13381 -262144
-1;
#X obj 106 106 bng 15 250 50 0 empty empty empty 17 7 0 10 -258113
-1 -1;
#X obj 50 -19 inlet;
#X obj 106 -19 inlet;
#X floatatom 144 131 5 0 1024 3 size - -, f 5;
#X obj 106 69 outlet;
#X floatatom 102 131 5 0 0 3 val - -, f 5;
#X connect 3 0 10 0;
#X connect 3 0 11 0;
#X connect 5 0 2 0;
#X connect 6 0 1 0;
#X connect 7 0 4 0;
#X connect 8 0 4 1;
#X connect 8 0 3 0;
#X coords 0 -1 1 1 85 60 2 100 100;
#X restore 13 159 pd tuninglist;
#X floatatom 91 118 5 0 1024 0 - - -, f 5;
#X floatatom 13 118 5 16 2000 0 - - -, f 5;
#N canvas 503 235 450 300 mamod 0;
#X obj 254 145 float;
#X floatatom 102 143 5 0 0 0 - - -, f 5;
#X obj 126 29 inlet;
#X obj 143 142 bng 15 250 50 0 empty empty -> 17 7 0 10 -262144 -1
-1;
#X obj 254 203 outlet;
#X floatatom 144 104 5 0 3 0 - - -, f 5;
#X obj 126 64 * 1;
#X obj 126 104 bng 15 250 50 0 empty empty empty 17 7 0 10 -262144
-1 -1;
#X connect 0 0 4 0;
#X connect 2 0 6 0;
#X connect 3 0 0 0;
#X connect 5 0 6 1;
#X connect 6 0 1 0;
#X connect 6 0 0 1;
#X connect 7 0 6 0;
#X coords 0 -1 1 1 85 60 2 100 100;
#X restore 13 28 pd mamod;
#X floatatom 13 7 5 16 2000 0 - - -, f 5;
#N canvas 503 235 450 300 mamod 0;
#X obj 254 145 float;
#X floatatom 102 143 5 0 0 0 - - -, f 5;
#X obj 126 29 inlet;
#X obj 143 142 bng 15 250 50 0 empty empty -> 17 7 0 10 -262144 -1
-1;
#X obj 254 203 outlet;
#X floatatom 144 104 5 0 3 0 - - -, f 5;
#X obj 126 64 * 1;
#X obj 126 104 bng 15 250 50 0 empty empty empty 17 7 0 10 -262144
-1 -1;
#X connect 0 0 4 0;
#X connect 2 0 6 0;
#X connect 3 0 0 0;
#X connect 5 0 6 1;
#X connect 6 0 1 0;
#X connect 6 0 0 1;
#X connect 7 0 6 0;
#X coords 0 -1 1 1 85 60 2 100 100;
#X restore 103 28 pd mamod;
#X obj 91 96 bng 15 250 50 0 empty empty empty 17 7 0 10 -262144 -1
-1;
#X obj 127 232 float;
#X obj 13 232 s tt;
#X obj 86 232 r tt;
#X obj 174 232 throw~ gb;
#X obj 392 231 catch~ gb;
#N canvas 260 133 597 300 string 0;
#X obj 240 242 outlet~;
#X obj 239 138 osc~ \$1;
#X obj 239 80 inlet;
#X obj 103 105 nbx 6 14 0 1e+037 0 0 empty empty empty 0 -8 0 10 -262144
-1 -1 330 256;
#X obj 240 198 *~ 0.1;
#X obj 320 138 line;
#X obj 384 56 delay 10;
#X msg 384 79 0 1000;
#X obj 169 105 bng 15 250 50 0 empty empty empty 17 7 0 10 -262144
-1 -1;
#X msg 320 78 0.1;
#X obj 193 105 bng 15 250 50 0 empty empty empty 17 7 0 10 -262144
-1 -1;
#X connect 1 0 4 0;
#X connect 2 0 3 0;
#X connect 3 0 1 0;
#X connect 4 0 0 0;
#X connect 5 0 4 1;
#X connect 6 0 7 0;
#X connect 7 0 5 0;
#X connect 8 0 9 0;
#X connect 9 0 5 0;
#X connect 10 0 9 0;
#X connect 10 0 6 0;
#X coords 0 -1 1 1 112 24 2 100 100;
#X restore 273 261 pd string;
#X obj 127 262 float;
#X obj 86 262 r tt;
#X obj 174 262 throw~ gb;
#N canvas 260 133 597 300 string 0;
#X obj 240 242 outlet~;
#X obj 239 138 osc~ \$1;
#X obj 239 80 inlet;
#X obj 103 105 nbx 6 14 0 1e+037 0 0 empty empty empty 0 -8 0 10 -262144
-1 -1 495 256;
#X obj 240 198 *~ 0.1;
#X obj 320 138 line;
#X obj 384 56 delay 10;
#X msg 384 79 0 1000;
#X obj 169 105 bng 15 250 50 0 empty empty empty 17 7 0 10 -262144
-1 -1;
#X msg 320 78 0.1;
#X obj 193 105 bng 15 250 50 0 empty empty empty 17 7 0 10 -262144
-1 -1;
#X connect 1 0 4 0;
#X connect 2 0 3 0;
#X connect 3 0 1 0;
#X connect 4 0 0 0;
#X connect 5 0 4 1;
#X connect 6 0 7 0;
#X connect 7 0 5 0;
#X connect 8 0 9 0;
#X connect 9 0 5 0;
#X connect 10 0 9 0;
#X connect 10 0 6 0;
#X coords 0 -1 1 1 112 24 2 100 100;
#X restore 273 291 pd string;
#X obj 127 292 float;
#X obj 86 292 r tt;
#X obj 174 292 throw~ gb;
#N canvas 260 133 597 300 string 0;
#X obj 240 242 outlet~;
#X obj 239 138 osc~ \$1;
#X obj 239 80 inlet;
#X obj 103 105 nbx 6 14 0 1e+037 0 0 empty empty empty 0 -8 0 10 -262144
-1 -1 742.5 256;
#X obj 240 198 *~ 0.1;
#X obj 320 138 line;
#X obj 384 56 delay 10;
#X msg 384 79 0 1000;
#X obj 169 105 bng 15 250 50 0 empty empty empty 17 7 0 10 -262144
-1 -1;
#X msg 320 78 0.1;
#X obj 193 105 bng 15 250 50 0 empty empty empty 17 7 0 10 -262144
-1 -1;
#X connect 1 0 4 0;
#X connect 2 0 3 0;
#X connect 3 0 1 0;
#X connect 4 0 0 0;
#X connect 5 0 4 1;
#X connect 6 0 7 0;
#X connect 7 0 5 0;
#X connect 8 0 9 0;
#X connect 9 0 5 0;
#X connect 10 0 9 0;
#X connect 10 0 6 0;
#X coords 0 -1 1 1 112 24 2 100 100;
#X restore 273 322 pd string;
#X obj 127 323 float;
#X obj 86 323 r tt;
#X obj 174 323 throw~ gb;
#N canvas 260 133 597 300 string 0;
#X obj 240 242 outlet~;
#X obj 239 138 osc~ \$1;
#X obj 239 80 inlet;
#X obj 103 105 nbx 6 14 0 1e+037 0 0 empty empty empty 0 -8 0 10 -262144
-1 -1 1113.75 256;
#X obj 240 198 *~ 0.1;
#X obj 320 138 line;
#X obj 384 56 delay 10;
#X msg 384 79 0 1000;
#X obj 169 105 bng 15 250 50 0 empty empty empty 17 7 0 10 -262144
-1 -1;
#X msg 320 78 0.1;
#X obj 193 105 bng 15 250 50 0 empty empty empty 17 7 0 10 -262144
-1 -1;
#X connect 1 0 4 0;
#X connect 2 0 3 0;
#X connect 3 0 1 0;
#X connect 4 0 0 0;
#X connect 5 0 4 1;
#X connect 6 0 7 0;
#X connect 7 0 5 0;
#X connect 8 0 9 0;
#X connect 9 0 5 0;
#X connect 10 0 9 0;
#X connect 10 0 6 0;
#X coords 0 -1 1 1 112 24 2 100 100;
#X restore 273 353 pd string;
#X obj 127 354 float;
#X obj 86 354 r tt;
#X obj 174 354 throw~ gb;
#N canvas 260 133 597 300 string 0;
#X obj 240 242 outlet~;
#X obj 239 138 osc~ \$1;
#X obj 239 80 inlet;
#X obj 103 105 nbx 6 14 0 1e+037 0 0 empty empty empty 0 -8 0 10 -262144
-1 -1 1670.63 256;
#X obj 240 198 *~ 0.1;
#X obj 320 138 line;
#X obj 384 56 delay 10;
#X msg 384 79 0 1000;
#X obj 169 105 bng 15 250 50 0 empty empty empty 17 7 0 10 -262144
-1 -1;
#X msg 320 78 0.1;
#X obj 193 105 bng 15 250 50 0 empty empty empty 17 7 0 10 -262144
-1 -1;
#X connect 1 0 4 0;
#X connect 2 0 3 0;
#X connect 3 0 1 0;
#X connect 4 0 0 0;
#X connect 5 0 4 1;
#X connect 6 0 7 0;
#X connect 7 0 5 0;
#X connect 8 0 9 0;
#X connect 9 0 5 0;
#X connect 10 0 9 0;
#X connect 10 0 6 0;
#X coords 0 -1 1 1 112 24 2 100 100;
#X restore 273 384 pd string;
#X obj 127 385 float;
#X obj 86 385 r tt;
#X obj 174 385 throw~ gb;
#N canvas 260 133 597 300 string 0;
#X obj 240 242 outlet~;
#X obj 239 138 osc~ \$1;
#X obj 239 80 inlet;
#X obj 103 105 nbx 6 14 0 1e+037 0 0 empty empty empty 0 -8 0 10 -262144
-1 -1 2505.94 256;
#X obj 240 198 *~ 0.1;
#X obj 320 138 line;
#X obj 384 56 delay 10;
#X msg 384 79 0 1000;
#X obj 169 105 bng 15 250 50 0 empty empty empty 17 7 0 10 -262144
-1 -1;
#X msg 320 78 0.1;
#X obj 193 105 bng 15 250 50 0 empty empty empty 17 7 0 10 -262144
-1 -1;
#X connect 1 0 4 0;
#X connect 2 0 3 0;
#X connect 3 0 1 0;
#X connect 4 0 0 0;
#X connect 5 0 4 1;
#X connect 6 0 7 0;
#X connect 7 0 5 0;
#X connect 8 0 9 0;
#X connect 9 0 5 0;
#X connect 10 0 9 0;
#X connect 10 0 6 0;
#X coords 0 -1 1 1 112 24 2 100 100;
#X restore 273 414 pd string;
#X obj 127 415 float;
#X obj 86 415 r tt;
#X obj 174 415 throw~ gb;
#X obj 127 159 select 0 1 2 3 4 5 6;
#X connect 0 0 14 0;
#X connect 2 0 1 0;
#X connect 2 0 1 1;
#X connect 3 0 2 1;
#X connect 4 0 12 0;
#X connect 5 0 4 1;
#X connect 5 0 40 0;
#X connect 6 0 4 0;
#X connect 7 0 9 0;
#X connect 7 0 6 0;
#X connect 8 0 7 0;
#X connect 9 0 7 0;
#X connect 10 0 5 0;
#X connect 11 0 0 0;
#X connect 13 0 11 1;
#X connect 15 0 2 0;
#X connect 16 0 19 0;
#X connect 17 0 16 0;
#X connect 18 0 17 1;
#X connect 20 0 23 0;
#X connect 21 0 20 0;
#X connect 22 0 21 1;
#X connect 24 0 27 0;
#X connect 25 0 24 0;
#X connect 26 0 25 1;
#X connect 28 0 31 0;
#X connect 29 0 28 0;
#X connect 30 0 29 1;
#X connect 32 0 35 0;
#X connect 33 0 32 0;
#X connect 34 0 33 1;
#X connect 36 0 39 0;
#X connect 37 0 36 0;
#X connect 38 0 37 1;
#X connect 40 0 11 0;
#X connect 40 1 17 0;
#X connect 40 2 21 0;
#X connect 40 3 25 0;
#X connect 40 4 29 0;
#X connect 40 5 33 0;
#X connect 40 6 37 0;
