#N canvas -9 -9 1845 1028 16;
#X floatatom 354 222 5 -80 18 1 dB-Level - -;
#X floatatom 354 330 6 0 0 1 V - -;
#X floatatom 354 434 5 0 0 1 dB-Level - -;
#N canvas -9 -9 1845 1028 dampfaktor 0;
#X obj 60 17 inlet;
#X obj 122 242 outlet;
#X obj 122 209 / 1;
#X obj 14 68 t b l;
#X obj 61 112 unpack f f;
#X obj 14 162 float;
#X connect 0 0 3 0;
#X connect 2 0 1 0;
#X connect 3 0 5 0;
#X connect 3 1 4 0;
#X connect 4 0 5 1;
#X connect 4 1 2 1;
#X connect 5 0 2 0;
#X restore 499 301 pd dampfaktor;
#X msg 499 221 38 33;
#X floatatom 499 433 9 0 0 1 x - -;
#X text 598 3 Loudness = Volume = Sensation;
#X text 528 27 Sound Pressure = Voltage = Observation;
#X text 538 49 Sound Intensity = Power = Measurement;
#X floatatom 170 295 4 1 1e+006 1 x - -;
#X text 418 115 "Our own dog does not make noise \, it only barks."
;
#X text 498 71 Sound level change is a ratio in plain dB;
#X text 398 93 The units for *sound perception* are sone and phone
;
#N canvas -9 -9 1845 1028 delta2dB 0;
#X obj 362 38 inlet;
#X obj 367 293 log 2;
#X obj 493 293 log 10;
#X obj 493 322 * 10;
#X obj 425 293 log 10;
#X obj 425 322 * 20;
#X obj 367 323 * 10;
#X obj 100 100 cnv 15 88 16 empty \$0-disp_LCL 114.393-dB(L) 2 8 0
10 -86853 -260097 0;
#X obj 100 132 cnv 15 88 16 empty \$0-disp_LCP 68.8746-dB(P) 2 8 0
10 -86853 -260097 0;
#X obj 100 116 cnv 15 88 16 empty \$0-disp_LCI 34.4373-dB(I) 2 8 0
10 -86853 -260097 0;
#N canvas -102 67 1794 878 display_control 0;
#X obj 282 236 s \$0-disp_LCL;
#X obj 426 241 s \$0-disp_LCP;
#X obj 578 236 s \$0-disp_LCI;
#X msg 133 183 label \$1-dB(L);
#X msg 329 188 label \$1-dB(P);
#X msg 525 180 label \$1-dB(I);
#X obj 105 27 r \$0-display_control;
#X obj 103 76 unpack f f f;
#X connect 3 0 0 0;
#X connect 4 0 1 0;
#X connect 5 0 2 0;
#X connect 6 0 7 0;
#X connect 7 0 3 0;
#X connect 7 1 4 0;
#X connect 7 2 5 0;
#X restore 620 66 pd display_control;
#X obj 367 383 pack f f f;
#X obj 367 412 s \$0-display_control;
#X connect 0 0 1 0;
#X connect 0 0 4 0;
#X connect 0 0 2 0;
#X connect 1 0 6 0;
#X connect 2 0 3 0;
#X connect 3 0 11 2;
#X connect 4 0 5 0;
#X connect 5 0 11 1;
#X connect 6 0 11 0;
#X connect 11 0 12 0;
#X coords 0 -1 1 1 112 60 2 100 100;
#X restore 170 334 pd delta2dB;
#X f 41;
#N canvas 393 140 968 684 component_interface 0;
#N canvas 201 173 916 781 dB_P2SPL 0;
#X obj 46 12 inlet;
#X obj 120 298 outlet;
#X obj 140 13 inlet;
#X obj 47 158 * 10;
#X obj 113 197 +;
#X obj 46 39 / 1000;
#X obj 46 125 log 10;
#X obj 46 97 / 1.00111;
#X obj 124 251 int;
#X connect 0 0 5 0;
#X connect 2 0 4 1;
#X connect 3 0 4 0;
#X connect 4 0 8 0;
#X connect 5 0 7 0;
#X connect 6 0 3 0;
#X connect 7 0 6 0;
#X connect 8 0 1 0;
#X restore 209 161 pd dB_P2SPL;
#X floatatom 114 106 5 0 0 1 - #0-no_recv #0-par_sens;
#X obj 209 97 inlet;
#X msg 331 160 label \$1dB/mW;
#X obj 316 97 r \$0-par_sens;
#X obj 331 193 s \$0-disp_sens;
#X obj 102 131 cnv 15 80 24 empty \$0-disp_spl 93dBSPL 4 12 0 14 -86277
-261234 0;
#X obj 209 253 s \$0-disp_spl;
#X msg 209 222 label \$1dBSPL;
#X obj 102 105 cnv 15 80 24 empty \$0-disp_sens 107dB/mW 4 12 0 14
-83269 -257985 0;
#X connect 0 0 8 0;
#X connect 2 0 0 0;
#X connect 3 0 5 0;
#X connect 4 0 0 1;
#X connect 4 0 3 0;
#X connect 8 0 7 0;
#X coords 0 -1 1 1 85 60 2 100 100;
#X restore 57 334 pd component_interface;
#N canvas 0 50 766 729 component_headphones 1;
#X obj 15 149 * 48;
#X obj 15 108 / 1e+007;
#X obj 18 15 hsl 72 32 0.001 1e+007 1 0 \$0-outgain \$0-no_receive
OUT-GAIN 2 16 0 14 -162280 -128992 -1 14300 1;
#X obj 15 188 outlet;
#X obj 145 104 log 10;
#X obj 145 134 + 17;
#X obj 17 47 cnv 15 72 16 empty \$0-disp_oclock 5* 24 8 0 10 -13381
-4034 0;
#X obj 145 288 s \$0-disp_oclock;
#X msg 144 247 label \$1*;
#X obj 145 164 * 10;
#X obj 145 218 / 10;
#X obj 145 191 mod 120;
#X obj 18 76 r \$0-outgain;
#X connect 0 0 3 0;
#X connect 1 0 0 0;
#X connect 1 0 4 0;
#X connect 4 0 5 0;
#X connect 5 0 9 0;
#X connect 8 0 7 0;
#X connect 9 0 11 0;
#X connect 10 0 8 0;
#X connect 11 0 10 0;
#X connect 12 0 1 0;
#X coords 0 -1 1 1 85 60 2 11 11;
#X restore 57 223 pd component_headphones;
#X msg 354 263 \$1 V;
#X msg 354 367 \$1 V;
#N canvas 452 152 947 598 dB_L2U 0;
#X obj 85 3 inlet;
#X obj 191 267 outlet;
#X obj 218 187 float 0.7746;
#X obj 202 109 / 20;
#X obj 191 237 *;
#X obj 135 142 pow;
#X obj 135 109 int 10;
#X obj 299 108 symbol;
#X obj 202 79 unpack f s;
#X obj 299 141 select u V;
#X obj 347 187 float 1;
#X obj 86 185 float;
#X obj 85 39 t b b l, f 12;
#X connect 0 0 12 0;
#X connect 2 0 4 1;
#X connect 3 0 5 1;
#X connect 4 0 1 0;
#X connect 5 0 11 1;
#X connect 6 0 5 0;
#X connect 7 0 9 0;
#X connect 8 0 3 0;
#X connect 8 1 7 0;
#X connect 9 0 2 0;
#X connect 9 1 10 0;
#X connect 10 0 4 1;
#X connect 11 0 4 0;
#X connect 12 0 11 0;
#X connect 12 1 6 0;
#X connect 12 2 8 0;
#X restore 354 301 pd dB_L2U;
#N canvas 0 50 1338 822 dB_U2L 0;
#X obj 240 35 inlet;
#X obj 283 397 outlet;
#X obj 283 359 *;
#X obj 240 198 int 20;
#X obj 310 322 log 10;
#X obj 240 70 t b b l, f 12;
#X obj 357 99 unpack f s;
#X obj 454 163 select u V;
#X obj 454 133 symbol;
#X obj 454 197 float 0.7746;
#X obj 310 293 /;
#X obj 586 197 float 1;
#X obj 310 198 float;
#X connect 0 0 5 0;
#X connect 2 0 1 0;
#X connect 3 0 2 0;
#X connect 4 0 2 1;
#X connect 5 0 3 0;
#X connect 5 1 12 0;
#X connect 5 2 6 0;
#X connect 6 0 12 1;
#X connect 6 1 8 0;
#X connect 7 0 9 0;
#X connect 7 1 11 0;
#X connect 8 0 7 0;
#X connect 9 0 10 1;
#X connect 10 0 4 0;
#X connect 11 0 10 1;
#X connect 12 0 10 0;
#X restore 354 405 pd dB_U2L;
#N canvas -9 -9 1845 1028 dB_P2L 0;
#X obj 240 35 inlet;
#X obj 283 397 outlet;
#X obj 283 359 *;
#X obj 310 277 log 10;
#X obj 310 198 float;
#X obj 240 198 int 10;
#X obj 310 243 / 0.001;
#X obj 240 70 t b b f, f 12;
#X connect 0 0 7 0;
#X connect 2 0 1 0;
#X connect 3 0 2 1;
#X connect 4 0 6 0;
#X connect 5 0 2 0;
#X connect 6 0 3 0;
#X connect 7 0 5 0;
#X connect 7 1 4 0;
#X connect 7 2 4 1;
#X restore 644 301 pd dB_P2L;
#X floatatom 644 434 5 0 0 1 dBm - -;
#X floatatom 644 222 5 0 1 1 W - -;
#X floatatom 759 434 5 0 0 1 V - -;
#N canvas 0 50 1157 743 dB_P2U 0;
#X obj 76 28 inlet;
#X obj 142 96 unpack f f;
#X obj 76 278 outlet;
#X obj 76 159 float;
#X obj 136 159 float;
#X obj 76 212 *;
#X obj 76 244 sqrt;
#X obj 76 65 t b b l;
#X connect 0 0 7 0;
#X connect 1 0 3 1;
#X connect 1 1 4 1;
#X connect 3 0 5 0;
#X connect 4 0 5 1;
#X connect 5 0 6 0;
#X connect 6 0 2 0;
#X connect 7 0 3 0;
#X connect 7 1 4 0;
#X connect 7 2 1 0;
#X restore 759 301 pd dB_P2U;
#X text 598 136 "Noise is the sound of others.";
#X floatatom 57 296 3 0.0001 48 1 mW - -;
#X msg 759 272 \$1 33;
#X text 328 193 dB <-> Voltage;
#X text 606 190 Power > dBm;
#X text 708 239 Power > Voltage;
#X connect 0 0 16 0;
#X connect 1 0 17 0;
#X connect 3 0 5 0;
#X connect 4 0 3 0;
#X connect 9 0 13 0;
#X connect 15 0 26 0;
#X connect 16 0 18 0;
#X connect 17 0 19 0;
#X connect 18 0 1 0;
#X connect 19 0 2 0;
#X connect 20 0 21 0;
#X connect 22 0 20 0;
#X connect 22 0 27 0;
#X connect 24 0 23 0;
#X connect 26 0 14 0;
#X connect 27 0 24 0;
#X coords 0 514 1 513 92 180 0;
