#N canvas 782 106 450 300 10;
#X obj 185 80 pix_video;
#X obj 184 260 pix_write;
#X obj 39 264 gemwin;
#X obj 127 11 tgl 15 0 empty empty empty 17 7 0 10 -262144 -1 -1 0
1;
#X obj 289 37 loadbang;
#X obj 184 46 gemhead;
#X msg 15 165 create \, 1;
#X msg 54 209 0 \, destroy;
#X msg 297 133 auto 0;
#X msg 40 186 create;
#X msg 80 230 destroy;
#X obj 187 107 pix_draw;
#X obj 70 105 metro 10000;
#X msg 282 94 file x:/temp/hey/hey 80;
#X msg 209 10 dialog;
#X connect 0 0 11 0;
#X connect 3 0 5 0;
#X connect 3 0 12 0;
#X connect 4 0 13 0;
#X connect 4 0 8 0;
#X connect 5 0 0 0;
#X connect 6 0 2 0;
#X connect 7 0 2 0;
#X connect 8 0 1 0;
#X connect 9 0 2 0;
#X connect 10 0 2 0;
#X connect 11 0 1 0;
#X connect 12 0 1 0;
#X connect 13 0 1 0;
#X connect 14 0 0 0;
