#N canvas 17 85 1263 715 12;
#X obj 253 326 osc~;
#X floatatom 312 163 5 30 5000 1 Hz - -;
#X obj 275 378 *~;
#X obj 321 468 dac~;
#X msg 301 327 0.1;
#X obj 372 325 osc~;
#X floatatom 372 245 5 0 0 1 Hz - -;
#X msg 417 325 0.1;
#X obj 392 376 *~;
#X msg 379 468 0;
#X obj 253 210 *;
#X floatatom 299 72 5 0 0 0 - - -;
#X floatatom 347 72 5 0 0 0 - - -;
#X obj 372 211 *;
#X connect 0 0 2 0;
#X connect 1 0 10 0;
#X connect 1 0 13 0;
#X connect 2 0 3 0;
#X connect 4 0 2 1;
#X connect 5 0 8 0;
#X connect 6 0 5 0;
#X connect 7 0 8 1;
#X connect 8 0 3 1;
#X connect 9 0 2 1;
#X connect 9 0 8 1;
#X connect 10 0 0 0;
#X connect 11 0 10 1;
#X connect 12 0 13 1;
#X connect 13 0 6 0;
