#N canvas 562 243 450 300 10;
#X obj 69 170 pgmout;
#X obj 297 169 ctlout;
#X obj 316 60 hradio 15 1 0 2 empty empty empty 0 -8 0 10 -262144 -1
-1 1;
#X obj 316 80 * 32;
#X obj 164 58 hradio 15 1 0 8 empty empty empty 0 -8 0 10 -262144 -1
-1 0;
#X obj 36 58 hradio 15 1 0 8 empty empty empty 0 -8 0 10 -262144 -1
-1 3;
#X floatatom 359 111 5 0 0 0 - - -, f 5;
#X connect 2 0 3 0;
#X connect 3 0 1 1;
#X connect 3 0 6 0;
#X connect 4 0 1 0;
#X connect 5 0 0 0;
