#N canvas -8 -8 1280 758 10;
#X obj 704 38 notein;
#X obj 704 68 stripnote;
#X obj 237 403 rlib_snaresynth;
#X obj 320 126 rlib_icontourgen;
#X obj 252 239 vsl 15 32 180 330 0 0 empty empty empty 0 -9 0 10 -262144
-1 -1 500 1;
#X obj 704 138 / 127;
#X obj 324 238 vsl 15 32 0 1 0 0 empty empty empty 0 -9 0 10 -262144
-1 -1 400 1;
#X obj 345 237 vsl 15 32 0 1 0 0 empty empty empty 0 -9 0 10 -262144
-1 -1 1400 1;
#X floatatom 660 163 5 0 0 0 - - -, f 5;
#X obj 239 613 dac~;
#X obj 585 179 ctlin;
#X obj 634 237 sel 1 2 3 4 5 6 7 10 11 12 13 14 15 16;
#X obj 238 546 *~;
#X obj 585 237 / 127;
#X obj 603 351 f;
#X obj 647 351 f;
#X obj 229 125 rlib_icontourgen;
#X obj 410 126 rlib_icontourgen;
#X text 769 199 created by RAstko;
#X obj 266 294 r eg1;
#X obj 280 315 r eg2;
#X obj 295 334 r eg3;
#X obj 237 338 r vt;
#X obj 764 138 / 600;
#X obj 764 161 s lpx;
#X obj 704 160 s vt;
#X text 587 16 MIDI SHIT>;
#X text 209 16 SNARE SYNTH>;
#X obj 616 566 s~;
#X obj 229 205 s eg1;
#X obj 320 206 s eg2;
#X obj 410 206 s eg3;
#X obj 309 354 r lpx;
#X obj 493 260 + 200;
#X msg 493 216 bang;
#X obj 493 238 random 10;
#X connect 0 0 1 0;
#X connect 0 1 1 1;
#X connect 0 1 5 0;
#X connect 0 1 8 0;
#X connect 1 1 23 0;
#X connect 1 1 34 0;
#X connect 2 0 12 0;
#X connect 3 0 30 0;
#X connect 4 0 2 1;
#X connect 5 0 25 0;
#X connect 6 0 2 6;
#X connect 7 0 2 7;
#X connect 10 0 13 0;
#X connect 10 1 11 0;
#X connect 11 0 14 0;
#X connect 11 1 15 0;
#X connect 12 0 9 0;
#X connect 12 0 9 1;
#X connect 13 0 14 1;
#X connect 13 0 15 1;
#X connect 14 0 12 1;
#X connect 16 0 29 0;
#X connect 17 0 31 0;
#X connect 19 0 2 2;
#X connect 20 0 2 3;
#X connect 21 0 2 4;
#X connect 22 0 2 0;
#X connect 23 0 24 0;
#X connect 32 0 2 5;
#X connect 33 0 2 1;
#X connect 34 0 35 0;
#X connect 35 0 33 0;
