#N canvas -8 -8 1280 758 10;
#N canvas 0 50 450 300 OVHDMNTC 0;
#X restore 606 167 pd OVHDMNTC;
#N canvas 458 101 744 518 OVHDSECT 1;
#N canvas 326 212 754 463 PushButton 1;
#X obj 101 101 tgl 48 0 empty \$0-BDISP FAULT 17 7 0 10 -99865 -262144
-99865 0 1;
#X obj 100 309 pack 0 0 0;
#X msg 100 193 21, f 4;
#X obj 222 38 select 1;
#X obj 223 6 inlet;
#X msg 100 341 \; \$0-BDISP color \$1 \$2 \$3;
#X msg 158 195 12;
#N canvas 606 174 450 300 DBLPOT 1;
#X obj 129 105 vsl 16 48 0 127 0 0 empty empty empty 0 -9 0 10 -262144
-1 -1 0 1;
#X obj 146 105 vsl 8 48 0 127 0 0 empty empty empty 0 -9 0 10 -262144
-1 -1 0 1;
#X coords 0 -1 1 1 85 60 2 100 100;
#X restore 389 136 pd DBLPOT;
#X connect 0 0 2 0;
#X connect 0 0 6 0;
#X connect 1 0 5 0;
#X connect 2 0 1 0;
#X connect 2 0 1 1;
#X connect 4 0 3 0;
#X connect 6 0 1 2;
#X coords 0 -1 1 1 48 48 2 100 100;
#X restore 296 93 pd PushButton;
#X obj 581 87 vradio 15 1 0 2 AS-LGHTSTRM empty STORM 0 -8 0 10 -262144
-1 -1 0;
#X obj 630 84 vsl 15 32 0 127 0 0 AS-LGHTCBOP empty CKT-BKR 0 -9 0
10 -262144 -1 -1 0 1;
#X coords 0 0 1 1 85 60 0;
#X restore 606 224 pd OVHDSECT;
#N canvas 0 50 450 300 GLSHIELD 0;
#X restore 606 294 pd GLSHIELD;
#N canvas 0 50 450 300 OVHDCBRK 0;
#X restore 606 196 pd OVHDCBRK;
#N canvas 0 50 450 300 FORWARDL 0;
#X restore 482 315 pd FORWARDL;
#N canvas 0 50 450 300 FORWARDR 0;
#X restore 723 315 pd FORWARDR;
#N canvas 0 50 450 300 FORWARDC 0;
#X restore 606 316 pd FORWARDC;
#N canvas 0 50 450 300 CTRLSTND 0;
#X restore 606 361 pd CTRLSTND;
#N canvas 0 50 450 300 AISLEFWD 0;
#X restore 606 341 pd AISLEFWD;
#N canvas 619 103 450 436 AISLEAFT 0;
#X obj 161 375 hradio 15 1 0 3 AS-SIGNSMOK empty NO_SMOKING 0 -8 0
10 -262144 -1 -1 2;
#X obj 225 375 hradio 15 1 0 3 AS-PSGNBELT empty SEATBELTS 0 -8 0 10
-262144 -1 -1 2;
#X restore 606 382 pd AISLEAFT;
#N canvas 0 50 450 300 SIDESCTL 0;
#X restore 444 362 pd SIDESCTL;
#N canvas 0 50 450 300 SIDESCTR 0;
#X restore 784 364 pd SIDESCTR;
#N canvas 108 105 450 300 ACFTSYST 1;
#X floatatom 6 4 5 0 2 1 AS-SIGNSMOK AS-SIGNSMOK -, f 5;
#X floatatom 6 26 5 0 2 1 AS-PSGNBELT AS-PSGNBELT -, f 5;
#X floatatom 6 56 5 0 1 1 AS-LGHTSTRM AS-LGHTSTRM -, f 5;
#X floatatom 6 76 5 0 127 1 AS-LGHTCBOP AS-LGHTCBOP -, f 5;
#X restore 685 645 pd ACFTSYST;
