#N canvas 406 428 821 497 12;
#X obj 91 179 outlet;
#X obj 91 110 t b f;
#X obj 91 146 int;
#X msg 281 68 color 13 3 3;
#X obj 55 52 bng 8 250 50 0 \$0-bang_b \$0-bang_br empty 17 7 0 10
-62784 -228992 -228992;
#X obj 64 52 bng 8 250 50 0 \$0-bang_r \$0-bang_rr empty 17 7 0 10
-262144 -166441 -166441;
#X msg 187 102 color 0 1 1;
#X msg 280 103 color 0 1 1;
#X obj 180 30 r \$0-bang_b;
#X obj 284 29 r \$0-bang_r;
#X obj 188 137 s \$0-bang_br;
#X obj 278 137 s \$0-bang_rr;
#X msg 185 69 color 18 8 8;
#X msg 55 78 2;
#X msg 93 78 1;
#X connect 1 0 2 0;
#X connect 1 1 2 1;
#X connect 2 0 0 0;
#X connect 3 0 11 0;
#X connect 4 0 13 0;
#X connect 5 0 14 0;
#X connect 6 0 10 0;
#X connect 7 0 11 0;
#X connect 8 0 12 0;
#X connect 8 0 7 0;
#X connect 9 0 3 0;
#X connect 9 0 6 0;
#X connect 12 0 10 0;
#X connect 13 0 1 0;
#X connect 14 0 1 0;
#X coords 0 -1 1 1 32 16 2 48 48;
