#N canvas 0 0 942 1010 12;
#X obj 97 20 inlet;
#X obj 157 20 inlet;
#X obj 97 311 outlet;
#X obj 149 311 outlet;
#N canvas 573 55 774 633 op_add 0;
#X obj 134 95 +;
#X obj 134 61 t b f;
#X obj 77 24 inlet;
#X obj 134 24 inlet;
#X obj 77 61 int;
#X obj 166 155 outlet;
#X connect 0 0 5 0;
#X connect 1 0 4 0;
#X connect 1 1 0 1;
#X connect 2 0 4 0;
#X connect 3 0 1 0;
#X connect 4 0 0 0;
#X restore 97 48 pd op_add;
#X obj 200 200 cnv 15 23 23 empty empty empty 20 12 0 14 -233017 -66577
0;
#X floatatom 204 204 2 1 2 0 - #0-min_inflow-r #0-min_inflow;
#X obj 267 71 r \$0-min_inflow;
#X obj 97 145 min;
#X obj 97 173 select;
#N canvas 0 50 450 300 init 0;
#X obj 49 22 loadbang;
#X msg 49 47 2;
#X obj 49 72 s \$0-min_inflow-r;
#X connect 0 0 1 0;
#X connect 1 0 2 0;
#X restore 380 20 pd init;
#X obj 97 233 delay 30;
#X obj 213 19 inlet;
#N canvas 573 55 774 633 op_add 0;
#X obj 134 95 +;
#X obj 134 61 t b f;
#X obj 77 24 inlet;
#X obj 134 24 inlet;
#X obj 77 61 int;
#X obj 166 155 outlet;
#X connect 0 0 5 0;
#X connect 1 0 4 0;
#X connect 1 1 0 1;
#X connect 2 0 4 0;
#X connect 3 0 1 0;
#X connect 4 0 0 0;
#X restore 97 79 pd op_add;
#X connect 0 0 4 0;
#X connect 1 0 4 1;
#X connect 4 0 13 0;
#X connect 7 0 8 1;
#X connect 7 0 9 1;
#X connect 8 0 9 0;
#X connect 9 0 11 0;
#X connect 11 0 2 0;
#X connect 11 0 3 0;
#X connect 12 0 13 1;
#X connect 13 0 8 0;
#X coords 0 -1 1 1 24 24 2 200 200;
